<svg width="203" height="216" viewBox="0 0 203 216" fill="none" xmlns="http://www.w3.org/2000/svg"><path fill="#fff" d="M0 0h203v216H0z"/><rect x="30.222" y="31.556" width="6.79" height="93.974" rx="3.395" stroke="#099" stroke-width="3"/><rect x="164.985" y="53.17" width="6.79" height="93.974" rx="3.395" stroke="#099" stroke-width="3"/><rect x="157.499" y="62.035" width="6.215" height="56.293" rx="3.107" stroke="#099" stroke-width="3"/><rect x="86.087" y="62.035" width="6.215" height="56.293" rx="3.107" stroke="#099" stroke-width="3"/><rect x="149.434" y="62.035" width="6.215" height="56.293" rx="3.107" stroke="#099" stroke-width="3"/><rect x="78.022" y="62.035" width="6.215" height="56.293" rx="3.107" stroke="#099" stroke-width="3"/><rect x="141.947" y="62.035" width="5.639" height="56.293" rx="2.819" stroke="#099" stroke-width="3"/><rect x="70.535" y="62.035" width="5.639" height="56.293" rx="2.819" stroke="#099" stroke-width="3"/><rect x="133.886" y="62.035" width="6.215" height="56.293" rx="3.107" stroke="#099" stroke-width="3"/><rect x="62.474" y="62.035" width="6.215" height="56.293" rx="3.107" stroke="#099" stroke-width="3"/><rect x="125.825" y="62.035" width="6.215" height="56.293" rx="3.107" stroke="#099" stroke-width="3"/><rect x="54.409" y="62.035" width="6.215" height="56.293" rx="3.107" stroke="#099" stroke-width="3"/><rect x="117.76" y="62.035" width="6.215" height="56.293" rx="3.107" stroke="#099" stroke-width="3"/><rect x="46.348" y="62.035" width="6.215" height="56.293" rx="3.107" stroke="#099" stroke-width="3"/><rect x="109.695" y="62.035" width="6.215" height="56.293" rx="3.107" stroke="#099" stroke-width="3"/><rect x="38.283" y="62.035" width="6.215" height="56.293" rx="3.107" stroke="#099" stroke-width="3"/><rect x="93.573" y="68.684" width="14.853" height="43.547" rx="3.5" stroke="#099" stroke-width="3"/><path d="M13.113 119.681L7.99 9.231A5 5 0 0112.985 4h176.461a5 5 0 014.995 5.232l-5.122 110.449a82.002 82.002 0 01-43.472 68.634l-42.287 22.441a5 5 0 01-4.688 0l-42.287-22.441a82 82 0 01-43.472-68.634z" stroke="#099" stroke-width="3"/></svg>