<svg width="144" height="144" viewBox="0 0 144 144" fill="none" xmlns="http://www.w3.org/2000/svg"><path fill="#fff" d="M0 0h144v144H0z"/><rect x="4.597" y="14.637" width="135.323" height="117.392" rx="3.5" stroke="#099" stroke-width="3"/><rect x="16.271" y="109.653" width="30.851" height="12.344" rx="3.5" stroke="#099" stroke-width="3"/><path fill-rule="evenodd" clip-rule="evenodd" d="M124.893 28.142H19.623a2 2 0 00-2 2V95.87a2 2 0 002 2h105.27a2 2 0 002-2V30.142a2 2 0 00-2-2zm-105.27-3a5 5 0 00-5 5V95.87a5 5 0 005 5h105.27a5 5 0 005-5V30.142a5 5 0 00-5-5H19.623zm65.455 22.607c-1.037-2.723-4.753-3.06-6.264-.57L61.631 75.511c-2.646 4.36-9.054 4.115-11.357-.435L40.042 54.863c-1.184-2.337-4.421-2.594-5.958-.472l-5.38 7.427a6.5 6.5 0 01-5.264 2.688h-7.316a1.5 1.5 0 010-3h7.317a3.5 3.5 0 002.834-1.447l5.38-7.428c2.853-3.94 8.866-3.464 11.063.877L52.95 73.721c1.24 2.45 4.691 2.582 6.115.234L76.25 45.624c2.806-4.627 9.706-4 11.632 1.057l10.137 26.617c.988 2.594 4.457 3.061 6.096.821l7.28-9.951a6.5 6.5 0 015.246-2.663h11.753a1.5 1.5 0 010 3H116.64a3.5 3.5 0 00-2.825 1.434l-7.28 9.951c-3.043 4.16-9.486 3.293-11.32-1.524L85.078 47.749z" fill="#099"/><rect x="56.541" y="109.653" width="30.851" height="12.344" rx="3.5" stroke="#099" stroke-width="3"/><rect x="97.397" y="109.653" width="30.851" height="12.344" rx="3.5" stroke="#099" stroke-width="3"/></svg>