<svg width="114" height="142" viewBox="0 0 114 142" fill="none" xmlns="http://www.w3.org/2000/svg"><path d="M2.179 115.645V22.032a7 7 0 017-7h5.379V9.13a7 7 0 017-7h69.368a7 7 0 017 7v72.71a7 7 0 01-7 7h-5.631v26.806a7 7 0 01-7 7H9.179a7 7 0 01-7-7z" fill="#fff"/><path d="M67.358 15.032v0c.485 0 .949.196 1.288.542l16.288 16.638c.231.236.36.554.36.885v0M67.359 15.032v11.065a7 7 0 007 7h10.937M67.358 15.032h-52.8m70.737 18.065v55.742M14.558 15.032H9.179a7 7 0 00-7 7v93.613a7 7 0 007 7h69.116a7 7 0 007-7V88.839M14.558 15.032V9.13a7 7 0 017-7h69.368a7 7 0 017 7v72.71a7 7 0 01-7 7h-5.631" stroke="#099" stroke-width="3" stroke-linecap="round"/><path d="M19.863 91.936h48.253m-48.253 9.29h48.253m-48.253 9.548h48.253M49.42 67.677v0c.698 0 1.263.566 1.263 1.264v3.425a2.021 2.021 0 01-2.02 2.021v0m.757-6.71l5.266-7.324a13.265 13.265 0 00-1.431-17.162v0c-5.092-5.048-13.333-5.08-18.532-.144v0c-4.866 4.62-5.626 12.174-1.71 17.622l5.039 7.008m11.368 0h-3.537m-7.831 0v0c-.698 0-1.264.566-1.264 1.264v3.678c0 .977.792 1.768 1.769 1.768v0m-.505-6.71h3.284m-2.78 6.71v1.645a3 3 0 003 3h4.106a3 3 0 003-3v-1.645m-10.105 0h10.105m-7.326-6.71V53.69a3.03 3.03 0 00-.865-2.121l-.232-.236a2.714 2.714 0 00-3.875.005v0a2.7 2.7 0 00-.004 3.774v0a6.61 6.61 0 004.724 1.986h5.051a6.61 6.61 0 004.724-1.986v0a2.7 2.7 0 00-.004-3.774v0a2.714 2.714 0 00-3.875-.005l-.232.236a3.031 3.031 0 00-.865 2.12v13.99m-4.547 0h4.547M25.437 54.726h-3.569m43.99 0h-3.569" stroke="#099" stroke-width="3" stroke-linecap="round"/><path transform="scale(-.9893 -1.01058) rotate(45 32.853 -59.201)" stroke="#099" stroke-width="3" stroke-linecap="round" d="M1.5-1.5h3.639"/><path transform="scale(-.9893 -1.01058) rotate(45 53.282 -108.521)" stroke="#099" stroke-width="3" stroke-linecap="round" d="M1.5-1.5h3.639"/><path transform="scale(-.9893 -1.01058) rotate(-45 -94.3 6.533)" stroke="#099" stroke-width="3" stroke-linecap="round" d="M1.5-1.5h3.639"/><path transform="scale(-.9893 -1.01058) rotate(-45 -73.871 55.853)" stroke="#099" stroke-width="3" stroke-linecap="round" d="M1.5-1.5h3.639"/><path stroke="#099" stroke-width="3" stroke-linecap="round" d="M44.605 31.5v3.71"/><path d="M72.996 133.487l4.86-16.806a2 2 0 011.668-1.428l3.703-.473a2 2 0 011.759.668l4.935 5.646a2 2 0 01.44 1.78l-3.333 13.978c-.428 1.792-2.847 2.102-3.712.474l-1.362-2.564a2 2 0 00-2.733-.812l-3.338 1.843c-1.56.862-3.383-.594-2.887-2.306zm38.24-1.033l-4.861-16.805a1.998 1.998 0 00-1.667-1.428l-3.703-.473a2 2 0 00-1.76.668l-4.934 5.646a2 2 0 00-.44 1.78l3.333 13.977c.427 1.793 2.847 2.103 3.711.475l1.363-2.564a2 2 0 012.733-.812l3.337 1.843c1.561.861 3.383-.594 2.888-2.307z" fill="#fff" stroke="#099" stroke-width="3"/><path d="M102.811 88.226h0a6.562 6.562 0 003.543 3.597 3.558 3.558 0 012.15 3.745l-.012.095 1.487.195-1.487-.195a6.681 6.681 0 001.292 4.894 3.683 3.683 0 010 4.435 6.68 6.68 0 00-1.292 4.894l1.487-.195-1.487.195.012.095a3.56 3.56 0 01-2.15 3.745 6.562 6.562 0 00-3.543 3.596l1.372.553-1.372-.553-.037.091a3.443 3.443 0 01-3.662 2.126 6.443 6.443 0 00-4.862 1.322 3.45 3.45 0 01-4.268 0 6.443 6.443 0 00-4.863-1.322 3.444 3.444 0 01-3.662-2.126l-.036-.091a6.56 6.56 0 00-3.544-3.596 3.56 3.56 0 01-2.15-3.745l.013-.095a6.68 6.68 0 00-1.292-4.894 3.68 3.68 0 010-4.435 6.68 6.68 0 001.292-4.894l-.013-.095a3.56 3.56 0 012.15-3.745 6.56 6.56 0 003.544-3.597l-1.373-.552 1.373.552.036-.09a3.444 3.444 0 013.662-2.126 6.446 6.446 0 004.863-1.323 3.45 3.45 0 014.268 0 6.446 6.446 0 004.862 1.323 3.443 3.443 0 013.663 2.126l.036.09z" fill="#fff" stroke="#099" stroke-width="3"/><path d="M84.537 101.484l4.678 5.543a2 2 0 003.14-.106l7.592-10.34" stroke="#099" stroke-width="3" stroke-linecap="round"/></svg>