<svg width="144" height="144" viewBox="0 0 144 144" fill="none" xmlns="http://www.w3.org/2000/svg"><path fill="#fff" stroke="#099" stroke-width="3" d="M121.169 84.874l4.186 1.196-6.724 23.537-4.185-1.195z"/><path fill="#099" d="M106.236 117.677l.191 1.536-27.268 3.397-.191-1.536zM43.868 63.484l1.382.698-12.384 24.53-1.382-.698zm32.184-24.503l.775 1.34L53.03 54.066l-.774-1.34zm2.95 34.119l-.803 1.323L54.71 60.162l.804-1.323z"/><path fill="#fff" stroke="#099" stroke-width="3" d="M25.177 32.974l3.28-2.861 16.09 18.448-3.28 2.861z"/><circle cx="19.097" cy="23.742" r="10.371" fill="#fff" stroke="#099" stroke-width="3"/><circle cx="84.129" cy="35.613" r="10.371" fill="#fff" stroke="#099" stroke-width="3"/><circle cx="49.032" cy="55.226" r="10.371" fill="#fff" stroke="#099" stroke-width="3"/><circle cx="27.355" cy="92.903" r="10.371" fill="#fff" stroke="#099" stroke-width="3"/><circle cx="85.161" cy="75.871" r="10.371" fill="#fff" stroke="#099" stroke-width="3"/><circle cx="125.419" cy="74.838" r="10.371" fill="#fff" stroke="#099" stroke-width="3"/><circle cx="115.613" cy="117.677" r="10.371" fill="#fff" stroke="#099" stroke-width="3"/><circle cx="71.226" cy="119.742" r="10.371" fill="#fff" stroke="#099" stroke-width="3"/></svg>