<svg width="950" height="293" viewBox="0 0 950 293" fill="none" xmlns="http://www.w3.org/2000/svg"><g opacity=".4" fill="#099"><path d="M314.431 251.906c-32.266-7.491 83.815-44.329 206.745-83.337 120.367-38.199 244.22-77.531 244.22-94.094.568-2.078-2.444-4.125-8.402-5.711-36.089-8.662-190.612 6.663-472.476 46.966-324.55 46.366-509.532 63.252-565.241 51.592-5.717-1.216-10.117-2.714-12.856-4.379v1.066c2.794 1.365 6.732 2.593 11.595 3.617 56.55 11.804 242.246-5.064 567.762-51.563 280.94-40.131 434.707-55.514 470.124-47.033 43.693 10.471-98.562 55.638-236.113 99.291-123.391 39.151-239.935 76.151-206.535 83.88 27.561 6.397 150.49-7.539 386.896-43.863 94.235-14.468 177.715-25.929 249.641-34.267v-.533c-71.926 8.325-155.476 19.805-250.649 34.439-232.457 35.733-358.075 50.069-384.711 43.929z"/><path d="M311.279 253.096c-32.938-7.663 79.824-43.967 199.519-82.404 134.189-43.159 273.083-87.783 227.374-98.749-36.762-8.852-190.067 5.807-468.696 44.815-320.684 44.891-504.154 60.921-561.291 49.06-.673-.133-1.261-.276-1.891-.419v.59l.63.143c57.684 12.022 242.036-4.007 563.518-49.012 277.747-38.885 430.296-53.563 466.343-44.89 44.534 10.717-93.815 55.208-227.542 98.214-120.03 38.59-233.339 75.037-199.351 82.947 28.107 6.53 149.902-6.853 383.368-42.121 97.217-14.678 182.966-26.11 256.278-34.191v-.524c-73.41 8.072-159.215 19.53-257.413 34.373-229.222 34.686-353.874 48.441-380.846 42.168z"/><path d="M255.318 118.062c274.806-37.61 426.052-51.602 462.813-42.72 45.374 10.946-89.067 54.78-219.055 97.177-116.669 38.075-226.869 73.961-192.208 82.033 28.652 6.663 149.355-6.159 379.922-40.379 100.116-14.849 188.091-26.234 262.874-34.02v-.514c-74.783 7.767-162.744 19.161-263.883 34.182-226.533 33.62-350.051 46.842-377.569 40.436-33.61-7.815 76.169-43.606 192.377-81.5 112.468-36.676 228.255-74.428 228.255-91.305.67-2.325-2.674-4.619-9.326-6.396-37.476-9.053-189.604 4.911-465.167 42.682-301.61 41.331-481.299 57.113-548.057 48.08v.485c68.313 8.824 248.254-6.996 549.024-48.241z"/><path d="M305.271 255.409c-34.24-7.986 72.388-43.272 185.319-80.624 126.711-41.93 257.749-85.28 210.526-96.702-38.189-9.242-189.058 4.027-461.763 40.56-283.04 37.942-457.94 53.305-533.059 46.842v.438c76.001 6.397 251.573-9.053 533.941-46.909C511.932 82.595 662.212 69.297 699.73 78.378c46.214 11.175-84.446 54.391-210.737 96.14-113.434 37.504-220.399 72.934-185.108 81.167 14.116 3.284 49.197 2.075 107.301-3.722 63.019-6.273 151.246-17.705 269.386-34.934 102.889-14.992 192.965-26.281 268.882-33.734v-.505c-76.099 7.438-166.133 18.733-270.1 33.887-223.593 32.621-346.018 45.281-374.083 38.732z"/><path d="M225.321 119.851C494.203 84.631 643.39 72.029 681.622 81.31c47.012 11.422-79.824 54.019-202.418 95.188-110.115 36.981-214.265 71.915-178.176 80.31 14.368 3.36 49.365 2.313 107.007-3.217 62.473-5.988 149.649-17.02 266.571-33.725 105.62-15.088 197.754-26.253 275.058-33.316v-.505c-77.332 7.063-169.354 18.219-276.066 33.468-221.156 31.603-342.573 43.711-371.226 37.019-34.87-8.158 68.691-42.949 178.387-79.787 104.78-35.219 212.627-71.391 212.627-88.6 0-2.99-3.277-5.407-10.419-7.14-38.904-9.442-189.058 3.132-458.571 38.466-266.823 34.962-437.311 49.878-518.102 45.233v.419c81.799 4.559 252.455-10.376 519.027-45.272z"/><path d="M210.406 120.623c266.109-34.01 414.373-45.938 453.319-36.448 47.894 11.66-75.203 53.667-194.226 94.284-106.88 36.476-207.837 70.963-171.244 79.53 14.662 3.427 49.575 2.532 106.755-2.732 61.969-5.711 148.263-16.344 263.84-32.526 108.225-15.154 202.376-26.148 280.814-32.811v-.505c-78.564 6.664-172.253 17.62-281.78 32.955-218.467 30.603-339.044 42.158-368.285 35.324-35.542-8.329 64.994-42.644 171.455-79.006 101.041-34.487 205.022-69.964 205.022-87.278 0-3.151-3.445-5.712-10.965-7.53-39.66-9.652-188.68 2.247-455.629 36.372-252.077 32.249-418.07 46.585-503.188 43.434v.409c85.958 3.103 252.077-11.251 504.112-43.472z"/><path d="M296.911 258.788c-36.258-8.51 61.338-42.368 164.648-78.206 97.344-33.773 197.46-68.536 197.46-85.955 0-3.322-3.613-6.016-11.553-7.948-40.375-9.871-188.512 1.342-452.815 34.267-238.927 29.775-400.046 43.501-488.357 41.521v.4c89.025 1.904 250.439-11.784 489.282-41.55 263.42-32.84 410.801-44.081 450.503-34.372 48.735 11.908-70.623 53.305-186.075 93.389-103.729 35.981-201.661 69.982-164.438 78.721 14.957 3.503 49.785 2.77 106.545-2.237 61.548-5.426 147.045-15.668 261.236-31.336 110.788-15.23 206.787-25.977 286.317-32.193v-.504c-79.824 6.206-175.194 16.972-287.284 32.364-216.282 29.622-335.64 40.626-365.469 33.639z"/><path d="M294.348 259.893c-36.972-8.691 57.641-42.093 157.842-77.455 93.689-33.078 190.066-67.089 190.066-84.66 0-3.484-3.781-6.33-12.184-8.387-41.13-10.09-188.385.448-450.209 32.222-226.618 27.5-382.989 40.578-473.569 39.522v.4c91.21 1.037 247.876-12.051 474.451-39.551 260.942-31.66 407.525-42.235 447.941-32.307 49.617 12.165-66.128 53.02-178.051 92.533-100.62 35.505-195.611 69.049-157.632 77.968 15.209 3.579 49.996 3.008 106.335-1.742 61.128-5.14 145.743-15.002 258.757-30.155 113.014-15.154 210.988-25.701 291.569-31.47v-.447c-80.833 5.711-178.975 16.325-292.493 31.555-213.762 28.642-332.448 39.103-362.823 31.974z"/><path d="M291.869 260.968c-37.811-8.871 54.029-41.883 151.246-76.74 108.856-39.113 221.366-79.549 169.942-92.21-42.013-10.318-188.385-.447-447.773 30.156-215.19 25.397-366.856 37.771-458.99 37.486v.399c92.68.295 244.64-12.127 459.705-37.513 258.547-30.508 404.289-40.398 445.546-30.251 50.415 12.431-61.675 52.734-170.11 91.714-97.512 35.038-189.604 68.145-150.91 77.254 15.46 3.646 50.205 3.237 106.208-1.256 60.709-4.864 144.566-14.345 256.278-28.995 115.452-15.134 215.022-25.415 296.569-30.65v-.438c-81.799 5.235-181.663 15.544-297.493 30.727-211.366 27.7-329.212 37.618-360.218 30.317z"/><path d="M289.433 262.044c-38.399-9.062 50.416-41.597 144.524-76.046 86.547-31.707 175.572-64.299 175.572-82.09 0-3.865-4.201-7.034-13.57-9.338-42.685-10.537-188.428-1.352-445.336 28.109-204.183 23.397-351.059 35.144-444.118 35.439v.399c93.563-.304 240.734-12.06 444.958-35.457 256.278-29.366 401.265-38.59 443.362-28.204 51.339 12.688-57.222 52.458-162.254 90.914-94.445 34.591-183.68 67.269-144.272 76.56 15.797 3.721 50.415 3.474 106.124-.752 60.331-4.588 143.474-13.698 254.094-27.843 117.636-15.049 218.887-25.025 301.358-29.737v-.428c-82.723 4.702-184.268 14.707-302.492 29.794-209.224 26.757-326.314 36.133-357.95 28.68z"/><path d="M287.122 263.1c-39.114-9.243 46.886-41.369 137.928-75.389 83.101-31.031 168.513-62.929 168.471-80.815 0-4.055-4.201-7.405-14.242-9.842-43.525-10.785-188.596-2.256-443.488 26.062-193.889 21.542-336.102 32.621-429.497 33.383v.4c93.899-.771 236.322-11.851 430.296-33.402 254.093-28.223 398.407-36.78 441.134-26.157 52.264 12.955-52.81 52.201-154.439 90.152-91.42 34.154-177.798 66.422-137.676 75.903 16.091 3.808 50.794 3.722 106.082-.257 59.995-4.312 142.382-13.05 252.077-26.653 119.737-14.925 222.669-24.577 305.896-28.727v-.429c-83.606 4.141-186.705 13.812-306.694 28.785-207.207 25.768-323.583 34.611-355.848 26.986z"/><path d="M284.895 264.157c-39.87-9.452 43.315-41.169 131.416-74.761 98.604-37.599 200.569-76.474 146.457-89.933-44.324-11.023-188.764-3.16-441.639 24.025-184.058 19.799-321.44 30.203-414.835 31.345v.353c93.815-1.133 231.449-11.547 415.633-31.355 252.077-27.11 395.761-35.001 439.454-24.13 53.189 13.221-48.398 51.963-146.666 89.476-88.479 33.735-172.043 65.594-131.165 75.266 33.611 7.957 149.986-.334 355.933-25.33 121.838-14.764 225.945-24.054 310.181-27.605v-.428c-84.488 3.57-189.058 12.87-310.895 27.681-205.275 24.872-320.978 33.192-353.874 25.396z"/><path d="M634.526 241.398c-203.132 23.977-318.205 31.764-351.774 23.797-40.626-9.653 39.786-40.979 124.946-74.162 76.296-29.717 154.65-60.244 154.65-78.282 0-4.493-4.874-8.215-15.839-10.947-45.164-11.28-189.058-4.083-439.959 21.989-174.731 18.162-307.366 27.899-400.256 29.318v.409c93.269-1.428 226.197-11.166 401.013-29.337 250.06-25.987 393.24-33.22 437.815-22.103 54.071 13.507-44.113 51.754-139.02 88.744-85.538 33.316-166.287 64.785-124.694 74.666 34.24 8.119 150.028.361 354-23.721 123.392-14.564 229.054-23.455 314.088-26.444v-.418h-.462c-85.076 2.989-190.949 11.908-314.508 26.491z"/><path d="M630.703 244.034c-201.284 23.073-315.769 30.327-350.009 22.188-41.383-9.852 36.299-40.807 118.56-73.58 72.934-29.08 147.675-58.931 147.675-77.036 0-4.76-5.084-8.643-16.805-11.537-46.004-11.537-189.436-4.997-438.488 19.99-165.699 16.619-293.544 25.7-385.636 27.338v.409c92.428-1.637 220.525-10.728 386.518-27.357 248.212-24.882 390.93-31.412 436.346-20.066 55.036 13.783-39.745 51.545-131.417 88.078-82.597 32.916-160.615 64.004-118.266 74.085 34.871 8.291 150.07 1.066 352.194-22.103 121.417-13.935 225.903-22.341 310.475-24.996 2.646-.086 5.251-.153 7.898-.219v-.429c-2.731.077-5.42.143-8.15.229-84.782 2.665-189.352 11.08-310.895 25.006z"/><path d="M627.132 246.661c-199.519 22.17-313.458 28.899-348.371 20.58-42.013-10.052 32.77-40.645 112.132-73.038 69.7-28.433 141.205-57.617 141.205-75.77 0-4.959-5.335-9.1-17.561-12.165-46.886-11.794-189.898-5.92-437.186 17.943-157.043 15.154-280.141 23.597-371.057 25.377v.41c91.21-1.78 214.56-10.224 371.772-25.396 246.489-23.798 388.828-29.7 435.085-18.086 55.961 14.059-35.459 51.401-123.896 87.44-79.825 32.535-154.986 63.262-111.838 73.542 35.542 8.472 150.195 1.77 350.555-20.494 119.358-13.269 222.416-21.179 306.399-23.512 5.168-.142 10.251-.266 15.293-.371v-.352c-5.126.105-10.293.219-15.545.371-84.152 2.313-187.461 10.233-306.987 23.521z"/><path d="M623.771 249.269c-197.839 21.275-311.315 27.49-346.9 18.981-42.979-10.271 29.409-40.503 105.83-72.524 66.464-27.795 134.441-56.323 134.441-74.504 0-5.216-5.587-9.576-18.485-12.822-47.769-12.07-190.403-6.853-436.094 15.916-148.767 13.792-267.033 21.598-356.479 23.473v.409c89.74-1.903 208.258-9.69 357.11-23.492 244.892-22.693 386.854-27.938 434.034-16.03 56.886 14.364-31.215 51.211-116.417 86.85-76.842 32.154-149.482 62.519-105.579 73.009 36.257 8.662 150.448 2.485 349.085-18.885 117.384-12.632 219.223-20.056 302.492-22.084 7.605-.181 15.041-.314 22.393-.409v-.419c-7.436.095-14.914.228-22.603.409-83.185 2.028-185.234 9.472-302.828 22.122z"/><path d="M482.019 110.742c57.81 14.65-27.014 51.068-109.233 86.279-73.733 31.792-143.768 61.815-98.94 72.514 36.929 8.843 150.7 3.189 347.74-17.296 115.451-12.003 216.072-18.961 299.005-20.665 9.957-.21 19.704-.333 29.409-.39v-.429c-9.621.057-19.41.181-29.409.39-83.143 1.714-183.932 8.682-299.593 20.704-196.578 20.418-309.635 26.129-345.934 17.4-43.778-10.47 25.838-40.379 99.57-72.029 82.303-35.371 167.421-71.895 108.772-86.773-48.693-12.374-191.033-7.786-435.211 13.897-140.701 12.499-254.22 19.695-341.901 21.608v.419c87.975-1.904 201.662-9.119 342.573-21.627 243.38-21.607 385.047-26.195 433.152-14.002z"/><path d="M617.72 254.438c-194.688 19.523-307.366 24.692-344.505 15.801-44.618-10.699 22.393-40.264 93.352-71.571 60.163-26.539 121.838-53.772 121.838-71.972 0-5.711-6.176-10.604-20.461-14.278-49.617-12.622-191.746-8.739-434.539 11.879-132.886 11.28-241.615 17.876-327.28 19.799v.419c85.917-1.904 194.856-8.567 327.953-19.828 241.994-20.541 383.451-24.463 432.438-11.984 58.818 14.954-22.771 50.935-101.671 85.736-71.422 31.412-138.643 61.13-93.059 72.048 37.812 9.043 151.036 3.903 346.522-15.706 113.435-11.423 212.963-17.876 295.393-19.276 12.267-.209 24.157-.295 35.794-.285v-.419c-11.679 0-23.611.067-35.92.276-82.472 1.447-182.042 7.948-295.855 19.361z"/><path d="M907.525 239.046c-82.135 1.104-180.655 7.148-292.493 17.952-193.259 18.657-305.56 23.302-343.371 14.212-45.374-10.918 19.032-40.16 87.177-71.125 57.137-25.929 115.661-52.515 115.661-70.706 0-6.025-6.428-11.137-21.511-14.992-50.415-12.907-192.503-9.69-433.992 9.852-125.367 10.147-229.264 16.182-312.702 18.086v.409c83.648-1.904 187.797-7.91 313.332-18.086 240.691-19.475 381.98-22.74 431.976-9.966 59.7 15.23-18.654 50.821-94.403 85.222-68.481 31.098-133.181 60.473-86.883 71.61 38.4 9.234 151.247 4.617 345.472-14.116 132.677-12.812 243.254-18.828 333.876-18.086v-.362a1872.601 1872.601 0 00-42.139.096z"/><path d="M901.601 242.939c-81.631.809-178.89 6.397-289.006 16.61-191.915 17.801-303.963 21.894-342.489 12.632-46.214-11.147 15.587-40.084 81.043-70.715 54.071-25.311 109.528-51.259 109.528-69.411 0-6.33-6.723-11.718-22.645-15.792-51.508-13.212-193.259-10.652-433.657 7.824-118.056 9.072-217.122 14.526-298.081 16.363v.457c81.169-1.837 180.445-7.291 298.67-16.382 239.473-18.419 380.72-21.017 431.681-7.948 60.667 15.563-14.494 50.735-87.176 84.717-65.75 30.765-127.845 59.826-80.707 71.192 39.114 9.433 151.834 5.34 344.505-12.537 133.517-12.374 244.893-17.876 336.397-16.543v-.343a1959.167 1959.167 0 00-48.063-.124z"/><path d="M895.973 246.804c-81.169.514-177.252 5.654-285.688 15.287-190.654 16.943-302.492 20.551-341.774 11.051-47.054-11.422 12.184-39.979 74.951-70.325 51.129-24.701 103.561-50.012 103.561-68.126 0-6.663-7.058-12.317-23.821-16.629-52.516-13.517-194.309-11.623-433.53 5.797-110.956 8.081-205.191 12.983-283.461 14.735v.409c78.48-1.751 172.883-6.663 284.007-14.754 238.465-17.353 379.628-19.295 431.556-5.921 61.633 15.878-10.335 50.659-79.825 84.299-63.019 30.46-122.551 59.207-74.614 70.791 39.912 9.652 152.338 6.064 343.791-10.946 134.441-11.927 246.279-16.887 338.623-14.945v-.362a1981.914 1981.914 0 00-53.776-.361z"/><path d="M608.353 264.652c-189.478 16.096-301.064 19.19-341.145 9.471-47.936-11.613 8.781-39.979 68.901-69.973 66.843-33.392 135.996-67.926 72.557-84.318-53.483-13.821-195.318-12.593-433.615 3.808-103.982 7.139-193.259 11.527-268.882 13.174v.419c75.623-1.647 165.152-6.035 269.302-13.193 237.541-16.306 378.704-17.572 431.682-3.884 62.599 16.182-6.26 50.593-72.892 83.861-60.331 30.146-117.342 58.617-68.565 70.439 40.668 9.852 152.927 6.787 343.203-9.366 134.735-11.423 247.455-15.887 340.64-13.327v-.438a1977.125 1977.125 0 00-59.028-.695c-80.539.229-175.53 4.931-282.158 14.022z"/><path d="M606.588 267.146c-188.386 15.23-299.846 17.829-340.724 7.891-48.819-11.851 5.42-39.922 63.019-69.639 63.86-33.04 129.904-67.203 65.54-83.909-54.616-14.145-196.452-13.583-433.909 1.723-97.161 6.276-181.845 10.176-254.051 11.699v.419c72.514-1.536 157.38-5.439 254.598-11.708 236.658-15.231 378.115-15.868 431.934-1.904 63.607 16.505-2.185 50.545-65.792 83.47-57.684 29.842-112.175 58.065-62.558 70.087 41.467 10.081 153.599 7.53 342.699-7.786 135.198-10.937 248.464-14.83 342.489-11.689v-.362a2002.536 2002.536 0 00-64.07-1.057c-80.37-.009-174.269 4.265-279.175 12.765z"/><path d="M604.99 269.658c-187.335 14.412-298.669 16.478-340.304 6.311-49.659-12.088 2.101-39.893 56.885-69.325 42.601-22.845 86.211-46.281 86.211-64.119 0-7.662-8.067-14.278-27.687-19.409-55.835-14.478-197.796-14.573-434.497-.295-90.579 5.458-170.404 8.888-239.473 10.29v.419c69.406-1.428 149.412-4.87 240.02-10.328 235.944-14.221 377.401-14.154 432.438.19 64.574 16.83 1.848 50.507-58.818 83.09-55.037 29.566-107.007 57.484-56.507 69.783 42.265 10.289 154.271 8.262 342.404-6.207 135.45-10.423 249.178-13.764 344.043-10.052v-.361a1995.2 1995.2 0 00-68.817-1.447c-79.782-.343-172.588 3.512-275.898 11.46z"/><path d="M603.646 272.162c-186.411 13.574-297.703 15.125-340.304 4.759-50.415-12.374-1.26-39.883 50.92-69.04 39.87-22.264 80.664-45.043 80.622-62.748 0-8.034-8.402-15.02-29.072-20.437-56.634-14.811-198.931-15.591-435.043-2.379-84.026 4.712-158.809 7.691-224.517 8.957v.419c65.82-1.269 140.813-4.255 224.979-8.957 235.272-13.174 377.023-12.441 433.152 2.237 65.582 17.133 5.882 50.449-51.844 82.747-52.432 29.289-101.923 56.951-50.415 69.487 43.147 10.518 155.069 9.005 342.236-4.626 135.576-9.871 249.767-12.679 345.43-8.405v-.353a2013.895 2013.895 0 00-73.27-1.903c-79.405-.6-171.161 2.836-272.874 10.242z"/><path d="M602.554 274.666c-185.571 12.745-296.863 13.773-340.304 3.15-51.466-12.593-4.579-39.883 44.996-68.783 55.037-32.04 111.922-65.175 44.617-82.813-57.725-15.164-200.317-16.62-435.925-4.445-68.98 3.697-139.041 6.27-209.644 7.7v.419c70.746-1.427 140.948-4.004 210.064-7.71 234.852-12.127 376.855-10.718 434.077 4.312 66.59 17.476 9.915 50.45-44.912 82.414-49.827 29.023-96.881 56.437-44.617 69.221 43.945 10.756 155.867 9.766 342.194-3.037 135.576-9.309 250.103-11.565 346.564-6.749v-.381a2041.319 2041.319 0 00-77.43-2.36c-78.816-.857-169.563 2.18-269.68 9.062z"/><path d="M336.613 127.914c67.598 17.81 13.906 50.507-38.064 82.119-47.264 28.775-91.882 55.951-38.694 68.983 44.828 10.994 156.792 10.47 342.279-1.447 135.491-8.739 250.312-10.471 347.53-5.112v-.371a2043.687 2043.687 0 00-81.253-2.761c-78.395-1.161-168.051 1.476-266.781 7.834-184.857 11.927-296.107 12.432-340.304 1.571-52.39-12.841-7.941-39.903 39.114-68.536 52.138-31.735 106.04-64.547 37.811-82.547-58.818-15.515-201.661-17.648-436.933-6.52-64.205 3.147-129.256 5.332-194.73 6.539v.429c65.601-1.214 130.778-3.405 195.108-6.559 234.18-11.089 376.351-9.014 434.917 6.378z"/><path d="M322.958 129.313c68.565 18.086 17.814 50.526-31.257 81.862-44.702 28.557-86.925 55.476-32.854 68.764 45.71 11.232 157.758 11.28 342.573.143 135.239-8.158 250.27-9.338 348.244-3.494v-.371A2110.036 2110.036 0 00864.882 273c-77.976-1.428-166.791.819-263.925 6.663-184.1 11.099-295.56 11.09-340.766 0-53.314-13.107-11.259-39.979 33.275-68.335 49.239-31.413 100.2-63.938 30.879-82.272-60.036-15.867-203.384-18.685-438.278-8.566a6529.78 6529.78 0 01-179.773 5.454v.428a6550.249 6550.249 0 00180.109-5.464c234.18-10.118 376.981-7.348 436.555 8.405z"/><path d="M600.495 282.138c-183.47 10.28-295.098 9.747-341.186-1.609-54.28-13.326-14.62-39.979 27.392-68.145 29.409-19.799 59.659-40.027 59.659-56.923 0-9.69-9.915-18.295-35.543-25.091-61.213-16.239-205.107-19.742-439.791-10.709a6667.531 6667.531 0 01-164.732 4.465v.418a6637.23 6637.23 0 00165.026-4.464c234.012-9.014 377.318-5.559 438.068 10.566 69.616 18.476 21.805 50.564-24.451 81.605-42.013 28.29-82.009 55.018-27.014 68.535 46.634 11.47 158.766 12.08 343.034 1.761 134.021-7.501 249.767-8.138 348.707-1.827v-.448c-99.108-6.292-214.98-5.645-349.169 1.866z"/><path d="M600.244 284.642c-182.924 9.452-294.72 8.405-341.816-3.208-55.205-13.631-17.898-40.036 21.594-67.993 27.099-19.161 54.617-38.732 54.617-55.361 0-10.157-10.335-19.209-37.35-26.415-62.473-16.62-206.87-20.817-441.513-12.822-53.468 1.828-103.337 3.015-149.607 3.56v.419c46.382-.552 96.335-1.739 149.86-3.56 233.97-7.967 377.821-3.807 439.832 12.679 70.666 18.809 25.712 50.612-17.729 81.377-39.661 28.07-77.136 54.59-21.007 68.392 47.559 11.746 159.943 12.832 343.581 3.341 133.601-6.901 249.388-7.015 349.001-.238v-.447c-99.823-6.768-215.778-6.644-349.463.276z"/><path d="M600.244 287.107c-182.503 8.643-294.552 7.072-342.614-4.807-56.171-13.888-21.217-40.094 15.797-67.841 40.836-30.603 83.059-62.244 10.671-81.567-63.692-17.01-208.72-21.893-443.404-14.954-47.614 1.409-92.428 2.326-134.441 2.751v.429c42.013-.432 86.827-1.352 134.441-2.761 234.012-6.93 378.536-2.085 441.765 14.802 71.716 19.152 29.661 50.678-11.007 81.176-37.181 27.862-72.262 54.181-15.377 68.25 48.525 11.994 161.119 13.612 344.505 4.94 132.971-6.292 248.8-5.882 349.043 1.323v-.447c-100.201-7.196-216.324-7.567-349.379-1.294z"/></g></svg>