<svg width="213" height="48" viewBox="0 0 213 48" fill="none" xmlns="http://www.w3.org/2000/svg">
<path d="M15.9044 3.21953C19.4166 3.21953 22.92 3.17855 26.4322 3.4683C32.5346 3.97757 37.3844 6.9805 40.9961 11.8742C43.7736 15.6381 45.0146 19.9024 44.9414 24.6088C44.8448 30.7551 44.8887 36.9015 44.9414 43.0478C44.9414 44.3327 44.6487 44.842 43.2439 44.8244C37.0039 44.7483 30.7609 44.8244 24.5122 44.7834C17.8214 44.7454 12.237 42.2371 7.94046 37.0771C5.08387 33.6468 3.41265 29.64 3.31021 25.1795C3.15216 18.3073 3.26924 11.4234 3.21948 4.55123C3.21948 3.34245 3.84582 3.21659 4.78241 3.21952C8.4907 3.23708 12.1961 3.21953 15.9044 3.21953ZM6.48875 16.7122C6.47119 20.4997 6.4068 24.2371 7.07704 27.8868C7.7516 31.4331 9.57004 34.6606 12.2539 37.0748C14.9377 39.489 18.3389 40.9569 21.9366 41.2537C28.0536 41.6927 34.2292 41.4732 40.358 41.5463C41.4936 41.5463 41.6868 40.9024 41.6809 39.9278C41.6517 34.8527 41.7775 29.7776 41.6136 24.7083C41.5295 22.4404 41.1497 20.1931 40.4839 18.0234C38.5492 11.6751 32.2887 6.93659 25.5863 6.60879C19.6478 6.31611 13.6858 6.52977 7.73265 6.49172C6.78729 6.49172 6.45656 6.83415 6.47119 7.78245C6.52095 10.762 6.48875 13.7385 6.48875 16.7122Z" fill="white"/>
<path d="M10.2732 23.9444C10.0274 16.4869 16.9288 10.1181 24.1376 10.1883C31.5308 10.2673 37.9991 16.4137 37.9581 24.0527C37.9201 31.5952 31.6069 37.8761 24.041 37.8088C16.4108 37.7356 10.0566 31.4108 10.2732 23.9444ZM24.0703 34.402C30.4098 34.7298 34.7796 29.1659 34.7357 23.9327C34.6918 18.401 30.0322 13.5044 24.1259 13.4371C18.4449 13.3727 13.4927 18.4625 13.4488 23.9591C13.4079 29.2215 18.1962 34.8117 24.0703 34.402Z" fill="white"/>
<path d="M17.2302 23.9473C17.04 20.9239 20.04 17.1249 24.1727 17.1775C28.2293 17.2302 31.1122 20.8917 31.0039 23.9971C30.8634 28.1707 27.7463 30.878 24.0498 30.881C20.438 30.881 17.3005 28.0946 17.2302 23.9473ZM24.082 27.4244C26.1307 27.4244 27.7698 25.9229 27.7668 24.0058C27.7639 22.0888 26.0488 20.4497 24.1083 20.4497C23.1549 20.4536 22.2414 20.833 21.5659 21.5058C20.8903 22.1786 20.5072 23.0905 20.4995 24.0439C20.5376 25.5688 21.7288 27.5414 24.082 27.4244Z" fill="white"/>
<path d="M64.64 3.2H67.4V20H64.64V12.728H57.44V20H54.68V3.2H57.44V10.088H64.64V3.2ZM73.5181 17.36H80.9581V20H70.7581V3.2H80.8381V5.84H73.5181V10.208H80.2381V12.824H73.5181V17.36ZM97.3841 17.792C95.7041 19.472 93.6481 20.312 91.2161 20.312C88.7841 20.312 86.7201 19.472 85.0241 17.792C83.3441 16.096 82.5041 14.032 82.5041 11.6C82.5041 9.168 83.3441 7.112 85.0241 5.432C86.7201 3.736 88.7841 2.888 91.2161 2.888C93.6481 2.888 95.7041 3.736 97.3841 5.432C99.0801 7.112 99.9281 9.168 99.9281 11.6C99.9281 14.032 99.0801 16.096 97.3841 17.792ZM86.9681 15.92C88.1201 17.056 89.5361 17.624 91.2161 17.624C92.8961 17.624 94.3041 17.056 95.4401 15.92C96.5921 14.768 97.1681 13.328 97.1681 11.6C97.1681 9.872 96.5921 8.44 95.4401 7.304C94.3041 6.152 92.8961 5.576 91.2161 5.576C89.5361 5.576 88.1201 6.152 86.9681 7.304C85.8321 8.44 85.2641 9.872 85.2641 11.6C85.2641 13.328 85.8321 14.768 86.9681 15.92ZM64.76 44V32.6L56.84 44H54.68V27.2H57.44V38.6L65.36 27.2H67.52V44H64.76ZM80.8353 27.2H83.5953V44H80.8353V36.728H73.6353V44H70.8753V27.2H73.6353V34.088H80.8353V27.2ZM106.177 44H103.081L97.2974 36.128V44H94.5374V36.128L88.7534 44H85.6334L91.9214 35.408L85.8734 27.2H88.9934L94.5374 34.832V27.2H97.2974V34.832L102.841 27.2H105.937L99.9134 35.408L106.177 44ZM118.291 44V32.6L110.371 44H108.211V27.2H110.971V38.6L118.891 27.2H121.051V44H118.291ZM134.367 27.2H137.127V44H134.367V36.728H127.167V44H124.407V27.2H127.167V34.088H134.367V27.2ZM150.565 44V32.6L142.645 44H140.485V27.2H143.245V38.6L151.165 27.2H153.325V44H150.565ZM162.872 27.2C164.456 27.2 165.776 27.728 166.832 28.784C167.904 29.84 168.44 31.152 168.44 32.72C168.44 34.272 167.904 35.584 166.832 36.656C165.776 37.712 164.456 38.24 162.872 38.24H159.44V44H156.68V27.2H162.872ZM162.872 35.648C163.688 35.648 164.36 35.376 164.888 34.832C165.416 34.272 165.68 33.568 165.68 32.72C165.68 31.872 165.416 31.176 164.888 30.632C164.36 30.072 163.688 29.792 162.872 29.792H159.44V35.648H162.872ZM180.916 44V32.6L172.996 44H170.836V27.2H173.596V38.6L181.516 27.2H183.676V44H180.916ZM196.992 27.2H199.752V44H196.992V36.728H189.792V44H187.032V27.2H189.792V34.088H196.992V27.2ZM212.59 27.2V29.84H205.87V44H203.11V27.2H212.59Z" fill="white"/>
</svg>
