<svg width="109" height="36" viewBox="0 0 109 36" fill="none" xmlns="http://www.w3.org/2000/svg">
<path d="M11.9277 2.41483C14.5619 2.41483 17.1894 2.38409 19.8236 2.60141C24.4004 2.98336 28.0377 5.23556 30.7465 8.9058C32.8297 11.7287 33.7604 14.927 33.7055 18.4568C33.6331 23.0665 33.666 27.6763 33.7055 32.286C33.7055 33.2497 33.486 33.6317 32.4324 33.6185C27.7524 33.5614 23.0702 33.6185 18.3836 33.5877C13.3655 33.5592 9.17723 31.678 5.95479 27.808C3.81235 25.2353 2.55894 22.2302 2.48211 18.8848C2.36357 13.7307 2.45138 8.56775 2.41406 3.4136C2.41406 2.50702 2.88382 2.41263 3.58626 2.41482C6.36748 2.42799 9.1465 2.41483 11.9277 2.41483ZM4.86601 12.5343C4.86601 15.3042 4.80455 18.178 5.30723 20.9153C5.81315 23.575 7.17698 25.9956 9.18984 27.8063C11.2027 29.6169 13.7536 30.7179 16.4519 30.9404C21.0397 31.2697 25.6714 31.1051 30.268 31.1599C31.1197 31.1599 31.2645 30.677 31.2602 29.946C31.2382 26.1397 31.3326 22.3334 31.2097 18.5314C31.1465 16.8304 30.8617 15.145 30.3624 13.5177C28.9114 8.75653 24.216 5.20263 19.1892 4.95678C14.7353 4.73726 10.2638 4.89751 5.79894 4.86897C5.08992 4.86897 4.84187 5.1258 4.85284 5.83702C4.89016 8.07165 4.86601 10.3041 4.86601 12.5343Z" fill="#484848"/>
<path d="M7.704 17.9585C7.51961 12.3653 12.6957 7.58874 18.1023 7.64142C23.6472 7.70069 28.4984 12.3104 28.4677 18.0397C28.4391 23.6965 23.7042 28.4073 18.0299 28.3568C12.3072 28.3019 7.54156 23.5583 7.704 17.9585ZM18.0518 25.8017C22.8064 26.0475 26.0838 21.8746 26.0508 17.9497C26.0179 13.8009 22.5233 10.1285 18.0935 10.078C13.8328 10.0297 10.1186 13.847 10.0857 17.9695C10.055 21.9163 13.6462 26.109 18.0518 25.8017Z" fill="#484848"/>
<path d="M12.9205 17.9607C12.7778 15.6931 15.0278 12.8438 18.1273 12.8833C21.1698 12.9229 23.3319 15.669 23.2507 17.998C23.1454 21.1282 20.8076 23.1587 18.0351 23.1609C15.3263 23.1609 12.9732 21.0711 12.9205 17.9607ZM18.0593 20.5685C19.5959 20.5685 20.8251 19.4424 20.8229 18.0046C20.8207 16.5668 19.5344 15.3375 18.079 15.3375C17.364 15.3404 16.6789 15.6249 16.1722 16.1295C15.6656 16.6341 15.3782 17.3181 15.3724 18.0331C15.401 19.1768 16.2944 20.6563 18.0593 20.5685Z" fill="#484848"/>
<path d="M59.3295 0.422595H63.1283V23.1777H59.3295V13.328H49.4196V23.1777H45.6208V0.422595H49.4196V9.75218H59.3295V0.422595Z" fill="#484848"/>
<path d="M71.5492 19.6019H81.7895V23.1777H67.7504V0.422595H81.6243V3.9984H71.5492V9.91472H80.7985V13.458H71.5492V19.6019Z" fill="#484848"/>
<path d="M104.398 20.187C102.085 22.4625 99.2557 23.6003 95.9083 23.6003C92.5609 23.6003 89.7201 22.4625 87.3857 20.187C85.0734 17.8898 83.9173 15.0942 83.9173 11.8001C83.9173 8.50607 85.0734 5.72128 87.3857 3.44577C89.7201 1.14859 92.5609 0 95.9083 0C99.2557 0 102.085 1.14859 104.398 3.44577C106.732 5.72128 107.899 8.50607 107.899 11.8001C107.899 15.0942 106.732 17.8898 104.398 20.187ZM90.0614 17.6515C91.647 19.1901 93.596 19.9595 95.9083 19.9595C98.2206 19.9595 100.159 19.1901 101.722 17.6515C103.308 16.0911 104.101 14.1407 104.101 11.8001C104.101 9.45962 103.308 7.52002 101.722 5.98134C100.159 4.42099 98.2206 3.64082 95.9083 3.64082C93.596 3.64082 91.647 4.42099 90.0614 5.98134C88.4979 7.52002 87.7161 9.45962 87.7161 11.8001C87.7161 14.1407 88.4979 16.0911 90.0614 17.6515Z" fill="#484848"/>
<path d="M48.1492 36V31.3821L44.8891 36H44V29.1947H45.1361V33.8126L48.3962 29.1947H49.2853V36H48.1492Z" fill="#484848"/>
<path d="M54.7663 29.1947H55.9023V36H54.7663V33.0543H51.8025V36H50.6664V29.1947H51.8025V31.9849H54.7663V29.1947Z" fill="#484848"/>
<path d="M65.1978 36H63.9234L61.5425 32.8112V36H60.4064V32.8112L58.0256 36H56.7413L59.3296 32.5196L56.8401 29.1947H58.1244L60.4064 32.2863V29.1947H61.5425V32.2863L63.8246 29.1947H65.099L62.6193 32.5196L65.1978 36Z" fill="#484848"/>
<path d="M70.1842 36V31.3821L66.9241 36H66.0349V29.1947H67.171V33.8126L70.4311 29.1947H71.3202V36H70.1842Z" fill="#484848"/>
<path d="M76.8012 29.1947H77.9373V36H76.8012V33.0543H73.8375V36H72.7014V29.1947H73.8375V31.9849H76.8012V29.1947Z" fill="#484848"/>
<path d="M83.4688 36V31.3821L80.2087 36H79.3196V29.1947H80.4557V33.8126L83.7158 29.1947H84.6049V36H83.4688Z" fill="#484848"/>
<path d="M88.5348 29.1947C89.1868 29.1947 89.7302 29.4086 90.1649 29.8364C90.6061 30.2641 90.8268 30.7956 90.8268 31.4308C90.8268 32.0594 90.6061 32.5909 90.1649 33.0251C89.7302 33.4529 89.1868 33.6668 88.5348 33.6668H87.1221V36H85.986V29.1947H88.5348ZM88.5348 32.6168C88.8707 32.6168 89.1473 32.5066 89.3647 32.2863C89.582 32.0594 89.6907 31.7743 89.6907 31.4308C89.6907 31.0872 89.582 30.8053 89.3647 30.585C89.1473 30.3581 88.8707 30.2447 88.5348 30.2447H87.1221V32.6168H88.5348Z" fill="#484848"/>
<path d="M95.9623 36V31.3821L92.7022 36H91.8131V29.1947H92.9492V33.8126L96.2093 29.1947H97.0984V36H95.9623Z" fill="#484848"/>
<path d="M102.579 29.1947H103.715V36H102.579V33.0543H99.6157V36H98.4796V29.1947H99.6157V31.9849H102.579V29.1947Z" fill="#484848"/>
<path d="M109 29.1947V30.2641H106.234V36H105.098V29.1947H109Z" fill="#484848"/>
</svg>
