<svg width="109" height="36" viewBox="0 0 109 36" fill="none" xmlns="http://www.w3.org/2000/svg">
<path d="M11.9277 2.41508C14.5619 2.41508 17.1894 2.38434 19.8236 2.60165C24.4004 2.9836 28.0377 5.2358 30.7465 8.90604C32.8297 11.729 33.7604 14.9273 33.7055 18.457C33.6331 23.0668 33.666 27.6765 33.7055 32.2863C33.7055 33.2499 33.486 33.6319 32.4324 33.6187C27.7524 33.5617 23.0702 33.6187 18.3836 33.588C13.3655 33.5595 9.17723 31.6782 5.95479 27.8082C3.81235 25.2356 2.55894 22.2304 2.48211 18.8851C2.36357 13.7309 2.45138 8.56799 2.41406 3.41385C2.41406 2.50726 2.88382 2.41287 3.58626 2.41507C6.36748 2.42824 9.1465 2.41508 11.9277 2.41508ZM4.86601 12.5346C4.86601 15.3044 4.80455 18.1782 5.30723 20.9156C5.81315 23.5753 7.17698 25.9959 9.18984 27.8065C11.2027 29.6172 13.7536 30.7181 16.4519 30.9407C21.0397 31.2699 25.6714 31.1053 30.268 31.1602C31.1197 31.1602 31.2645 30.6773 31.2602 29.9463C31.2382 26.1399 31.3326 22.3336 31.2097 18.5317C31.1465 16.8307 30.8617 15.1452 30.3624 13.518C28.9114 8.75677 24.216 5.20287 19.1892 4.95702C14.7353 4.73751 10.2638 4.89775 5.79894 4.86921C5.08992 4.86921 4.84187 5.12604 4.85284 5.83726C4.89016 8.0719 4.86601 10.3043 4.86601 12.5346Z" fill="white"/>
<path d="M7.70437 17.9586C7.51998 12.3654 12.6961 7.58886 18.1027 7.64154C23.6475 7.70081 28.4988 12.3106 28.468 18.0398C28.4395 23.6967 23.7046 28.4074 18.0302 28.3569C12.3075 28.302 7.54193 23.5584 7.70437 17.9586ZM18.0522 25.8018C22.8068 26.0476 26.0841 21.8747 26.0512 17.9498C26.0183 13.8011 22.5236 10.1286 18.0939 10.0781C13.8331 10.0298 10.119 13.8472 10.0861 17.9696C10.0553 21.9164 13.6466 26.1091 18.0522 25.8018Z" fill="white"/>
<path d="M12.922 17.961C12.7793 15.6935 15.0293 12.8442 18.1288 12.8837C21.1712 12.9232 23.3334 15.6693 23.2522 17.9983C23.1468 21.1286 20.809 23.1591 18.0366 23.1613C15.3278 23.1613 12.9746 21.0715 12.922 17.961ZM18.0607 20.5688C19.5973 20.5688 20.8266 19.4427 20.8244 18.0049C20.8222 16.5671 19.5359 15.3379 18.0805 15.3379C17.3654 15.3407 16.6803 15.6253 16.1737 16.1299C15.667 16.6345 15.3797 17.3184 15.3739 18.0335C15.4024 19.1771 16.2959 20.6566 18.0607 20.5688Z" fill="white"/>
<path d="M59.3295 0.422595H63.1283V23.1777H59.3295V13.328H49.4196V23.1777H45.6208V0.422595H49.4196V9.75218H59.3295V0.422595Z" fill="white"/>
<path d="M71.5492 19.6019H81.7895V23.1777H67.7504V0.422595H81.6243V3.9984H71.5492V9.91472H80.7985V13.458H71.5492V19.6019Z" fill="white"/>
<path d="M104.398 20.187C102.085 22.4625 99.2557 23.6003 95.9083 23.6003C92.5609 23.6003 89.7201 22.4625 87.3857 20.187C85.0734 17.8898 83.9173 15.0942 83.9173 11.8001C83.9173 8.50607 85.0734 5.72128 87.3857 3.44577C89.7201 1.14859 92.5609 0 95.9083 0C99.2557 0 102.085 1.14859 104.398 3.44577C106.732 5.72128 107.899 8.50607 107.899 11.8001C107.899 15.0942 106.732 17.8898 104.398 20.187ZM90.0614 17.6515C91.647 19.1901 93.596 19.9595 95.9083 19.9595C98.2206 19.9595 100.159 19.1901 101.722 17.6515C103.308 16.0911 104.101 14.1407 104.101 11.8001C104.101 9.45962 103.308 7.52002 101.722 5.98134C100.159 4.42099 98.2206 3.64082 95.9083 3.64082C93.596 3.64082 91.647 4.42099 90.0614 5.98134C88.4979 7.52002 87.7161 9.45962 87.7161 11.8001C87.7161 14.1407 88.4979 16.0911 90.0614 17.6515Z" fill="white"/>
<path d="M48.1492 36V31.3821L44.8891 36H44V29.1947H45.1361V33.8126L48.3962 29.1947H49.2853V36H48.1492Z" fill="white"/>
<path d="M54.7663 29.1947H55.9023V36H54.7663V33.0543H51.8025V36H50.6664V29.1947H51.8025V31.9849H54.7663V29.1947Z" fill="white"/>
<path d="M65.1978 36H63.9234L61.5425 32.8112V36H60.4064V32.8112L58.0256 36H56.7413L59.3296 32.5196L56.8401 29.1947H58.1244L60.4064 32.2863V29.1947H61.5425V32.2863L63.8246 29.1947H65.099L62.6193 32.5196L65.1978 36Z" fill="white"/>
<path d="M70.1842 36V31.3821L66.9241 36H66.0349V29.1947H67.171V33.8126L70.4311 29.1947H71.3202V36H70.1842Z" fill="white"/>
<path d="M76.8012 29.1947H77.9373V36H76.8012V33.0543H73.8375V36H72.7014V29.1947H73.8375V31.9849H76.8012V29.1947Z" fill="white"/>
<path d="M83.4688 36V31.3821L80.2087 36H79.3196V29.1947H80.4557V33.8126L83.7158 29.1947H84.6049V36H83.4688Z" fill="white"/>
<path d="M88.5348 29.1947C89.1868 29.1947 89.7302 29.4086 90.1649 29.8364C90.6061 30.2641 90.8268 30.7956 90.8268 31.4308C90.8268 32.0594 90.6061 32.5909 90.1649 33.0251C89.7302 33.4529 89.1868 33.6668 88.5348 33.6668H87.1221V36H85.986V29.1947H88.5348ZM88.5348 32.6168C88.8707 32.6168 89.1473 32.5066 89.3647 32.2863C89.582 32.0594 89.6907 31.7743 89.6907 31.4308C89.6907 31.0872 89.582 30.8053 89.3647 30.585C89.1473 30.3581 88.8707 30.2447 88.5348 30.2447H87.1221V32.6168H88.5348Z" fill="white"/>
<path d="M95.9623 36V31.3821L92.7022 36H91.8131V29.1947H92.9492V33.8126L96.2093 29.1947H97.0984V36H95.9623Z" fill="white"/>
<path d="M102.579 29.1947H103.715V36H102.579V33.0543H99.6157V36H98.4796V29.1947H99.6157V31.9849H102.579V29.1947Z" fill="white"/>
<path d="M109 29.1947V30.2641H106.234V36H105.098V29.1947H109Z" fill="white"/>
</svg>
