<svg width="203" height="216" viewBox="0 0 203 216" fill="none" xmlns="http://www.w3.org/2000/svg">
<rect width="203" height="216" fill="white"/>
<rect x="30.2218" y="31.5557" width="6.79041" height="93.9738" rx="3.39521" stroke="#009999" stroke-width="3"/>
<rect x="164.985" y="53.1702" width="6.79041" height="93.9738" rx="3.39521" stroke="#009999" stroke-width="3"/>
<rect x="157.499" y="62.0349" width="6.2145" height="56.2926" rx="3.10725" stroke="#009999" stroke-width="3"/>
<rect x="86.0865" y="62.0349" width="6.2145" height="56.2926" rx="3.10725" stroke="#009999" stroke-width="3"/>
<rect x="149.434" y="62.0349" width="6.2145" height="56.2926" rx="3.10725" stroke="#009999" stroke-width="3"/>
<rect x="78.0215" y="62.0349" width="6.2145" height="56.2926" rx="3.10725" stroke="#009999" stroke-width="3"/>
<rect x="141.947" y="62.0349" width="5.6386" height="56.2926" rx="2.8193" stroke="#009999" stroke-width="3"/>
<rect x="70.5351" y="62.0349" width="5.6386" height="56.2926" rx="2.8193" stroke="#009999" stroke-width="3"/>
<rect x="133.886" y="62.0349" width="6.2145" height="56.2926" rx="3.10725" stroke="#009999" stroke-width="3"/>
<rect x="62.474" y="62.0349" width="6.2145" height="56.2926" rx="3.10725" stroke="#009999" stroke-width="3"/>
<rect x="125.825" y="62.0349" width="6.2145" height="56.2926" rx="3.10725" stroke="#009999" stroke-width="3"/>
<rect x="54.409" y="62.0349" width="6.2145" height="56.2926" rx="3.10725" stroke="#009999" stroke-width="3"/>
<rect x="117.76" y="62.0349" width="6.2145" height="56.2926" rx="3.10725" stroke="#009999" stroke-width="3"/>
<rect x="46.3479" y="62.0349" width="6.2145" height="56.2926" rx="3.10725" stroke="#009999" stroke-width="3"/>
<rect x="109.695" y="62.0349" width="6.2145" height="56.2926" rx="3.10725" stroke="#009999" stroke-width="3"/>
<rect x="38.2829" y="62.0349" width="6.2145" height="56.2926" rx="3.10725" stroke="#009999" stroke-width="3"/>
<rect x="93.5729" y="68.6843" width="14.8531" height="43.5474" rx="3.5" stroke="#009999" stroke-width="3"/>
<path d="M13.1125 119.681L7.99071 9.23161C7.85858 6.38233 10.133 4 12.9853 4H189.446C192.299 4 194.573 6.38233 194.441 9.23161L189.319 119.681C187.976 148.634 171.449 174.728 145.847 188.315L103.56 210.756C102.094 211.534 100.338 211.534 98.8719 210.756L56.585 188.315C30.9827 174.728 14.4551 148.634 13.1125 119.681Z" stroke="#009999" stroke-width="3"/>
</svg>
