<svg width="144" height="144" viewBox="0 0 144 144" fill="none" xmlns="http://www.w3.org/2000/svg">
<rect width="144" height="144" fill="white"/>
<rect x="4.5968" y="14.6372" width="135.323" height="117.392" rx="3.5" stroke="#009999" stroke-width="3"/>
<rect x="16.271" y="109.653" width="30.8511" height="12.3441" rx="3.5" stroke="#009999" stroke-width="3"/>
<path fill-rule="evenodd" clip-rule="evenodd" d="M124.893 28.1418H19.6239C18.5193 28.1418 17.6239 29.0373 17.6239 30.1418V95.8702C17.6239 96.9748 18.5193 97.8702 19.6239 97.8702H124.893C125.997 97.8702 126.893 96.9748 126.893 95.8702V30.1418C126.893 29.0373 125.997 28.1418 124.893 28.1418ZM19.6239 25.1418C16.8625 25.1418 14.6239 27.3804 14.6239 30.1418V95.8702C14.6239 98.6317 16.8625 100.87 19.6239 100.87H124.893C127.654 100.87 129.893 98.6317 129.893 95.8702V30.1418C129.893 27.3804 127.654 25.1418 124.893 25.1418H19.6239ZM85.0776 47.7487C84.0406 45.0259 80.3251 44.6881 78.8141 47.1793L61.6305 75.5107C58.9854 79.8718 52.5773 79.6263 50.2736 75.0756L40.0416 54.863C38.8584 52.5256 35.621 52.269 34.0843 54.3908L28.7049 61.8182C27.4824 63.5061 25.5247 64.5055 23.4405 64.5055H16.1239C15.2955 64.5055 14.6239 63.8339 14.6239 63.0055C14.6239 62.1771 15.2955 61.5055 16.1239 61.5055H23.4405C24.5628 61.5055 25.6169 60.9674 26.2752 60.0585L31.6546 52.631C34.5084 48.6906 40.5208 49.1672 42.7182 53.5081L52.9502 73.7206C54.1906 76.171 57.6411 76.3032 59.0654 73.9549L76.2491 45.6235C79.0552 40.997 85.9553 41.6243 87.8811 46.681L98.018 73.2983C99.0058 75.8919 102.475 76.3591 104.114 74.1191L111.394 64.1677C112.618 62.4945 114.567 61.5055 116.64 61.5055H128.393C129.221 61.5055 129.893 62.1771 129.893 63.0055C129.893 63.8339 129.221 64.5055 128.393 64.5055H116.64C115.523 64.5055 114.474 65.038 113.815 65.939L106.535 75.8904C103.492 80.0503 97.0489 79.1827 95.2145 74.366L85.0776 47.7487Z" fill="#009999"/>
<rect x="56.5406" y="109.653" width="30.8511" height="12.3441" rx="3.5" stroke="#009999" stroke-width="3"/>
<rect x="97.3967" y="109.653" width="30.8511" height="12.3441" rx="3.5" stroke="#009999" stroke-width="3"/>
</svg>
