<svg width="114" height="142" viewBox="0 0 114 142" fill="none" xmlns="http://www.w3.org/2000/svg">
<path d="M2.17896 115.645V22.0324C2.17896 18.1664 5.31296 15.0324 9.17895 15.0324H14.5579V9.12915C14.5579 5.26316 17.6919 2.12915 21.5579 2.12915H90.9263C94.7923 2.12915 97.9263 5.26316 97.9263 9.12915V81.8388C97.9263 85.7048 94.7923 88.8388 90.9263 88.8388H85.2947V115.645C85.2947 119.511 82.1607 122.645 78.2947 122.645H9.17896C5.31297 122.645 2.17896 119.511 2.17896 115.645Z" fill="white"/>
<path d="M67.3579 15.0324V15.0324C67.8426 15.0324 68.3069 15.2276 68.646 15.574L84.9337 32.2119C85.1651 32.4484 85.2947 32.766 85.2947 33.0969V33.0969M67.3579 15.0324V26.0969C67.3579 29.9629 70.4919 33.0969 74.3579 33.0969H85.2947M67.3579 15.0324H14.5579M85.2947 33.0969V88.8388M14.5579 15.0324H9.17895C5.31296 15.0324 2.17896 18.1664 2.17896 22.0324V115.645C2.17896 119.511 5.31297 122.645 9.17896 122.645H78.2947C82.1607 122.645 85.2947 119.511 85.2947 115.645V88.8388M14.5579 15.0324V9.12915C14.5579 5.26316 17.6919 2.12915 21.5579 2.12915H90.9263C94.7923 2.12915 97.9263 5.26316 97.9263 9.12915V81.8388C97.9263 85.7048 94.7923 88.8388 90.9263 88.8388H85.2947" stroke="#009999" stroke-width="3" stroke-linecap="round"/>
<path d="M19.8632 91.9356H68.1158M19.8632 101.226H68.1158M19.8632 110.774H68.1158M49.4211 67.6775V67.6775C50.1187 67.6775 50.6842 68.2431 50.6842 68.9407V72.3662C50.6842 73.4824 49.7794 74.3872 48.6632 74.3872V74.3872M49.4211 67.6775L54.6866 60.3533C58.4931 55.0585 57.8864 47.7822 53.2556 43.1909V43.1909C48.1638 38.1426 39.9233 38.1103 34.7238 43.0475V43.0475C29.8584 47.6675 29.0977 55.2213 33.0142 60.6691L38.0526 67.6775M49.4211 67.6775H45.8842M38.0526 67.6775V67.6775C37.355 67.6775 36.7895 68.2431 36.7895 68.9407V72.6188C36.7895 73.5955 37.5812 74.3872 38.5579 74.3872V74.3872M38.0526 67.6775H41.3368M38.5579 74.3872V76.0324C38.5579 77.6892 39.901 79.0324 41.5579 79.0324H45.6632C47.32 79.0324 48.6632 77.6892 48.6632 76.0324V74.3872M38.5579 74.3872H48.6632M41.3368 67.6775V53.6886C41.3368 52.8957 41.0262 52.1344 40.4716 51.5679L40.2403 51.3316C39.1783 50.2468 37.4274 50.2517 36.3654 51.3365V51.3365C35.3401 52.3838 35.3356 54.0633 36.3609 55.1107V55.1107C37.6044 56.381 39.3071 57.0969 41.0848 57.0969H46.1363C47.9139 57.0969 49.6167 56.381 50.8602 55.1107V55.1107C51.8855 54.0633 51.8809 52.3838 50.8556 51.3365V51.3365C49.7937 50.2517 48.0427 50.2468 46.9807 51.3316L46.7495 51.5679C46.1948 52.1344 45.8842 52.8957 45.8842 53.6886V67.6775M41.3368 67.6775H45.8842" stroke="#009999" stroke-width="3" stroke-linecap="round"/>
<line x1="25.4369" y1="54.7258" x2="21.8684" y2="54.7258" stroke="#009999" stroke-width="3" stroke-linecap="round"/>
<line x1="65.8579" y1="54.7258" x2="62.2895" y2="54.7258" stroke="#009999" stroke-width="3" stroke-linecap="round"/>
<line x1="1.5" y1="-1.5" x2="5.13943" y2="-1.5" transform="matrix(-0.699545 -0.714589 0.699545 -0.714589 31.8944 40.9998)" stroke="#009999" stroke-width="3" stroke-linecap="round"/>
<line x1="1.5" y1="-1.5" x2="5.13943" y2="-1.5" transform="matrix(-0.699545 -0.714589 0.699545 -0.714589 60.4764 70.1965)" stroke="#009999" stroke-width="3" stroke-linecap="round"/>
<line x1="1.5" y1="-1.5" x2="5.13943" y2="-1.5" transform="matrix(-0.699545 0.714589 -0.699545 -0.714589 31.8944 65.4519)" stroke="#009999" stroke-width="3" stroke-linecap="round"/>
<line x1="1.5" y1="-1.5" x2="5.13943" y2="-1.5" transform="matrix(-0.699545 0.714589 -0.699545 -0.714589 60.4764 36.2554)" stroke="#009999" stroke-width="3" stroke-linecap="round"/>
<line x1="44.6053" y1="31.5" x2="44.6053" y2="35.2097" stroke="#009999" stroke-width="3" stroke-linecap="round"/>
<path d="M72.9955 133.487L77.8561 116.681C78.0777 115.915 78.7331 115.354 79.524 115.253L83.2267 114.78C83.8877 114.696 84.5473 114.946 84.9859 115.448L89.9211 121.094C90.3471 121.582 90.5109 122.245 90.3607 122.874L87.0277 136.852C86.6002 138.644 84.1811 138.954 83.3162 137.326L81.9537 134.762C81.4295 133.776 80.1988 133.41 79.2209 133.95L75.8835 135.793C74.3231 136.655 72.5002 135.199 72.9955 133.487Z" fill="white" stroke="#009999" stroke-width="3"/>
<path d="M111.236 132.454L106.375 115.649C106.154 114.883 105.499 114.322 104.708 114.221L101.005 113.748C100.344 113.664 99.6843 113.914 99.2457 114.416L94.3105 120.062C93.8845 120.549 93.7207 121.213 93.8709 121.842L97.2039 135.819C97.6314 137.612 100.051 137.922 100.915 136.294L102.278 133.73C102.802 132.744 104.033 132.378 105.011 132.918L108.348 134.761C109.909 135.622 111.731 134.167 111.236 132.454Z" fill="white" stroke="#009999" stroke-width="3"/>
<path d="M102.811 88.2264L102.811 88.2264C103.465 89.8499 104.741 91.1447 106.354 91.8229C107.833 92.4442 108.713 93.9775 108.504 95.5676L108.492 95.6626L109.979 95.8578L108.492 95.6626C108.264 97.4003 108.728 99.158 109.784 100.557C110.774 101.869 110.774 103.679 109.784 104.992C108.728 106.391 108.264 108.148 108.492 109.886L109.979 109.691L108.492 109.886L108.504 109.981C108.713 111.571 107.833 113.104 106.354 113.726C104.741 114.404 103.465 115.699 102.811 117.322L104.183 117.875L102.811 117.322L102.774 117.413C102.185 118.877 100.676 119.753 99.1124 119.539C97.3793 119.301 95.6239 119.779 94.25 120.861C92.9985 121.847 91.2331 121.847 89.9816 120.861C88.6077 119.779 86.8523 119.301 85.1192 119.539C83.5557 119.753 82.0467 118.877 81.4571 117.413L81.4205 117.322C80.7666 115.699 79.491 114.404 77.8775 113.726C76.3991 113.104 75.5187 111.571 75.7274 109.981L75.7398 109.886C75.9679 108.148 75.504 106.391 74.448 104.992C73.4574 103.679 73.4574 101.869 74.448 100.557C75.504 99.1581 75.9679 97.4003 75.7398 95.6626L75.7274 95.5676C75.5187 93.9775 76.3991 92.4442 77.8775 91.8229C79.491 91.1447 80.7666 89.8499 81.4205 88.2264L80.0481 87.6736L81.4205 88.2264L81.4571 88.1356C82.0467 86.6718 83.5557 85.796 85.1192 86.0101C86.8523 86.2474 88.6077 85.7697 89.9816 84.6875C91.2331 83.7017 92.9985 83.7017 94.25 84.6875C95.6239 85.7697 97.3793 86.2474 99.1124 86.0101C100.676 85.796 102.185 86.6718 102.774 88.1356C102.774 88.1356 102.775 88.1356 102.775 88.1357L102.811 88.2264Z" fill="white" stroke="#009999" stroke-width="3"/>
<path d="M84.5369 101.484L89.2149 107.027C90.0496 108.016 91.5896 107.964 92.3555 106.921L99.9474 96.5808" stroke="#009999" stroke-width="3" stroke-linecap="round"/>
</svg>
