<svg width="144" height="144" viewBox="0 0 144 144" fill="none" xmlns="http://www.w3.org/2000/svg">
<rect x="121.169" y="84.8741" width="4.3532" height="24.479" transform="rotate(15.9412 121.169 84.8741)" fill="white" stroke="#009999" stroke-width="3"/>
<rect x="106.236" y="117.677" width="1.54839" height="27.479" transform="rotate(82.8992 106.236 117.677)" fill="#009999"/>
<rect x="43.8678" y="63.4836" width="1.54839" height="27.479" transform="rotate(26.7867 43.8678 63.4836)" fill="#009999"/>
<rect x="76.0521" y="38.9814" width="1.54839" height="27.479" transform="rotate(59.9903 76.0521 38.9814)" fill="#009999"/>
<rect x="79.0021" y="73.0994" width="1.54839" height="27.479" transform="rotate(121.263 79.0021 73.0994)" fill="#009999"/>
<rect x="25.1769" y="32.9743" width="4.3532" height="24.479" transform="rotate(-41.0942 25.1769 32.9743)" fill="white" stroke="#009999" stroke-width="3"/>
<circle cx="19.0968" cy="23.7418" r="10.371" fill="white" stroke="#009999" stroke-width="3"/>
<circle cx="84.129" cy="35.6127" r="10.371" fill="white" stroke="#009999" stroke-width="3"/>
<circle cx="49.0323" cy="55.2257" r="10.371" fill="white" stroke="#009999" stroke-width="3"/>
<circle cx="27.3548" cy="92.9032" r="10.371" fill="white" stroke="#009999" stroke-width="3"/>
<circle cx="85.1613" cy="75.871" r="10.371" fill="white" stroke="#009999" stroke-width="3"/>
<circle cx="125.419" cy="74.8385" r="10.371" fill="white" stroke="#009999" stroke-width="3"/>
<circle cx="115.613" cy="117.677" r="10.371" fill="white" stroke="#009999" stroke-width="3"/>
<circle cx="71.2258" cy="119.742" r="10.371" fill="white" stroke="#009999" stroke-width="3"/>
</svg>
