<svg width="1920" height="465" viewBox="0 0 1920 465" fill="none" xmlns="http://www.w3.org/2000/svg"><g opacity=".4" fill="#099"><path d="M6.323 367.55H.446v.752c104.496-1.304 260.267 32.338 411.984 65.178 51.6 11.131 102.389 22.094 150.299 31.52h4.054c-48.884-9.56-100.807-20.79-153.663-32.205C264.239 400.59 111.306 367.55 6.323 367.55zM1604.73 180.403c-50.59-18.467-86.78-27.375-111.63-27.375-5.63-.044-11.21.49-16.21 1.554-36.81 8.089-33.93 48.868 8.83 124.676 52.49 93.038 53.26 144.379 2.35 156.963-66.55 16.462-210.77-35.597-350.45-85.952-126.43-45.709-245.92-88.76-296.019-76.059-34.13 8.624-32.427 42.45 4.823 103.367 24.32 39.642 30.198 68.521 17.592 87.423h1.783c12.566-19.036 6.648-48.015-17.632-87.607-37.169-60.566-38.993-94.108-5.634-102.548 49.127-12.417 168.137 30.517 294.117 75.975 140.04 50.522 284.87 102.765 352.64 86.036 51.64-12.768 51.15-64.376-1.54-157.766-42.56-75.44-45.72-115.951-9.73-123.856 51.56-11.348 180.54 45.709 317.14 106.225 41.3 18.283 83.29 36.884 124.64 54.282v-1.153c-41.31-17.381-82.98-35.832-123.35-53.698-69.92-30.901-136.07-60.148-191.72-80.487z"/><path d="M570.309 465h4.459c-56.342-10.027-117.548-22.579-179.645-35.38C252.363 400.239 106.117 370.173.446 367.7v.735c105.144 2.474 251.309 32.506 393.866 61.836C455.193 442.806 514.94 455.089 570.309 465zM1612.84 174.403c-50.27-17.715-86.46-26.272-111.63-26.272-6.01-.054-11.95.521-17.27 1.672-37.37 8.356-35.63 48.466 5.31 122.719 50.14 91.05 49.49 141.589-2.03 154.507-67.89 17.03-213.25-33.642-353.78-82.643-127.35-44.405-247.617-86.337-298.811-73.234-34.494 8.841-33.846 42.115 2.067 101.712 26.144 43.453 29.387 73.853 9.607 92.136h1.945c19.578-18.501 16.214-48.968-9.809-92.32-35.67-59.245-36.48-92.236-2.878-100.893 50.1-12.818 169.879 28.946 296.709 73.167 141.06 49.168 286.9 100.008 355.88 82.71 52.25-13.086 53.18-63.891 2.84-155.292-40.53-73.919-42.72-113.795-6.16-121.901 52.69-11.699 182.16 43.937 319.12 102.865 38.39 16.512 77.34 33.275 115.85 49.118v-1.069c-38.43-15.81-77.02-32.439-114.55-48.55-70.12-30.166-136.4-58.694-192.41-78.432z"/><path d="M580.969 465h4.986c-64.368-10.128-135.95-24.116-209.154-38.439C242.553 400.323 105.225 373.482.446 368.435v.736c104.414 5.013 241.54 31.854 375.585 58.059 71.542 14.005 141.584 27.743 204.938 37.77zM1814.41 244.78c-124.6-52.043-242.92-101.479-305.22-101.479-6.29-.042-12.51.567-18.08 1.772-37.9 8.507-37.29 48.032 1.79 120.831 47.87 89.094 45.8 138.831-6.33 152.084-69.39 17.581-215.68-31.72-357.18-79.384-111.22-37.42-217.058-73.067-277.21-73.051-8.553-.1-16.996.817-24.32 2.641-34.9 9.058-35.102 41.781-.689 100.091 28.373 47.764 27.765 79.568-1.541 96.715h2.149c28.9-17.431 29.225-49.302 1.135-96.932-34.211-57.943-34.251-90.415 0-99.289 51.032-13.253 171.696 27.375 299.466 70.376 141.86 47.865 288.8 97.317 359.17 79.451 52.69-13.37 55.2-63.424 7.17-152.852-38.91-72.449-39.8-111.69-2.68-120.029 53.79-12.067 183.66 42.165 321.11 99.573 35.35 14.757 71.14 29.698 106.65 43.987v-1.053c-35.39-14.239-70.86-29.046-105.39-43.452z"/><path d="M596.413 465h5.796c-72.96-9.643-157.392-25.269-243.891-41.33C232.177 400.273 103.361 376.39.446 369.639v.752c102.591 6.685 231.042 30.6 357.102 53.964C442.02 440.032 524.385 455.307 596.413 465zm921.577-326.528c-6.75-.061-13.42.595-19.38 1.905-38.42 8.724-38.99 47.647-1.7 118.976 45.6 87.156 42.11 136.123-10.82 149.694-70.45 18.183-218.03-29.749-360.75-76.076-111.23-36.115-217.143-70.51-278.349-70.493-9.189-.111-18.258.882-26.103 2.858-35.224 9.275-36.481 41.497-3.364 98.503 30.562 52.946 24.725 86.12-17.876 101.161h2.716c41.75-15.543 47.303-48.734 16.862-101.361-32.751-56.639-31.941-88.576 2.554-97.701 52.004-13.705 173.646 25.787 302.38 67.585 143.04 46.511 291.36 94.609 363.1 76.142 53.43-13.754 57.19-62.973 11.43-150.412-37.13-70.961-36.84-109.617.81-118.158 54.89-12.534 185.2 40.294 323.3 96.231 32.14 13.019 64.57 26.188 97 38.823v-1.036c-32.19-12.635-64.37-25.671-95.74-38.439-124.44-50.304-242.68-98.219-306.07-98.202z"/><path d="M620.855 465h7.701c-82.851-7.872-184.185-25.687-288.965-44.071-118.317-20.79-239.148-41.982-339.145-49.753v.735c99.875 7.855 220.301 28.947 338.537 49.637C440.318 439.463 539.139 456.777 620.855 465zm885.495-329.236c-38.99 8.958-40.53 47.28-5.14 117.155 43.33 85.233 38.46 133.449-14.84 147.354-72.07 18.818-220.95-27.777-364.8-72.833-111.23-34.796-217.183-67.953-279.686-67.953-9.87-.128-19.613.948-28.008 3.091-35.548 9.51-37.535 41.213-6.04 96.933 29.428 52.009 22.496 84.649-21.199 99.773-6.928 2.358-14.658 4.284-22.942 5.716h4.377c7.079-1.378 13.699-3.125 19.7-5.198 44.263-15.325 51.396-48.282 21.847-100.508-31.332-55.369-29.63-86.905 5.229-96.147 52.978-14.156 175.592 24.216 305.422 64.827 144.5 45.124 293.91 91.919 367.03 72.884 53.99-14.089 59.14-62.555 15.61-148.106-35.31-69.524-33.93-107.579 4.29-116.353 55.9-12.885 186.95 38.556 325.61 92.955 28.82 11.381 57.92 22.813 86.99 33.926v-1.019c-28.86-11.047-57.6-22.328-85.73-33.425-139.15-54.633-270.6-106.241-327.72-93.072z"/><path d="M776.018 453.736c44.222-15.543 52.045-47.815 23.955-98.604-29.873-54.115-27.319-85.066 7.823-94.609 54.032-14.64 177.741 22.629 308.744 62.07 145.8 43.803 296.59 89.261 371.13 69.557 54.6-14.422 61.04-62.137 19.78-145.833-33.56-68.103-31.05-105.589 7.66-114.58 57.11-13.27 188.76 36.767 328.12 89.829 25.37 9.66 50.99 19.403 76.57 28.929v-1.002c-25.38-9.46-50.59-19.053-75.35-28.412-124.2-47.246-242.27-92.186-308.06-92.169-7.76-.065-15.43.701-22.25 2.223-39.52 9.175-42.32 46.912-8.56 115.316 41.31 83.379 35.03 130.825-18.88 145.014-73.57 19.504-223.79-25.754-369.1-69.524-111.27-33.525-217.306-65.463-280.66-65.463-10.619-.135-21.097 1.028-30.116 3.343-35.873 9.727-38.67 40.929-8.594 95.395 27.928 50.555 20.267 82.593-23.347 97.935-78.392 27.559-260.915-2.741-454.18-34.829C209.924 399.938 97.16 381.204.487 372.881v.752c96.43 8.356 208.992 27.007 319.568 45.374 193.75 32.172 376.76 62.572 455.963 34.729z"/><path d="M764.385 447.787c44.1-15.727 52.693-47.414 25.982-96.832-28.374-52.879-25.091-83.346 10.377-93.106 55.004-15.041 179.928 21.041 312.106 59.346 147.22 42.634 299.47 86.738 375.51 66.366 55.08-14.774 62.91-61.736 23.83-143.577-31.82-66.7-28.37-103.618 11.07-112.843 58.24-13.688 190.5 35.096 330.79 86.654 21.77 8.006 43.74 16.094 65.71 24.066v-.986c-21.73-7.871-43.29-15.827-64.53-23.631-124.08-45.726-242.11-89.178-308.95-89.178-8.29-.061-16.47.781-23.71 2.44-40.01 9.392-43.9 46.561-11.92 113.645 38.87 81.507 31.33 128.218-23.06 142.808-75.03 20.055-226.75-23.849-373.48-66.365-111.35-32.239-217.464-62.973-281.872-62.973-11.453-.163-22.758 1.107-32.427 3.643-36.156 10.028-39.804 40.645-11.147 93.874 26.469 49.135 18.159 80.571-25.374 96.114-79.729 28.411-265.212-.635-461.597-31.386C198.17 399.655 93.066 383.109.446 374.753v.752c92.377 8.457 197.318 24.868 300.517 41.029 196.913 30.835 382.881 59.965 463.422 31.253z"/><path d="M752.751 441.954c43.98-15.911 53.1-46.979 27.928-95.011-27.117-51.658-22.861-81.624 12.89-91.601 56.099-15.66 182.402 19.437 315.801 56.588 148.76 41.397 302.58 84.181 380.08 63.124 55.61-15.042 64.86-61.335 27.89-141.355-30.12-65.312-25.42-101.678 14.39-111.138 59.42-14.105 192.57 33.292 333.59 83.563 18 6.367 36.24 12.835 54.48 19.253v-1.037c-17.92-6.3-35.75-12.651-53.3-18.901-124.04-44.155-242.07-86.17-310.05-86.17-9.01-.08-17.91.838-25.78 2.657-40.53 9.643-45.52 46.244-15.28 111.974 36.73 79.685 27.85 125.661-27.07 140.585-76.37 20.74-229.71-21.91-377.94-63.24-111.386-30.985-217.585-60.532-283.087-60.532-12.275-.168-24.386 1.201-34.737 3.927-36.481 10.178-40.899 40.394-13.66 92.387 25.05 47.731 16.213 78.548-27.32 94.291-81.027 29.398-269.63 1.622-469.34-27.792C186.05 399.353 88.445 384.964.406 376.658v.752c87.836 8.356 185.239 22.662 281.222 36.767 200.237 29.531 389.286 57.391 471.123 27.777z"/><path d="M741.2 436.254c43.654-16.077 53.544-46.561 29.792-93.255-25.739-50.439-20.713-79.936 15.362-90.131 57.112-16.194 184.591 17.849 319.566 53.865 150.38 40.11 305.87 81.64 385.07 59.88 55.9-15.392 66.4-60.917 31.58-139.114-28.38-63.959-22.58-99.757 17.71-109.467 60.8-14.573 194.56 31.536 336.43 80.354l43.09 14.673v-.969c-14-4.78-27.88-9.543-41.63-14.289-142.48-48.985-277.01-95.261-338.7-80.404-41.06 9.877-47.1 45.943-18.56 110.302 34.53 77.88 24.32 123.155-31.05 138.413-78.11 21.425-233.07-19.938-382.97-59.881-111.423-29.748-217.702-58.126-284.299-58.109-13.179-.196-26.186 1.286-37.25 4.245-36.724 10.395-41.993 40.11-16.214 90.899 23.834 46.294 14.146 76.61-29.144 92.437-82.364 30.216-274.21 3.693-477.284-24.384-89.174-12.3-179.24-24.768-262.253-32.706v.752c82.81 7.939 172.877 20.456 261.524 32.656 203.763 28.161 396.054 54.75 479.23 24.233z"/><path d="M729.728 430.673c43.615-16.228 53.951-46.127 31.536-91.401-24.32-49.252-18.524-78.264 17.794-88.693 58.206-16.712 187.104 16.245 323.542 51.157 152.12 38.89 309.35 79.117 390.01 56.622 56.75-15.777 68.26-60.583 35.71-137.042-26.71-62.622-19.86-97.902 20.96-107.829 61.81-15.042 196.87 29.764 339.83 77.211a9504.37 9504.37 0 0030.69 10.245v-.953l-29.55-9.793c-123.99-41.18-242.03-80.354-312.39-80.354-10.32-.109-20.5.943-29.47 3.042-41.55 10.128-48.64 45.642-21.85 108.631 32.43 76.092 21 120.647-34.94 136.257-79.65 22.211-236.43-17.882-388.03-56.655-111.467-28.512-217.868-55.737-285.559-55.737-14.167-.208-28.143 1.397-40.007 4.596-36.967 10.63-43.006 39.893-18.483 89.462 22.253 44.99 12.16 74.655-31.008 90.699-83.743 31.152-278.953 5.883-485.594-20.841C161 398.685 78.069 387.956.446 380.552v.769c77.42 7.387 160.19 18.099 241.946 28.678 207.127 26.79 402.824 52.11 487.336 20.674z"/><path d="M718.298 425.191c43.412-16.362 54.275-45.659 33.238-89.596-23.023-48.082-16.457-76.61 20.266-87.272 59.301-17.264 189.698 14.64 327.718 48.466 154.03 37.687 313.08 76.643 395.32 53.396 57.03-16.111 69.92-60.165 39.48-134.869-25.01-61.302-17.06-96.047 24.32-106.225 62.83-15.576 199.02 27.977 343 74.086l18.16 5.8v-.936l-17.07-5.482c-123.99-39.692-242.06-77.479-313.61-77.462-11.08-.104-22.02 1.052-31.61 3.342-42.04 10.345-50.22 45.341-25.09 106.96 30.32 74.337 17.67 118.207-38.71 134.151-81.31 22.963-239.96-15.86-393.18-53.48-111.71-27.241-218.395-53.346-286.978-53.346-15.23-.228-30.248 1.526-42.925 5.014-37.21 10.829-44.02 39.625-20.834 88.008 20.875 43.669 10.214 72.749-32.711 88.91-85.121 32.088-283.736 8.106-494.187-17.297C148.029 398.334 72.313 389.192.446 382.44v.669c71.704 6.685 147.219 15.877 221.963 24.885 210.856 25.52 409.998 49.552 495.889 17.197z"/><path d="M706.908 419.876c43.168-16.478 54.558-45.207 34.859-87.807-21.726-46.912-14.389-75.006 22.415-85.852 60.476-17.866 192.414 13.019 332.138 45.708 155.81 36.467 316.97 74.17 400.87 50.138 57.44-16.479 71.59-59.898 43.21-132.764-23.35-59.981-14.39-94.225 27.4-104.637 64.33-16.044 201.54 26.239 346.81 71.028l5.19 1.671v-.936l-4.06-1.27c-123.95-38.221-242.06-74.638-314.82-74.621-11.91-.165-23.7 1.039-34.05 3.476-42.48 10.596-51.72 45.124-28.37 105.406 28.37 72.582 14.39 115.784-42.44 132.028-83.01 23.766-243.65-13.838-398.97-50.137-140.251-32.807-272.675-63.792-334.083-45.675-37.413 11.063-44.993 39.374-23.145 86.604 19.578 42.349 8.35 70.844-34.332 87.122-86.499 33.024-288.843 10.312-503.064-13.721-67.813-7.621-136.314-15.292-202.141-21.325v.769c65.664 6.016 134.004 13.671 201.695 21.275 214.829 24.032 417.619 46.778 504.888 13.52z"/><path d="M1576.52 99.565c-42.97 10.83-53.22 44.806-31.42 103.852 26.19 70.861 11.15 113.394-46.08 129.973-84.72 24.55-247.46-11.699-404.81-46.946-141.87-31.753-276.118-61.652-338.662-42.934-37.615 11.247-45.884 39.124-25.374 85.234 18.2 40.995 6.567 68.922-35.831 85.3-87.837 33.976-294.032 12.518-512.265-10.128C121.277 397.599 59.99 391.231.446 385.984v.769c59.382 5.231 120.547 11.581 181.186 17.882 218.882 22.729 425.279 44.204 513.927 10.027 42.884-16.578 54.801-44.706 36.48-86.019-20.267-45.775-12.16-73.401 24.644-84.465 61.612-18.383 195.251 11.398 336.757 43.002 157.84 35.246 321.06 71.713 406.67 46.795 57.84-16.713 72.96-59.514 46.86-130.692-21.69-58.711-11.72-92.437 30.56-103.099 64.33-16.228 198.82 22.979 342.27 65.529v-.919c-120.59-35.714-234.73-69.14-306.88-69.14-12.79-.128-25.4 1.227-36.4 3.911z"/><path d="M684.249 409.464c42.601-16.712 54.964-44.204 37.818-84.264-19.092-44.622-10.296-71.864 26.874-83.078 62.786-19.052 198.169 9.76 341.499 40.277 160.02 34.06 325.48 69.273 412.83 43.636 58.21-17.096 74.67-59.178 50.39-128.686-20.27-57.457-9.04-90.682 33.68-101.595 63.64-16.244 192.9 18.902 332.38 58.611v-.903c-115.4-32.739-223.75-62.454-294.24-62.454-13.72-.164-27.26 1.279-39.07 4.161-43.41 11.081-54.72 44.539-34.54 102.314 24.32 69.19 8.11 111.038-49.65 127.951-86.46 25.369-251.31-9.744-410.93-43.687-111.551-23.748-218.276-46.46-290.304-46.46-20.875 0-38.831 1.905-53.14 6.25-37.737 11.448-46.776 38.873-27.522 83.797 17.024 39.792 4.823 67.134-37.291 83.562-89.377 34.912-299.382 14.79-521.75-6.518-53.748-5.147-107.86-10.328-160.838-14.79v.752c52.694 4.462 106.847 9.626 160.433 14.757 222.692 21.392 433.467 41.564 523.371 6.367z"/><path d="M673.022 404.434c42.277-16.712 55.085-43.686 39.155-82.476-17.834-43.452-8.35-70.192 28.982-81.707 63.962-19.687 201.209 8.106 346.521 37.57 162.14 32.873 330.03 66.85 419.2 40.36 58.53-17.397 76.16-58.811 53.87-126.63-18.48-56.204-6.44-88.944 36.72-100.091 62.75-16.211 186.82 15.041 322.33 51.909v-.919c-110.13-29.949-212.68-56.12-281.35-56.12-14.72-.18-29.25 1.374-41.91 4.478-43.86 11.314-56.14 44.288-37.49 100.81 22.17 67.518 4.78 108.714-53.14 125.928-88.28 26.222-255.61-7.654-417.5-40.427-111.467-22.579-218.435-44.205-291.396-44.205-22.496 0-41.79 2.039-57.031 6.685-37.939 11.699-47.627 38.623-29.67 82.426 15.808 38.539 3.161 65.313-38.629 81.891-90.755 35.865-304.813 17.047-531.315-2.874-46.614-4.095-93.512-8.223-139.76-11.9v.753c46.127 3.676 92.903 7.788 139.395 11.865 226.948 19.972 441.493 38.84 533.018 2.674z"/><path d="M118.48 400.523c231.569 18.567 450.33 36.116 543.152-1.003 41.952-16.712 55.166-43.135 40.533-80.721-16.578-42.4-6.404-68.688 31.049-80.354 65.219-20.322 204.371 6.468 351.756 34.812 164.6 31.754 334.8 64.427 425.6 37.069 58.85-17.682 77.58-58.494 57.27-124.625-16.86-54.968-4.05-87.223 39.77-98.604 62.01-16.16 180.94 11.365 312.19 45.324v-.869c-104.54-27.107-201.29-50.037-267.93-50.037-15.81-.195-31.43 1.487-44.99 4.847-44.27 11.565-57.52 44.071-40.54 99.355 20.27 65.864 1.75 106.409-56.74 123.94-90.15 27.091-259.86-5.565-424.03-37.152-111.423-21.442-218.23-41.998-292.366-41.998-24.32 0-44.952 2.189-61.206 7.253-38.061 11.866-48.438 38.439-31.738 81.072 14.633 37.319 1.541 63.508-39.925 80.07-92.296 36.767-310.57 19.353-541.652.819-39.44-3.176-79.122-6.351-118.399-9.276v.752c39.358 3.009 78.878 6.184 118.196 9.326z"/><path d="M1617.5 82.134c-44.59 11.799-58.9 43.82-43.54 97.885 18.33 64.243-1.29 104.152-59.86 122.001-92.02 27.977-264.32-3.46-430.96-33.86-111.344-20.322-218.151-39.809-293.3-39.809-26.063 0-48.357 2.357-65.705 7.822-38.142 12.033-49.168 38.104-33.684 79.718 13.417 36.133 0 61.753-41.141 78.332-93.795 37.803-316.406 21.626-552.11 4.495-32.427-2.339-64.57-4.679-96.754-6.919v.769c32.103 2.206 64.327 4.546 96.43 6.886 236.149 17.163 459.247 33.425 553.69-4.696 41.547-16.713 55.167-42.601 41.628-78.984-15.321-41.313-4.539-67.15 33.035-79.016 66.476-20.958 207.695 4.796 357.181 32.088 167.08 30.483 339.88 62.003 432.74 33.759 59.18-18.1 78.96-58.21 60.6-122.67-15.28-53.764-1.3-85.534 42.72-97.183 60.8-16.044 174.5 7.972 301.33 39.191v-.869c-98.74-24.283-189.62-44.171-254.03-44.171-16.98-.225-33.75 1.593-48.27 5.23z"/><path d="M74.947 398.451c240.932 15.743 468.489 30.617 564.432-8.357 41.182-16.712 55.166-42.015 42.763-77.228-14.146-40.244-2.716-65.663 34.981-77.696 67.731-21.693 211.058 3.058 362.817 29.28 169.71 29.297 345.35 59.597 439.95 30.45 59.42-18.267 80.3-57.758 63.84-120.697-13.74-52.561 1.18-83.88 45.64-95.746 59.39-15.91 168.22 4.78 290.43 33.208v-.853c-92.74-21.542-177.7-38.555-239.64-38.555-18.22-.25-36.21 1.708-51.76 5.632-45.03 11.983-60.27 43.536-46.45 96.314 16.21 62.655-4.26 101.946-63.11 120.012-93.96 28.896-268.98-1.32-438.21-30.55-111.226-19.203-217.951-37.637-294.114-37.637-28.09 0-52.045 2.507-70.488 8.356-38.264 12.217-49.897 37.854-35.67 78.382 12.161 34.962-1.54 60.014-42.276 76.593-95.254 38.773-322.405 23.932-562.851 8.223-24.888-1.672-49.856-3.343-74.785-4.83v.886c24.834 1.57 49.668 3.175 74.501 4.813z"/><path d="M52.694 397.615c245.837 14.306 478.054 27.81 575.579-12.183 40.776-16.713 55.125-41.43 43.857-75.49-12.971-39.191-.932-64.176 36.805-76.376 68.907-22.312 214.626 1.437 368.855 26.572 172.39 28.128 350.7 57.207 447.45 27.125 59.67-18.534 81.56-57.374 66.96-118.742-12.16-51.375 3.65-82.226 48.64-94.342 57.93-15.744 161.41 1.821 278.96 27.492v-.853c-117.55-25.653-221.4-43.168-280.29-27.258-45.44 12.267-61.57 43.369-49.29 95.044 14.51 61.084-7.18 99.707-66.27 118.074-95.95 29.815-273.77.819-445.88-27.225-111.057-18.116-217.661-35.514-294.797-35.497-30.238 0-56.017 2.674-75.676 9.025-38.304 12.384-50.586 37.586-37.494 77.061 11.188 33.826-2.999 58.31-43.371 74.872-96.794 39.725-328.566 26.238-573.916 11.966L.122 393.838v.752l52.572 3.025z"/><path d="M30.157 396.897c250.904 12.868 487.864 25.068 586.847-15.944 40.534-16.713 55.045-40.829 44.83-73.769-11.795-38.155.852-62.705 38.629-75.056 70.366-23.013 218.274-.267 374.857 23.799 175.23 26.907 356.41 54.783 455.35 23.765 59.87-18.785 82.77-56.99 70.01-116.82-10.71-50.138 6.12-80.621 51.31-92.955 56.75-15.543 155.41-.903 267.93 22.044v-.836c-35.11-7.348-71.19-13.882-108.06-19.57-74.75-11.097-125.66-11.816-160.84-2.256-45.8 12.5-62.87 43.134-52.13 93.589 12.69 59.53-9.97 97.534-69.27 116.152-98.05 30.785-278.75 2.992-453.57-23.865-157.029-24.15-305.423-46.962-376.56-23.699-38.345 12.535-51.194 37.303-39.318 75.725 10.134 32.723-4.377 56.655-44.343 73.167-98.335 40.678-334.89 28.562-585.307 15.743L.568 394.574v.752l29.59 1.571z"/><path d="M1662.53 65.054c-46.17 12.735-64.12 42.917-54.84 92.269 10.86 58.026-12.77 95.412-72.31 114.264-100.12 31.753-283.74 5.18-461.64-20.507-110.497-15.96-216.695-31.319-295.655-31.319-35.143 0-64.854 3.042-87.269 10.429-38.345 12.668-51.761 37.018-41.02 74.404 9.08 31.636-5.715 55-45.276 71.479-99.875 41.614-341.375 30.885-597.061 19.52l-7.013-.317v.752l6.85.3c256.092 11.398 497.876 22.145 598.521-19.737 39.926-16.629 54.883-40.277 45.763-72.031-10.661-37.118 2.553-61.234 40.533-73.735 71.745-23.715 222.044-1.989 381.017 21.007 178.35 25.754 362.45 52.377 463.34 20.406 60.07-19.035 83.91-56.622 72.96-114.915-9.2-49.068 8.47-79.033 54.07-91.6 55.45-15.343 148.84-3.494 256.3 16.862v-.835c-30.62-5.918-61.97-11.167-93.92-15.727-75.72-10.479-127.64-10.83-163.35-.97z"/><path d="M594.629 372.329c39.48-16.562 54.721-39.592 46.614-70.376-9.566-36.116 4.054-59.831 42.074-72.465 72.961-24.417 225.935-3.711 387.743 18.216 181.27 24.567 368.86 49.97 471.77 17.013 60.2-19.269 85.12-56.237 75.84-113.026-7.74-47.931 10.87-77.462 56.75-90.248 53.79-15.04 142.15-5.598 244.34 12.1v-.835c-27.69-4.797-54.24-8.975-79.37-12.234-77.01-9.91-129.71-9.81-166.19.351-46.49 12.952-65.34 42.701-57.55 90.916 9.12 56.538-15.49 93.289-75.15 112.391-102.31 32.707-289.29 7.371-470.19-17.13-110.053-14.907-215.968-29.263-295.9-29.263-37.899 0-69.921 3.242-93.674 11.18-38.385 12.802-52.329 36.768-42.763 73.101 8.107 30.567-7.012 53.396-46.087 69.791C493.498 413.492 254.997 405.403 0 395.76v.719c255.808 9.676 494.633 17.765 594.629-24.15z"/><path d="M583.402 368.168c39.034-16.462 54.558-38.94 47.424-68.705-8.471-35.097 5.837-58.394 43.696-71.162 74.501-25.069 229.988-5.448 394.558 15.409 184.47 23.397 375.22 47.547 480.48 13.587 60.32-19.47 86.06-55.82 78.64-111.138-6.28-46.795 13.17-75.925 59.42-88.927 52.09-14.64 135.38-7.587 232.18 7.604v-.835c-22.3-3.51-43.86-6.585-64.49-9.042-77.87-9.342-131.49-8.807-168.7 1.671-46.82 13.17-66.52 42.483-60.2 89.579 7.38 55.068-18.11 91.217-77.98 110.52-104.5 33.709-294.8 9.61-478.83-13.704-165.05-20.924-320.983-40.679-396.213-15.276-38.345 12.936-52.694 36.417-44.344 71.864 7.093 29.531-8.107 51.809-46.898 68.103-97.97 41.314-330.147 36.233-581.699 28.412v.752c251.917 7.754 484.459 12.835 582.956-28.712z"/><path d="M572.174 364.14c38.588-16.361 54.356-38.288 48.154-67.05-7.377-34.161 7.418-57.023 45.236-69.892 75.96-25.871 234.163-7.186 401.646 12.585 187.79 22.177 381.99 45.123 489.49 10.144 60.43-19.654 87.06-55.402 81.35-109.283-4.83-45.725 15.44-74.387 62.01-87.607 50.23-14.205 128.46-9.325 219.74 3.46v-.819c-16.9-2.373-33.32-4.479-49.21-6.234-79.04-8.74-133.76-7.804-171.54 2.975-47.14 13.37-67.69 42.25-62.79 88.259 5.68 53.613-20.71 89.161-80.66 108.631-106.8 34.762-300.55 11.799-487.9-10.245-108.956-12.852-213.938-25.252-295.208-25.252-44.061 0-81.068 3.643-108.063 12.818-38.305 13.036-53.343 36.116-45.925 70.527 6.161 28.528-9.404 50.271-47.627 66.465-96.511 40.912-322.486 38.606-570.43 32.623v.735c248.309 6 474.689 8.29 571.727-32.84z"/><path d="M560.906 360.213c38.142-16.245 54.112-37.637 48.64-65.413-6.283-33.191 8.998-55.636 46.776-68.622 77.46-26.606 238.46-8.941 408.948 9.744 191.23 20.974 389.12 42.65 498.84 6.685 60.68-19.838 88.17-55.034 84.11-107.445-3.4-44.655 17.72-72.933 64.57-86.303 48.24-13.804 121.6-10.78 207.01-.3v-.82c-11.43-1.403-22.62-2.69-33.56-3.793-80.26-8.156-135.71-6.786-174.3 4.311-47.42 13.571-68.91 42.016-65.34 86.905 4.05 52.21-23.23 87.156-83.3 106.826-109.11 35.748-306.43 14.123-497.26-6.801-108.188-11.866-212.522-23.314-294.4-23.298-47.505 0-87.472 3.844-116.169 13.705-38.224 13.136-53.748 35.798-47.384 69.239 5.229 27.559-10.579 48.767-48.316 64.845-95.092 40.461-314.988 40.745-559.365 36.55v.752c244.62 4.212 464.881 3.911 560.5-36.767z"/><path d="M549.759 356.368c37.656-16.094 53.829-36.951 49.451-63.774-5.31-32.272 10.458-54.299 48.195-67.368 78.959-27.342 242.918-10.713 416.485 6.885 194.8 19.754 396.26 40.11 508.49 3.175 60.8-20.054 88.93-54.532 86.54-105.589-2.06-43.603 19.86-71.43 67.05-85.033 46.08-13.37 114.22-12 193.99-3.694v-.835c-5.92-.618-11.75-1.203-17.55-1.671-81.51-7.554-137.82-5.766-177.46 5.648-47.71 13.771-69.88 41.782-67.81 85.669 2.39 50.806-25.7 85.233-85.85 104.987-111.55 36.768-312.56 16.395-506.96-3.342-174.048-17.648-338.452-34.328-418.101-6.685-38.183 13.219-54.153 35.464-48.843 67.97 4.378 26.606-11.633 47.296-48.924 63.223-93.633 39.993-307.61 42.667-547.854 40.21v.752c240.487 2.39 454.829-.301 549.151-40.528z"/><path d="M538.247 352.675c37.21-15.943 53.545-36.282 50.019-62.187-4.297-31.336 11.916-52.962 49.572-66.098 80.5-28.093 247.499-12.501 424.302 4.011 198.62 18.534 403.8 37.687 518.47-.351 60.8-20.055 89.78-54.065 89.18-103.767-.69-42.584 22.05-69.976 69.51-83.78 43.78-12.735 106.85-12.936 180.7-6.685v-.836l-1.13-.1c-82.82-6.97-140.21-4.746-180.62 7.003-47.95 13.955-70.94 41.547-70.25 84.381.49 49.469-28.29 83.228-88.69 103.216-113.98 37.804-318.83 18.685-516.92.184-177.256-16.545-344.538-32.172-425.889-3.844-38.102 13.287-54.518 35.096-50.181 66.716 3.648 25.721-12.525 45.776-49.37 61.619C444.736 391.649 236.636 396.479.446 395.76v.719c236.595.768 445.1-4.112 537.801-43.804z"/><path d="M526.817 349.082c36.764-15.777 53.302-35.598 50.545-60.599-3.283-30.451 13.336-51.675 50.911-64.862 82.08-28.845 252.241-14.322 432.207 1.103 202.67 17.315 411.74 35.197 528.93-3.877 60.8-20.239 90.63-53.613 91.4-101.946.61-41.547 24.32-68.521 71.83-82.51 41.5-12.15 99.34-13.62 167.16-9.258v-.853c-75.84-4.896-129.71-1.855-168.18 9.476-48.23 14.106-71.98 41.297-72.63 83.112-.73 48.132-30.4 81.306-90.72 101.411-116.53 38.84-325.32 20.991-527.26 3.727-180.577-15.443-351.143-30.083-433.71-.953-38.021 13.37-54.883 34.762-51.559 65.463 2.392 24.785-13.822 44.455-50.302 60.048C434.724 387.504 232.38 394.39.365 395.275v.752c232.502-.902 435.251-7.804 526.452-46.945z"/><path d="M515.386 345.589c36.481-15.593 52.978-34.895 51.032-59.045-2.391-29.564 14.673-50.388 52.167-63.624 83.702-29.581 257.065-16.094 440.645-1.789 206.27 16.061 419.6 32.657 539.42-7.453 60.8-20.356 91.4-53.129 93.67-100.275 1.95-40.545 26.23-67.134 74.18-81.256 38.75-11.432 91.61-13.989 153.3-11.331v-.836c-68.26-2.958-117.83.785-154.35 11.548-48.65 14.29-72.97 41.063-74.91 81.891-2.27 46.795-32.71 79.435-93.23 99.64-119.13 39.893-332.05 23.314-537.96 7.287-183.984-14.323-357.792-27.86-442.143 1.955-37.939 13.37-55.166 34.411-52.694 64.226 1.946 23.916-14.592 43.068-50.505 58.494C424.834 383.46 228.043 392.117.365 394.59v.752c228.164-2.44 425.28-11.197 515.021-49.753z"/><path d="M493.012 346.475c43.047-16.077 63.354-36.283 62.098-61.836-1.459-28.712 16.011-49.135 53.383-62.405 85.364-30.333 262.091-17.899 449.237-4.729 210.37 14.824 427.91 30.082 550.36-11.031 60.8-20.439 92.18-52.644 95.91-98.436 3.24-39.575 28.37-65.764 76.44-80.053 36-10.662 83.67-14.055 139.16-12.935v-.853c-60.8-1.253-106 3.059-140.17 13.187-48.64 14.44-73.97 40.811-77.22 80.637-3.73 45.575-34.9 77.58-95.29 97.885-121.6 40.946-338.9 25.654-548.91 10.88-187.548-13.203-364.802-25.67-450.693 4.88-37.818 13.37-55.45 34.043-54.031 62.989 2.432 47.848-71.38 77.68-232.218 93.874-90.714 9.125-200.804 13.12-320.824 15.276v.735c120.142-2.139 230.353-6.15 321.23-15.292 77.135-7.671 133.234-18.417 171.538-32.773z"/><path d="M544.125 282.951c-.568-27.877 17.267-47.898 54.517-61.201 87.067-31.069 267.239-19.688 458.028-7.655 214.59 13.588 436.51 27.543 561.68-14.656 60.8-20.507 92.9-52.127 98.13-96.699 4.46-38.622 30.2-64.41 78.68-78.833 32.95-9.826 75.47-13.854 124.64-14.055V9c-53.3.184-94.08 4.88-125.66 14.306-48.92 14.573-74.9 40.544-79.44 79.401-5.15 44.338-37.05 75.808-97.28 96.163-124.56 41.999-346.08 28.01-560.26 14.49-191.198-12.066-371.816-23.397-459.49 7.838-37.656 13.37-55.694 33.642-55.167 61.753C544.125 365.226 302.868 385.348.649 392.919v.735c302.989-7.57 545.056-27.793 543.476-110.703z"/></g><path fill="url(#paint0_linear_776_5830)" d="M1817 0h103v318h-103z"/><path transform="matrix(-1 0 0 1 103 359)" fill="url(#paint1_linear_776_5830)" d="M0 0h103v48H0z"/><defs><linearGradient id="paint0_linear_776_5830" x1="1920" y1="154" x2="1817" y2="154" gradientUnits="userSpaceOnUse"><stop stop-color="azure"/><stop offset=".932" stop-color="azure" stop-opacity="0"/></linearGradient><linearGradient id="paint1_linear_776_5830" x1="103" y1="23.245" x2="0" y2="23.245" gradientUnits="userSpaceOnUse"><stop stop-color="azure"/><stop offset=".932" stop-color="azure" stop-opacity="0"/></linearGradient></defs></svg>