<svg width="1920" height="610" viewBox="0 0 1920 610" fill="none" xmlns="http://www.w3.org/2000/svg">
<g opacity="0.2">
<path d="M199.902 230.952C264.029 295.477 324.59 356.446 408.365 357.745C460.237 358.564 515.741 336.529 578.572 290.423C627.008 254.884 662.865 237.624 684.651 239.102C728.743 242.079 720.314 317.252 711.366 396.919C699.954 498.981 688.088 604.498 770.112 609.572C845.457 614.227 988.496 529.825 1207.46 351.532C1548.2 74.0341 1762.82 11.0472 1882.84 7.09183C1895.09 6.67881 1907.47 6.89483 1919.48 7.73109L1919.48 6.81216C1907.35 5.99873 1894.86 5.79633 1882.52 6.21285C1761.72 10.2082 1546 73.295 1204.74 351.212C986.356 529.006 844.419 613.268 770.695 608.713C691.071 603.779 703.39 493.887 714.219 396.959C723.621 313.516 731.661 241.46 685.3 238.323C661.438 236.705 625.711 253.665 575.914 290.143C513.602 335.89 458.811 357.725 408.494 356.946C326.73 355.687 266.428 295.017 202.625 230.772C143.879 171.601 83.5124 110.791 0.516232 89.2364L0.516232 90.3751C81.7618 111.99 141.61 172.34 199.902 230.952Z" fill="#009999"/>
<path d="M409.859 350.133C462.185 350.813 517.624 329.338 579.482 284.43C627.399 249.69 662.997 232.83 685.367 234.328C730.432 237.324 724.661 311.319 718.501 389.648C714.74 438.551 710.785 489.112 718.047 528.646C726.411 573.794 748.781 596.847 786.454 599.124C863.226 603.779 1005.42 521.215 1220.89 346.717C1556.11 75.5923 1772.03 14.0837 1893.48 10.2282C1902.1 9.93215 1910.8 9.93215 1919.42 10.2282L1919.42 9.32924C1910.8 9.03918 1902.1 9.03918 1893.48 9.32924C1770.87 13.2047 1554.23 74.8332 1218.42 346.378C1003.28 520.396 861.799 602.78 786.908 598.225C705.468 593.311 713.897 485.097 721.354 389.648C727.838 307.523 733.285 236.585 685.951 233.449C661.635 231.831 625.973 248.392 576.759 284.07C515.484 328.578 460.889 349.994 409.924 349.215C326.214 348.116 262.475 287.966 194.976 224.3C137.009 169.643 77.5494 113.608 0.453732 88.9767L0.453732 90.2352C75.9933 114.947 134.804 170.462 192.188 224.579C260.141 288.505 324.204 348.935 409.859 350.133Z" fill="#009999"/>
<path d="M411.218 342.502C464.063 343.081 519.372 322.125 580.193 278.456C627.462 244.496 663.06 228.015 685.884 229.513C731.92 232.529 728.808 305.425 725.501 382.475C721.481 476.826 716.942 583.782 802.597 588.856C880.925 593.49 1022.34 512.744 1234.96 342.002C1564.87 77.09 1781.5 17.0397 1905.09 13.3041C1909.87 13.1718 1914.68 13.1184 1919.48 13.1442L1919.48 12.2653C1914.59 12.239 1909.7 12.2924 1904.83 12.4251C1780.4 16.1807 1562.73 76.3508 1232.3 341.683C1020.2 511.945 879.887 592.531 803.181 587.977C719.86 583.042 724.399 476.486 728.419 382.495C731.856 301.649 734.903 231.81 686.467 228.674C661.763 227.056 626.1 243.237 577.535 278.117C517.233 321.426 462.831 342.202 411.283 341.643C325.693 340.704 258.323 281.073 187.063 217.946C130.327 167.705 72.2302 116.264 0.516232 89.6154L0.516232 90.9938C70.9333 117.643 128.188 168.524 184.34 218.286C255.989 281.632 323.812 341.543 411.218 342.502Z" fill="#009999"/>
<path d="M412.38 335.071C465.808 335.53 520.858 315.094 580.966 272.624C627.781 239.422 663.249 223.341 686.592 224.839C733.666 227.856 733.212 299.552 732.693 375.504C732.11 468.436 731.461 573.814 819.061 578.868C898.88 583.483 1039.52 504.514 1249.15 337.468C1573.87 78.6488 1791.54 20.0369 1917.01 16.4411L1919.86 16.4411L1919.86 15.5421C1918.83 15.5421 1917.79 15.5421 1916.75 15.5421C1790.51 19.1579 1571.8 77.8897 1246.56 337.169C1037.51 503.755 897.908 582.544 819.645 578.009C734.379 573.095 735.352 468.137 735.352 375.524C735.87 295.897 736.26 227.156 686.916 223.98C661.757 222.362 626.16 238.164 578.113 272.284C518.784 314.395 464.641 334.632 412.509 334.212C324.845 333.473 253.909 274.282 179.083 211.694C123.903 165.748 67.5564 118.782 0.900021 91.0543L0.900021 92.4327C66.1947 120.121 121.893 166.507 176.359 211.914C251.445 274.881 322.77 334.312 412.38 335.071Z" fill="#009999"/>
<path d="M413.358 327.74C467.305 328.08 522.096 308.163 580.971 266.871C627.203 234.428 662.671 218.727 686.402 220.225C734.514 223.261 736.783 293.879 739.118 368.653C741.971 460.246 745.213 564.046 834.758 569.1C916.133 573.675 1056.12 496.464 1262.71 333.034C1575.24 86.0208 1791.03 25.7508 1919.48 19.8776L1919.48 18.9987C1790.25 24.7919 1573.17 85.1019 1260.05 332.634C1054.05 495.605 915.096 572.636 835.277 568.141C748.066 563.227 744.824 459.807 741.971 368.573C739.507 290.164 737.432 222.462 686.986 219.286C661.374 217.668 625.841 233.09 578.313 266.431C519.956 307.364 466.073 327.101 413.422 326.781C323.683 326.222 249.051 267.51 169.945 205.362C116.776 163.551 62.504 120.88 0.516232 92.9128L0.516232 94.471C61.2073 122.438 114.766 164.39 167.287 205.682C246.717 268.229 321.738 327.181 413.358 327.74Z" fill="#009999"/>
<path d="M414.135 320.547C468.601 320.747 523.197 301.349 581.035 261.216C626.748 229.513 662.151 214.19 686.402 215.689C735.616 218.745 740.479 288.304 745.666 361.939C752.15 452.194 759.153 554.515 850.773 559.529C933.315 564.084 1072.98 488.592 1276.97 328.737C1575.24 94.6891 1788.37 32.3415 1919.74 23.6316L1919.74 22.7327C1787.59 31.3826 1573.36 93.7502 1274.31 328.378C1071.17 487.773 932.861 563.085 851.486 558.63C762.265 553.716 755.133 451.814 748.778 361.879C743.397 284.668 738.728 218.046 687.244 214.79C661.308 213.171 625.646 228.234 578.636 260.736C521.317 300.51 467.564 319.748 414.459 319.548C322.644 319.188 244.187 260.896 161.126 199.188C110.161 161.352 58.2886 122.836 0.774655 95.3083L0.774655 96.9264C57.1213 124.275 108.216 162.251 158.468 199.527C241.658 261.635 320.44 320.167 414.135 320.547Z" fill="#009999"/>
<path d="M414.587 313.456C469.507 313.456 523.779 294.638 580.709 255.663C626.098 224.679 661.306 209.717 686.011 211.235C736.327 214.291 743.914 282.812 751.889 355.368C761.745 444.344 772.833 545.147 866.463 550.181C950.756 554.696 1089.71 480.902 1290.59 324.563C1575.89 102.821 1785.52 38.895 1919.54 27.5882L1919.54 26.6892C1785 37.9162 1574.01 101.782 1288.19 324.224C1087.89 480.043 950.172 553.737 867.241 549.322C775.88 544.448 764.792 443.985 755.066 355.348C746.637 279.256 739.375 213.512 686.854 210.376C660.269 208.758 624.801 223.461 578.31 255.304C521.963 293.919 468.47 312.657 414.846 312.577C320.892 312.437 238.544 254.644 151.398 193.236C103.027 159.275 54.1373 124.635 0.578732 98.1262L0.578732 99.8042C52.7756 126.074 101.147 160.114 148.74 193.595C236.275 255.164 318.947 313.316 414.587 313.456Z" fill="#009999"/>
<path d="M415.238 306.485C470.547 306.485 524.624 288.026 580.517 250.19C625.257 219.945 660.66 205.362 685.819 206.86C737.302 209.897 747.547 277.419 758.375 348.916C771.733 436.654 786.841 536.098 882.546 541.053C968.654 545.507 1106.83 473.371 1304.92 320.489C1577.25 110.273 1783.77 45.388 1919.48 31.7439L1919.48 30.825C1782.73 44.4891 1575.24 109.314 1302.26 320.169C1104.76 472.592 967.617 544.548 883.064 540.174C789.564 535.339 774.521 436.294 761.293 348.876C749.881 273.903 740.09 209.158 686.402 205.982C659.364 204.383 623.896 218.707 577.924 249.831C522.485 287.307 469.25 305.546 415.173 305.606C319.079 305.606 232.841 248.153 141.48 187.243C96.0915 156.859 49.6656 126.014 0.516232 100.983L0.516232 102.681C48.6282 127.453 94.0813 157.738 138.821 187.603C230.571 248.792 317.328 306.565 415.238 306.485Z" fill="#009999"/>
<path d="M415.497 299.632C471.196 299.452 525.013 281.513 579.998 244.816C624.22 215.27 659.623 201.047 685.3 202.525C737.886 205.581 750.854 272.144 764.535 342.602C781.394 429.122 800.457 527.208 898.432 532.122C986.161 536.517 1123.75 465.999 1319.18 316.553C1579.65 117.304 1782.28 51.8399 1919.48 36.0383L1919.48 35.0994C1781.56 50.8411 1577.77 116.325 1316.46 316.213C1121.35 465.24 985.189 535.558 898.885 531.243C803.245 526.429 784.182 428.742 767.453 342.542C753.059 268.628 740.674 204.842 685.818 201.646C658.326 200.068 622.858 214.052 577.34 244.436C522.938 280.814 469.963 298.573 415.238 298.753C316.939 299.053 226.616 241.859 130.976 181.29C88.5051 154.361 45.3857 127.092 0.321408 103.859L0.321408 105.597C44.4132 128.511 86.6893 155.26 128.382 181.689C224.606 242.498 315.318 299.952 415.497 299.632Z" fill="#009999"/>
<path d="M415.627 292.88C471.649 292.56 525.208 275.1 579.22 239.502C622.988 210.655 658.456 196.791 684.522 198.269C738.34 201.326 754.031 266.93 770.63 336.389C790.99 421.77 814.074 518.518 914.253 523.392C1003.6 527.727 1140.74 458.807 1333.51 312.717C1582.57 123.916 1780.92 58.2121 1919.48 40.4727L1919.48 39.5138C1780.46 57.1933 1580.69 122.957 1330.79 312.377C1138.67 458.048 1002.57 526.768 914.707 522.513C816.797 517.758 793.779 421.37 773.484 336.329C756.041 263.494 741.063 200.487 685.041 197.39C657.094 195.812 621.626 209.376 576.627 239.122C523.068 274.401 470.418 291.681 415.562 291.981C314.929 292.54 220.521 235.646 120.537 175.416C81.6322 151.763 41.5605 127.851 0.516232 106.696L0.516232 108.414C40.6527 129.25 79.5571 152.662 117.943 175.815C218.381 236.265 313.243 293.439 415.627 292.88Z" fill="#009999"/>
<path d="M415.562 286.208C471.909 285.769 525.143 268.788 578.248 234.269C621.561 206.121 657.029 192.597 683.614 194.055C738.664 197.112 757.014 261.797 776.531 330.297C800.457 414.539 827.625 510.088 930.074 514.823C1020.85 519.098 1157.73 451.756 1347.91 309.062C1586.07 130.13 1780.59 64.4658 1919.48 45.0283L1919.48 44.0695C1779.81 63.4669 1584.25 129.171 1345.25 308.642C1155.66 451.017 1020.01 518.159 930.268 513.964C830.025 509.269 802.986 414.08 779.124 330.177C758.7 258.261 741.063 196.333 683.873 193.156C655.408 191.578 619.94 204.883 575.395 233.849C522.809 268.029 470.417 284.85 415.238 285.269C312.335 286.068 213.648 229.454 109.189 169.524C73.4622 148.988 37.3455 128.252 0.256467 109.334L0.256467 111.032C36.3728 129.61 71.5817 149.887 106.661 169.943C211.832 230.273 310.844 287.027 415.562 286.208Z" fill="#009999"/>
<path d="M1359.77 305.046C1172.71 444.124 1037.51 509.748 946.348 505.633C843.64 500.998 812.582 407.107 785.154 324.263C761.682 253.426 741.387 192.237 682.965 189.08C654.046 187.522 618.578 200.507 574.486 228.774C522.614 261.876 470.741 278.237 415.302 278.716C310 279.755 207.033 223.4 98.0359 163.73C65.9397 146.15 33.5193 128.431 0.774655 111.79L0.774655 113.488C33.1951 129.709 64.4486 146.989 95.7667 164.109C205.218 224.04 308.639 280.614 415.626 279.555C472.232 278.996 525.142 262.455 577.339 229.034C620.199 201.566 655.667 188.381 682.77 189.839C739.052 192.876 760.125 256.682 782.56 324.243C810.118 407.407 841.306 501.657 946.154 506.392C1038.81 510.567 1175.11 444.783 1362.69 305.265C1590.41 135.882 1780.53 70.5979 1919.74 49.5624L1919.74 48.5835C1779.49 69.699 1588.21 135.063 1359.77 305.046Z" fill="#009999"/>
<path d="M414.979 273.223C471.844 272.524 524.365 256.462 575.654 224.1C618.708 196.911 653.463 184.426 681.15 185.884C738.729 188.901 762.59 251.808 787.943 318.51C819.066 400.615 854.405 493.687 961.716 498.302C1056.06 502.397 1191.9 438.131 1377.02 301.83C1594.69 141.576 1780.33 76.8509 1919.48 54.4769L1919.48 53.498C1779.55 75.8321 1592.94 140.637 1374.36 301.55C1189.83 437.392 1055.02 501.518 962.17 497.502C857.063 492.928 821.855 400.215 790.796 318.43C764.276 248.512 741.322 188.162 681.669 185.045C652.231 183.487 616.828 196.152 573.061 223.72C522.29 255.683 470.547 271.665 414.849 272.364C307.213 273.662 199.837 217.528 86.1062 158.097C57.8356 143.314 29.3705 128.431 0.516233 114.148L0.516233 115.826C28.5275 129.67 56.2146 144.133 83.6422 158.496C197.827 218.287 305.657 274.541 414.979 273.223Z" fill="#009999"/>
<path d="M1389.15 298.193C1207.01 430.899 1072.53 493.507 977.994 489.571C870.358 485.096 830.999 393.523 796.439 312.736C766.807 243.757 741.195 184.186 680.245 181.069C650.353 179.551 614.82 191.877 571.571 218.786C521.709 249.79 470.355 265.252 414.462 266.051C304.233 267.609 192.512 211.674 73.9827 152.463C49.7323 140.337 25.2872 128.151 0.647703 116.305L0.647702 117.943C24.4443 129.409 48.0467 141.216 71.5192 152.942C190.372 212.293 302.741 268.468 414.592 266.87C471.587 266.051 523.784 250.429 574.165 219.105C616.765 192.616 651.325 180.43 679.791 181.888C738.666 184.885 765.316 247.013 793.586 312.776C828.406 393.882 867.894 485.816 977.734 490.39C1073.76 494.386 1209.22 431.618 1391.94 298.473C1599.95 146.849 1780.98 82.9234 1919.61 59.3108L1919.61 58.3319C1780.01 81.8846 1598.07 145.89 1389.15 298.193Z" fill="#009999"/>
<path d="M413.749 260.617C470.939 259.678 522.746 244.496 572.22 214.211C614.431 188.361 648.991 176.495 677.911 177.933C738.148 180.91 767.65 242.238 798.839 307.163C837.419 387.31 881.122 478.145 993.361 482.599C1091.08 486.495 1226.2 425.186 1406.53 295.177C1605.33 151.863 1781.44 88.8966 1919.35 64.2452L1919.35 63.2463C1780.66 87.8378 1603.51 150.905 1403.87 294.837C1224.13 424.427 1089.97 485.556 993.75 481.72C883.521 477.345 839.948 386.871 801.562 307.043C768.817 238.942 740.547 180.151 678.364 177.054C648.019 175.556 612.486 187.582 569.626 213.811C520.672 243.777 469.642 258.819 413.619 259.758C301.12 261.596 184.537 205.821 61.1446 146.809C41.0439 137.18 20.8787 127.532 0.518674 118.043L0.518674 119.641C19.9709 128.77 39.4231 138.039 58.8754 147.289C182.592 206.52 299.629 262.475 413.749 260.617Z" fill="#009999"/>
<path d="M412.904 254.444C470.158 253.405 521.577 238.642 570.208 209.356C611.965 184.186 646.59 172.619 676.028 174.037C737.562 176.994 769.917 237.544 804.153 301.649C846.429 380.857 894.347 470.653 1009.44 475.008C1108.84 478.784 1243.64 418.913 1421.63 292.001C1611.49 156.618 1782.67 94.7895 1919.48 69.2592L1919.48 68.2404C1781.82 93.7308 1609.67 155.679 1418.97 291.641C1241.63 418.154 1107.74 477.845 1009.83 474.129C896.875 469.854 849.088 380.418 807.006 301.509C771.214 234.268 740.091 176.215 676.482 173.158C645.617 171.68 610.02 183.387 567.614 208.957C519.502 237.943 468.861 252.526 412.709 253.565C297.811 255.683 176.494 200.067 48.0443 141.196C32.2231 133.964 16.4022 126.712 0.516233 119.521L0.516233 121.099C15.6241 127.931 30.6672 134.823 45.9048 141.695C174.679 200.786 296.32 256.602 412.904 254.444Z" fill="#009999"/>
<path d="M411.929 248.371C469.183 247.212 520.213 232.889 567.936 204.602C609.109 180.07 643.994 168.824 673.95 170.202C736.911 173.138 772.119 232.949 809.338 296.256C855.44 374.565 907.701 463.342 1025.52 467.597C1126.6 471.232 1261.15 412.78 1436.8 288.924C1618.03 161.073 1784.15 100.623 1919.54 74.3333L1919.54 73.3145C1783.38 99.544 1616.22 160.234 1434.21 288.565C1259.14 412.021 1125.5 470.353 1025.71 466.698C909.971 462.543 857.904 374.105 811.737 296.096C772.833 229.693 738.921 172.359 673.95 169.323C642.632 167.865 607.035 179.311 564.953 204.182C517.749 232.15 467.692 246.334 411.345 247.492C293.854 249.869 167.673 194.394 34.0363 135.622C22.7972 130.654 11.4934 125.687 0.124632 120.719L0.124632 122.397L31.7021 136.261C166.182 195.113 292.816 250.808 411.929 248.371Z" fill="#009999"/>
<path d="M410.761 242.379C468.015 241.12 518.591 227.216 565.471 199.908C606.45 175.936 641.14 165.048 671.551 166.427C735.937 169.324 774.064 228.355 814.2 290.962C864.128 368.432 920.669 456.23 1041.14 460.346C1143.85 463.842 1278.14 406.808 1451.59 285.948C1624.39 165.508 1785.32 106.357 1919.02 79.4879L1919.02 78.4491C1784.54 105.298 1622.64 164.569 1448.93 285.589C1276.06 406.049 1142.81 462.923 1041.47 459.387C922.874 455.391 866.397 367.873 816.729 290.703C774.453 225.099 737.948 168.445 671.551 165.468C639.779 164.03 604.116 175.137 562.423 199.429C516.127 226.457 466.265 240.201 410.047 241.38C290.092 244.057 158.919 188.681 20.0303 130.049L0.0592022 121.619L0.0592021 123.137L17.6958 130.568C157.557 189.52 289.184 245.096 410.761 242.379Z" fill="#009999"/>
<path d="M1465.01 282.712C1294.35 400.196 1161.3 455.711 1058.26 452.395C936.752 448.499 875.932 361.94 822.308 285.569C776.92 220.744 737.496 164.769 669.608 161.712C637.188 160.314 601.72 171.121 560.416 194.754C515.028 220.724 465.554 234.148 409.402 235.487C286.853 238.443 150.558 183.147 6.28686 124.595L0.710203 122.358L0.710203 123.816L3.95227 125.135C148.742 183.887 285.491 239.382 409.596 236.386C466.786 235.007 516.973 221.523 562.945 195.174C603.6 171.901 638.355 161.213 669.219 162.591C735.097 165.448 776.142 223.84 819.52 285.649C873.338 362.32 934.353 449.219 1057.94 453.174C1162.4 456.53 1296.42 400.855 1467.6 282.972C1632.36 169.563 1788.05 111.93 1919.67 84.582L1919.67 83.5432C1787.01 110.951 1630.35 168.724 1465.01 282.712Z" fill="#009999"/>
<path d="M408.105 230.672C465.165 229.193 514.898 216.109 560.092 190.718C600.293 168.084 635.113 157.716 666.431 159.015C733.865 161.852 777.828 219.565 824.318 280.674C882.156 356.585 947.516 442.486 1074.28 446.481C1180.36 449.677 1314.19 395.36 1483.17 280.394C1640.08 173.718 1790.38 117.723 1919.67 90.035L1919.67 88.9762C1789.54 116.644 1638.27 172.879 1480.57 280.034C1311.99 394.601 1179.26 448.758 1074.54 445.602C949.98 441.846 884.75 356.166 827.171 280.554C778.346 216.468 736.394 161.132 666.82 158.216C634.4 156.857 598.413 167.365 557.563 190.378C512.888 215.509 463.933 228.434 407.846 229.873C285.362 233.049 147.121 180.13 0.710204 123.017L0.710204 124.395C146.537 181.329 284.519 233.848 408.105 230.672Z" fill="#009999"/>
<path d="M406.289 224.938C463.219 223.36 512.434 210.695 556.785 186.203C596.662 164.229 631.481 154.081 663.318 155.359C732.244 158.156 779.189 215.289 828.922 275.659C890.715 350.832 960.743 436.013 1090.49 439.649C1198.25 442.685 1331.76 389.707 1498.99 277.617C1648.12 177.433 1793.04 123.137 1919.74 95.2489L1919.74 94.0503C1892.55 100.034 1866.76 106.602 1842.58 113.707C1722.3 148.767 1605.78 203.803 1496.39 277.238C1330.01 388.928 1197.41 441.767 1091.01 438.77C963.337 435.174 893.503 350.313 831.969 275.44C780.096 212.073 734.708 157.357 663.902 154.48C630.833 153.142 595.041 163.39 554.515 185.764C510.683 209.976 462.182 222.501 406.289 224.039C285.296 227.375 146.926 178.093 0.774657 123.156L0.774657 124.555C146.602 179.271 284.453 228.274 406.289 224.938Z" fill="#009999"/>
<path d="M404.412 219.265C461.147 217.627 509.908 205.281 553.546 181.748C593.034 160.333 627.983 150.525 660.209 151.783C730.755 154.52 780.683 210.975 833.593 270.765C899.536 345.219 974.233 429.621 1107.16 433.097C1216.54 435.953 1349.86 384.253 1514.75 275.04C1656.55 181.149 1795.83 128.59 1919.61 100.623L1919.61 99.3842C1898.04 104.246 1877.37 109.475 1857.69 115.046C1736.83 149.146 1620.57 202.944 1512.15 274.661C1347.85 383.494 1215.44 435.034 1107.35 432.218C976.437 428.782 902.065 344.719 836.381 270.525C780.942 207.838 733.025 153.701 660.598 150.904C627.01 149.606 591.218 159.554 551.017 181.329C508.027 204.642 460.239 216.768 404.282 218.386C284.91 221.862 146.994 175.835 0.647704 123.156L0.647704 124.515C146.54 177.054 284.197 222.761 404.412 219.265Z" fill="#009999"/>
<path d="M402.399 213.691C458.94 211.973 507.117 200.087 549.847 177.373C588.752 156.557 623.96 147.028 656.705 148.227C728.808 150.924 781.848 206.799 838.259 265.97C908.352 339.765 987.782 423.407 1123.95 426.704C1235.02 429.361 1368.14 378.959 1530.95 272.563C1665.56 184.665 1799.14 133.984 1920 106.036L1920 104.797C1904.52 108.38 1889.11 112.249 1873.77 116.404C1752.19 149.546 1636.06 201.945 1528.62 272.223C1366.52 378.24 1234.11 428.502 1124.47 425.845C990.246 422.628 911.075 339.285 841.307 265.751C782.366 203.723 731.531 150.145 657.548 147.408C623.571 146.129 587.714 155.798 547.902 176.974C505.691 199.428 458.162 211.154 402.658 212.932C284.778 216.528 147.25 173.578 1.03442 123.036L1.03442 124.375C146.472 174.636 283.805 217.307 402.399 213.691Z" fill="#009999"/>
<path d="M400.262 208.298C456.479 206.5 504.007 195.013 546.089 173.159C584.993 152.922 619.878 143.653 653.076 144.831C726.8 147.468 782.758 202.764 842.411 261.356C916.719 334.531 1000.95 417.475 1140.68 420.551C1253.31 423.048 1386.23 373.886 1547.04 270.286C1674.58 188.101 1802.51 139.398 1919.61 111.61L1919.61 110.352C1909.58 112.735 1899.55 115.239 1889.53 117.863C1767.17 150.045 1651.11 201.186 1544.44 269.906C1384.22 373.146 1252.21 422.13 1140.87 419.732C1003.28 416.696 919.312 334.072 845.329 261.156C782.952 199.748 729.135 146.729 653.53 144.032C619.1 142.794 583.178 152.203 543.755 172.759C502.321 194.354 455.312 205.721 400.067 207.479C283.743 211.194 146.669 171.081 0.647705 122.677L0.647704 123.976C146.28 172.08 283.224 211.934 400.262 208.298Z" fill="#009999"/>
<path d="M397.86 202.765C453.753 200.907 500.893 189.8 542.067 168.804C580.517 149.147 615.531 140.157 649.119 141.296C724.594 143.873 783.923 198.649 846.689 256.642C925.341 329.258 1014.5 411.542 1157.6 414.459C1271.79 416.736 1404.51 368.832 1563.31 267.969C1683.98 191.338 1806.07 144.632 1919.48 117.104L1919.48 115.846C1914.94 116.944 1910.4 118.063 1905.93 119.202C1782.73 150.365 1666.6 200.307 1560.72 267.509C1402.5 367.993 1270.68 415.757 1157.79 413.48C1016.64 410.663 927.805 328.678 849.477 256.342C783.599 195.553 726.733 143.034 649.443 140.477C614.623 139.298 578.702 148.468 539.603 168.444C498.948 189.2 452.457 200.188 397.536 202.005C282.768 205.821 146.343 168.365 0.516235 122.098L0.516235 123.377C146.084 169.363 282.379 206.6 397.86 202.765Z" fill="#009999"/>
<path d="M1577.32 265.312C1421.05 363.199 1289.42 409.625 1174.98 407.567C1030.19 404.97 936.43 323.664 853.629 251.748C784.249 191.518 724.271 139.498 645.295 136.921C610.087 135.783 573.97 144.652 535.39 164.05C495.513 184.027 449.606 194.594 395.01 196.472C281.733 200.368 146.021 165.368 0.518311 121.06L0.51831 122.398C145.762 166.567 281.409 201.346 395.334 197.431C450.838 195.433 497.458 184.786 537.984 164.589C576.11 145.511 611.124 136.781 645.166 137.88C722.326 140.397 784.833 194.674 851.1 252.107C934.161 324.164 1028.25 405.929 1174.98 408.466C1290.66 410.464 1423.19 363.858 1580.04 265.712C1693.97 194.454 1810.23 149.846 1919.61 122.618L1919.61 121.479C1809.25 148.668 1691.96 193.536 1577.32 265.312Z" fill="#009999"/>
<path d="M392.546 192.137C447.661 190.14 493.763 179.812 533.38 160.414C571.182 141.896 606.261 133.425 640.692 134.444C719.603 136.901 785.416 190.679 855.055 247.613C942.655 319.17 1041.86 400.256 1192.23 402.653C1309.4 404.511 1441.74 359.023 1596.64 263.554C1703.95 197.451 1814.31 154.881 1919.42 128.192L1919.42 127.033C1813.47 153.782 1702.2 196.572 1594.11 263.175C1439.73 358.264 1308.29 403.612 1192.1 401.754C1043.55 399.397 944.665 318.59 857.455 247.313C784.379 187.622 721.289 136.082 640.627 133.565C605.029 132.467 569.302 141.077 530.397 159.895C491.493 179.052 446.104 189.301 391.703 191.218C279.982 195.214 145.308 162.492 -0.000366211 120.141L-0.000366264 121.359C145.373 163.61 280.177 196.113 392.546 192.137Z" fill="#009999"/>
<path d="M389.561 186.923C444.287 184.925 489.805 174.937 528.645 156.298C566.123 138.319 601.266 130.129 636.021 131.147C716.748 133.545 785.868 186.863 859.073 243.297C951.212 314.375 1055.67 394.921 1209.93 397.119C1328.59 398.757 1460.67 354.448 1613.69 261.636C1714.58 200.487 1818.91 160.054 1919.48 133.944L1919.48 132.786C1818.07 158.975 1712.77 199.608 1611.16 261.236C1458.66 353.689 1327.48 397.858 1210.06 396.22C1057.68 394.102 953.611 313.835 861.732 243.018C785.025 183.846 719.082 132.746 636.345 130.308C600.359 129.25 564.372 137.6 526.116 155.859C487.86 174.117 442.86 184.126 389.107 186.084C278.878 190.079 144.981 159.554 0.0621338 119.101L0.0621337 120.3C144.917 160.593 278.813 190.958 389.561 186.923Z" fill="#009999"/>
<path d="M1628.41 259.28C1477.79 349.175 1346.74 392.125 1227.89 390.727C1071.62 388.869 962.043 309.082 865.625 238.683C785.222 180.012 715.713 129.35 631.484 126.973C595.109 125.954 559.122 134.045 521.255 151.744C483.388 169.444 439.361 178.913 385.997 180.91C277.389 184.906 144.4 156.419 0.453735 117.804L0.453735 118.982C144.271 157.478 277.13 185.845 386.386 181.789C440.593 179.792 485.528 170.103 523.654 152.224C560.808 134.844 595.952 126.853 631.16 127.852C713.703 130.169 786.195 183.048 862.966 239.023C959.773 309.661 1069.61 389.728 1227.76 391.606C1347.85 393.024 1479.73 349.874 1630.88 259.759C1725.35 203.424 1823.65 165.169 1919.42 139.738L1919.42 138.56C1822.87 163.99 1723.6 202.466 1628.41 259.28Z" fill="#009999"/>
<path d="M383.012 176.715C436.765 174.717 481.116 165.348 518.594 148.228C556.072 131.108 590.567 123.636 626.1 124.595C710.393 126.853 786.452 179.292 866.854 234.827C968.525 305.066 1083.75 384.653 1245.98 386.292C1367.43 387.49 1498.86 345.479 1648.38 257.861C1736.5 206.141 1828.7 170.103 1919.48 145.451L1919.48 144.372C1827.86 169.104 1734.75 205.342 1645.79 257.521C1497.04 344.8 1366.32 386.671 1246.04 385.373C1085.69 383.794 970.794 304.447 869.448 234.448C785.155 176.255 712.468 125.994 626.36 123.676C589.66 122.698 553.673 130.548 516.13 147.649C478.587 164.749 435.468 173.758 382.623 175.776C275.571 179.771 143.749 153.182 0.451172 116.345L0.451172 117.504C143.62 154.361 275.376 180.79 383.012 176.715Z" fill="#009999"/>
<path d="M379.446 171.7C432.68 169.702 476.383 160.673 513.148 144.252C549.912 127.831 584.861 120.399 620.719 121.358C707.022 123.556 786.452 175.615 870.55 230.731C977.213 300.65 1098.01 379.798 1264.39 381.117C1387.2 382.096 1518.5 341.203 1666.02 256.242C1747.98 208.977 1834.02 175.216 1919.48 151.463L1919.48 150.265C1833.11 174.117 1746.23 208.198 1663.49 255.822C1516.56 340.564 1386.03 381.277 1264.46 380.318C1099.89 379.019 979.158 300.091 873.144 230.492C785.025 172.739 708.902 122.857 620.978 120.619C583.954 119.68 547.967 127.291 510.749 143.892C474.438 160.093 431.383 168.943 378.992 170.961C273.496 174.956 142.906 150.145 0.451172 115.026L0.451172 116.144C142.777 151.024 273.431 175.795 379.446 171.7Z" fill="#009999"/>
<rect x="1827" y="0.00012207" width="93" height="173" fill="url(#paint0_linear_673_12947)"/>
<rect width="93" height="85" transform="matrix(-1 0 0 1 93 78)" fill="url(#paint1_linear_673_12947)"/>
</g>
<defs>
<linearGradient id="paint0_linear_673_12947" x1="1896.09" y1="64.6187" x2="1826.39" y2="75.3713" gradientUnits="userSpaceOnUse">
<stop stop-color="#F0FFFF"/>
<stop offset="1" stop-color="#F0FFFF" stop-opacity="0"/>
</linearGradient>
<linearGradient id="paint1_linear_673_12947" x1="69.0857" y1="31.749" x2="4.13946" y2="52.1437" gradientUnits="userSpaceOnUse">
<stop stop-color="#F0FFFF"/>
<stop offset="1" stop-color="#F0FFFF" stop-opacity="0"/>
</linearGradient>
</defs>
</svg>
