<svg width="1920" height="610" viewBox="0 0 1920 610" fill="none" xmlns="http://www.w3.org/2000/svg"><g opacity=".2"><path d="M199.902 230.952c64.127 64.525 124.688 125.494 208.463 126.793 51.872.819 107.376-21.216 170.207-67.322 48.436-35.539 84.293-52.799 106.079-51.321 44.092 2.977 35.663 78.15 26.715 157.817-11.412 102.062-23.278 207.579 58.746 212.653 75.345 4.655 218.384-79.747 437.348-258.04C1548.2 74.034 1762.82 11.047 1882.84 7.092c12.25-.413 24.63-.197 36.64.64v-.92a369.565 369.565 0 00-36.96-.6c-120.8 3.996-336.52 67.083-677.78 345-218.384 177.794-360.321 262.056-434.045 257.501-79.624-4.934-67.305-114.826-56.476-211.754 9.402-83.443 17.442-155.499-28.919-158.636-23.862-1.618-59.589 15.342-109.386 51.82-62.312 45.747-117.103 67.582-167.42 66.803-81.764-1.259-142.066-61.929-205.869-126.174C143.879 171.601 83.512 110.791.516 89.236v1.14C81.762 111.99 141.61 172.34 199.902 230.951z" fill="#099"/><path d="M409.859 350.133c52.326.68 107.765-20.795 169.623-65.703 47.917-34.74 83.515-51.6 105.885-50.102 45.065 2.996 39.294 76.991 33.134 155.32-3.761 48.903-7.716 99.464-.454 138.998 8.364 45.148 30.734 68.201 68.407 70.478 76.772 4.655 218.966-77.909 434.436-252.407 335.22-271.125 551.14-332.633 672.59-336.489 8.62-.296 17.32-.296 25.94 0V9.33c-8.62-.29-17.32-.29-25.94 0-122.61 3.876-339.25 65.504-675.06 337.049-215.14 174.018-356.621 256.402-431.512 251.847-81.44-4.914-73.011-113.128-65.554-208.577 6.484-82.125 11.931-153.063-35.403-156.199-24.316-1.618-59.978 14.943-109.192 50.621-61.275 44.508-115.87 65.924-166.835 65.145-83.71-1.099-147.449-61.249-214.948-124.915C137.009 169.643 77.549 113.608.454 88.977v1.258c75.54 24.712 134.35 80.227 191.734 134.344 67.953 63.926 132.016 124.356 217.671 125.554z" fill="#099"/><path d="M411.218 342.502c52.845.579 108.154-20.377 168.975-64.046 47.269-33.96 82.867-50.441 105.691-48.943 46.036 3.016 42.924 75.912 39.617 152.962-4.02 94.351-8.559 201.307 77.096 206.381 78.328 4.634 219.743-76.112 432.363-246.854C1564.87 77.09 1781.5 17.04 1905.09 13.304c4.78-.132 9.59-.186 14.39-.16v-.879c-4.89-.026-9.78.027-14.65.16-124.43 3.756-342.1 63.926-672.53 329.258-212.1 170.262-352.413 250.848-429.119 246.294-83.321-4.935-78.782-111.491-74.762-205.482 3.437-80.846 6.484-150.685-41.952-153.821-24.704-1.618-60.367 14.563-108.932 49.443-60.302 43.309-114.704 64.085-166.252 63.526-85.59-.939-152.96-60.57-224.22-123.697C130.327 167.705 72.23 116.264.516 89.616v1.378c70.417 26.649 127.672 77.53 183.824 127.292 71.649 63.346 139.472 123.257 226.878 124.216z" fill="#099"/><path d="M412.38 335.071c53.428.459 108.478-19.977 168.586-62.447 46.815-33.202 82.283-49.283 105.626-47.785 47.074 3.017 46.62 74.713 46.101 150.665-.583 92.932-1.232 198.31 86.368 203.364 79.819 4.615 220.459-74.354 430.089-241.4 324.72-258.82 542.39-317.431 667.86-321.027h2.85v-.899h-3.11c-126.24 3.616-344.95 62.348-670.19 321.627-209.05 166.586-348.652 245.375-426.915 240.84-85.266-4.914-84.293-109.872-84.293-202.485.518-79.627.908-148.368-48.436-151.544-25.159-1.618-60.756 14.184-108.803 48.304-59.329 42.111-113.472 62.348-165.604 61.928-87.664-.739-158.6-59.93-233.426-122.518C123.903 165.748 67.556 118.782.9 91.054v1.379c65.295 27.688 120.993 74.074 175.459 119.481 75.086 62.967 146.411 122.398 236.021 123.157z" fill="#099"/><path d="M413.358 327.74c53.947.34 108.738-19.577 167.613-60.869 46.232-32.443 81.7-48.144 105.431-46.646 48.112 3.036 50.381 73.654 52.716 148.428 2.853 91.593 6.095 195.393 95.64 200.447 81.375 4.575 221.362-72.636 427.952-236.066 312.53-247.013 528.32-307.283 656.77-313.156v-.88c-129.23 5.794-346.31 66.104-659.43 313.636-206 162.971-344.954 240.002-424.773 235.507-87.211-4.914-90.453-108.334-93.306-199.568-2.464-78.409-4.539-146.111-54.985-149.287-25.612-1.618-61.145 13.804-108.673 47.145-58.357 40.933-112.24 60.67-164.891 60.35-89.739-.559-164.371-59.271-243.477-121.419C116.776 163.551 62.504 120.88.516 92.912v1.559c60.691 27.967 114.25 69.919 166.771 111.211 79.43 62.547 154.451 121.499 246.071 122.058z" fill="#099"/><path d="M414.135 320.547c54.466.2 109.062-19.198 166.9-59.331 45.713-31.703 81.116-47.026 105.367-45.527 49.214 3.056 54.077 72.615 59.264 146.25 6.484 90.255 13.487 192.576 105.107 197.59 82.542 4.555 222.207-70.937 426.197-230.792 298.27-234.048 511.4-296.396 642.77-305.105v-.9c-132.15 8.65-346.38 71.018-645.43 305.646-203.14 159.395-341.449 234.707-422.824 230.252-89.221-4.914-96.353-106.816-102.708-196.751-5.381-77.211-10.05-143.833-61.534-147.089-25.936-1.619-61.598 13.444-108.608 45.946-57.319 39.774-111.072 59.012-164.177 58.812-91.815-.36-170.272-58.652-253.333-120.36C110.161 161.352 58.289 122.836.775 95.308v1.618c56.346 27.349 107.441 65.325 157.693 102.601 83.19 62.108 161.972 120.64 255.667 121.02z" fill="#099"/><path d="M414.587 313.456c54.92 0 109.192-18.818 166.122-57.793 45.389-30.984 80.597-45.946 105.302-44.428 50.316 3.056 57.903 71.577 65.878 144.133 9.856 88.976 20.944 189.779 114.574 194.813 84.293 4.515 223.247-69.279 424.127-225.618 285.3-221.742 494.93-285.668 628.95-296.975v-.899c-134.54 11.227-345.53 75.093-631.35 297.535-200.3 155.819-338.018 229.513-420.949 225.098-91.361-4.874-102.449-105.337-112.175-193.974-8.429-76.092-15.691-141.836-68.212-144.972-26.585-1.618-62.053 13.085-108.544 44.928-56.347 38.615-109.84 57.353-163.464 57.273-93.954-.14-176.302-57.933-263.448-119.341-48.371-33.961-97.26-68.601-150.82-95.11v1.678c52.198 26.27 100.569 60.31 148.162 93.791 87.535 61.569 170.207 119.721 265.847 119.861z" fill="#099"/><path d="M415.238 306.485c55.309 0 109.386-18.459 165.279-56.295 44.74-30.245 80.143-44.828 105.302-43.33 51.483 3.037 61.728 70.559 72.556 142.056 13.358 87.738 28.466 187.182 124.171 192.137 86.108 4.454 224.284-67.682 422.374-220.564 272.33-210.216 478.85-275.101 614.56-288.745v-.919c-136.75 13.664-344.24 78.489-617.22 289.344-197.5 152.423-334.643 224.379-419.196 220.005-93.5-4.835-108.543-103.88-121.771-191.298-11.412-74.973-21.203-139.718-74.891-142.894-27.038-1.599-62.506 12.725-108.478 43.849-55.439 37.476-108.674 55.715-162.751 55.775-96.094 0-182.332-57.453-273.693-118.363-45.388-30.384-91.814-61.229-140.964-86.26v1.698c48.112 24.772 93.565 55.057 138.305 84.922 91.75 61.189 178.507 118.962 276.417 118.882z" fill="#099"/><path d="M415.497 299.632c55.699-.18 109.516-18.119 164.501-54.816 44.222-29.546 79.625-43.769 105.302-42.291 52.586 3.056 65.554 69.619 79.235 140.077 16.859 86.52 35.922 184.606 133.897 189.52 87.729 4.395 225.318-66.123 420.748-215.569 260.47-199.249 463.1-264.713 600.3-280.515V35.1c-137.92 15.742-341.71 81.226-603.02 281.114-195.11 149.027-331.271 219.345-417.575 215.03-95.64-4.814-114.703-102.501-131.432-188.701-14.394-73.914-26.779-137.7-81.635-140.896-27.492-1.578-62.96 12.406-108.478 42.79-54.402 36.378-107.377 54.137-162.102 54.317-98.299.3-188.622-56.894-284.262-117.463-42.47-26.929-85.59-54.198-130.655-77.431v1.738c44.092 22.914 86.368 49.663 128.061 76.092 96.224 60.809 186.936 118.263 287.115 117.943z" fill="#099"/><path d="M415.627 292.88c56.022-.32 109.581-17.78 163.593-53.378 43.768-28.847 79.236-42.711 105.302-41.233 53.818 3.057 69.509 68.661 86.108 138.12 20.36 85.381 43.444 182.129 143.623 187.003 89.347 4.335 226.487-64.585 419.257-210.675 249.06-188.801 447.41-254.505 585.97-272.244v-.96c-139.02 17.68-338.79 83.444-588.69 272.864-192.12 145.671-328.22 214.391-416.083 210.136-97.91-4.755-120.928-101.143-141.223-186.184-17.443-72.835-32.421-135.842-88.443-138.939-27.947-1.578-63.415 11.986-108.414 41.732-53.559 35.279-106.209 52.559-161.065 52.859-100.633.559-195.041-56.335-295.025-116.565-38.905-23.653-78.977-47.565-120.02-68.72v1.718c40.136 20.836 79.04 44.248 117.426 67.401 100.438 60.45 195.3 117.624 297.684 117.065z" fill="#099"/><path d="M415.562 286.208c56.347-.439 109.581-17.42 162.686-51.939 43.313-28.148 78.781-41.672 105.366-40.214 55.05 3.057 73.4 67.742 92.917 136.242 23.926 84.242 51.094 179.791 153.543 184.526 90.776 4.275 227.656-63.067 417.836-205.761 238.16-178.932 432.68-244.596 571.57-264.034v-.959c-139.67 19.398-335.23 85.102-574.23 264.573-189.59 142.375-325.24 209.517-414.982 205.322-100.243-4.695-127.282-99.884-151.144-183.787-20.424-71.916-38.061-133.844-95.251-137.021-28.465-1.578-63.933 11.727-108.478 40.693-52.586 34.18-104.978 51.001-160.157 51.42-102.903.799-201.59-55.815-306.049-115.745-35.727-20.536-71.843-41.272-108.933-60.19v1.698c36.117 18.578 71.326 38.855 106.405 58.911 105.171 60.33 204.183 117.084 308.901 116.265z" fill="#099"/><path d="M1359.77 305.046c-187.06 139.078-322.26 204.702-413.422 200.587-102.708-4.635-133.766-98.526-161.194-181.37-23.472-70.837-43.767-132.026-102.189-135.183-28.919-1.558-64.387 11.427-108.479 39.694-51.872 33.102-103.745 49.463-159.184 49.942C310 279.755 207.033 223.4 98.036 163.73 65.94 146.15 33.519 128.431.775 111.79v1.698c32.42 16.221 63.674 33.501 94.992 50.621 109.451 59.931 212.872 116.505 319.859 115.446 56.606-.559 109.516-17.1 161.713-50.521 42.86-27.468 78.328-40.653 105.431-39.195 56.282 3.037 77.355 66.843 99.79 134.404 27.558 83.164 58.746 177.414 163.594 182.149 92.656 4.175 228.956-61.609 416.536-201.127 227.72-169.383 417.84-234.667 557.05-255.703v-.978c-140.25 21.115-331.53 86.479-559.97 256.462z" fill="#099"/><path d="M414.979 273.223c56.865-.699 109.386-16.761 160.675-49.123 43.054-27.189 77.809-39.674 105.496-38.216 57.579 3.017 81.44 65.924 106.793 132.626 31.123 82.105 66.462 175.177 173.773 179.792 94.344 4.095 230.184-60.171 415.304-196.472 217.67-160.254 403.31-224.98 542.46-247.353v-.979c-139.93 22.334-326.54 87.139-545.12 248.052-184.53 135.842-319.34 199.968-412.19 195.952-105.107-4.574-140.315-97.287-171.374-179.072-26.52-69.918-49.474-130.268-109.127-133.385-29.438-1.558-64.841 11.107-108.608 38.675-50.771 31.963-102.514 47.945-158.212 48.644-107.636 1.298-215.012-54.836-328.743-114.267-28.27-14.783-56.735-29.666-85.59-43.949v1.678c28.012 13.844 55.699 28.307 83.126 42.67 114.185 59.791 222.015 116.045 331.337 114.727z" fill="#099"/><path d="M1389.15 298.193c-182.14 132.706-316.62 195.314-411.156 191.378-107.636-4.475-146.995-96.048-181.555-176.835-29.632-68.979-55.244-128.55-116.194-131.667-29.892-1.518-65.425 10.808-108.674 37.717-49.862 31.004-101.216 46.466-157.109 47.265-110.229 1.558-221.95-54.377-340.48-113.588-24.25-12.126-48.695-24.312-73.334-36.158v1.638c23.796 11.466 47.399 23.273 70.871 34.999 118.853 59.351 231.222 115.526 343.073 113.928 56.995-.819 109.192-16.441 159.573-47.765 42.6-26.489 77.16-38.675 105.626-37.217 58.875 2.997 85.525 65.125 113.795 130.888 34.82 81.106 74.308 173.04 184.148 177.614 96.026 3.996 231.486-58.772 414.206-191.917 208.01-151.624 389.04-215.55 527.67-239.162v-.98c-139.6 23.554-321.54 87.559-530.46 239.862z" fill="#099"/><path d="M413.749 260.617c57.19-.939 108.997-16.121 158.471-46.406 42.211-25.85 76.771-37.716 105.691-36.278 60.237 2.977 89.739 64.305 120.928 129.23 38.58 80.147 82.283 170.982 194.522 175.436 97.719 3.896 232.839-57.413 413.169-187.422 198.8-143.314 374.91-206.28 512.82-230.932v-.999c-138.69 24.592-315.84 87.659-515.48 231.591-179.74 129.59-313.9 190.719-410.12 186.883-110.229-4.375-153.802-94.849-192.188-174.677-32.745-68.101-61.015-126.892-123.198-129.989-30.345-1.498-65.878 10.528-108.738 36.757-48.954 29.966-99.984 45.008-156.007 45.947-112.499 1.838-229.082-53.937-352.474-112.949-20.101-9.629-40.266-19.277-60.626-28.766v1.598c19.452 9.129 38.904 18.398 58.356 27.648C182.592 206.52 299.63 262.475 413.75 260.617z" fill="#099"/><path d="M412.904 254.444c57.254-1.039 108.673-15.802 157.304-45.088 41.757-25.17 76.382-36.737 105.82-35.319 61.534 2.957 93.889 63.507 128.125 127.612 42.276 79.208 90.194 169.004 205.287 173.359 99.4 3.776 234.2-56.095 412.19-183.007 189.86-135.383 361.04-197.211 497.85-222.742V68.24c-137.66 25.49-309.81 87.439-500.51 223.401-177.34 126.513-311.23 186.204-409.14 182.488-112.955-4.275-160.742-93.711-202.824-172.62-35.792-67.241-66.915-125.294-130.524-128.351-30.865-1.478-66.462 10.229-108.868 35.799-48.112 28.986-98.753 43.569-154.905 44.608-114.898 2.118-236.215-53.498-364.665-112.369-15.82-7.232-31.642-14.484-47.528-21.675v1.578c15.108 6.832 30.151 13.724 45.389 20.596 128.774 59.091 250.415 114.907 366.999 112.749z" fill="#099"/><path d="M411.929 248.371c57.254-1.159 108.284-15.482 156.007-43.769 41.173-24.532 76.058-35.778 106.014-34.4 62.961 2.936 98.169 62.747 135.388 126.054 46.102 78.309 98.363 167.086 216.182 171.341 101.08 3.635 235.63-54.817 411.28-178.673 181.23-127.851 347.35-188.301 482.74-214.59v-1.02c-136.16 26.23-303.32 86.92-485.33 215.251-175.07 123.456-308.71 181.788-408.5 178.133-115.739-4.155-167.806-92.593-213.973-170.602-38.904-66.403-72.816-123.737-137.787-126.773-31.318-1.458-66.915 9.988-108.997 34.859-47.204 27.968-97.261 42.152-153.608 43.31-117.491 2.377-243.672-53.098-377.309-111.87A8766.963 8766.963 0 00.125 120.719v1.678l31.577 13.864c134.48 58.852 261.114 114.547 380.227 112.11z" fill="#099"/><path d="M410.761 242.379c57.254-1.259 107.83-15.163 154.71-42.471 40.979-23.972 75.669-34.86 106.08-33.481 64.386 2.897 102.513 61.928 142.649 124.535 49.928 77.47 106.469 165.268 226.94 169.384 102.71 3.496 237-53.538 410.45-174.398 172.8-120.44 333.73-179.591 467.43-206.46v-1.039c-134.48 26.849-296.38 86.12-470.09 207.14-172.87 120.46-306.12 177.334-407.46 173.798-118.596-3.996-175.073-91.514-224.741-168.684-42.276-65.604-78.781-122.258-145.178-125.235-31.772-1.438-67.435 9.669-109.128 33.961-46.296 27.028-96.158 40.772-152.376 41.951-119.955 2.677-251.128-52.699-390.017-111.331l-19.97-8.43v1.518l17.636 7.431C157.557 189.52 289.184 245.096 410.76 242.379z" fill="#099"/><path d="M1465.01 282.712c-170.66 117.484-303.71 172.999-406.75 169.683-121.508-3.896-182.328-90.455-235.952-166.826-45.388-64.825-84.812-120.8-152.7-123.857-32.42-1.398-67.888 9.409-109.192 33.042-45.388 25.97-94.862 39.394-151.014 40.733-122.549 2.956-258.844-52.34-403.115-110.892L.71 122.358v1.458l3.242 1.319c144.79 58.752 281.539 114.247 405.644 111.251 57.19-1.379 107.377-14.863 153.349-41.212 40.655-23.273 75.41-33.961 106.274-32.583 65.878 2.857 106.923 61.249 150.301 123.058 53.818 76.671 114.833 163.57 238.42 167.525 104.46 3.356 238.48-52.319 409.66-170.202 164.76-113.409 320.45-171.042 452.07-198.39v-1.039c-132.66 27.408-289.32 85.181-454.66 199.169z" fill="#099"/><path d="M408.105 230.672c57.06-1.479 106.793-14.563 151.987-39.954 40.201-22.634 75.021-33.002 106.339-31.703 67.434 2.837 111.397 60.55 157.887 121.659 57.838 75.911 123.198 161.812 249.962 165.807 106.08 3.196 239.91-51.121 408.89-166.087 156.91-106.676 307.21-162.671 436.5-190.359v-1.059c-130.13 27.668-281.4 83.903-439.1 191.058-168.58 114.567-301.31 168.724-406.03 165.568-124.56-3.756-189.79-89.436-247.369-165.048-48.825-64.086-90.777-119.422-160.351-122.338-32.42-1.359-68.407 9.149-109.257 32.162-44.675 25.131-93.63 38.056-149.717 39.495C285.362 233.049 147.121 180.13.71 123.017v1.378c145.827 56.934 283.809 109.453 407.395 106.277z" fill="#099"/><path d="M406.289 224.938c56.93-1.578 106.145-14.243 150.496-38.735 39.877-21.974 74.696-32.122 106.533-30.844 68.926 2.797 115.871 59.93 165.604 120.3 61.793 75.173 131.821 160.354 261.568 163.99 107.76 3.036 241.27-49.942 408.5-162.032 149.13-100.184 294.05-154.48 420.75-182.368V94.05c-27.19 5.984-52.98 12.552-77.16 19.657-120.28 35.06-236.8 90.096-346.19 163.531-166.38 111.69-298.98 164.529-405.38 161.532-127.673-3.596-197.507-88.457-259.041-163.33-51.873-63.367-97.261-118.083-168.067-120.96-33.069-1.338-68.861 8.91-109.387 31.284-43.832 24.212-92.333 36.737-148.226 38.275C285.296 227.375 146.926 178.093.775 123.156v1.399c145.827 54.716 283.678 103.719 405.514 100.383z" fill="#099"/><path d="M404.412 219.265c56.735-1.638 105.496-13.984 149.134-37.517 39.488-21.415 74.437-31.223 106.663-29.965 70.546 2.737 120.474 59.192 173.384 118.982 65.943 74.454 140.64 158.856 273.567 162.332 109.38 2.856 242.7-48.844 407.59-158.057 141.8-93.891 281.08-146.45 404.86-174.417v-1.239c-21.57 4.862-42.24 10.091-61.92 15.662-120.86 34.1-237.12 87.898-345.54 159.615-164.3 108.833-296.71 160.373-404.8 157.557-130.913-3.436-205.285-87.499-270.969-161.693-55.439-62.687-103.356-116.824-175.783-119.621-33.588-1.298-69.38 8.65-109.581 30.425-42.99 23.313-90.778 35.439-146.735 37.057-119.372 3.476-257.288-42.551-403.634-95.23v1.359c145.892 52.539 283.549 98.246 403.764 94.75z" fill="#099"/><path d="M402.399 213.691c56.541-1.718 104.718-13.604 147.448-36.318 38.905-20.816 74.113-30.345 106.858-29.146 72.103 2.697 125.143 58.572 181.554 117.743 70.093 73.795 149.523 157.437 285.691 160.734 111.07 2.657 244.19-47.745 407-154.141 134.61-87.898 268.19-138.579 389.05-166.527v-1.239a1286.146 1286.146 0 00-46.23 11.607c-121.58 33.142-237.71 85.541-345.15 155.819-162.1 106.017-294.51 156.279-404.15 153.622-134.224-3.217-213.395-86.56-283.163-160.094-58.941-62.028-109.776-115.606-183.759-118.343-33.977-1.279-69.834 8.39-109.646 29.566-42.211 22.454-89.74 34.18-145.244 35.958-117.88 3.596-255.408-39.354-401.624-89.896v1.339c145.438 50.261 282.771 92.932 401.365 89.316z" fill="#099"/><path d="M400.262 208.298c56.217-1.798 103.745-13.285 145.827-35.139 38.904-20.237 73.789-29.506 106.987-28.328 73.724 2.637 129.682 57.933 189.335 116.525 74.308 73.175 158.539 156.119 298.269 159.195 112.63 2.497 245.55-46.665 406.36-150.265 127.54-82.185 255.47-130.888 372.57-158.676v-1.258a1356.301 1356.301 0 00-30.08 7.511c-122.36 32.182-238.42 83.323-345.09 152.043-160.22 103.24-292.23 152.224-403.57 149.826-137.59-3.036-221.558-85.66-295.541-158.576-62.377-61.408-116.194-114.427-191.799-117.124-34.43-1.238-70.352 8.171-109.775 28.727-41.434 21.595-88.443 32.962-143.688 34.72-116.324 3.715-253.398-36.398-399.42-84.802v1.299c145.633 48.104 282.577 87.958 399.615 84.322z" fill="#099"/><path d="M397.86 202.765c55.893-1.858 103.033-12.965 144.207-33.961 38.45-19.657 73.464-28.647 107.052-27.508 75.475 2.577 134.804 57.353 197.57 115.346 78.652 72.616 167.811 154.9 310.911 157.817 114.19 2.277 246.91-45.627 405.71-146.49 120.67-76.631 242.76-123.337 356.17-150.865v-1.258c-4.54 1.098-9.08 2.217-13.55 3.356-123.2 31.163-239.33 81.105-345.21 148.307-158.22 100.484-290.04 148.248-402.93 145.971-141.15-2.817-229.985-84.802-308.313-157.138-65.878-60.789-122.744-113.308-200.034-115.865-34.82-1.179-70.741 7.991-109.84 27.967-40.655 20.756-87.146 31.744-142.067 33.561-114.768 3.816-251.193-33.64-397.02-79.907v1.279C146.084 169.363 282.38 206.6 397.86 202.765z" fill="#099"/><path d="M1577.32 265.312c-156.27 97.887-287.9 144.313-402.34 142.255-144.79-2.597-238.55-83.903-321.351-155.819-69.38-60.23-129.358-112.25-208.334-114.827-35.208-1.138-71.325 7.731-109.905 27.129-39.877 19.977-85.784 30.544-140.38 32.422C281.733 200.368 146.021 165.368.518 121.06v1.338c145.244 44.169 280.891 78.948 394.816 75.033 55.504-1.998 102.124-12.645 142.65-32.842 38.126-19.078 73.14-27.808 107.182-26.709 77.16 2.517 139.667 56.794 205.934 114.227 83.061 72.057 177.15 153.822 323.88 156.359 115.68 1.998 248.21-44.608 405.06-142.754 113.93-71.258 230.19-115.866 339.57-143.094v-1.139c-110.36 27.189-227.65 72.057-342.29 143.833z" fill="#099"/><path d="M392.546 192.137c55.115-1.997 101.217-12.325 140.834-31.723 37.802-18.518 72.881-26.989 107.312-25.97 78.911 2.457 144.724 56.235 214.363 113.169 87.6 71.557 186.805 152.643 337.175 155.04 117.17 1.858 249.51-43.63 404.41-139.099 107.31-66.103 217.67-108.673 322.78-135.362v-1.159c-105.95 26.749-217.22 69.539-325.31 136.142-154.38 95.089-285.82 140.437-402.01 138.579-148.55-2.357-247.435-83.164-334.645-154.441-73.076-59.691-136.166-111.231-216.828-113.748-35.598-1.098-71.325 7.512-110.23 26.33-38.904 19.157-84.293 29.406-138.694 31.323C279.982 195.214 145.308 162.492 0 120.141v1.218c145.373 42.251 280.177 74.754 392.546 70.778z" fill="#099"/><path d="M389.561 186.923c54.726-1.998 100.244-11.986 139.084-30.625 37.478-17.979 72.621-26.169 107.376-25.151 80.727 2.398 149.847 55.716 223.052 112.15 92.139 71.078 196.597 151.624 350.857 153.822 118.66 1.638 250.74-42.671 403.76-135.483 100.89-61.149 205.22-101.582 305.79-127.692v-1.158c-101.41 26.189-206.71 66.822-308.32 128.45-152.5 92.453-283.68 136.622-401.1 134.984-152.38-2.118-256.449-82.385-348.328-153.202-76.707-59.172-142.65-110.272-225.387-112.71-35.986-1.058-71.973 7.292-110.229 25.551-38.256 18.258-83.256 28.267-137.009 30.225-110.229 3.995-244.126-26.53-389.045-66.983v1.199c144.855 40.293 278.751 70.658 389.499 66.623z" fill="#099"/><path d="M1628.41 259.28c-150.62 89.895-281.67 132.845-400.52 131.447-156.27-1.858-265.847-81.645-362.265-152.044-80.403-58.671-149.912-109.333-234.141-111.71-36.375-1.019-72.362 7.072-110.229 24.771-37.867 17.7-81.894 27.169-135.258 29.166C277.389 184.906 144.4 156.419.454 117.804v1.178c143.817 38.496 276.676 66.863 385.932 62.807 54.207-1.997 99.142-11.686 137.268-29.565 37.154-17.38 72.298-25.371 107.506-24.372 82.543 2.317 155.035 55.196 231.806 111.171 96.807 70.638 206.644 150.705 364.794 152.583 120.09 1.418 251.97-41.732 403.12-131.847 94.47-56.335 192.77-94.59 288.54-120.021v-1.178c-96.55 25.43-195.82 63.906-291.01 120.72z" fill="#099"/><path d="M383.012 176.715c53.753-1.998 98.104-11.367 135.582-28.487 37.478-17.12 71.973-24.592 107.506-23.633 84.293 2.258 160.352 54.697 240.754 110.232 101.671 70.239 216.896 149.826 379.126 151.465 121.45 1.198 252.88-40.813 402.4-128.431 88.12-51.72 180.32-87.758 271.1-112.41v-1.079c-91.62 24.732-184.73 60.97-273.69 113.149-148.75 87.279-279.47 129.15-399.75 127.852-160.35-1.579-275.246-80.926-376.592-150.925-84.293-58.193-156.98-108.454-243.088-110.772-36.7-.978-72.687 6.872-110.23 23.973-37.543 17.1-80.662 26.109-133.507 28.127-107.052 3.995-238.874-22.594-382.172-59.431v1.159c143.169 36.857 274.925 63.286 382.561 59.211z" fill="#099"/><path d="M379.446 171.7c53.234-1.998 96.937-11.027 133.702-27.448 36.764-16.421 71.713-23.853 107.571-22.894 86.303 2.198 165.733 54.257 249.831 109.373 106.663 69.919 227.46 149.067 393.84 150.386 122.81.979 254.11-39.914 401.63-124.875 81.96-47.265 168-81.026 253.46-104.779v-1.198c-86.37 23.852-173.25 57.933-255.99 105.557-146.93 84.742-277.46 125.455-399.03 124.496-164.57-1.299-285.302-80.227-391.316-149.826-88.119-57.753-164.242-107.635-252.166-109.873-37.024-.939-73.011 6.672-110.229 23.273-36.311 16.201-79.366 25.051-131.757 27.069-105.496 3.995-236.086-20.816-378.54-55.935v1.118c142.325 34.88 272.979 59.651 378.994 55.556z" fill="#099"/><path fill="url(#paint0_linear_673_12947)" d="M1827 0h93v173h-93z"/><path transform="matrix(-1 0 0 1 93 78)" fill="url(#paint1_linear_673_12947)" d="M0 0h93v85H0z"/></g><defs><linearGradient id="paint0_linear_673_12947" x1="1896.09" y1="64.619" x2="1826.39" y2="75.371" gradientUnits="userSpaceOnUse"><stop stop-color="azure"/><stop offset="1" stop-color="azure" stop-opacity="0"/></linearGradient><linearGradient id="paint1_linear_673_12947" x1="69.086" y1="31.749" x2="4.139" y2="52.144" gradientUnits="userSpaceOnUse"><stop stop-color="azure"/><stop offset="1" stop-color="azure" stop-opacity="0"/></linearGradient></defs></svg>