<svg width="950" height="293" viewBox="0 0 950 293" fill="none" xmlns="http://www.w3.org/2000/svg">
<g opacity="0.4">
<path d="M314.431 251.906C282.165 244.415 398.246 207.577 521.176 168.569C641.543 130.37 765.396 91.0379 765.396 74.4752C765.964 72.3968 762.952 70.3495 756.994 68.7639C720.905 60.1018 566.382 75.4271 284.518 115.73C-40.0317 162.096 -225.014 178.982 -280.723 167.322C-286.44 166.106 -290.84 164.608 -293.579 162.943L-293.579 164.009C-290.785 165.374 -286.847 166.602 -281.984 167.626C-225.434 179.43 -39.7377 162.562 285.778 116.063C566.718 75.9316 720.485 60.5492 755.902 69.0304C799.595 79.5011 657.34 124.668 519.789 168.321C396.398 207.472 279.854 244.472 313.254 252.201C340.815 258.598 463.744 244.662 700.15 208.338C794.385 193.87 877.865 182.409 949.791 174.071L949.791 173.538C877.865 181.863 794.315 193.343 699.142 207.977C466.685 243.71 341.067 258.046 314.431 251.906Z" fill="#009999"/>
<path d="M311.279 253.096C278.341 245.433 391.103 209.129 510.798 170.692C644.987 127.533 783.881 82.9092 738.172 71.9435C701.41 63.091 548.105 77.75 269.476 116.758C-51.2079 161.649 -234.678 177.679 -291.815 165.818C-292.488 165.685 -293.076 165.542 -293.706 165.399L-293.706 165.989L-293.076 166.132C-235.392 178.154 -51.0398 162.125 270.442 117.12C548.189 78.2355 700.738 63.5574 736.785 72.2291C781.319 82.9472 642.97 127.438 509.243 170.444C389.213 209.034 275.904 245.481 309.892 253.391C337.999 259.921 459.794 246.538 693.26 211.27C790.477 196.592 876.226 185.16 949.538 177.079L949.538 176.555C876.128 184.627 790.323 196.085 692.125 210.928C462.903 245.614 338.251 259.369 311.279 253.096Z" fill="#009999"/>
<path d="M255.318 118.062C530.124 80.4529 681.37 66.4602 718.131 75.3412C763.505 86.2879 629.064 130.122 499.076 172.519C382.407 210.594 272.207 246.48 306.868 254.552C335.52 261.215 456.223 248.393 686.79 214.173C786.906 199.324 874.881 187.939 949.664 180.153L949.664 179.639C874.881 187.406 786.92 198.8 685.781 213.821C459.248 247.441 335.73 260.663 308.212 254.257C274.602 246.442 384.381 210.651 500.589 172.757C613.057 136.081 728.844 98.3291 728.844 81.4523C729.514 79.1267 726.17 76.8332 719.518 75.0557C682.042 66.0033 529.914 79.9674 254.351 117.738C-47.2587 159.069 -226.948 174.851 -293.706 165.818L-293.706 166.303C-225.393 175.127 -45.4521 159.307 255.318 118.062Z" fill="#009999"/>
<path d="M305.271 255.409C271.031 247.423 377.659 212.137 490.59 174.785C617.301 132.855 748.339 89.5058 701.116 78.0832C662.927 68.8405 512.058 82.1097 239.353 118.643C-43.6875 156.585 -218.587 171.948 -293.706 165.485L-293.706 165.923C-217.705 172.32 -42.133 156.87 240.235 119.014C511.932 82.5952 662.212 69.2974 699.73 78.3783C745.944 89.5534 615.284 132.769 488.993 174.518C375.559 212.022 268.594 247.452 303.885 255.685C318.001 258.969 353.082 257.76 411.186 251.963C474.205 245.69 562.432 234.258 680.572 217.029C783.461 202.037 873.537 190.748 949.454 183.295L949.454 182.79C873.355 190.228 783.321 201.523 679.354 216.677C455.761 249.298 333.336 261.958 305.271 255.409Z" fill="#009999"/>
<path d="M225.321 119.851C494.203 84.6318 643.39 72.0289 681.622 81.3098C728.634 92.7323 601.798 135.329 479.204 176.498C369.089 213.479 264.939 248.413 301.028 256.808C315.396 260.168 350.393 259.121 408.035 253.591C470.508 247.603 557.684 236.571 674.606 219.866C780.226 204.778 872.36 193.613 949.664 186.55L949.664 186.045C872.332 193.108 780.31 204.264 673.598 219.513C452.442 251.116 331.025 263.224 302.372 256.532C267.502 248.374 371.063 213.583 480.759 176.745C585.539 141.526 693.386 105.354 693.386 88.1443C693.386 85.1554 690.109 82.7376 682.967 81.0052C644.063 71.5625 493.909 84.1368 224.396 119.471C-42.4271 154.433 -212.915 169.349 -293.706 164.704L-293.706 165.123C-211.907 169.682 -41.2508 154.747 225.321 119.851Z" fill="#009999"/>
<path d="M210.406 120.623C476.515 86.6122 624.779 74.6851 663.725 84.1754C711.619 95.8359 588.522 137.842 469.499 178.459C362.619 214.935 261.662 249.422 298.255 257.989C312.917 261.416 347.83 260.521 405.01 255.257C466.979 249.546 553.273 238.913 668.85 222.731C777.075 207.577 871.226 196.583 949.664 189.92L949.664 189.415C871.1 196.079 777.411 207.035 667.884 222.37C449.417 252.973 328.84 264.528 299.599 257.694C264.057 249.365 364.593 215.05 471.054 178.688C572.095 144.201 676.076 108.724 676.076 91.4097C676.076 88.2589 672.631 85.6984 665.111 83.8803C625.451 74.2282 476.431 86.1267 209.482 120.252C-42.5953 152.501 -208.588 166.837 -293.706 163.686L-293.706 164.095C-207.748 167.198 -41.629 152.844 210.406 120.623Z" fill="#009999"/>
<path d="M296.911 258.788C260.653 250.278 358.249 216.42 461.559 180.582C558.903 146.809 659.019 112.046 659.019 94.6267C659.019 91.3046 655.406 88.6108 647.466 86.6785C607.091 76.8075 458.954 88.0206 194.651 120.946C-44.2757 150.721 -205.395 164.447 -293.706 162.467L-293.706 162.867C-204.681 164.771 -43.2674 151.083 195.576 121.317C458.996 88.4775 606.377 77.2358 646.079 86.945C694.814 98.853 575.456 140.25 460.004 180.334C356.275 216.315 258.343 250.316 295.566 259.055C310.523 262.558 345.351 261.825 402.111 256.818C463.659 251.392 549.156 241.15 663.347 225.482C774.135 210.252 870.134 199.505 949.664 193.289L949.664 192.785C869.84 198.991 774.47 209.757 662.38 225.149C446.098 254.771 326.74 265.775 296.911 258.788Z" fill="#009999"/>
<path d="M294.348 259.893C257.376 251.202 351.989 217.8 452.19 182.438C545.879 149.36 642.256 115.349 642.256 97.7776C642.256 94.2937 638.475 91.4476 630.072 89.3915C588.942 79.3016 441.687 89.8389 179.863 121.613C-46.7545 149.113 -203.126 162.191 -293.706 161.135L-293.706 161.535C-202.496 162.572 -45.8302 149.484 180.745 121.984C441.687 90.3244 588.27 79.749 628.686 89.6771C678.303 101.842 562.558 142.697 450.635 182.21C350.015 217.715 255.024 251.259 293.003 260.178C308.212 263.757 342.999 263.186 399.338 258.436C460.466 253.296 545.081 243.434 658.095 228.281C771.109 213.127 869.083 202.58 949.664 196.811L949.664 196.364C868.831 202.075 770.689 212.689 657.171 227.919C443.409 256.561 324.723 267.022 294.348 259.893Z" fill="#009999"/>
<path d="M291.869 260.968C254.058 252.097 345.898 219.085 443.115 184.228C551.971 145.115 664.481 104.679 613.057 92.0188C571.044 81.7004 424.672 91.5714 165.284 122.174C-49.9054 147.571 -201.572 159.945 -293.706 159.66L-293.706 160.059C-201.026 160.354 -49.0652 147.932 165.999 122.546C424.546 92.0378 570.288 82.1478 611.545 92.2948C661.96 104.726 549.87 145.029 441.435 184.009C343.923 219.047 251.831 252.154 290.525 261.263C305.985 264.909 340.73 264.5 396.733 260.007C457.442 255.143 541.299 245.662 653.011 231.012C768.463 215.878 868.033 205.597 949.58 200.362L949.58 199.924C867.781 205.159 767.917 215.468 652.087 230.651C440.721 258.351 322.875 268.269 291.869 260.968Z" fill="#009999"/>
<path d="M289.433 262.044C251.034 252.982 339.849 220.447 433.957 185.998C520.504 154.291 609.529 121.699 609.529 103.908C609.529 100.043 605.328 96.8736 595.959 94.5701C553.274 84.0327 407.531 93.2184 150.623 122.679C-53.5595 146.076 -200.436 157.823 -293.495 158.118L-293.495 158.517C-199.932 158.213 -52.7613 146.457 151.463 123.06C407.741 93.6943 552.728 84.4706 594.825 94.8556C646.164 107.544 537.603 147.314 432.571 185.77C338.126 220.361 248.891 253.039 288.299 262.33C304.096 266.051 338.714 265.804 394.423 261.578C454.754 256.99 537.897 247.88 648.517 233.735C766.153 218.686 867.404 208.71 949.875 203.998L949.875 203.57C867.152 208.272 765.607 218.277 647.383 233.364C438.159 260.121 321.069 269.497 289.433 262.044Z" fill="#009999"/>
<path d="M287.122 263.1C248.008 253.857 334.008 221.731 425.05 187.711C508.151 156.68 593.563 124.782 593.521 106.896C593.521 102.841 589.32 99.4907 579.279 97.0539C535.754 86.2691 390.683 94.798 135.791 123.116C-58.0979 144.658 -200.311 155.737 -293.706 156.499L-293.706 156.899C-199.807 156.128 -57.3838 145.048 136.59 123.497C390.683 95.2739 534.997 86.7165 577.724 97.3395C629.988 110.295 524.914 149.541 423.285 187.492C331.865 221.646 245.487 253.914 285.609 263.395C301.7 267.203 336.403 267.117 391.691 263.138C451.686 258.826 534.073 250.088 643.768 236.485C763.505 221.56 866.437 211.908 949.664 207.758L949.664 207.329C866.058 211.47 762.959 221.141 642.97 236.114C435.763 261.882 319.387 270.725 287.122 263.1Z" fill="#009999"/>
<path d="M284.895 264.157C245.025 254.705 328.21 222.988 416.311 189.396C514.915 151.797 616.88 112.922 562.768 99.4625C518.444 88.4398 374.004 96.3023 121.129 123.488C-62.9295 143.287 -200.311 153.691 -293.706 154.833L-293.706 155.186C-199.891 154.053 -62.2572 143.639 121.927 123.831C374.004 96.7211 517.688 88.83 561.381 99.7005C614.57 112.922 512.983 151.664 414.715 189.177C326.236 222.912 242.672 254.771 283.55 264.443C317.161 272.4 433.536 264.109 639.483 239.113C761.321 224.349 865.428 215.059 949.664 211.508L949.664 211.08C865.176 214.65 760.606 223.95 638.769 238.761C433.494 263.633 317.791 271.953 284.895 264.157Z" fill="#009999"/>
<path d="M634.526 241.398C431.394 265.375 316.321 273.162 282.752 265.195C242.126 255.542 322.538 224.216 407.698 191.033C483.994 161.316 562.348 130.789 562.348 112.751C562.348 108.258 557.474 104.536 546.509 101.804C501.345 90.5243 357.451 97.7206 106.55 123.793C-68.181 141.955 -200.816 151.692 -293.706 153.111L-293.706 153.52C-200.437 152.092 -67.5089 142.354 107.307 124.183C357.367 98.1965 500.547 90.9622 545.122 102.08C599.193 115.587 501.009 153.834 406.102 190.824C320.564 224.14 239.815 255.609 281.408 265.49C315.648 273.609 431.436 265.851 635.408 241.769C758.8 227.205 864.462 218.314 949.496 215.325L949.496 214.907C949.496 214.907 949.202 214.907 949.034 214.907C863.958 217.896 758.085 226.815 634.526 241.398Z" fill="#009999"/>
<path d="M630.703 244.034C429.419 267.107 314.934 274.361 280.694 266.222C239.311 256.37 316.993 225.415 399.254 192.642C472.188 163.562 546.929 133.711 546.929 115.606C546.929 110.846 541.845 106.963 530.124 104.069C484.12 92.5323 340.688 99.0717 91.6359 124.059C-74.0627 140.678 -201.908 149.759 -294 151.397L-294 151.806C-201.572 150.169 -73.4746 141.078 92.5181 124.449C340.73 99.5667 483.448 93.0368 528.864 104.383C583.9 118.166 489.119 155.928 397.447 192.461C314.85 225.377 236.832 256.465 279.181 266.546C314.052 274.837 429.251 267.612 631.375 244.443C752.792 230.508 857.278 222.102 941.85 219.447C944.496 219.361 947.101 219.294 949.748 219.228L949.748 218.799C947.017 218.876 944.328 218.942 941.598 219.028C856.816 221.693 752.246 230.108 630.703 244.034Z" fill="#009999"/>
<path d="M627.132 246.661C427.613 268.831 313.674 275.56 278.761 267.241C236.748 257.189 311.531 226.596 390.893 194.203C460.593 165.77 532.098 136.586 532.098 118.433C532.098 113.474 526.763 109.333 514.537 106.268C467.651 94.4744 324.639 100.348 77.3515 124.211C-79.6925 139.365 -202.79 147.808 -293.706 149.588L-293.706 149.998C-202.496 148.218 -79.1464 139.774 78.0656 124.602C324.555 100.804 466.894 94.9028 513.151 106.516C569.112 120.575 477.692 157.917 389.255 193.956C309.43 226.491 234.269 257.218 277.417 267.498C312.959 275.97 427.612 269.268 627.972 247.004C747.33 233.735 850.388 225.825 934.371 223.492C939.539 223.35 944.622 223.226 949.664 223.121L949.664 222.769C944.538 222.874 939.371 222.988 934.119 223.14C849.967 225.453 746.658 233.373 627.132 246.661Z" fill="#009999"/>
<path d="M623.771 249.269C425.932 270.544 312.456 276.759 276.871 268.25C233.892 257.979 306.28 227.747 382.701 195.726C449.165 167.931 517.142 139.403 517.142 121.222C517.142 116.006 511.555 111.646 498.657 108.4C450.888 96.3303 308.254 101.547 62.5632 124.316C-86.2042 138.108 -204.47 145.914 -293.916 147.789L-293.916 148.198C-204.176 146.295 -85.6581 138.508 63.1934 124.706C308.086 102.013 450.048 96.7682 497.228 108.676C554.114 123.04 466.013 159.887 380.811 195.526C303.969 227.68 231.329 258.045 275.232 268.535C311.489 277.197 425.68 271.02 624.317 249.65C741.701 237.018 843.54 229.594 926.809 227.566C934.414 227.385 941.85 227.252 949.202 227.157L949.202 226.738C941.766 226.833 934.288 226.966 926.599 227.147C843.414 229.175 741.365 236.619 623.771 249.269Z" fill="#009999"/>
<path d="M482.019 110.742C539.829 125.392 455.005 161.81 372.786 197.021C299.053 228.813 229.018 258.836 273.846 269.535C310.775 278.378 424.546 272.724 621.586 252.239C737.037 240.236 837.658 233.278 920.591 231.574C930.548 231.364 940.295 231.241 950 231.184L950 230.755C940.379 230.812 930.59 230.936 920.591 231.145C837.448 232.859 736.659 239.827 620.998 251.849C424.42 272.267 311.363 277.978 275.064 269.249C231.286 258.779 300.902 228.87 374.634 197.22C456.937 161.849 542.055 125.325 483.406 110.447C434.713 98.0725 292.373 102.661 48.1946 124.344C-92.5064 136.843 -206.025 144.039 -293.706 145.952L-293.706 146.371C-205.731 144.467 -92.0443 137.252 48.8668 124.744C292.247 103.137 433.914 98.5485 482.019 110.742Z" fill="#009999"/>
<path d="M617.72 254.438C423.032 273.961 310.354 279.13 273.215 270.239C228.597 259.54 295.608 229.975 366.567 198.668C426.73 172.129 488.405 144.896 488.405 126.696C488.405 120.985 482.229 116.092 467.944 112.418C418.327 99.7957 276.198 103.679 33.4054 124.297C-99.4812 135.577 -208.21 142.173 -293.875 144.096L-293.875 144.515C-207.958 142.611 -99.0191 135.948 34.0776 124.687C276.072 104.146 417.529 100.224 466.516 112.703C525.334 127.657 443.745 163.638 364.845 198.439C293.423 229.851 226.202 259.569 271.786 270.487C309.598 279.53 422.822 274.39 618.308 254.781C731.743 243.358 831.271 236.905 913.701 235.505C925.968 235.296 937.858 235.21 949.495 235.22L949.495 234.801C937.816 234.801 925.884 234.868 913.575 235.077C831.103 236.524 731.533 243.025 617.72 254.438Z" fill="#009999"/>
<path d="M907.525 239.046C825.39 240.15 726.87 246.194 615.032 256.998C421.773 275.655 309.472 280.3 271.661 271.21C226.287 260.292 290.693 231.05 358.838 200.085C415.975 174.156 474.499 147.57 474.499 129.379C474.499 123.354 468.071 118.242 452.988 114.387C402.573 101.48 260.485 104.697 18.9956 124.239C-106.371 134.386 -210.268 140.421 -293.706 142.325L-293.706 142.734C-210.058 140.83 -105.909 134.824 19.6258 124.648C260.317 105.173 401.606 101.908 451.602 114.682C511.302 129.912 432.948 165.503 357.199 199.904C288.718 231.002 224.018 260.377 270.316 271.514C308.716 280.748 421.563 276.131 615.788 257.398C748.465 244.586 859.042 238.57 949.664 239.312L949.664 238.95C936.052 238.823 922.006 238.855 907.525 239.046Z" fill="#009999"/>
<path d="M901.601 242.939C819.97 243.748 722.711 249.336 612.595 259.549C420.68 277.35 308.632 281.443 270.106 272.181C223.892 261.034 285.693 232.097 351.149 201.466C405.22 176.155 460.677 150.207 460.677 132.055C460.677 125.725 453.954 120.337 438.032 116.263C386.524 103.051 244.773 105.611 4.37508 124.087C-113.681 133.159 -212.747 138.613 -293.706 140.45L-293.706 140.907C-212.537 139.07 -113.261 133.616 4.96331 124.525C244.437 106.106 385.684 103.508 436.645 116.577C497.312 132.14 422.151 167.312 349.469 201.294C283.719 232.059 221.624 261.12 268.762 272.486C307.876 281.919 420.596 277.826 613.267 259.949C746.784 247.575 858.16 242.073 949.664 243.406L949.664 243.063C933.665 242.825 917.62 242.784 901.601 242.939Z" fill="#009999"/>
<path d="M895.973 246.804C814.804 247.318 718.721 252.458 610.285 262.091C419.631 279.034 307.793 282.642 268.511 273.142C221.457 261.72 280.695 233.163 343.462 202.817C394.591 178.116 447.023 152.805 447.023 134.691C447.023 128.028 439.965 122.374 423.202 118.062C370.686 104.545 228.893 106.439 -10.3284 123.859C-121.284 131.94 -215.519 136.842 -293.789 138.594L-293.789 139.003C-215.309 137.252 -120.906 132.34 -9.78223 124.249C228.683 106.896 369.846 104.954 421.774 118.328C483.407 134.206 411.439 168.987 341.949 202.627C278.93 233.087 219.398 261.834 267.335 273.418C307.247 283.07 419.673 279.482 611.126 262.472C745.567 250.545 857.405 245.585 949.749 247.527L949.749 247.165C931.872 246.802 913.914 246.681 895.973 246.804Z" fill="#009999"/>
<path d="M608.353 264.652C418.875 280.748 307.289 283.842 267.208 274.123C219.272 262.51 275.989 234.144 336.109 204.15C402.952 170.758 472.105 136.224 408.666 119.832C355.183 106.011 213.348 107.239 -24.949 123.64C-128.931 130.779 -218.208 135.167 -293.831 136.814L-293.831 137.233C-218.208 135.586 -128.679 131.198 -24.5288 124.04C213.012 107.734 354.175 106.468 407.153 120.156C469.752 136.338 400.893 170.749 334.261 204.017C273.93 234.163 216.919 262.634 265.696 274.456C306.364 284.308 418.623 281.243 608.899 265.09C743.634 253.667 856.354 249.203 949.539 251.763L949.539 251.325C929.952 250.801 910.233 250.568 890.511 250.63C809.972 250.859 714.981 255.561 608.353 264.652Z" fill="#009999"/>
<path d="M606.588 267.146C418.202 282.376 306.742 284.975 265.864 275.037C217.045 263.186 271.284 235.115 328.883 205.398C392.743 172.358 458.787 138.195 394.423 121.489C339.807 107.344 197.971 107.906 -39.4855 123.212C-136.647 129.488 -221.331 133.388 -293.537 134.911L-293.537 135.33C-221.023 133.794 -136.157 129.891 -38.9394 123.622C197.719 108.391 339.176 107.754 392.995 121.718C456.602 138.223 390.81 172.263 327.203 205.188C269.519 235.03 215.028 263.253 264.645 275.275C306.112 285.356 418.244 282.805 607.344 267.489C742.542 256.552 855.808 252.659 949.833 255.8L949.833 255.438C928.612 254.746 907.203 254.393 885.763 254.381C805.393 254.372 711.494 258.646 606.588 267.146Z" fill="#009999"/>
<path d="M604.99 269.658C417.655 284.07 306.321 286.136 264.686 275.969C215.027 263.881 266.787 236.076 321.571 206.644C364.172 183.799 407.782 160.363 407.782 142.525C407.782 134.863 399.715 128.247 380.095 123.116C324.26 108.638 182.299 108.543 -54.4015 122.821C-144.981 128.279 -224.806 131.709 -293.875 133.111L-293.875 133.53C-224.469 132.102 -144.463 128.66 -53.8553 123.202C182.089 108.981 323.546 109.048 378.583 123.392C443.157 140.222 380.431 173.899 319.765 206.482C264.728 236.048 212.758 263.966 263.258 276.265C305.523 286.554 417.529 284.527 605.662 270.058C741.112 259.635 854.84 256.294 949.705 260.006L949.705 259.645C926.96 258.771 903.955 258.287 880.888 258.198C801.106 257.855 708.3 261.71 604.99 269.658Z" fill="#009999"/>
<path d="M603.646 272.162C417.235 285.736 305.943 287.287 263.342 276.921C212.927 264.547 262.082 237.038 314.262 207.881C354.132 185.617 394.926 162.838 394.884 145.133C394.884 137.099 386.482 130.113 365.812 124.696C309.178 109.885 166.881 109.105 -69.2314 122.317C-153.257 127.029 -228.04 130.008 -293.748 131.274L-293.748 131.693C-227.928 130.424 -152.935 127.438 -68.7692 122.736C166.503 109.562 308.254 110.295 364.383 124.973C429.965 142.106 370.265 175.422 312.539 207.72C260.107 237.009 210.616 264.671 262.124 277.207C305.271 287.725 417.193 286.212 604.36 272.581C739.936 262.71 854.127 259.902 949.79 264.176L949.79 263.823C925.627 262.751 901.127 262.114 876.52 261.92C797.115 261.32 705.359 264.756 603.646 272.162Z" fill="#009999"/>
<path d="M602.554 274.666C416.983 287.411 305.691 288.439 262.25 277.816C210.784 265.223 257.671 237.933 307.246 209.033C362.283 176.993 419.168 143.858 351.863 126.22C294.138 111.056 151.546 109.6 -84.0619 121.775C-153.042 125.472 -223.103 128.045 -293.706 129.475L-293.706 129.894C-222.96 128.467 -152.758 125.89 -83.6417 122.184C151.21 110.057 293.213 111.466 350.435 126.496C417.025 143.972 360.35 176.946 305.523 208.91C255.696 237.933 208.642 265.347 260.906 278.131C304.851 288.887 416.773 287.897 603.1 275.094C738.676 265.785 853.203 263.529 949.664 268.345L949.664 267.964C924.184 266.697 898.286 265.908 872.234 265.604C793.418 264.747 702.671 267.784 602.554 274.666Z" fill="#009999"/>
<path d="M336.613 127.914C404.211 145.724 350.519 178.421 298.549 210.033C251.285 238.808 206.667 265.984 259.855 279.016C304.683 290.01 416.647 289.486 602.134 277.569C737.625 268.83 852.446 267.098 949.664 272.457L949.664 272.086C922.979 270.64 895.795 269.716 868.411 269.325C790.016 268.164 700.36 270.801 601.63 277.159C416.773 289.086 305.523 289.591 261.326 278.73C208.936 265.889 253.385 238.827 300.44 210.194C352.578 178.459 406.48 145.647 338.251 127.647C279.433 112.132 136.59 109.999 -98.6823 121.127C-162.887 124.274 -227.938 126.459 -293.412 127.666L-293.412 128.095C-227.811 126.881 -162.634 124.69 -98.3041 121.536C135.876 110.447 278.047 112.522 336.613 127.914Z" fill="#009999"/>
<path d="M322.958 129.313C391.523 147.399 340.772 179.839 291.701 211.175C246.999 239.732 204.776 266.651 258.847 279.939C304.557 291.171 416.605 291.219 601.42 280.082C736.659 271.924 851.69 270.744 949.664 276.588L949.664 276.217C921.865 274.593 893.499 273.517 864.882 273C786.906 271.572 698.091 273.819 600.957 279.663C416.857 290.762 305.397 290.753 260.191 279.663C206.877 266.556 248.932 239.684 293.466 211.328C342.705 179.915 393.666 147.39 324.345 129.056C264.309 113.189 120.961 110.371 -113.933 120.49C-173.324 123.118 -233.355 124.939 -293.706 125.944L-293.706 126.372C-233.243 125.364 -173.1 123.54 -113.597 120.908C120.583 110.79 263.384 113.56 322.958 129.313Z" fill="#009999"/>
<path d="M600.495 282.138C417.025 292.418 305.397 291.885 259.309 280.529C205.029 267.203 244.689 240.55 286.701 212.384C316.11 192.585 346.36 172.357 346.36 155.461C346.36 145.771 336.445 137.166 310.817 130.37C249.604 114.131 105.71 110.628 -128.974 119.661C-183.491 121.818 -238.481 123.308 -293.706 124.126L-293.706 124.544C-238.382 123.732 -183.292 122.242 -128.68 120.08C105.332 111.066 248.638 114.521 309.388 130.646C379.004 149.122 331.193 181.21 284.937 212.251C242.924 240.541 202.928 267.269 257.923 280.786C304.557 292.256 416.689 292.866 600.957 282.547C734.978 275.046 850.724 274.409 949.664 280.72L949.664 280.272C850.556 273.98 734.684 274.627 600.495 282.138Z" fill="#009999"/>
<path d="M600.244 284.642C417.32 294.094 305.524 293.047 258.428 281.434C203.223 267.803 240.53 241.398 280.022 213.441C307.121 194.28 334.639 174.709 334.639 158.08C334.639 147.923 324.304 138.871 297.289 131.665C234.816 115.045 90.4182 110.848 -144.224 118.843C-197.692 120.671 -247.561 121.858 -293.831 122.403L-293.831 122.822C-247.449 122.27 -197.496 121.083 -143.971 119.262C89.9981 111.295 233.85 115.455 295.861 131.941C366.527 150.75 321.573 182.553 278.132 213.318C238.471 241.388 200.996 267.908 257.125 281.71C304.684 293.456 417.068 294.542 600.706 285.051C734.307 278.15 850.094 278.036 949.707 284.813L949.707 284.366C849.884 277.598 733.929 277.722 600.244 284.642Z" fill="#009999"/>
<path d="M600.244 287.107C417.741 295.75 305.692 294.179 257.63 282.3C201.459 268.412 236.413 242.206 273.427 214.459C314.263 183.856 356.486 152.215 284.098 132.892C220.406 115.882 75.378 110.999 -159.306 117.938C-206.92 119.347 -251.734 120.264 -293.747 120.689L-293.747 121.118C-251.734 120.686 -206.92 119.766 -159.306 118.357C74.7058 111.427 219.23 116.272 282.459 133.159C354.175 152.311 312.12 183.837 271.452 214.335C234.271 242.197 199.19 268.516 256.075 282.585C304.6 294.579 417.194 296.197 600.58 287.525C733.551 281.233 849.38 281.643 949.623 288.848L949.623 288.401C849.422 281.205 733.299 280.834 600.244 287.107Z" fill="#009999"/>
</g>
</svg>
