<svg version="1.1" xmlns="http://www.w3.org/2000/svg" xmlns:xlink="http://www.w3.org/1999/xlink">



    <symbol id="hero-icon-1" viewBox="0 0 31 31" fill="none">
        <path d="M27.3112 25.1225C27.3063 24.993 27.2991 24.8544 27.2886 24.7131C27.2663 24.4106 27.2305 24.1167 27.1775 23.8814C27.1406 23.7175 27.1061 23.6337 27.0919 23.6005C27.0888 23.5986 27.0855 23.5965 27.0821 23.5944C27.0307 23.5629 26.9564 23.5212 26.8568 23.4694C26.6581 23.3662 26.3894 23.2386 26.0656 23.0924C25.4198 22.801 24.5878 22.4507 23.7298 22.0991C22.5005 21.5953 21.2434 21.0989 20.4186 20.7733C20.0898 20.6435 19.8297 20.5408 19.6675 20.4756C19.6669 20.4754 19.6663 20.4751 19.6658 20.4749L27.3112 25.1225ZM27.3112 25.1225H16.9921L16.3899 22.7494L16.8441 22.2953L17.3742 21.7652L16.8443 21.2348L15.5432 19.9328L15.0125 19.4017L14.482 19.933L13.1809 21.236L12.6514 21.7663L13.1813 22.2963L13.6355 22.7504L13.0333 25.1234H2.71582C2.72094 24.9945 2.72834 24.8564 2.7389 24.7158C2.76163 24.4132 2.79758 24.1189 2.85051 23.883C2.8882 23.715 2.92326 23.6304 2.93713 23.5979C2.93973 23.5963 2.94247 23.5946 2.94536 23.5928C2.99615 23.5615 3.07 23.5199 3.16936 23.4682C3.36739 23.365 3.63568 23.2373 3.9592 23.091C4.6045 22.7992 5.43647 22.4485 6.29441 22.0965C7.57291 21.572 8.88681 21.0538 9.7059 20.7307C9.98731 20.6197 10.2103 20.5317 10.3534 20.4745M27.3112 25.1225L16.4913 5.30579C16.1762 5.21023 15.929 5.13254 15.7396 5.07298C15.6563 5.04679 15.5841 5.02411 15.5223 5.00496C15.3035 4.93724 15.226 4.91826 15.1765 4.91075C15.1453 4.90602 15.1129 4.90316 14.9739 4.91195C14.9411 4.91402 14.9032 4.91667 14.8599 4.9197C14.7225 4.92931 14.5302 4.94276 14.2726 4.95376L14.272 4.95379C13.733 4.97638 13.2383 5.13525 12.8912 5.31953C12.7441 5.3976 12.6403 5.47137 12.5765 5.52689V6.05671L11.8787 6.1035L11.8784 6.10353L11.8783 6.10353L11.8776 6.10358L11.8772 6.10361L11.8769 6.10362L11.8765 6.10367L11.8599 6.10512C11.8438 6.10661 11.8184 6.10921 11.786 6.11327C11.7204 6.1215 11.6314 6.1351 11.5369 6.15616C11.4403 6.17768 11.3522 6.20385 11.2827 6.23289C11.2378 6.25164 11.2147 6.26581 11.2062 6.27126C11.2055 6.27246 11.2044 6.2741 11.2029 6.27622C11.1887 6.29755 11.1423 6.36695 11.0708 6.51051C10.9875 6.67789 10.8979 6.88803 10.815 7.10792C10.7323 7.32724 10.6608 7.54399 10.6112 7.72203C10.5703 7.86894 10.5556 7.95048 10.5505 7.97869C10.5484 7.99018 10.5479 7.99282 10.5479 7.98742C10.5479 8.12172 10.6091 8.81523 10.7125 9.58141C10.7629 9.95423 10.8205 10.3235 10.8806 10.6275C10.9108 10.7797 10.9401 10.9082 10.9675 11.0087C10.9811 11.0587 10.9932 11.0975 11.0032 11.1262C11.0119 11.1513 11.0168 11.1622 11.0171 11.1628L11.4074 11.9407L10.7375 12.1594C10.7002 13.3182 10.9287 13.9073 11.1015 14.1841C11.1995 14.341 11.2897 14.4149 11.3329 14.4447C11.3433 14.4519 11.3516 14.457 11.3576 14.4604L11.7778 14.5786L11.8562 15.0483C11.9761 15.7672 12.09 16.1908 12.1819 16.4368C12.2203 16.5398 12.251 16.601 12.27 16.6343C12.3043 16.6489 12.3669 16.677 12.4353 16.7226C12.8382 16.9909 12.8545 17.4331 12.8545 17.64C12.8545 17.8988 12.8151 18.1704 12.6809 18.4088C12.5399 18.6593 12.3214 18.8234 12.0753 18.893C12.0184 18.9934 11.9504 19.1039 11.8705 19.2192C11.5771 19.643 11.0886 20.1813 10.3534 20.4745M10.3534 20.4745C10.3531 20.4746 10.3529 20.4747 10.3526 20.4748L10.0751 19.7783L10.3536 20.4744C10.3536 20.4744 10.3535 20.4744 10.3534 20.4745ZM18.9444 11.4311L18.9446 11.4304L18.9459 11.4249L18.9517 11.4C18.957 11.3774 18.9648 11.3431 18.9746 11.2984C18.9942 11.209 19.0218 11.0784 19.0525 10.9176C19.1142 10.5948 19.1875 10.1559 19.2361 9.68636C19.2852 9.21293 19.3067 8.73024 19.2732 8.31313C19.2379 7.87383 19.149 7.61281 19.0638 7.49337C19.0637 7.4932 19.0635 7.49303 19.0634 7.49286L19.6734 7.05645L18.9444 11.4311ZM18.9444 11.4311L18.9444 11.4313L18.9444 11.4314L18.9444 11.4314L18.7201 12.3576H19.2884C19.2949 13.3873 19.0824 13.9248 18.9196 14.1852C18.8216 14.342 18.7313 14.4157 18.6881 14.4456C18.6778 14.4527 18.6694 14.4578 18.6635 14.4612L18.2428 14.5792L18.1644 15.0493C18.0445 15.7682 17.9305 16.1917 17.8387 16.4378C17.8003 16.5408 17.7696 16.602 17.7505 16.6353C17.7163 16.6499 17.6537 16.678 17.5853 16.7235C17.1824 16.9918 17.166 17.434 17.166 17.641C17.166 17.8998 17.2055 18.1714 17.3397 18.4098C17.4806 18.6601 17.6989 18.8241 17.9448 18.8938L18.9444 11.4311ZM12.5097 5.59596C12.5091 5.59598 12.5123 5.59099 12.5211 5.58091C12.5148 5.5909 12.5104 5.59594 12.5097 5.59596Z" stroke="#009999" stroke-width="1.5"/>
    </symbol>

    <symbol id="hero-icon-2" viewBox="0 0 31 31" fill="none">
        <rect x="4.875" y="4.875" width="21.25" height="21.25" rx="2" stroke="#009999" stroke-width="2"/>
        <path d="M21.9582 19.6594C21.9582 20.9252 20.9249 21.9585 19.6591 21.9585C18.3932 21.9585 17.3728 20.9252 17.3728 19.6594C17.3728 18.3935 18.3932 17.3731 19.6591 17.3731C20.9249 17.3731 21.9582 18.3935 21.9582 19.6594ZM9.10616 11.4056C9.10616 10.1269 10.1266 9.10645 11.4053 9.10645C12.6712 9.10645 13.6916 10.1269 13.6916 11.4056C13.6916 12.6714 12.6712 13.6919 11.4053 13.6919C10.1266 13.6919 9.10616 12.6714 9.10616 11.4056Z" fill="#009999"/>
        <path d="M19.61 10.0201L20.98 11.3901L11.3898 20.9803L10.0198 19.6103L19.61 10.0201Z" fill="#009999"/>
    </symbol>

    <symbol id="hero-icon-3" viewBox="0 0 31 31" fill="none">
        <path d="M10.1719 15.0156L13.3398 18.1835C13.7303 18.574 14.3635 18.574 14.754 18.1835L20.8281 12.1094M5.8125 19.7892V24.1875C5.8125 24.7398 6.26022 25.1875 6.8125 25.1875H11.2108C11.476 25.1875 11.7304 25.2929 11.9179 25.4804L14.7929 28.3554C15.1834 28.7459 15.8166 28.7459 16.2071 28.3554L19.0821 25.4804C19.2696 25.2929 19.524 25.1875 19.7892 25.1875H23.7031C24.2554 25.1875 24.7031 24.7398 24.7031 24.1875V19.7892C24.7031 19.524 24.8085 19.2696 24.996 19.0821L27.871 16.2071C28.2615 15.8166 28.2615 15.1834 27.871 14.7929L24.996 11.9179C24.8085 11.7304 24.7031 11.476 24.7031 11.2108V6.8125C24.7031 6.26022 24.2554 5.8125 23.7031 5.8125H19.7892C19.524 5.8125 19.2696 5.70714 19.0821 5.51961L16.2071 2.64461C15.8166 2.25408 15.1834 2.25408 14.7929 2.64461L11.9179 5.51961C11.7304 5.70714 11.476 5.8125 11.2108 5.8125H6.8125C6.26022 5.8125 5.8125 6.26022 5.8125 6.8125V11.2108C5.8125 11.476 5.70714 11.7304 5.51961 11.9179L2.64461 14.7929C2.25408 15.1834 2.25408 15.8166 2.64461 16.2071L5.51961 19.0821C5.70714 19.2696 5.8125 19.524 5.8125 19.7892Z" stroke="#009999" stroke-width="2" stroke-linecap="round"/>
    </symbol>

    <symbol id="arrow-more"  viewBox="0 0 24 24" fill="none">
        <path style="transition: all .4s" d="M6 15L12 9L18 15" stroke="var(--svg-color)" stroke-width="2" stroke-linecap="round" stroke-linejoin="round"/>
    </symbol>

    <symbol id="phone" viewBox="0 0 16 16" fill="none">
        <g clip-path="url(#clip0_732_595)">
            <path style="transition: all .4s" d="M10.0336 3.33317C10.6848 3.46021 11.2832 3.77868 11.7523 4.24779C12.2214 4.71691 12.5399 5.31535 12.6669 5.9665M10.0336 0.666504C11.3865 0.816795 12.648 1.42262 13.6111 2.38451C14.5742 3.3464 15.1816 4.60718 15.3336 5.95984M14.6669 11.2798V13.2798C14.6677 13.4655 14.6297 13.6493 14.5553 13.8194C14.4809 13.9895 14.3718 14.1422 14.235 14.2677C14.0982 14.3933 13.9367 14.4888 13.7608 14.5483C13.5849 14.6078 13.3985 14.6299 13.2136 14.6132C11.1622 14.3903 9.19161 13.6893 7.46028 12.5665C5.8495 11.5429 4.48384 10.1773 3.46028 8.5665C2.3336 6.82731 1.63244 4.84717 1.41361 2.7865C1.39695 2.60215 1.41886 2.41634 1.47795 2.24092C1.53703 2.0655 1.63199 1.9043 1.75679 1.76758C1.88159 1.63087 2.03348 1.52164 2.20281 1.44685C2.37213 1.37206 2.55517 1.33334 2.74028 1.33317H4.74028C5.06382 1.32999 5.37748 1.44456 5.62279 1.65553C5.8681 1.8665 6.02833 2.15947 6.07361 2.47984C6.15803 3.11988 6.31458 3.74832 6.54028 4.35317C6.62998 4.59179 6.64939 4.85111 6.59622 5.10042C6.54305 5.34973 6.41952 5.57858 6.24028 5.75984L5.39361 6.6065C6.34265 8.27553 7.72458 9.65747 9.39361 10.6065L10.2403 9.75984C10.4215 9.5806 10.6504 9.45707 10.8997 9.4039C11.149 9.35073 11.4083 9.37014 11.6469 9.45984C12.2518 9.68554 12.8802 9.84209 13.5203 9.9265C13.8441 9.97219 14.1399 10.1353 14.3513 10.3848C14.5627 10.6344 14.6751 10.9529 14.6669 11.2798Z" stroke="var(--fill-color)" stroke-linecap="round" stroke-linejoin="round"/>
        </g>
        <defs>
            <clipPath id="clip0_732_595">
                <rect width="16" height="16" fill="white"/>
            </clipPath>
        </defs>
    </symbol>

    <symbol id="mail" viewBox="0 0 16 16" fill="none">
        <path d="M2.66668 2.6665H13.3333C14.0667 2.6665 14.6667 3.2665 14.6667 3.99984V11.9998C14.6667 12.7332 14.0667 13.3332 13.3333 13.3332H2.66668C1.93334 13.3332 1.33334 12.7332 1.33334 11.9998V3.99984C1.33334 3.2665 1.93334 2.6665 2.66668 2.6665Z" stroke="var(--fill-color)" stroke-linecap="round" stroke-linejoin="round"/>
        <path d="M14.6667 4L8.00001 8.66667L1.33334 4" stroke="var(--fill-color)" stroke-linecap="round" stroke-linejoin="round"/>
    </symbol>

    <symbol id="burger-menu" viewBox="0 0 24 24" fill="none">
        <path d="M3 18H21" stroke="var(--menu-color)" stroke-width="2" stroke-linecap="round" stroke-linejoin="round"/>
        <path d="M3 12H21" stroke="var(--menu-color)" stroke-width="2" stroke-linecap="round" stroke-linejoin="round"/>
        <path d="M3 6H21" stroke="var(--menu-color)" stroke-width="2" stroke-linecap="round" stroke-linejoin="round"/>
    </symbol>

    <symbol id="link-arrow" viewBox="0 0 33 18" fill="none">
        <g clip-path="url(#clip0_719_4700)">
            <path style="transition: all .4s;" d="M3.75 9L29.25 9" stroke="var(--color)" stroke-width="2" stroke-linecap="round" stroke-linejoin="round"/>
            <path style="transition: all .4s;" d="M24 3.75L29.25 9L24 14.25" stroke="var(--color)" stroke-width="2" stroke-linecap="round" stroke-linejoin="round"/>
        </g>
        <defs>
            <clipPath id="clip0_719_4700">
                <rect style="transition: all .4s;" width="18" height="33" fill="var(--color)" transform="translate(0 18) rotate(-90)"/>
            </clipPath>
        </defs>
    </symbol>

    <symbol id="arrow-more-plus" viewBox="0 0 16 18" fill="none">
        <path d="M7.29289 17.7071C7.68342 18.0976 8.31658 18.0976 8.70711 17.7071L15.0711 11.3431C15.4616 10.9526 15.4616 10.3195 15.0711 9.92893C14.6805 9.53841 14.0474 9.53841 13.6569 9.92893L8 15.5858L2.34315 9.92893C1.95262 9.53841 1.31946 9.53841 0.928933 9.92893C0.538408 10.3195 0.538408 10.9526 0.928933 11.3431L7.29289 17.7071ZM7 4.37114e-08L7 17L9 17L9 -4.37114e-08L7 4.37114e-08Z" fill="#009999"/>
    </symbol>

    <symbol id="arrow-black" viewBox="0 0 33 18" fill="none">
        <g clip-path="url(#clip0_719_4713)">
            <path d="M3.75 9L29.25 9" stroke="#484848" stroke-width="2" stroke-linecap="round" stroke-linejoin="round"/>
            <path d="M24 3.75L29.25 9L24 14.25" stroke="#484848" stroke-width="2" stroke-linecap="round" stroke-linejoin="round"/>
        </g>
        <defs>
            <clipPath id="clip0_719_4713">
                <rect width="18" height="33" fill="white" transform="translate(0 18) rotate(-90)"/>
            </clipPath>
        </defs>
    </symbol>

    <symbol id="arrow-more-black" viewBox="0 0 24 25" fill="none">
        <path d="M6 9.89087L12 15.8909L18 9.89087" stroke="#484848" stroke-width="2" stroke-linecap="round" stroke-linejoin="round"/>
    </symbol>

    <symbol id="menu-black" viewBox="0 0 24 25" fill="none">
        <path d="M3 18.8909H21" stroke="#484848" stroke-width="2" stroke-linecap="round" stroke-linejoin="round"/>
        <path d="M3 12.8909H21" stroke="#484848" stroke-width="2" stroke-linecap="round" stroke-linejoin="round"/>
        <path d="M3 6.89087H21" stroke="#484848" stroke-width="2" stroke-linecap="round" stroke-linejoin="round"/>
    </symbol>

    <symbol id="header-phone-black" viewBox="0 0 16 16" fill="none">
        <g clip-path="url(#clip0_860_1064)">
            <path d="M10.0317 3.33341C10.6828 3.46046 11.2813 3.77892 11.7504 4.24804C12.2195 4.71716 12.538 5.31559 12.665 5.96675M10.0317 0.666748C11.3845 0.817039 12.6461 1.42286 13.6092 2.38475C14.5723 3.34664 15.1797 4.60742 15.3317 5.96008M14.665 11.2801V13.2801C14.6657 13.4657 14.6277 13.6495 14.5533 13.8196C14.479 13.9898 14.3699 14.1425 14.233 14.268C14.0962 14.3935 13.9347 14.4891 13.7588 14.5486C13.5829 14.608 13.3966 14.6301 13.2117 14.6134C11.1602 14.3905 9.18966 13.6895 7.45833 12.5667C5.84755 11.5432 4.48189 10.1775 3.45833 8.56675C2.33165 6.82755 1.63049 4.84741 1.41166 2.78675C1.395 2.60239 1.41691 2.41659 1.47599 2.24116C1.53508 2.06574 1.63004 1.90454 1.75484 1.76783C1.87964 1.63112 2.03153 1.52189 2.20086 1.4471C2.37018 1.3723 2.55322 1.33359 2.73833 1.33341H4.73833C5.06187 1.33023 5.37552 1.4448 5.62084 1.65577C5.86615 1.86674 6.02638 2.15971 6.07166 2.48008C6.15608 3.12013 6.31263 3.74857 6.53833 4.35341C6.62802 4.59203 6.64744 4.85136 6.59427 5.10067C6.5411 5.34998 6.41757 5.57882 6.23833 5.76008L5.39166 6.60675C6.3407 8.27578 7.72263 9.65771 9.39166 10.6067L10.2383 9.76008C10.4196 9.58084 10.6484 9.45731 10.8977 9.40414C11.1471 9.35097 11.4064 9.37039 11.645 9.46008C12.2498 9.68578 12.8783 9.84233 13.5183 9.92675C13.8422 9.97243 14.1379 10.1356 14.3494 10.3851C14.5608 10.6346 14.6731 10.9531 14.665 11.2801Z" stroke="#009999" stroke-linecap="round" stroke-linejoin="round"/>
        </g>
        <defs>
            <clipPath id="clip0_860_1064">
                <rect width="16" height="16" fill="white"/>
            </clipPath>
        </defs>
    </symbol>

    <symbol id="header-mail-black" viewBox="0 0 16 17" fill="none">
        <path d="M2.66536 3.44836H13.332C14.0654 3.44836 14.6654 4.04836 14.6654 4.7817V12.7817C14.6654 13.515 14.0654 14.115 13.332 14.115H2.66536C1.93203 14.115 1.33203 13.515 1.33203 12.7817V4.7817C1.33203 4.04836 1.93203 3.44836 2.66536 3.44836Z" stroke="#009999" stroke-linecap="round" stroke-linejoin="round"/>
        <path d="M14.6654 4.78174L7.9987 9.44841L1.33203 4.78174" stroke="#009999" stroke-linecap="round" stroke-linejoin="round"/>
    </symbol>


</svg>


