<svg width="1920" height="465" viewBox="0 0 1920 465" fill="none" xmlns="http://www.w3.org/2000/svg">
<g opacity="0.4">
<path d="M6.32336 367.55H0.446045V368.302C104.942 366.998 260.713 400.64 412.43 433.48C464.03 444.611 514.819 455.574 562.729 465H566.783C517.899 455.44 465.976 444.21 413.12 432.795C264.239 400.59 111.306 367.55 6.32336 367.55Z" fill="#009999"/>
<path d="M1604.73 180.403C1554.14 161.936 1517.95 153.028 1493.1 153.028C1487.47 152.984 1481.89 153.518 1476.89 154.582C1440.08 162.671 1442.96 203.45 1485.72 279.258C1538.21 372.296 1538.98 423.637 1488.07 436.221C1421.52 452.683 1277.3 400.624 1137.62 350.269C1011.19 304.56 891.7 261.509 841.601 274.21C807.471 282.834 809.174 316.66 846.424 377.577C870.744 417.219 876.622 446.098 864.016 465H865.799C878.365 445.964 872.447 416.985 848.167 377.393C810.998 316.827 809.174 283.285 842.533 274.845C891.66 262.428 1010.67 305.362 1136.65 350.82C1276.69 401.342 1421.52 453.585 1489.29 436.856C1540.93 424.088 1540.44 372.48 1487.75 279.09C1445.19 203.65 1442.03 163.139 1478.02 155.234C1529.58 143.886 1658.56 200.943 1795.16 261.459C1836.46 279.742 1878.45 298.343 1919.8 315.741V314.588C1878.49 297.207 1836.82 278.756 1796.45 260.89C1726.53 229.989 1660.38 200.742 1604.73 180.403Z" fill="#009999"/>
<path d="M570.309 465H574.768C518.426 454.973 457.22 442.421 395.123 429.62C252.363 400.239 106.117 370.173 0.446045 367.7V368.435C105.59 370.909 251.755 400.941 394.312 430.271C455.193 442.806 514.94 455.089 570.309 465Z" fill="#009999"/>
<path d="M1612.84 174.403C1562.57 156.688 1526.38 148.131 1501.21 148.131C1495.2 148.077 1489.26 148.652 1483.94 149.803C1446.57 158.159 1448.31 198.269 1489.25 272.522C1539.39 363.572 1538.74 414.111 1487.22 427.029C1419.33 444.059 1273.97 393.387 1133.44 344.386C1006.09 299.981 885.823 258.049 834.629 271.152C800.135 279.993 800.783 313.267 836.696 372.864C862.84 416.317 866.083 446.717 846.303 465H848.248C867.826 446.499 864.462 416.032 838.439 372.68C802.769 313.435 801.959 280.444 835.561 271.787C885.661 258.969 1005.44 300.733 1132.27 344.954C1273.33 394.122 1419.17 444.962 1488.15 427.664C1540.4 414.578 1541.33 363.773 1490.99 272.372C1450.46 198.453 1448.27 158.577 1484.83 150.471C1537.52 138.772 1666.99 194.408 1803.95 253.336C1842.34 269.848 1881.29 286.611 1919.8 302.454V301.385C1881.37 285.575 1842.78 268.946 1805.25 252.835C1735.13 222.669 1668.85 194.141 1612.84 174.403Z" fill="#009999"/>
<path d="M580.969 465H585.955C521.587 454.872 450.005 440.884 376.801 426.561C242.553 400.323 105.225 373.482 0.445679 368.435V369.171C104.86 374.184 241.986 401.025 376.031 427.23C447.573 441.235 517.615 454.973 580.969 465Z" fill="#009999"/>
<path d="M1814.41 244.78C1689.81 192.737 1571.49 143.301 1509.19 143.301C1502.9 143.259 1496.68 143.868 1491.11 145.073C1453.21 153.58 1453.82 193.105 1492.9 265.904C1540.77 354.998 1538.7 404.735 1486.57 417.988C1417.18 435.569 1270.89 386.268 1129.39 338.604C1018.17 301.184 912.332 265.537 852.18 265.553C843.627 265.453 835.184 266.37 827.86 268.194C792.96 277.252 792.758 309.975 827.171 368.285C855.544 416.049 854.936 447.853 825.63 465H827.779C856.679 447.569 857.004 415.698 828.914 368.068C794.703 310.125 794.663 277.653 828.914 268.779C879.946 255.526 1000.61 296.154 1128.38 339.155C1270.24 387.02 1417.18 436.472 1487.55 418.606C1540.24 405.236 1542.75 355.182 1494.72 265.754C1455.81 193.305 1454.92 154.064 1492.04 145.725C1545.83 133.658 1675.7 187.89 1813.15 245.298C1848.5 260.055 1884.29 274.996 1919.8 289.285V288.232C1884.41 273.993 1848.94 259.186 1814.41 244.78Z" fill="#009999"/>
<path d="M596.413 465H602.209C529.249 455.357 444.817 439.731 358.318 423.67C232.177 400.273 103.361 376.39 0.446167 369.639V370.391C103.037 377.076 231.488 400.991 357.548 424.355C442.02 440.032 524.385 455.307 596.413 465Z" fill="#009999"/>
<path d="M1517.99 138.472C1511.24 138.411 1504.57 139.067 1498.61 140.377C1460.19 149.101 1459.62 188.024 1496.91 259.353C1542.51 346.509 1539.02 395.476 1486.09 409.047C1415.64 427.23 1268.06 379.298 1125.34 332.971C1014.11 296.856 908.197 262.461 846.991 262.478C837.802 262.367 828.733 263.36 820.888 265.336C785.664 274.611 784.407 306.833 817.524 363.839C848.086 416.785 842.249 449.959 799.648 465H802.364C844.114 449.457 849.667 416.266 819.226 363.639C786.475 307 787.285 275.063 821.78 265.938C873.784 252.233 995.426 291.725 1124.16 333.523C1267.2 380.034 1415.52 428.132 1487.26 409.665C1540.69 395.911 1544.45 346.692 1498.69 259.253C1461.56 188.292 1461.85 149.636 1499.5 141.095C1554.39 128.561 1684.7 181.389 1822.8 237.326C1854.94 250.345 1887.37 263.514 1919.8 276.149V275.113C1887.61 262.478 1855.43 249.442 1824.06 236.674C1699.62 186.37 1581.38 138.455 1517.99 138.472Z" fill="#009999"/>
<path d="M620.855 465H628.556C545.705 457.128 444.371 439.313 339.591 420.929C221.274 400.139 100.443 378.947 0.446106 371.176V371.911C100.321 379.766 220.747 400.858 338.983 421.548C440.318 439.463 539.139 456.777 620.855 465Z" fill="#009999"/>
<path d="M1506.35 135.764C1467.36 144.722 1465.82 183.044 1501.21 252.919C1544.54 338.152 1539.67 386.368 1486.37 400.273C1414.3 419.091 1265.42 372.496 1121.57 327.44C1010.34 292.644 904.387 259.487 841.884 259.487C832.014 259.359 822.271 260.435 813.876 262.578C778.328 272.088 776.341 303.791 807.836 359.511C837.264 411.52 830.332 444.16 786.637 459.284C779.709 461.642 771.979 463.568 763.695 465H768.072C775.151 463.622 781.771 461.875 787.772 459.802C832.035 444.477 839.168 411.52 809.619 359.294C778.287 303.925 779.989 272.389 814.848 263.147C867.826 248.991 990.44 287.363 1120.27 327.974C1264.77 373.098 1414.18 419.893 1487.3 400.858C1541.29 386.769 1546.44 338.303 1502.91 252.752C1467.6 183.228 1468.98 145.173 1507.2 136.399C1563.1 123.514 1694.15 174.955 1832.81 229.354C1861.63 240.735 1890.73 252.167 1919.8 263.28V262.261C1890.94 251.214 1862.2 239.933 1834.07 228.836C1694.92 174.203 1563.47 122.595 1506.35 135.764Z" fill="#009999"/>
<path d="M776.018 453.736C820.24 438.193 828.063 405.921 799.973 355.132C770.1 301.017 772.654 270.066 807.796 260.523C861.828 245.883 985.537 283.152 1116.54 322.593C1262.34 366.396 1413.13 411.854 1487.67 392.15C1542.27 377.728 1548.71 330.013 1507.45 246.317C1473.89 178.214 1476.4 140.728 1515.11 131.737C1572.22 118.467 1703.87 168.504 1843.23 221.566C1868.6 231.226 1894.22 240.969 1919.8 250.495V249.493C1894.42 240.033 1869.21 230.44 1844.45 221.081C1720.25 173.835 1602.18 128.895 1536.39 128.912C1528.63 128.847 1520.96 129.613 1514.14 131.135C1474.62 140.31 1471.82 178.047 1505.58 246.451C1546.89 329.83 1540.61 377.276 1486.7 391.465C1413.13 410.969 1262.91 365.711 1117.6 321.941C1006.33 288.416 900.294 256.478 836.94 256.478C826.321 256.343 815.843 257.506 806.824 259.821C770.951 269.548 768.154 300.75 798.23 355.216C826.158 405.771 818.497 437.809 774.883 453.151C696.491 480.71 513.968 450.41 320.703 418.322C209.924 399.938 97.1597 381.204 0.486877 372.881V373.633C96.9166 381.989 209.479 400.64 320.055 419.007C513.805 451.179 696.815 481.579 776.018 453.736Z" fill="#009999"/>
<path d="M764.385 447.787C808.485 432.06 817.078 400.373 790.367 350.955C761.993 298.076 765.276 267.609 800.744 257.849C855.748 242.808 980.672 278.89 1112.85 317.195C1260.07 359.829 1412.32 403.933 1488.36 383.561C1543.44 368.787 1551.27 321.825 1512.19 239.984C1480.37 173.284 1483.82 136.366 1523.26 127.141C1581.5 113.453 1713.76 162.237 1854.05 213.795C1875.82 221.801 1897.79 229.889 1919.76 237.861V236.875C1898.03 229.004 1876.47 221.048 1855.23 213.244C1731.15 167.518 1613.12 124.066 1546.28 124.066C1537.99 124.005 1529.81 124.847 1522.57 126.506C1482.56 135.898 1478.67 173.067 1510.65 240.151C1549.52 321.658 1541.98 368.369 1487.59 382.959C1412.56 403.014 1260.84 359.11 1114.11 316.594C1002.76 284.355 896.646 253.621 832.238 253.621C820.785 253.458 809.48 254.728 799.811 257.264C763.655 267.292 760.007 297.909 788.664 351.138C815.133 400.273 806.823 431.709 763.29 447.252C683.561 475.663 498.078 446.617 301.693 415.866C198.17 399.655 93.0658 383.109 0.446411 374.753V375.505C92.8226 383.962 197.764 400.373 300.963 416.534C497.876 447.369 683.844 476.499 764.385 447.787Z" fill="#009999"/>
<path d="M752.751 441.954C796.731 426.043 805.851 394.975 780.679 346.943C753.562 295.285 757.818 265.319 793.569 255.342C849.668 239.682 975.971 274.779 1109.37 311.93C1258.13 353.327 1411.95 396.111 1489.45 375.054C1545.06 360.012 1554.31 313.719 1517.34 233.699C1487.22 168.387 1491.92 132.021 1531.73 122.561C1591.15 108.456 1724.3 155.853 1865.32 206.124C1883.32 212.491 1901.56 218.959 1919.8 225.377V224.34C1901.88 218.04 1884.05 211.689 1866.5 205.439C1742.46 161.284 1624.43 119.269 1556.45 119.269C1547.44 119.189 1538.54 120.107 1530.67 121.926C1490.14 131.569 1485.15 168.17 1515.39 233.9C1552.12 313.585 1543.24 359.561 1488.32 374.485C1411.95 395.225 1258.61 352.575 1110.38 311.245C998.994 280.26 892.795 250.713 827.293 250.713C815.018 250.545 802.907 251.914 792.556 254.64C756.075 264.818 751.657 295.034 778.896 347.027C803.946 394.758 795.109 425.575 751.576 441.318C670.549 470.716 481.946 442.94 282.236 413.526C186.05 399.353 88.4448 384.964 0.405579 376.658V377.41C88.2421 385.766 185.645 400.072 281.628 414.177C481.865 443.708 670.914 471.568 752.751 441.954Z" fill="#009999"/>
<path d="M741.2 436.254C784.854 420.177 794.744 389.693 770.992 342.999C745.253 292.56 750.279 263.063 786.354 252.868C843.466 236.674 970.945 270.717 1105.92 306.733C1256.3 346.843 1411.79 388.373 1490.99 366.613C1546.89 351.221 1557.39 305.696 1522.57 227.499C1494.19 163.54 1499.99 127.742 1540.28 118.032C1601.08 103.459 1734.84 149.568 1876.71 198.386L1919.8 213.059V212.09C1905.8 207.31 1891.92 202.547 1878.17 197.801C1735.69 148.816 1601.16 102.54 1539.47 117.397C1498.41 127.274 1492.37 163.34 1520.91 227.699C1555.44 305.579 1545.23 350.854 1489.86 366.112C1411.75 387.537 1256.79 346.174 1106.89 306.231C995.467 276.483 889.188 248.105 822.591 248.122C809.412 247.926 796.405 249.408 785.341 252.367C748.617 262.762 743.348 292.477 769.127 343.266C792.961 389.56 783.273 419.876 739.983 435.703C657.619 465.919 465.773 439.396 262.699 411.319C173.525 399.019 83.4594 386.551 0.44635 378.613V379.365C83.2568 387.304 173.323 399.821 261.97 412.021C465.733 440.182 658.024 466.771 741.2 436.254Z" fill="#009999"/>
<path d="M729.728 430.673C773.343 414.445 783.679 384.546 761.264 339.272C736.944 290.02 742.74 261.008 779.058 250.579C837.264 233.867 966.162 266.824 1102.6 301.736C1254.72 340.626 1411.95 380.853 1492.61 358.358C1549.36 342.581 1560.87 297.775 1528.32 221.316C1501.61 158.694 1508.46 123.414 1549.28 113.487C1611.09 98.4454 1746.15 143.251 1889.11 190.698C1899.3 194.119 1909.53 197.534 1919.8 200.943V199.99L1890.25 190.197C1766.26 149.017 1648.22 109.843 1577.86 109.843C1567.54 109.734 1557.36 110.786 1548.39 112.885C1506.84 123.013 1499.75 158.527 1526.54 221.516C1558.97 297.608 1547.54 342.163 1491.6 357.773C1411.95 379.984 1255.17 339.891 1103.57 301.118C992.103 272.606 885.702 245.381 818.011 245.381C803.844 245.173 789.868 246.778 778.004 249.977C741.037 260.607 734.998 289.87 759.521 339.439C781.774 384.429 771.681 414.094 728.513 430.138C644.77 461.29 449.56 436.021 242.919 409.297C161 398.685 78.0684 387.956 0.44635 380.552V381.321C77.8658 388.708 160.636 399.42 242.392 409.999C449.519 436.789 645.216 462.109 729.728 430.673Z" fill="#009999"/>
<path d="M718.298 425.191C761.71 408.829 772.573 379.532 751.536 335.595C728.513 287.513 735.079 258.985 771.802 248.323C831.103 231.059 961.5 262.963 1099.52 296.789C1253.55 334.476 1412.6 373.432 1494.84 350.185C1551.87 334.074 1564.76 290.02 1534.32 215.316C1509.31 154.014 1517.26 119.269 1558.64 109.091C1621.47 93.515 1757.66 137.068 1901.64 183.177L1919.8 188.977V188.041L1902.73 182.559C1778.74 142.867 1660.67 105.08 1589.12 105.097C1578.04 104.993 1567.1 106.149 1557.51 108.439C1515.47 118.784 1507.29 153.78 1532.42 215.399C1562.74 289.736 1550.09 333.606 1493.71 349.55C1412.4 372.513 1253.75 333.69 1100.53 296.07C988.82 268.829 882.135 242.724 813.552 242.724C798.322 242.496 783.304 244.25 770.627 247.738C733.417 258.567 726.607 287.363 749.793 335.746C770.668 379.415 760.007 408.495 717.082 424.656C631.961 456.744 433.346 432.762 222.895 407.359C148.029 398.334 72.3127 389.192 0.44635 382.44V383.109C72.1505 389.794 147.665 398.986 222.409 407.994C433.265 433.514 632.407 457.546 718.298 425.191Z" fill="#009999"/>
<path d="M706.908 419.876C750.076 403.398 761.466 374.669 741.767 332.069C720.041 285.157 727.378 257.063 764.182 246.217C824.658 228.351 956.596 259.236 1096.32 291.925C1252.13 328.392 1413.29 366.095 1497.19 342.063C1554.63 325.584 1568.78 282.165 1540.4 209.299C1517.05 149.318 1526.01 115.074 1567.8 104.662C1632.13 88.618 1769.34 130.901 1914.61 175.69L1919.8 177.361V176.425L1915.74 175.155C1791.79 136.934 1673.68 100.517 1600.92 100.534C1589.01 100.369 1577.22 101.573 1566.87 104.01C1524.39 114.606 1515.15 149.134 1538.5 209.416C1566.87 281.998 1552.89 325.2 1496.06 341.444C1413.05 365.21 1252.41 327.606 1097.09 291.307C956.839 258.5 824.415 227.515 763.007 245.632C725.594 256.695 718.014 285.006 739.862 332.236C759.44 374.585 748.212 403.08 705.53 419.358C619.031 452.382 416.687 429.67 202.466 405.637C134.653 398.016 66.1516 390.345 0.324768 384.312V385.081C65.9894 391.097 134.329 398.752 202.02 406.356C416.849 430.388 619.639 453.134 706.908 419.876Z" fill="#009999"/>
<path d="M1576.52 99.5653C1533.55 110.395 1523.3 144.371 1545.1 203.417C1571.29 274.278 1556.25 316.811 1499.02 333.39C1414.3 357.94 1251.56 321.691 1094.21 286.444C952.34 254.691 818.092 224.792 755.548 243.51C717.933 254.757 709.664 282.634 730.174 328.744C748.374 369.739 736.741 397.666 694.343 414.044C606.506 448.02 400.311 426.562 182.078 403.916C121.277 397.599 59.9904 391.231 0.44635 385.984V386.753C59.8283 391.984 120.993 398.334 181.632 404.635C400.514 427.364 606.911 448.839 695.559 414.662C738.443 398.084 750.36 369.956 732.039 328.643C711.772 282.868 719.879 255.242 756.683 244.178C818.295 225.795 951.934 255.576 1093.44 287.18C1251.28 322.426 1414.5 358.893 1500.11 333.975C1557.95 317.262 1573.07 274.461 1546.97 203.283C1525.28 144.572 1535.25 110.846 1577.53 100.184C1641.86 83.9558 1776.35 123.163 1919.8 165.713V164.794C1799.21 129.08 1685.07 95.6546 1612.92 95.6546C1600.13 95.5259 1587.52 96.881 1576.52 99.5653Z" fill="#009999"/>
<path d="M684.249 409.464C726.85 392.752 739.213 365.26 722.067 325.2C702.975 280.578 711.771 253.336 748.941 242.122C811.727 223.07 947.11 251.882 1090.44 282.399C1250.46 316.459 1415.92 351.672 1503.27 326.035C1561.48 308.939 1577.94 266.857 1553.66 197.349C1533.39 139.892 1544.62 106.667 1587.34 95.7542C1650.98 79.5097 1780.24 114.656 1919.72 154.365V153.462C1804.32 120.723 1695.97 91.0079 1625.48 91.0079C1611.76 90.8435 1598.22 92.2865 1586.41 95.1693C1543 106.25 1531.69 139.708 1551.87 197.483C1576.19 266.673 1559.98 308.521 1502.22 325.434C1415.76 350.803 1250.91 315.69 1091.29 281.747C979.739 257.999 873.014 235.287 800.986 235.287C780.111 235.287 762.155 237.192 747.846 241.537C710.109 252.985 701.07 280.41 720.324 325.334C737.348 365.126 725.147 392.468 683.033 408.896C593.656 443.808 383.651 423.686 161.283 402.378C107.535 397.231 53.4229 392.05 0.445312 387.588V388.34C53.1392 392.802 107.292 397.966 160.878 403.097C383.57 424.489 594.345 444.661 684.249 409.464Z" fill="#009999"/>
<path d="M673.022 404.434C715.299 387.722 728.107 360.748 712.177 321.958C694.343 278.506 703.827 251.766 741.159 240.251C805.121 220.564 942.368 248.357 1087.68 277.821C1249.82 310.694 1417.71 344.671 1506.88 318.181C1565.41 300.784 1583.04 259.37 1560.75 191.551C1542.27 135.347 1554.31 102.607 1597.47 91.4598C1660.22 75.2487 1784.29 106.501 1919.8 143.369V142.45C1809.67 112.501 1707.12 86.3291 1638.45 86.3291C1623.73 86.1501 1609.2 87.7037 1596.54 90.808C1552.68 102.122 1540.4 135.096 1559.05 191.618C1581.22 259.136 1563.83 300.332 1505.91 317.546C1417.63 343.768 1250.3 309.892 1088.41 277.119C976.943 254.54 869.975 232.914 797.014 232.914C774.518 232.914 755.224 234.953 739.983 239.599C702.044 251.298 692.356 278.222 710.313 322.025C726.121 360.564 713.474 387.338 671.684 403.916C580.929 439.781 366.871 420.963 140.369 401.042C93.7549 396.947 46.8574 392.819 0.608459 389.142V389.895C46.7358 393.571 93.5118 397.683 140.004 401.76C366.952 421.732 581.497 440.6 673.022 404.434Z" fill="#009999"/>
<path d="M118.48 400.523C350.049 419.09 568.81 436.639 661.632 399.52C703.584 382.808 716.798 356.385 702.165 318.799C685.587 276.399 695.761 250.111 733.214 238.445C798.433 218.123 937.585 244.913 1084.97 273.257C1249.57 305.011 1419.77 337.684 1510.57 310.326C1569.42 292.644 1588.15 251.832 1567.84 185.701C1550.98 130.733 1563.79 98.4783 1607.61 87.0971C1669.62 70.9361 1788.55 98.4615 1919.8 132.421V131.552C1815.26 104.445 1718.51 81.5151 1651.87 81.5151C1636.06 81.3199 1620.44 83.0023 1606.88 86.3617C1562.61 97.9268 1549.36 130.433 1566.34 185.717C1586.61 251.581 1568.09 292.126 1509.6 309.657C1419.45 336.748 1249.74 304.092 1085.57 272.505C974.147 251.063 867.34 230.507 793.204 230.507C768.884 230.507 748.252 232.696 731.998 237.76C693.937 249.626 683.56 276.199 700.26 318.832C714.893 356.151 701.801 382.34 660.335 398.902C568.039 435.669 349.765 418.255 118.683 399.721C79.2436 396.545 39.5611 393.37 0.283997 390.445V391.197C39.6423 394.206 79.1625 397.381 118.48 400.523Z" fill="#009999"/>
<path d="M1617.5 82.1339C1572.91 93.9329 1558.6 125.954 1573.96 180.019C1592.29 244.262 1572.67 284.171 1514.1 302.02C1422.08 329.997 1249.78 298.56 1083.14 268.16C971.796 247.838 864.989 228.351 789.84 228.351C763.777 228.351 741.483 230.708 724.135 236.173C685.993 248.206 674.967 274.277 690.451 315.891C703.868 352.024 690.451 377.644 649.31 394.223C555.515 432.026 332.904 415.849 97.2003 398.718C64.7734 396.379 32.6302 394.039 0.44635 391.799V392.568C32.5491 394.774 64.7733 397.114 96.8759 399.454C333.025 416.617 556.123 432.879 650.566 394.758C692.113 378.045 705.733 352.157 692.194 315.774C676.873 274.461 687.655 248.624 725.229 236.758C791.705 215.8 932.924 241.554 1082.41 268.846C1249.49 299.329 1422.29 330.849 1515.15 302.605C1574.33 284.505 1594.11 244.395 1575.75 179.935C1560.47 126.171 1574.45 94.4008 1618.47 82.7523C1679.27 66.7083 1792.97 90.7241 1919.8 121.943V121.074C1821.06 96.7907 1730.18 76.9029 1665.77 76.9029C1648.79 76.6782 1632.02 78.4958 1617.5 82.1339Z" fill="#009999"/>
<path d="M74.9472 398.451C315.879 414.194 543.436 429.068 639.379 390.094C680.561 373.382 694.545 348.079 682.142 312.866C667.996 272.622 679.426 247.203 717.123 235.17C784.854 213.477 928.181 238.228 1079.94 264.45C1249.65 293.747 1425.29 324.047 1519.89 294.9C1579.31 276.633 1600.19 237.142 1583.73 174.203C1569.99 121.642 1584.91 90.3228 1629.37 78.4569C1688.76 62.5466 1797.59 83.2367 1919.8 111.665V110.812C1827.06 89.2699 1742.1 72.2566 1680.16 72.2566C1661.94 72.0071 1643.95 73.9652 1628.4 77.8887C1583.37 89.8715 1568.13 121.425 1581.95 174.203C1598.16 236.858 1577.69 276.149 1518.84 294.215C1424.88 323.111 1249.86 292.895 1080.63 263.665C969.404 244.462 862.679 226.028 786.516 226.028C758.426 226.028 734.471 228.535 716.028 234.384C677.764 246.601 666.131 272.238 680.358 312.766C692.519 347.728 678.818 372.78 638.082 389.359C542.828 428.132 315.677 413.291 75.231 397.582C50.3433 395.91 25.3746 394.239 0.44635 392.752V393.638C25.2801 395.208 50.1136 396.813 74.9472 398.451Z" fill="#009999"/>
<path d="M52.694 397.615C298.531 411.921 530.748 425.425 628.273 385.432C669.049 368.719 683.398 344.002 672.13 309.942C659.159 270.751 671.198 245.766 708.935 233.566C777.842 211.254 923.561 235.003 1077.79 260.138C1250.18 288.266 1428.49 317.345 1525.24 287.263C1584.91 268.729 1606.8 229.889 1592.2 168.521C1580.04 117.146 1595.85 86.2952 1640.84 74.1787C1698.77 58.4355 1802.25 76.0004 1919.8 101.671V100.818C1802.25 75.1647 1698.4 57.6501 1639.51 73.5603C1594.07 85.8273 1577.94 116.929 1590.22 168.604C1604.73 229.688 1583.04 268.311 1523.95 286.678C1428 316.493 1250.18 287.497 1078.07 259.453C967.013 241.337 860.409 223.939 783.273 223.956C753.035 223.956 727.256 226.63 707.597 232.981C669.293 245.365 657.011 270.567 670.103 310.042C681.291 343.868 667.104 368.352 626.732 384.914C529.938 424.639 298.166 411.152 52.8156 396.88L0.121887 393.838V394.59L52.694 397.615Z" fill="#009999"/>
<path d="M30.1573 396.897C281.061 409.765 518.021 421.965 617.004 380.953C657.538 364.24 672.049 340.124 661.834 307.184C650.039 269.029 662.686 244.479 700.463 232.128C770.829 209.115 918.737 231.861 1075.32 255.927C1250.55 282.834 1431.73 310.71 1530.67 279.692C1590.54 260.907 1613.44 222.702 1600.68 162.872C1589.97 112.734 1606.8 82.2507 1651.99 69.9169C1708.74 54.3743 1807.4 69.0144 1919.92 91.9607V91.125C1884.81 83.7769 1848.73 77.2432 1811.86 71.5547C1737.11 60.4576 1686.2 59.739 1651.02 69.2986C1605.22 81.7995 1588.15 112.433 1598.89 162.888C1611.58 222.418 1588.92 260.422 1529.62 279.04C1431.57 309.825 1250.87 282.032 1076.05 255.175C919.021 231.025 770.627 208.213 699.49 231.476C661.145 244.011 648.296 268.779 660.172 307.201C670.306 339.924 655.795 363.856 615.829 380.368C517.494 421.046 280.939 408.93 30.5221 396.111L0.567749 394.574V395.326L30.1573 396.897Z" fill="#009999"/>
<path d="M1662.53 65.0537C1616.36 77.7886 1598.41 107.971 1607.69 157.323C1618.55 215.349 1594.92 252.735 1535.38 271.587C1435.26 303.34 1251.64 276.767 1073.74 251.08C963.243 235.12 857.045 219.761 778.085 219.761C742.942 219.761 713.231 222.803 690.816 230.19C652.471 242.858 639.055 267.208 649.796 304.594C658.876 336.23 644.081 359.594 604.52 376.073C504.645 417.687 263.145 406.958 7.45868 395.593L0.44635 395.276V396.028L7.29657 396.328C263.388 407.726 505.172 418.473 605.817 376.591C645.743 359.962 660.7 336.314 651.58 304.56C640.919 267.442 654.133 243.326 692.113 230.825C763.858 207.11 914.157 228.836 1073.13 251.832C1251.48 277.586 1435.58 304.209 1536.47 272.238C1596.54 253.203 1620.38 215.616 1609.43 157.323C1600.23 108.255 1617.9 78.29 1663.5 65.7222C1718.95 50.3801 1812.34 62.2293 1919.8 82.5851V81.7495C1889.18 75.8323 1857.83 70.5829 1825.88 66.023C1750.16 55.5443 1698.24 55.1934 1662.53 65.0537Z" fill="#009999"/>
<path d="M594.629 372.329C634.109 355.767 649.35 332.737 641.243 301.953C631.677 265.837 645.297 242.122 683.317 229.488C756.278 205.071 909.252 225.777 1071.06 247.704C1252.33 272.271 1439.92 297.674 1542.83 264.717C1603.03 245.448 1627.95 208.48 1618.67 151.691C1610.93 103.76 1629.54 74.2286 1675.42 61.4435C1729.21 46.4023 1817.57 55.8449 1919.76 73.5434V72.7078C1892.07 67.9113 1865.52 63.7332 1840.39 60.4742C1763.38 50.5637 1710.68 50.664 1674.2 60.8252C1627.71 73.7773 1608.86 103.526 1616.65 151.741C1625.77 208.279 1601.16 245.03 1541.5 264.132C1439.19 296.839 1252.21 271.503 1071.31 247.002C961.257 232.095 855.342 217.739 775.41 217.739C737.511 217.739 705.489 220.981 681.736 228.919C643.351 241.721 629.407 265.687 638.973 302.02C647.08 332.587 631.961 355.416 592.886 371.811C493.498 413.492 254.997 405.403 0 395.76V396.479C255.808 406.155 494.633 414.244 594.629 372.329Z" fill="#009999"/>
<path d="M583.402 368.168C622.436 351.706 637.96 329.228 630.826 299.463C622.355 264.366 636.663 241.069 674.522 228.301C749.023 203.232 904.51 222.853 1069.08 243.71C1253.55 267.107 1444.3 291.257 1549.56 257.297C1609.88 237.827 1635.62 201.477 1628.2 146.159C1621.92 99.3641 1641.37 70.2343 1687.62 57.232C1739.71 42.5918 1823 49.6445 1919.8 64.8362V64.0005C1897.5 60.4909 1875.94 57.4158 1855.31 54.9591C1777.44 45.6168 1723.82 46.1516 1686.61 56.6303C1639.79 69.7997 1620.09 99.1135 1626.41 146.209C1633.79 201.277 1608.3 237.426 1548.43 256.729C1443.93 290.438 1253.63 266.339 1069.6 243.025C904.55 222.101 748.617 202.346 673.387 227.749C635.042 240.685 620.693 264.166 629.043 299.613C636.136 329.144 620.936 351.422 582.145 367.716C484.175 409.03 251.998 403.949 0.44635 396.128V396.88C252.363 404.634 484.905 409.715 583.402 368.168Z" fill="#009999"/>
<path d="M572.174 364.14C610.762 347.779 626.53 325.852 620.328 297.09C612.951 262.929 627.746 240.067 665.564 227.198C741.524 201.327 899.727 220.012 1067.21 239.783C1255 261.96 1449.2 284.906 1556.7 249.927C1617.13 230.273 1643.76 194.525 1638.05 140.644C1633.22 94.9189 1653.49 66.257 1700.06 53.0375C1750.29 38.8319 1828.52 43.7119 1919.8 56.497V55.6781C1902.9 53.3049 1886.48 51.1991 1870.59 49.4443C1791.55 40.7037 1736.83 41.6396 1699.05 52.4191C1651.91 65.7891 1631.36 94.6683 1636.26 140.678C1641.94 194.291 1615.55 229.839 1555.6 249.309C1448.8 284.071 1255.05 261.108 1067.7 239.064C958.744 226.212 853.762 213.812 772.492 213.812C728.431 213.812 691.424 217.455 664.429 226.63C626.124 239.666 611.086 262.746 618.504 297.157C624.665 325.685 609.1 347.428 570.877 363.622C474.366 404.534 248.391 402.228 0.44635 396.245V396.98C248.756 402.98 475.136 405.27 572.174 364.14Z" fill="#009999"/>
<path d="M560.906 360.213C599.048 343.968 615.018 322.576 609.546 294.8C603.263 261.609 618.544 239.164 656.322 226.178C733.782 199.572 894.782 217.237 1065.27 235.922C1256.5 256.896 1454.39 278.572 1564.11 242.607C1624.79 222.769 1652.28 187.573 1648.22 135.162C1644.82 90.5066 1665.94 62.2291 1712.79 48.8591C1761.03 35.0546 1834.39 38.0796 1919.8 48.5583V47.7393C1908.37 46.3355 1897.18 45.0486 1886.24 43.9456C1805.98 35.7899 1750.53 37.1603 1711.94 48.2574C1664.52 61.828 1643.03 90.2726 1646.6 135.162C1650.65 187.372 1623.37 222.318 1563.3 241.988C1454.19 277.736 1256.87 256.111 1066.04 235.187C957.852 223.321 853.518 211.873 771.64 211.889C724.135 211.889 684.168 215.733 655.471 225.594C617.247 238.73 601.723 261.392 608.087 294.833C613.316 322.392 597.508 343.6 559.771 359.678C464.679 400.139 244.783 400.423 0.405579 396.228V396.98C245.026 401.192 465.287 400.891 560.906 360.213Z" fill="#009999"/>
<path d="M549.759 356.368C587.415 340.274 603.588 319.417 599.21 292.594C593.9 260.322 609.668 238.295 647.405 225.226C726.364 197.884 890.323 214.513 1063.89 232.111C1258.69 251.865 1460.15 272.221 1572.38 235.286C1633.18 215.232 1661.31 180.754 1658.92 129.697C1656.86 86.0942 1678.78 58.2679 1725.97 44.664C1772.05 31.294 1840.19 32.6644 1919.96 40.9705V40.1349C1914.04 39.5165 1908.21 38.9316 1902.41 38.4636C1820.9 30.9096 1764.59 32.6978 1724.95 44.1125C1677.24 57.8835 1655.07 85.8936 1657.14 129.781C1659.53 180.587 1631.44 215.014 1571.29 234.768C1459.74 271.536 1258.73 251.163 1064.33 231.426C890.282 213.778 725.878 197.098 646.229 224.741C608.046 237.96 592.076 260.205 597.386 292.711C601.764 319.317 585.753 340.007 548.462 355.934C454.829 395.927 240.852 398.601 0.608398 396.144V396.896C241.095 399.286 455.437 396.595 549.759 356.368Z" fill="#009999"/>
<path d="M538.247 352.675C575.457 336.732 591.792 316.393 588.266 290.488C583.969 259.152 600.182 237.526 637.838 224.39C718.338 196.297 885.337 211.889 1062.14 228.401C1260.76 246.935 1465.94 266.088 1580.61 228.05C1641.41 207.995 1670.39 173.985 1669.79 124.283C1669.1 81.6992 1691.84 54.3074 1739.3 40.5029C1783.08 27.768 1846.15 27.5674 1920 33.8179V32.9823L1918.87 32.882C1836.05 25.9129 1778.66 28.1357 1738.25 39.8846C1690.3 53.8395 1667.31 81.4318 1668 124.266C1668.49 173.735 1639.71 207.494 1579.31 227.482C1465.33 265.286 1260.48 246.167 1062.39 227.666C885.134 211.121 717.852 195.494 636.501 223.822C598.399 237.109 581.983 258.918 586.32 290.538C589.968 316.259 573.795 336.314 536.95 352.157C444.736 391.649 236.636 396.479 0.445923 395.76V396.479C237.041 397.247 445.546 392.367 538.247 352.675Z" fill="#009999"/>
<path d="M526.817 349.082C563.581 333.305 580.119 313.484 577.362 288.483C574.079 258.032 590.698 236.808 628.273 223.621C710.353 194.776 880.514 209.299 1060.48 224.724C1263.15 242.039 1472.22 259.921 1589.41 220.847C1650.21 200.608 1680.04 167.234 1680.81 118.901C1681.42 77.3538 1705.13 50.3799 1752.64 36.3915C1794.14 24.2415 1851.98 22.7708 1919.8 27.1328V26.2804C1843.96 21.3837 1790.09 24.4254 1751.62 35.7564C1703.39 49.8618 1679.64 77.053 1678.99 118.868C1678.26 167 1648.59 200.174 1588.27 220.279C1471.74 259.119 1262.95 241.27 1061.01 224.006C880.433 208.563 709.867 193.923 627.3 223.053C589.279 236.423 572.417 257.815 575.741 288.516C578.133 313.301 561.919 332.971 525.439 348.564C434.724 387.504 232.38 394.39 0.365295 395.275V396.027C232.867 395.125 435.616 388.223 526.817 349.082Z" fill="#009999"/>
<path d="M515.386 345.589C551.867 329.996 568.364 310.694 566.418 286.544C564.027 256.98 581.091 236.156 618.585 222.92C702.287 193.339 875.65 206.826 1059.23 221.131C1265.5 237.192 1478.83 253.788 1598.65 213.678C1659.45 193.322 1690.05 160.549 1692.32 113.403C1694.27 72.8583 1718.55 46.2687 1766.5 32.1467C1805.25 20.7154 1858.11 18.1584 1919.8 20.8156V19.98C1851.54 17.0219 1801.97 20.7655 1765.45 31.5284C1716.8 45.8175 1692.48 72.5909 1690.54 113.419C1688.27 160.214 1657.83 192.854 1597.31 213.059C1478.18 252.952 1265.26 236.373 1059.35 220.346C875.366 206.023 701.558 192.486 617.207 222.301C579.268 235.671 562.041 256.712 564.513 286.527C566.459 310.443 549.921 329.595 514.008 345.021C424.834 383.46 228.043 392.117 0.365295 394.59V395.342C228.529 392.902 425.645 384.145 515.386 345.589Z" fill="#009999"/>
<path d="M493.012 346.475C536.059 330.398 556.366 310.192 555.11 284.639C553.651 255.927 571.121 235.504 608.493 222.234C693.857 191.901 870.584 204.335 1057.73 217.505C1268.1 232.329 1485.64 247.587 1608.09 206.474C1668.89 186.035 1700.27 153.83 1704 108.038C1707.24 68.4628 1732.37 42.2744 1780.44 27.9852C1816.44 17.3227 1864.11 13.93 1919.6 15.0497V14.1974C1858.8 12.944 1813.6 17.2558 1779.43 27.3835C1730.79 41.8231 1705.46 68.1954 1702.21 108.021C1698.48 153.596 1667.31 185.601 1606.92 205.906C1485.32 246.852 1268.02 231.56 1058.01 216.786C870.462 203.583 693.208 191.116 607.317 221.666C569.499 235.036 551.867 255.709 553.286 284.655C555.718 332.503 481.906 362.335 321.068 378.529C230.354 387.654 120.264 391.649 0.244141 393.805V394.54C120.386 392.401 230.597 388.39 321.474 379.248C398.609 371.577 454.708 360.831 493.012 346.475Z" fill="#009999"/>
<path d="M544.125 282.951C543.557 255.074 561.392 235.053 598.642 221.75C685.709 190.681 865.881 202.062 1056.67 214.095C1271.26 227.683 1493.18 241.638 1618.35 199.439C1679.15 178.932 1711.25 147.312 1716.48 102.74C1720.94 64.1176 1746.68 38.3303 1795.16 23.9074C1828.11 14.0805 1870.63 10.0528 1919.8 9.85223V8.99988C1866.5 9.18372 1825.72 13.8799 1794.14 23.3058C1745.22 37.8791 1719.24 63.8503 1714.7 102.707C1709.55 147.045 1677.65 178.515 1617.42 198.87C1492.86 240.869 1271.34 226.88 1057.16 213.36C865.962 201.294 685.344 189.963 597.67 221.198C560.014 234.568 541.976 254.84 542.503 282.951C544.125 365.226 302.868 385.348 0.648743 392.919V393.654C303.638 386.084 545.705 365.861 544.125 282.951Z" fill="#009999"/>
</g>
<rect x="1817" width="103" height="318" fill="url(#paint0_linear_776_5830)"/>
<rect width="103" height="48" transform="matrix(-1 0 0 1 103 359)" fill="url(#paint1_linear_776_5830)"/>
<defs>
<linearGradient id="paint0_linear_776_5830" x1="1920" y1="154" x2="1817" y2="154" gradientUnits="userSpaceOnUse">
<stop stop-color="#F0FFFF"/>
<stop offset="0.932292" stop-color="#F0FFFF" stop-opacity="0"/>
</linearGradient>
<linearGradient id="paint1_linear_776_5830" x1="103" y1="23.2453" x2="7.55718e-07" y2="23.2453" gradientUnits="userSpaceOnUse">
<stop stop-color="#F0FFFF"/>
<stop offset="0.932292" stop-color="#F0FFFF" stop-opacity="0"/>
</linearGradient>
</defs>
</svg>
