<svg width="299" height="400" viewBox="0 0 299 400" fill="none" xmlns="http://www.w3.org/2000/svg"><path d="M157.278 5c7.205 2.51 14.387 5.095 21.624 7.509 8.47 2.82 8.61 7.528 7.385 14.211-.87 4.744-1.712 9.495-2.422 14.267a8.978 8.978 0 002.881 8.275c3.83 3.59 7.868 7.006 11.343 10.916 3.694 4.15 7.979 4.456 12.83 3.303 5.012-1.197 10.015-2.422 15.042-3.543 4.488-1.001 7.648.4 9.647 4.596a686.834 686.834 0 019.651 21.09c2.075 4.76 1.081 8.131-3.128 11.303-3.698 2.793-7.529 5.402-11.291 8.103-.862.619-1.692 1.277-2.529 1.927-3.14 2.434-4.828 5.486-4.545 9.615.399 5.821.523 11.658.902 17.483.196 3.017 2.055 5.135 4.516 6.655 3.886 2.394 7.924 4.54 11.738 7.038 2.234 1.464 4.489 3.148 6.108 5.223.982 1.256 1.473 3.682.974 5.186-2.637 7.868-5.65 15.608-8.538 23.4a9.177 9.177 0 01-.866 1.564c-2.434 3.938-4.788 4.919-9.376 4.117a1010.305 1010.305 0 00-17.618-2.916c-2.793-.443-5.219.287-7.23 2.394-3.674 3.842-7.329 7.708-11.139 11.414-4.053 3.942-4.604 8.478-3.124 13.689 1.261 4.444 2.258 8.965 3.192 13.489 1.145 5.486.14 7.868-4.923 10.325-6.95 3.372-14.016 6.52-21.13 9.548-4.56 1.939-7.664.949-10.617-3.016-2.848-3.823-5.749-7.625-8.322-11.634-3.403-5.299-7.96-7.605-14.251-6.895-4.481.491-9.017.499-13.518.846-3.59.275-6.383 1.995-8.278 5.123a1090.283 1090.283 0 01-8.239 13.314 16.939 16.939 0 01-1.951 2.505c-2.174 2.314-4.556 3.647-7.931 2.33-7.25-2.825-14.575-5.462-21.86-8.207a13.915 13.915 0 01-2.27-1.197c-3.663-2.234-4.72-4.452-4.026-8.665.798-4.828 1.7-9.639 2.474-14.471a36.57 36.57 0 00.439-5.151c.043-2.393-.655-4.516-2.514-6.236a467.256 467.256 0 01-11.55-10.975c-3.467-3.411-7.425-3.747-11.913-2.59-5.37 1.385-10.8 2.554-16.235 3.671-3.858.798-6.782-.499-8.418-4.026a675.846 675.846 0 01-10.27-23.595c-1.492-3.627-.602-6.236 2.518-8.558 4.517-3.359 9.08-6.675 13.745-9.826 3.838-2.598 5.553-6.081 5.33-10.641-.283-5.765-.499-11.538-.826-17.303-.124-2.207-.981-4.09-2.964-5.339-4.473-2.828-8.945-5.661-13.37-8.558a51.371 51.371 0 01-4.931-3.67c-2.446-2.059-3.076-4.636-1.995-7.688 2.633-7.385 5.215-14.786 7.812-22.183 2.05-5.853 6.647-6.747 11.678-5.94 5.414.865 10.84 1.687 16.21 2.792 3.032.626 5.406-.291 7.417-2.302a648.755 648.755 0 0013.058-13.441c2.73-2.893 2.45-6.384 1.644-9.943-1.197-5.342-2.605-10.652-3.563-16.039-.858-4.835-.467-7.332 4.201-9.499 6.938-3.22 13.765-6.719 20.858-9.551 5.897-2.354 8.283-1.876 12.19 3.654 3.135 4.437 6.45 8.75 9.638 13.166 1.975 2.697 4.445 4.13 7.936 3.934 6.359-.363 12.727-.51 19.091-.77 2.393-.096 4.101-1.48 5.342-3.36 2.952-4.476 5.801-9.02 8.697-13.528.431-.67.958-1.277 1.361-1.96 1.372-2.285 3.24-3.961 5.805-4.759h2.394zm20.746 121.742c1.664-23.08-19.569-51.838-51.974-51.735-24.592.08-50.67 21.262-50.968 51.013-.316 30.29 24.337 51.914 51.136 52.221 30.804.351 53.043-26.252 51.806-51.499z" fill="#099" stroke="#007373" stroke-width="10"/><path d="M122.966 395.992c-4.197-.507-5.067-3.635-5.585-7.058a244.19 244.19 0 00-.854-5.286c-.571-3.28-2.155-5.773-5.426-6.986-3.024-1.121-5.985-2.47-9.057-3.383a5.586 5.586 0 00-3.866.49c-2.84 1.556-5.47 3.487-8.23 5.187-3.631 2.246-5.427 2.258-8.515-.746-3.44-3.402-6.7-6.983-9.763-10.729-.59-.706-.542-2.529-.051-3.443a98.511 98.511 0 015.613-9.108c1.767-2.574 2.139-5.091.758-7.94-1.432-2.964-2.585-6.068-4.121-8.977a5.009 5.009 0 00-2.793-2.202c-3.108-.866-6.296-1.456-9.472-2.055-3.878-.734-5.158-1.971-5.274-5.94-.136-4.505-.1-9.021 0-13.529.072-2.873 1.24-4.237 4.022-4.856 2.78-.618 5.7-1.113 8.562-1.62 2.936-.526 5.162-2.023 6.419-4.759 1.153-2.518 2.266-5.063 3.276-7.645.977-2.517.542-4.895-.898-7.181-1.931-3.08-3.707-6.252-5.586-9.364-.91-1.508-.862-2.988.355-4.189 3.99-3.954 8.036-7.904 12.24-11.65.683-.607 2.454-.523 3.46-.112a16.161 16.161 0 014.863 2.992c5.187 4.864 10.773 5.047 16.757 1.724a9.926 9.926 0 011.788-.85c4.053-1.269 5.777-4.141 6.247-8.243.316-2.725 1.265-5.378 1.915-8.067.36-1.48 1.365-2.394 2.793-2.394a672.25 672.25 0 0117.276-.064c1.975 0 2.641 1.644 3.028 3.192a226.997 226.997 0 012.394 10.824c.363 1.848 1.249 3.124 2.972 3.882a774.377 774.377 0 0110.469 4.696c1.476.674 2.769.399 4.086-.447 3.475-2.178 6.99-4.281 10.473-6.443 1.643-1.025 3.191-.854 4.528.431 3.539 3.391 7.142 6.734 10.477 10.325 2.198 2.366 1.7 5.127.032 7.7a518.113 518.113 0 01-5.438 8.307c-.998 1.496-1.229 3.012-.483 4.684 1.596 3.591 3.12 7.269 4.848 10.82a4.036 4.036 0 002.326 1.847c2.86.798 5.777 1.409 8.697 1.951 5.155.954 6.874 2.793 6.886 7.98 0 4.233-.139 8.47-.399 12.695-.111 1.995-1.464 3.252-3.371 3.686-3.22.731-6.463 1.369-9.707 1.995-2.721.511-4.839 1.828-5.941 4.417-1.444 3.395-2.888 6.802-4.061 10.293-.339 1.006-.064 2.506.479 3.471 1.819 3.224 3.866 6.316 5.861 9.436 1.34 2.107 1.368 4.137-.427 5.933-3.591 3.591-7.226 7.181-10.928 10.668-1.277 1.197-2.853 1.265-4.389.284-2.685-1.696-5.542-3.164-8.043-5.095-3.168-2.446-6.348-2.51-9.795-.97-1.568.702-3.108 1.484-4.704 2.115-4.193 1.655-5.96 4.899-6.443 9.176a50.915 50.915 0 01-1.42 6.783c-.507 1.994-1.66 3.255-3.99 3.008-.69-.076-1.42.219-2.135.347l-12.735-.008zm7.613-44.398c5.186.491 10.07.16 14.307-2.792 2.79-2 5.455-4.169 7.979-6.496 8.654-7.792 10.09-22.952 6.136-32.249-6.2-14.578-22.055-21.668-35.085-18.624-13.031 3.045-22.399 14.296-23.464 24.625-.534 5.187-.87 10.513.834 15.588 2.226 6.655 6.715 11.654 12.328 15.687a23.194 23.194 0 0016.961 4.261h.004z" fill="#099" stroke="#007373" stroke-width="8"/><path d="M199.505 286.327c.315-.837.694-1.648 1.133-2.426a8.443 8.443 0 011.939-2.254c4.787-3.515 3.531-8.051 2.178-12.572-.682-2.282-2.549-3.455-4.62-4.345-1.879-.798-3.858-1.46-5.586-2.525-.837-.515-1.743-1.859-1.663-2.749a95.29 95.29 0 011.596-10.561c.131-.674 1.137-1.524 1.859-1.659a60.634 60.634 0 016.695-.735c2.713-.207 4.516-1.723 5.857-3.917 1.196-1.995 3.123-3.926 3.291-5.985.164-1.995-1.452-4.189-2.394-6.26-2.178-4.891-2.118-5.362 2.063-8.622 1.931-1.504 3.99-2.852 5.957-4.305.945-.698 1.755-.662 2.665.116 1.915 1.64 3.89 3.192 5.833 4.788 1.396 1.153 2.924 1.807 4.763 1.352 2.047-.502 4.11-.949 6.129-1.536 2.31-.666 3.514-2.394 4.245-4.604a55.297 55.297 0 012.01-5.163c.731-1.627 2.051-2.365 3.878-2.026 3.116.582 6.236 1.149 9.348 1.743 1.441.271 2.31.998 2.394 2.629.148 2.394.575 4.732.73 7.106.112 1.684.563 2.861 2.155 3.862 7.768 4.883 7.061 4.947 14.913 1.169 2.989-1.44 3.818-1.265 6.025 1.297 1.767 2.05 3.311 4.293 4.959 6.443 1.161 1.512 1.137 2.945-.12 4.425-1.843 2.174-3.67 4.364-5.378 6.643a3.43 3.43 0 00-.586 2.361c.295 1.812.925 3.563 1.316 5.363.655 3.016 2.394 4.843 5.426 5.625 1.7.435 3.272 1.361 4.92 2.027 1.38.562 1.903 1.676 1.779 3.02-.299 3.228-.634 6.456-1.117 9.659-.295 1.935-1.568 2.957-3.591 3.016a57.465 57.465 0 00-5.159.399c-2.194.248-4.057 1.157-5.382 2.997-.463.646-.869 1.336-1.372 1.947-2.741 3.335-2.873 6.639-.93 10.612 3.068 6.264 2.841 5.534-2.238 9.747-1.472 1.221-3.112 2.242-4.652 3.383-1.54 1.142-2.865 1.034-4.249-.259-1.552-1.444-3.268-2.721-4.788-4.209-1.731-1.708-3.754-1.728-5.916-1.384-.064 0-.12.067-.184.071-5.953.503-9.073 3.799-9.843 9.66-.263 1.994-2.322 3.53-4.324 3.299a87.955 87.955 0 01-10.338-1.743c-.83-.196-1.723-1.596-1.939-2.578-.399-1.859-.343-3.822-.471-5.745a9.33 9.33 0 00-.095-1.388c-.998-4.573-9.432-8.742-13.653-6.739-1.843.874-3.611 1.923-5.49 2.709-.606.255-1.704.199-2.162-.192-3.192-2.749-5.817-5.984-7.453-9.918-.128-.323-.216-.63-.363-1.069zm44.988-3.643c11.446 0 20.778-9.348 20.846-20.886.068-11.65-9.663-21.405-21.433-21.309-10.796.092-20.99 9.436-20.802 21.544.14 9.288 7.584 21.274 21.389 20.651z" fill="#099" stroke="#007373" stroke-width="6"/></svg>