<svg width="1920" height="552" viewBox="0 0 1920 552" fill="none" xmlns="http://www.w3.org/2000/svg"><g opacity=".25"><path d="M199.898 205.667c64.127 58.994 124.688 114.738 208.463 115.925 51.872.749 107.376-19.397 170.207-61.551 48.436-32.493 84.293-48.273 106.079-46.922 44.092 2.722 35.663 71.451 26.715 144.289-11.412 93.313-23.278 189.786 58.746 194.425 75.345 4.256 218.383-72.911 437.352-235.922C1548.2 62.201 1762.82 4.612 1882.84.996a390.94 390.94 0 0136.64.585V.74a404.2 404.2 0 00-36.96-.549c-120.8 3.653-336.53 61.333-677.78 315.427-218.388 162.554-360.325 239.593-434.049 235.429-79.624-4.512-67.305-104.984-56.476-193.603 9.402-76.291 17.442-142.171-28.919-145.038-23.861-1.48-59.589 14.027-109.386 47.378-62.312 41.825-117.103 61.788-167.419 61.076-81.765-1.151-142.067-56.62-205.87-115.358C143.875 151.404 83.509 95.807.512 76.099v1.041c81.246 19.763 141.094 74.939 199.386 128.527z" fill="url(#paint0_linear_806_7658)"/><path d="M409.859 314.633c52.326.621 107.765-19.013 169.623-60.072 47.917-31.762 83.515-47.177 105.885-45.807 45.065 2.74 39.294 70.391 33.134 142.006-3.761 44.711-7.716 90.938-.454 127.084 8.364 41.277 30.734 62.355 68.407 64.437 76.771 4.255 218.966-71.232 434.436-230.771C1556.11 63.625 1772.03 7.389 1893.48 3.864a413.93 413.93 0 0125.94 0v-.822c-8.62-.266-17.32-.266-25.94 0-122.61 3.543-339.25 59.889-675.06 308.157-215.14 159.102-356.621 234.424-431.512 230.26-81.44-4.493-73.011-103.432-65.554-190.699 6.484-75.085 11.93-139.942-35.403-142.81-24.316-1.479-59.978 13.662-109.192 46.282-61.275 40.693-115.871 60.273-166.835 59.561-83.71-1.005-147.449-55.999-214.948-114.208C137.009 149.614 77.55 98.382.454 75.862v1.15c75.54 22.594 134.35 73.35 191.734 122.829 67.953 58.446 132.016 113.696 217.671 114.792z" fill="url(#paint1_linear_806_7658)"/><path d="M411.218 307.656c52.845.53 108.154-18.63 168.975-58.556 47.269-31.049 82.866-46.118 105.69-44.748 46.037 2.758 42.925 69.405 39.618 139.851-4.02 86.263-8.559 184.051 77.096 188.69 78.328 4.237 219.743-69.588 432.363-225.694C1564.87 64.995 1781.5 10.092 1905.08 6.676c4.79-.12 9.6-.17 14.4-.146v-.803c-4.89-.024-9.78.024-14.65.146-124.43 3.433-342.1 58.446-672.53 301.034-212.1 155.668-352.413 229.347-429.12 225.182-83.32-4.511-78.781-101.933-74.761-187.868 3.436-73.916 6.484-137.768-41.952-140.636-24.704-1.479-60.367 13.315-108.933 45.205-60.301 39.597-114.703 58.592-166.251 58.081-85.59-.859-152.96-55.378-224.22-113.094C130.327 147.842 72.23 100.811.516 76.447v1.26C70.933 102.07 128.188 148.59 184.34 194.088c71.649 57.916 139.472 112.691 226.878 113.568z" fill="url(#paint2_linear_806_7658)"/><path d="M412.39 300.862c53.429.42 108.479-18.265 168.587-57.095 46.815-30.355 82.283-45.058 105.625-43.688 47.075 2.758 46.621 68.309 46.102 137.75-.584 84.966-1.232 181.311 86.368 185.932 79.819 4.219 220.458-67.98 430.088-220.708C1573.88 66.42 1791.55 12.832 1917.02 9.544h2.85v-.822h-3.11c-126.24 3.306-344.95 57.004-670.19 294.058-209.05 152.307-348.652 224.342-426.915 220.196-85.265-4.494-84.293-100.455-84.293-185.129.519-72.802.908-135.65-48.436-138.554-25.158-1.479-60.755 12.968-108.802 44.164-59.33 38.501-113.472 57.003-165.604 56.619-87.665-.675-158.6-54.793-233.427-112.015C123.914 146.052 67.567 103.113.911 77.761v1.26c65.295 25.315 120.993 67.725 175.459 109.24 75.086 57.57 146.41 111.907 236.02 112.601z" fill="url(#paint3_linear_806_7658)"/><path d="M413.358 294.159c53.947.31 108.738-17.9 167.613-55.652 46.232-29.662 81.7-44.017 105.431-42.648 48.112 2.777 50.381 67.341 52.716 135.705 2.853 83.743 6.095 178.645 95.64 183.265 81.375 4.183 221.362-66.409 427.952-215.83 312.53-225.84 528.32-280.944 656.77-286.314v-.803c-129.23 5.296-346.32 60.437-659.43 286.751-206 149.002-344.954 219.429-424.773 215.32-87.211-4.493-90.453-99.048-93.306-182.462-2.464-71.688-4.539-133.586-54.985-136.49-25.612-1.479-61.145 12.621-108.674 43.104-58.356 37.424-112.239 55.469-164.89 55.177-89.739-.512-164.371-54.191-243.477-111.011C116.776 144.043 62.505 105.03.516 79.461v1.424c60.691 25.57 114.25 63.925 166.771 101.678 79.43 57.186 154.451 111.084 246.071 111.596z" fill="url(#paint4_linear_806_7658)"/><path d="M414.142 287.583c54.466.183 109.062-17.552 166.9-54.245 45.713-28.986 81.116-42.994 105.367-41.625 49.214 2.795 54.077 66.392 59.264 133.714 6.484 82.519 13.487 176.07 105.107 180.654 82.542 4.164 222.21-64.857 426.2-211.009 298.27-213.986 511.4-270.99 642.77-278.953v-.822c-132.15 7.909-346.38 64.93-645.43 279.446-203.15 145.732-341.452 214.589-422.827 210.516-89.221-4.493-96.353-97.66-102.708-179.886-5.381-70.592-10.05-131.504-61.534-134.481-25.936-1.48-61.598 12.292-108.608 42.008-57.319 36.364-111.072 53.953-164.177 53.77-91.815-.329-170.272-53.624-253.333-110.043C110.168 142.034 58.296 106.82.782 81.652v1.48c56.346 25.003 107.441 59.724 157.693 93.806 83.191 56.784 161.972 110.298 255.667 110.645z" fill="url(#paint5_linear_806_7658)"/><path d="M414.591 281.099c54.92 0 109.192-17.205 166.122-52.839 45.389-28.328 80.597-42.008 105.302-40.62 50.316 2.795 57.902 65.442 65.878 131.778 9.856 81.35 20.943 173.512 114.574 178.115 84.293 4.128 223.243-63.341 424.123-206.278 285.3-202.736 494.93-261.182 628.96-271.52v-.821C1785 29.178 1574.01 87.57 1288.19 290.944c-200.29 142.463-338.014 209.84-420.945 205.804-91.361-4.457-102.449-96.309-112.175-177.348-8.429-69.569-15.691-129.678-68.213-132.545-26.584-1.479-62.052 11.963-108.543 41.077-56.347 35.305-109.84 52.437-163.464 52.364-93.954-.128-176.302-52.967-263.448-109.112-48.371-31.049-97.26-62.72-150.82-86.957v1.534c52.197 24.018 100.569 55.141 148.162 85.752 87.535 56.291 170.207 109.459 265.847 109.586z" fill="url(#paint6_linear_806_7658)"/><path d="M415.238 274.725c55.309 0 109.386-16.876 165.279-51.469 44.74-27.652 80.143-40.985 105.301-39.616 51.484 2.777 61.729 64.51 72.557 129.879 13.358 80.217 28.466 171.138 124.171 175.667 86.108 4.073 224.284-61.88 422.374-201.657 272.33-192.197 478.85-251.52 614.56-263.995v-.84c-136.75 12.493-344.24 71.761-617.22 264.542-197.51 139.358-334.643 205.147-419.196 201.147-93.5-4.42-108.543-94.975-121.771-174.901-11.412-68.546-21.203-127.741-74.891-130.645-27.038-1.461-62.506 11.634-108.479 40.09-55.438 34.264-108.673 50.94-162.75 50.995-96.094 0-182.332-52.529-273.693-108.217C96.092 137.925 49.666 109.724.516 86.839v1.552c48.112 22.648 93.565 50.337 138.305 77.643 91.75 55.944 178.507 108.764 276.417 108.691z" fill="url(#paint7_linear_806_7658)"/><path d="M415.497 268.461c55.699-.165 109.516-16.566 164.501-50.118 44.222-27.013 79.625-40.017 105.302-38.666 52.586 2.795 65.554 63.652 79.235 128.07 16.859 79.104 35.922 168.782 133.896 173.275 87.73 4.018 225.319-60.455 420.749-197.091 260.47-182.17 463.1-242.022 600.3-256.47v-.858c-137.92 14.392-341.71 74.263-603.02 257.017-195.11 136.253-331.271 200.544-417.575 196.598-95.64-4.401-114.703-93.714-131.432-172.525-14.394-67.579-26.779-125.897-81.635-128.819-27.492-1.443-62.96 11.342-108.478 39.122-54.401 33.259-107.377 49.497-162.102 49.661-98.299.274-188.622-52.017-284.262-107.395-42.47-24.62-85.59-49.551-130.654-70.793v1.59c44.091 20.948 86.368 45.404 128.06 69.568 96.224 55.597 186.936 108.126 287.115 107.834z" fill="url(#paint8_linear_806_7658)"/><path d="M415.627 262.287c56.022-.292 109.581-16.255 163.593-48.803 43.768-26.374 79.236-39.049 105.302-37.697 53.818 2.794 69.509 62.774 86.108 126.28 20.36 78.062 43.444 166.517 143.623 170.973 89.347 3.964 226.487-59.049 419.257-192.617 249.06-172.617 447.4-232.688 585.97-248.907v-.877c-139.02 16.164-338.79 76.291-588.69 249.474-192.12 133.184-328.22 196.014-416.083 192.124-97.91-4.347-120.928-92.473-141.224-170.225-17.442-66.592-32.42-124.198-88.443-127.029-27.946-1.443-63.414 10.959-108.413 38.154-53.559 32.255-106.209 48.054-161.065 48.328-100.633.511-195.041-51.506-295.025-106.573C81.632 133.267 41.56 111.404.517 92.062v1.571c40.136 19.05 79.04 40.456 117.426 61.624 100.438 55.268 195.3 107.541 297.684 107.03z" fill="url(#paint9_linear_806_7658)"/><path d="M415.562 256.187c56.347-.402 109.581-15.927 162.686-47.488 43.313-25.734 78.781-38.099 105.366-36.766 55.05 2.794 73.4 61.935 92.917 124.563 23.926 77.022 51.094 164.38 153.543 168.709 90.776 3.909 227.656-57.661 417.836-188.124 238.16-163.594 432.68-223.63 571.57-241.4v-.877c-139.67 17.734-335.23 77.806-574.23 241.894-189.59 130.17-325.24 191.557-414.982 187.722-100.243-4.292-127.282-91.323-151.143-168.033-20.425-65.752-38.062-122.372-95.252-125.276-28.465-1.443-63.933 10.721-108.478 37.205-52.586 31.25-104.978 46.629-160.157 47.012-102.902.731-201.59-51.03-306.048-105.824C73.462 130.728 37.346 111.77.257 94.474v1.552c36.116 16.986 71.325 35.524 106.404 53.862 105.172 55.158 204.184 107.048 308.901 106.299z" fill="url(#paint10_linear_806_7658)"/><path d="M1359.78 273.41c-187.07 127.157-322.26 187.156-413.425 183.393-102.708-4.237-133.766-90.08-161.194-165.823-23.472-64.765-43.767-120.709-102.189-123.595-28.919-1.425-64.387 10.447-108.479 36.291-51.872 30.264-103.745 45.223-159.184 45.661-105.301.95-208.269-50.574-317.266-105.13C65.947 128.135 33.526 111.934.782 96.72v1.552c32.42 14.831 63.674 30.63 94.992 46.282 109.451 54.794 212.872 106.518 319.859 105.55 56.606-.511 109.516-15.634 161.713-46.19 42.86-25.114 78.328-37.168 105.431-35.835 56.282 2.776 77.355 61.113 99.79 122.883 27.558 76.035 58.746 162.206 163.594 166.535 92.659 3.817 228.949-56.327 416.539-183.886 227.72-154.864 417.83-214.552 557.05-233.785v-.895c-140.26 19.306-331.54 79.067-559.97 234.479z" fill="url(#paint11_linear_806_7658)"/><path d="M414.979 244.315c56.865-.639 109.386-15.324 160.675-44.912 43.054-24.858 77.809-36.274 105.496-34.94 57.579 2.758 81.44 60.272 106.793 121.257 31.123 75.067 66.462 160.161 173.773 164.38 94.344 3.744 230.184-55.012 415.304-179.631 217.67-146.517 403.31-205.694 542.46-226.15v-.895c-139.93 20.42-326.54 79.67-545.12 226.79-184.53 124.198-319.34 182.827-412.19 179.156-105.107-4.183-140.316-88.948-171.374-163.723-26.52-63.925-49.474-119.102-109.127-121.951-29.438-1.425-64.841 10.155-108.609 35.359-50.77 29.224-102.513 43.835-158.211 44.474-107.636 1.188-215.012-50.136-328.743-104.472-28.27-13.516-56.735-27.123-85.59-40.182v1.534c28.012 12.658 55.699 25.881 83.126 39.013C197.827 194.088 305.657 245.52 414.98 244.315z" fill="url(#paint12_linear_806_7658)"/><path d="M1389.14 267.146C1207 388.476 1072.52 445.717 977.987 442.119c-107.636-4.091-146.994-87.815-181.555-161.677-29.632-63.067-55.244-117.531-116.194-120.381-29.892-1.388-65.425 9.881-108.673 34.484-49.863 28.346-101.217 42.483-157.11 43.213-110.229 1.425-221.95-49.716-340.479-103.851-24.25-11.087-48.695-22.228-73.335-33.059v1.498c23.797 10.484 47.4 21.278 70.872 31.999 118.853 54.264 231.222 105.623 343.072 104.162 56.995-.749 109.192-15.032 159.573-43.67 42.601-24.219 77.161-35.36 105.626-34.027 58.875 2.74 85.525 59.542 113.795 119.669 34.82 74.153 74.308 158.206 184.148 162.389 96.033 3.653 231.483-53.734 414.203-175.467C1599.94 128.774 1780.97 70.328 1919.6 48.74v-.895c-139.6 21.534-321.54 80.053-530.46 219.301z" fill="url(#paint13_linear_806_7658)"/><path d="M413.747 232.79c57.19-.858 108.998-14.739 158.471-42.428 42.212-23.634 76.772-34.484 105.691-33.169 60.237 2.722 89.739 58.794 120.928 118.153 38.58 73.277 82.283 156.325 194.522 160.398 97.711 3.562 232.841-52.492 413.161-171.357 198.81-131.029 374.91-188.598 512.83-211.136v-.914c-138.69 22.484-315.84 80.145-515.48 211.74-179.74 118.481-313.9 174.37-410.122 170.864-110.229-4-153.802-86.72-192.188-159.705-32.745-62.263-61.015-116.015-123.197-118.846-30.346-1.37-65.879 9.625-108.738 33.606-48.955 27.397-99.985 41.15-156.008 42.009-112.498 1.68-229.082-49.314-352.474-103.268-20.1-8.803-40.266-17.625-60.626-26.3v1.461c19.452 8.347 38.904 16.821 58.357 25.278C182.59 183.33 299.627 234.489 413.747 232.79z" fill="url(#paint14_linear_806_7658)"/><path d="M412.904 227.146c57.254-.95 108.673-14.447 157.303-41.223 41.758-23.013 76.383-33.588 105.821-32.291 61.534 2.703 93.889 58.062 128.125 116.673 42.276 72.418 90.194 154.517 205.287 158.499 99.4 3.452 234.2-51.287 412.19-167.321 189.86-123.778 361.04-180.306 497.85-203.648v-.932c-137.66 23.306-309.81 79.944-500.51 204.251C1241.63 376.823 1107.74 431.397 1009.83 428c-112.955-3.909-160.742-85.678-202.824-157.823-35.792-61.478-66.916-114.554-130.524-117.349-30.865-1.352-66.462 9.351-108.868 32.73-48.112 26.502-98.753 39.835-154.905 40.784-114.898 1.936-236.215-48.912-364.665-102.737-15.82-6.612-31.642-13.242-47.528-19.817v1.443c15.108 6.246 30.151 12.548 45.389 18.831 128.774 54.026 250.415 105.057 366.999 103.084z" fill="url(#paint15_linear_806_7658)"/><path d="M411.933 221.594c57.254-1.06 108.284-14.155 156.007-40.018 41.174-22.428 76.058-32.711 106.014-31.451 62.961 2.685 98.169 57.369 135.388 115.249 46.102 71.596 98.363 152.763 216.178 156.654 101.09 3.324 235.63-50.118 411.29-163.358 181.23-116.892 347.35-172.16 482.74-196.196v-.931c-136.17 23.98-303.33 79.468-485.34 196.799-175.07 112.874-308.7 166.206-408.49 162.864-115.745-3.799-167.812-84.656-213.979-155.979-38.904-60.711-72.816-113.129-137.787-115.906-31.318-1.333-66.915 9.133-108.997 31.872-47.204 25.57-97.261 38.538-153.608 39.597-117.491 2.173-243.672-48.547-377.308-102.281A9200.498 9200.498 0 00.129 104.884v1.534l31.577 12.676c134.48 53.807 261.114 104.728 380.227 102.5z" fill="url(#paint16_linear_806_7658)"/><path d="M410.761 216.115c57.254-1.151 107.83-13.863 154.71-38.83 40.979-21.918 75.669-31.872 106.08-30.612 64.386 2.649 102.513 56.62 142.649 113.861 49.928 70.829 106.469 151.101 226.94 154.864 102.71 3.196 237-48.949 410.45-159.449 172.8-110.116 333.73-164.197 467.43-188.762v-.95c-134.48 24.547-296.38 78.738-470.09 189.384-172.87 110.134-306.12 162.133-407.46 158.9-118.597-3.653-175.073-83.669-224.741-154.225-42.276-59.98-78.781-111.778-145.178-114.499-31.772-1.315-67.435 8.84-109.128 31.049-46.296 24.712-96.158 37.278-152.376 38.355-119.955 2.448-251.128-48.181-390.017-101.787L.06 105.706v1.388l17.636 6.795c139.861 53.898 271.488 104.71 393.065 102.226z" fill="url(#paint17_linear_806_7658)"/><path d="M1465.01 252.99c-170.66 107.414-303.72 158.17-406.75 155.139-121.511-3.562-182.331-82.702-235.955-152.527-45.388-59.268-84.811-110.445-152.7-113.239-32.42-1.279-67.888 8.602-109.192 30.209-45.388 23.744-94.861 36.018-151.014 37.241C286.85 212.516 150.555 161.96 6.284 108.427l-5.576-2.045v1.333l3.242 1.205c144.789 53.716 281.538 104.455 405.644 101.715 57.189-1.26 107.376-13.589 153.348-37.679 40.655-21.278 75.41-31.05 106.274-29.79 65.878 2.612 106.923 55.999 150.301 112.509 53.818 70.099 114.833 149.549 238.423 153.166 104.46 3.068 238.48-47.835 409.66-155.613 164.76-103.687 320.44-156.38 452.07-181.384v-.95c-132.66 25.059-289.32 77.88-454.66 182.096z" fill="url(#paint18_linear_806_7658)"/><path d="M408.102 205.411c57.06-1.351 106.793-13.314 151.987-36.528 40.202-20.694 75.021-30.173 106.339-28.986 67.435 2.593 111.397 55.359 157.888 111.23 57.837 69.405 123.197 147.942 249.964 151.595 106.08 2.922 239.91-46.739 408.88-151.85 156.92-97.532 307.22-148.728 436.51-174.042v-.968c-130.13 25.296-281.41 76.71-439.1 174.681-168.59 104.746-301.32 154.261-406.03 151.375-124.563-3.433-189.793-81.769-247.372-150.9-48.825-58.593-90.777-109.185-160.351-111.852-32.42-1.242-68.407 8.365-109.257 29.406-44.675 22.977-93.629 34.794-149.717 36.109-122.484 2.904-260.725-45.479-407.135-97.697v1.261c145.827 52.053 283.808 100.07 407.394 97.166z" fill="url(#paint19_linear_806_7658)"/><path d="M406.296 200.17c56.93-1.443 106.145-13.023 150.496-35.415 39.877-20.091 74.696-29.369 106.533-28.2 68.926 2.557 115.871 54.793 165.603 109.988 61.794 68.729 131.822 146.609 261.572 149.933 107.76 2.776 241.27-45.661 408.49-148.143 149.14-91.596 294.06-141.239 420.76-166.736v-1.096c-27.2 5.47-52.98 11.477-77.17 17.973-120.28 32.054-236.79 82.372-346.18 149.512-166.38 102.117-298.98 150.426-405.38 147.687-127.677-3.288-197.51-80.875-259.044-149.331-51.873-57.934-97.261-107.961-168.067-110.591-33.069-1.223-68.861 8.146-109.387 28.602-43.832 22.137-92.333 33.589-148.226 34.995-120.993 3.05-259.363-42.008-405.514-92.235v1.278c145.827 50.026 283.678 94.829 405.514 91.779z" fill="url(#paint20_linear_806_7658)"/><path d="M404.405 194.983c56.736-1.498 105.496-12.785 149.134-34.301 39.488-19.579 74.437-28.547 106.663-27.396 70.547 2.502 120.474 54.117 173.384 108.782 65.943 68.072 140.64 145.239 273.564 148.417 109.39 2.612 242.7-44.656 407.59-144.508 141.81-85.843 281.08-133.896 404.86-159.467v-1.132c-21.57 4.445-42.24 9.225-61.92 14.32-120.86 31.177-237.12 80.363-345.54 145.932-164.3 99.505-296.71 146.627-404.8 144.052-130.91-3.142-205.282-79.999-270.966-147.833-55.439-57.314-103.356-106.81-175.783-109.367-33.588-1.187-69.38 7.908-109.581 27.817-42.989 21.314-90.777 32.401-146.735 33.88-119.372 3.178-257.288-38.903-403.634-87.066v1.242c145.892 48.035 283.549 89.824 403.764 86.628z" fill="url(#paint21_linear_806_7658)"/><path d="M402.4 189.887c56.541-1.571 104.718-12.438 147.448-33.205 38.905-19.031 74.113-27.743 106.858-26.648 72.103 2.466 125.143 53.552 181.554 107.651 70.093 67.469 149.523 143.942 285.69 146.956 111.07 2.429 244.19-43.652 407-140.929 134.61-80.363 268.19-126.7 389.05-152.252v-1.132a1385.644 1385.644 0 00-46.23 10.611c-121.58 30.301-237.71 78.209-345.15 142.463-162.1 96.929-294.51 142.883-404.15 140.453-134.223-2.94-213.394-79.139-283.163-146.371-58.94-56.711-109.775-105.696-183.758-108.198-33.977-1.169-69.834 7.671-109.646 27.031-42.211 20.529-89.74 31.25-145.244 32.876-117.88 3.288-255.408-35.981-401.624-82.19v1.224c145.438 45.953 282.771 84.966 401.365 81.66z" fill="url(#paint22_linear_806_7658)"/><path d="M400.255 184.955c56.217-1.644 103.745-12.146 145.827-32.127 38.905-18.502 73.789-26.976 106.987-25.899 73.724 2.411 129.682 52.967 189.336 106.537 74.307 66.902 158.535 142.736 298.265 145.549 112.63 2.283 245.55-42.666 406.36-137.385 127.54-75.14 255.47-119.669 372.57-145.075v-1.15a1501.93 1501.93 0 00-30.08 6.867c-122.36 29.424-238.42 76.181-345.08 139.011-160.23 94.39-292.24 139.175-403.57 136.983-137.6-2.776-221.564-78.318-295.548-144.983-62.376-56.145-116.194-104.619-191.799-107.084-34.43-1.133-70.352 7.47-109.775 26.264-41.433 19.744-88.443 30.136-143.687 31.743-116.325 3.398-253.398-33.277-399.42-77.532v1.187c145.633 43.981 282.576 80.418 399.614 77.094z" fill="url(#paint23_linear_806_7658)"/><path d="M397.86 179.896c55.893-1.698 103.033-11.853 144.207-31.049 38.45-17.973 73.464-26.191 107.052-25.15 75.475 2.356 134.804 52.437 197.57 105.458 78.652 66.392 167.811 141.623 310.911 144.289 114.18 2.083 246.91-41.716 405.71-133.933 120.67-70.062 242.76-112.764 356.17-137.933v-1.15c-4.54 1.004-9.08 2.027-13.55 3.068-123.2 28.493-239.33 74.154-345.21 135.595-158.22 91.87-290.04 135.541-402.93 133.458-141.15-2.575-229.986-77.532-308.313-143.668-65.878-55.578-122.744-103.595-200.034-105.933-34.82-1.078-70.741 7.305-109.84 25.57-40.656 18.977-87.146 29.022-142.067 30.684-114.768 3.489-251.193-30.757-397.02-73.058v1.169c145.568 42.045 281.863 76.09 397.344 72.583z" fill="url(#paint24_linear_806_7658)"/><path d="M1577.31 237.082c-156.27 89.496-287.89 131.943-402.34 130.061-144.79-2.374-238.546-76.71-321.348-142.462-69.38-55.068-129.357-102.628-208.334-104.984-35.208-1.041-71.324 7.068-109.905 24.803-39.877 18.264-85.784 27.926-140.38 29.643-113.277 3.562-248.988-28.438-394.491-68.948v1.223c145.243 40.383 280.89 72.181 394.816 68.602 55.503-1.827 102.124-11.562 142.649-30.027 38.126-17.443 73.14-25.424 107.182-24.42 77.16 2.302 139.667 51.926 205.934 104.436 83.061 65.88 177.147 140.637 323.877 142.956 115.68 1.827 248.21-40.784 405.06-130.517 113.93-65.15 230.19-105.934 339.57-130.829v-1.041c-110.35 24.858-227.65 65.88-342.29 131.504z" fill="url(#paint25_linear_806_7658)"/><path d="M392.546 170.179c55.115-1.826 101.217-11.269 140.834-29.003 37.803-16.932 72.881-24.676 107.312-23.744 78.911 2.246 144.725 51.414 214.364 103.468 87.599 65.423 186.804 139.558 337.174 141.75 117.16 1.699 249.5-39.889 404.41-127.175 107.31-60.437 217.67-99.359 322.78-123.76v-1.059c-105.95 24.456-217.22 63.578-325.31 124.472-154.39 86.939-285.82 128.399-402.01 126.7-148.55-2.155-247.435-76.035-334.645-141.202-73.076-54.574-136.166-101.697-216.828-103.998-35.598-1.004-71.325 6.868-110.229 24.073-38.905 17.515-84.294 26.885-138.695 28.638C279.982 172.992 145.308 143.075 0 104.354v1.115c145.373 38.629 280.177 68.345 392.546 64.71z" fill="url(#paint26_linear_806_7658)"/><path d="M389.561 165.412c54.726-1.826 100.244-10.958 139.084-27.999 37.478-16.438 72.621-23.926 107.376-22.995 80.727 2.192 149.847 50.94 223.052 102.537 92.139 64.985 196.597 138.627 350.857 140.636 118.66 1.498 250.74-39.013 403.76-123.87 100.89-55.907 205.22-92.874 305.79-116.746v-1.059c-101.41 23.945-206.71 61.094-308.32 117.44-152.5 84.528-283.68 124.911-401.1 123.413-152.38-1.936-256.449-75.323-348.328-140.07-76.707-54.099-142.65-100.82-225.387-103.048-35.986-.968-71.973 6.667-110.229 23.36-38.256 16.694-83.256 25.844-137.009 27.634-110.229 3.653-244.125-24.255-389.045-61.24v1.096c144.855 36.839 278.751 64.601 389.499 60.911z" fill="url(#paint27_linear_806_7658)"/><path d="M1628.41 231.566c-150.62 82.19-281.67 121.459-400.52 120.18-156.27-1.698-265.847-74.646-362.265-139.01-80.403-53.643-149.912-99.961-234.141-102.135-36.375-.931-72.362 6.466-110.229 22.648-37.867 16.182-81.894 24.84-135.258 26.666C277.389 163.568 144.4 137.523.454 102.218v1.077c143.817 35.196 276.676 61.131 385.932 57.424 54.207-1.827 99.142-10.685 137.268-27.032 37.154-15.89 72.298-23.195 107.506-22.282 82.543 2.118 155.034 50.464 231.806 101.641 96.807 64.583 206.644 137.787 364.794 139.504 120.09 1.297 251.97-38.154 403.12-120.545 94.47-51.506 192.77-86.482 288.54-109.733v-1.077c-96.55 23.25-195.82 58.427-291.01 110.371z" fill="url(#paint28_linear_806_7658)"/><path d="M383.012 156.079c53.753-1.826 98.104-10.392 135.582-26.045 37.478-15.652 71.974-22.483 107.506-21.607 84.293 2.064 160.352 50.008 240.754 100.784 101.671 64.217 216.896 136.983 379.126 138.481 121.45 1.095 252.88-37.315 402.4-117.422 88.12-47.287 180.32-80.236 271.1-102.774v-.987c-91.62 22.612-184.73 55.743-273.69 103.45-148.75 79.797-279.47 118.08-399.75 116.892-160.35-1.442-275.246-73.989-376.592-137.987-84.293-53.205-156.98-99.158-243.088-101.277-36.7-.895-72.687 6.283-110.23 21.918-37.543 15.634-80.662 23.871-133.507 25.716C275.571 158.874 143.75 134.564.452 100.884v1.06c143.168 33.697 274.924 57.861 382.56 54.135z" fill="url(#paint29_linear_806_7658)"/><path d="M379.446 151.495c53.234-1.827 96.937-10.082 133.702-25.095 36.764-15.014 71.714-21.808 107.571-20.932 86.303 2.01 165.733 49.607 249.831 99.998 106.663 63.926 227.46 136.29 393.84 137.495 122.81.895 254.11-36.492 401.63-114.171 81.96-43.214 168-74.081 253.46-95.797v-1.096c-86.37 21.808-173.26 52.967-255.99 96.509-146.93 77.478-277.46 114.701-399.03 113.824-164.57-1.187-285.302-73.35-391.316-136.983-88.119-52.802-164.242-98.409-252.166-100.454-37.024-.859-73.011 6.1-110.229 21.278-36.311 14.812-79.366 22.903-131.757 24.748-105.496 3.653-236.085-19.031-378.54-51.14v1.022c142.325 31.89 272.979 54.538 378.994 50.794z" fill="url(#paint30_linear_806_7658)"/></g><defs><linearGradient id="paint0_linear_806_7658" x1="1919.48" y1="276" x2=".512" y2="276" gradientUnits="userSpaceOnUse"><stop stop-color="#099"/><stop offset=".292" stop-color="#099" stop-opacity=".25"/><stop offset=".51" stop-color="#099" stop-opacity=".25"/><stop offset=".632" stop-color="#099"/></linearGradient><linearGradient id="paint1_linear_806_7658" x1="1919.42" y1="272.647" x2=".454" y2="272.647" gradientUnits="userSpaceOnUse"><stop stop-color="#099"/><stop offset=".292" stop-color="#099" stop-opacity=".25"/><stop offset=".51" stop-color="#099" stop-opacity=".25"/><stop offset=".632" stop-color="#099"/></linearGradient><linearGradient id="paint2_linear_806_7658" x1="1919.48" y1="269.393" x2=".516" y2="269.393" gradientUnits="userSpaceOnUse"><stop stop-color="#099"/><stop offset=".292" stop-color="#099" stop-opacity=".25"/><stop offset=".51" stop-color="#099" stop-opacity=".25"/><stop offset=".632" stop-color="#099"/></linearGradient><linearGradient id="paint3_linear_806_7658" x1="1919.87" y1="266.329" x2=".911" y2="266.329" gradientUnits="userSpaceOnUse"><stop stop-color="#099"/><stop offset=".292" stop-color="#099" stop-opacity=".25"/><stop offset=".51" stop-color="#099" stop-opacity=".25"/><stop offset=".632" stop-color="#099"/></linearGradient><linearGradient id="paint4_linear_806_7658" x1="1919.48" y1="263.443" x2=".516" y2="263.443" gradientUnits="userSpaceOnUse"><stop stop-color="#099"/><stop offset=".292" stop-color="#099" stop-opacity=".25"/><stop offset=".51" stop-color="#099" stop-opacity=".25"/><stop offset=".632" stop-color="#099"/></linearGradient><linearGradient id="paint5_linear_806_7658" x1="1919.75" y1="260.778" x2=".782" y2="260.778" gradientUnits="userSpaceOnUse"><stop stop-color="#099"/><stop offset=".292" stop-color="#099" stop-opacity=".25"/><stop offset=".51" stop-color="#099" stop-opacity=".25"/><stop offset=".632" stop-color="#099"/></linearGradient><linearGradient id="paint6_linear_806_7658" x1="1919.55" y1="258.313" x2=".583" y2="258.312" gradientUnits="userSpaceOnUse"><stop stop-color="#099"/><stop offset=".292" stop-color="#099" stop-opacity=".25"/><stop offset=".51" stop-color="#099" stop-opacity=".25"/><stop offset=".632" stop-color="#099"/></linearGradient><linearGradient id="paint7_linear_806_7658" x1="1919.48" y1="256.029" x2=".516" y2="256.029" gradientUnits="userSpaceOnUse"><stop stop-color="#099"/><stop offset=".292" stop-color="#099" stop-opacity=".25"/><stop offset=".51" stop-color="#099" stop-opacity=".25"/><stop offset=".632" stop-color="#099"/></linearGradient><linearGradient id="paint8_linear_806_7658" x1="1919.48" y1="253.901" x2=".322" y2="253.901" gradientUnits="userSpaceOnUse"><stop stop-color="#099"/><stop offset=".292" stop-color="#099" stop-opacity=".25"/><stop offset=".51" stop-color="#099" stop-opacity=".25"/><stop offset=".632" stop-color="#099"/></linearGradient><linearGradient id="paint9_linear_806_7658" x1="1919.48" y1="251.928" x2=".516" y2="251.928" gradientUnits="userSpaceOnUse"><stop stop-color="#099"/><stop offset=".292" stop-color="#099" stop-opacity=".25"/><stop offset=".51" stop-color="#099" stop-opacity=".25"/><stop offset=".632" stop-color="#099"/></linearGradient><linearGradient id="paint10_linear_806_7658" x1="1919.48" y1="250.092" x2=".257" y2="250.092" gradientUnits="userSpaceOnUse"><stop stop-color="#099"/><stop offset=".292" stop-color="#099" stop-opacity=".25"/><stop offset=".51" stop-color="#099" stop-opacity=".25"/><stop offset=".632" stop-color="#099"/></linearGradient><linearGradient id="paint11_linear_806_7658" x1="1919.75" y1="248.3" x2=".782" y2="248.299" gradientUnits="userSpaceOnUse"><stop stop-color="#099"/><stop offset=".292" stop-color="#099" stop-opacity=".25"/><stop offset=".51" stop-color="#099" stop-opacity=".25"/><stop offset=".632" stop-color="#099"/></linearGradient><linearGradient id="paint12_linear_806_7658" x1="1919.48" y1="246.846" x2=".516" y2="246.846" gradientUnits="userSpaceOnUse"><stop stop-color="#099"/><stop offset=".292" stop-color="#099" stop-opacity=".25"/><stop offset=".51" stop-color="#099" stop-opacity=".25"/><stop offset=".632" stop-color="#099"/></linearGradient><linearGradient id="paint13_linear_806_7658" x1="1919.6" y1="245.438" x2=".641" y2="245.438" gradientUnits="userSpaceOnUse"><stop stop-color="#099"/><stop offset=".292" stop-color="#099" stop-opacity=".25"/><stop offset=".51" stop-color="#099" stop-opacity=".25"/><stop offset=".632" stop-color="#099"/></linearGradient><linearGradient id="paint14_linear_806_7658" x1="1919.35" y1="244.121" x2=".517" y2="244.121" gradientUnits="userSpaceOnUse"><stop stop-color="#099"/><stop offset=".292" stop-color="#099" stop-opacity=".25"/><stop offset=".51" stop-color="#099" stop-opacity=".25"/><stop offset=".632" stop-color="#099"/></linearGradient><linearGradient id="paint15_linear_806_7658" x1="1919.48" y1="242.93" x2=".516" y2="242.93" gradientUnits="userSpaceOnUse"><stop stop-color="#099"/><stop offset=".292" stop-color="#099" stop-opacity=".25"/><stop offset=".51" stop-color="#099" stop-opacity=".25"/><stop offset=".632" stop-color="#099"/></linearGradient><linearGradient id="paint16_linear_806_7658" x1="1919.55" y1="241.858" x2=".129" y2="241.858" gradientUnits="userSpaceOnUse"><stop stop-color="#099"/><stop offset=".292" stop-color="#099" stop-opacity=".25"/><stop offset=".51" stop-color="#099" stop-opacity=".25"/><stop offset=".632" stop-color="#099"/></linearGradient><linearGradient id="paint17_linear_806_7658" x1="1919.02" y1="240.887" x2=".059" y2="240.887" gradientUnits="userSpaceOnUse"><stop stop-color="#099"/><stop offset=".292" stop-color="#099" stop-opacity=".25"/><stop offset=".51" stop-color="#099" stop-opacity=".25"/><stop offset=".632" stop-color="#099"/></linearGradient><linearGradient id="paint18_linear_806_7658" x1="1919.67" y1="239.933" x2=".708" y2="239.933" gradientUnits="userSpaceOnUse"><stop stop-color="#099"/><stop offset=".292" stop-color="#099" stop-opacity=".25"/><stop offset=".51" stop-color="#099" stop-opacity=".25"/><stop offset=".632" stop-color="#099"/></linearGradient><linearGradient id="paint19_linear_806_7658" x1="1919.67" y1="239.353" x2=".708" y2="239.353" gradientUnits="userSpaceOnUse"><stop stop-color="#099"/><stop offset=".292" stop-color="#099" stop-opacity=".25"/><stop offset=".51" stop-color="#099" stop-opacity=".25"/><stop offset=".632" stop-color="#099"/></linearGradient><linearGradient id="paint20_linear_806_7658" x1="1919.75" y1="238.545" x2=".782" y2="238.545" gradientUnits="userSpaceOnUse"><stop stop-color="#099"/><stop offset=".292" stop-color="#099" stop-opacity=".25"/><stop offset=".51" stop-color="#099" stop-opacity=".25"/><stop offset=".632" stop-color="#099"/></linearGradient><linearGradient id="paint21_linear_806_7658" x1="1919.6" y1="237.983" x2=".641" y2="237.983" gradientUnits="userSpaceOnUse"><stop stop-color="#099"/><stop offset=".292" stop-color="#099" stop-opacity=".25"/><stop offset=".51" stop-color="#099" stop-opacity=".25"/><stop offset=".632" stop-color="#099"/></linearGradient><linearGradient id="paint22_linear_806_7658" x1="1920" y1="237.53" x2="1.036" y2="237.53" gradientUnits="userSpaceOnUse"><stop stop-color="#099"/><stop offset=".292" stop-color="#099" stop-opacity=".25"/><stop offset=".51" stop-color="#099" stop-opacity=".25"/><stop offset=".632" stop-color="#099"/></linearGradient><linearGradient id="paint23_linear_806_7658" x1="1919.6" y1="237.251" x2=".641" y2="237.251" gradientUnits="userSpaceOnUse"><stop stop-color="#099"/><stop offset=".292" stop-color="#099" stop-opacity=".25"/><stop offset=".51" stop-color="#099" stop-opacity=".25"/><stop offset=".632" stop-color="#099"/></linearGradient><linearGradient id="paint24_linear_806_7658" x1="1919.48" y1="236.972" x2=".516" y2="236.971" gradientUnits="userSpaceOnUse"><stop stop-color="#099"/><stop offset=".292" stop-color="#099" stop-opacity=".25"/><stop offset=".51" stop-color="#099" stop-opacity=".25"/><stop offset=".632" stop-color="#099"/></linearGradient><linearGradient id="paint25_linear_806_7658" x1="1919.6" y1="236.608" x2=".512" y2="236.608" gradientUnits="userSpaceOnUse"><stop stop-color="#099"/><stop offset=".292" stop-color="#099" stop-opacity=".25"/><stop offset=".51" stop-color="#099" stop-opacity=".25"/><stop offset=".632" stop-color="#099"/></linearGradient><linearGradient id="paint26_linear_806_7658" x1="1919.42" y1="233.527" x2="0" y2="233.527" gradientUnits="userSpaceOnUse"><stop stop-color="#099"/><stop offset=".292" stop-color="#099" stop-opacity=".25"/><stop offset=".51" stop-color="#099" stop-opacity=".25"/><stop offset=".632" stop-color="#099"/></linearGradient><linearGradient id="paint27_linear_806_7658" x1="1919.48" y1="230.518" x2=".062" y2="230.518" gradientUnits="userSpaceOnUse"><stop stop-color="#099"/><stop offset=".292" stop-color="#099" stop-opacity=".25"/><stop offset=".51" stop-color="#099" stop-opacity=".25"/><stop offset=".632" stop-color="#099"/></linearGradient><linearGradient id="paint28_linear_806_7658" x1="1919.42" y1="227.399" x2=".454" y2="227.399" gradientUnits="userSpaceOnUse"><stop stop-color="#099"/><stop offset=".292" stop-color="#099" stop-opacity=".25"/><stop offset=".51" stop-color="#099" stop-opacity=".25"/><stop offset=".632" stop-color="#099"/></linearGradient><linearGradient id="paint29_linear_806_7658" x1="1919.48" y1="224.299" x2=".452" y2="224.299" gradientUnits="userSpaceOnUse"><stop stop-color="#099"/><stop offset=".292" stop-color="#099" stop-opacity=".25"/><stop offset=".51" stop-color="#099" stop-opacity=".25"/><stop offset=".632" stop-color="#099"/></linearGradient><linearGradient id="paint30_linear_806_7658" x1="1919.48" y1="221.328" x2=".452" y2="221.328" gradientUnits="userSpaceOnUse"><stop stop-color="#099"/><stop offset=".292" stop-color="#099" stop-opacity=".25"/><stop offset=".51" stop-color="#099" stop-opacity=".25"/><stop offset=".632" stop-color="#099"/></linearGradient></defs></svg>