<svg width="563" height="600" viewBox="0 0 563 600" fill="none" xmlns="http://www.w3.org/2000/svg"><path d="M265.379 219.564l14.98-24.919a4.334 4.334 0 012.695-1.98l25.352-6.124a4.33 4.33 0 002.739-2.053l6.231-10.842 43.991 22.077-4.969 11.476a4.329 4.329 0 00-.009 3.422l10.241 23.987a4.333 4.333 0 01.024 3.344l-11.028 26.902a4.327 4.327 0 01-5.946 2.23l-35.467-17.798.729-1.452 20.639-41.127c.022-.042.042-.085.061-.128.267-.61.238-.467-.061.128l-21.368 42.579-11.602-5.823-35.466-17.799a4.329 4.329 0 01-1.766-6.1z" fill="#099"/><path d="M317.376 173.646l-2.036-11.016 56.076 28.142-10.049 4.951-43.991-22.077z" fill="#006464"/><path d="M315.34 162.63l3.764-7.5 56.076 28.143-3.764 7.499-56.076-28.142z" fill="#099"/><path d="M319.104 155.13l13.916-3.01 36.256 18.196 5.904 12.957-56.076-28.143z" fill="#00C1C1"/><path d="M350.941 146.773l-11.294-3.636 3.155-4.278 8.645 6.978c.467.376.065 1.12-.506.936zm-2.653-15.351l3.155-4.278 8.645 6.978c.467.377.065 1.12-.506.937l-11.294-3.637zm8.967-12.157l3.155-4.278 6.625 5.969c.426.383.042 1.078-.509.923l-9.271-2.614z" fill="#006464"/><path d="M362.367 112.335l10.393 5.216 10.877 5.459-.957 3.153-8.745-1.745c-.562-.112-.89.611-.436.96l7.637 5.872-2.844 9.368-10.762-2.761c-.58-.149-.937.617-.448.965l9.666 6.883-2.685 8.842-10.761-2.761c-.581-.149-.937.618-.449.965l9.666 6.883-3.243 10.682-36.256-18.196 6.627-8.983 11.294 3.636c.571.184.973-.56.506-.936l-8.645-6.978 5.486-7.437 11.294 3.637c.571.183.973-.56.506-.937l-8.645-6.978 5.812-7.879 9.271 2.614c.551.155.935-.54.509-.923l-6.625-5.969 1.957-2.652z" fill="#099"/><path d="M382.68 126.163l-1.544 5.087-7.637-5.872c-.454-.349-.126-1.072.436-.96l8.745 1.745zm-4.388 14.455l-1.544 5.087-9.666-6.883c-.489-.348-.132-1.114.448-.965l10.762 2.761zm-5.773 19.016l-9.666-6.883c-.488-.347-.132-1.114.449-.965l10.761 2.761-1.544 5.087zm-58.306 89.652l21.368-42.579c.299-.595.328-.738.061-.128a2.136 2.136 0 01-.061.128l-20.639 41.127-.729 1.452z" fill="#006464"/><path d="M207.376 335.146l-11.027 26.903a4.333 4.333 0 00.024 3.344l10.241 23.986a4.335 4.335 0 01-.009 3.423l-4.97 11.476 43.991 22.077 6.232-10.843a4.338 4.338 0 012.738-2.053l25.353-6.124a4.334 4.334 0 002.695-1.979l14.979-24.919a4.33 4.33 0 00-1.765-6.101l-35.467-17.798-.728 1.451-20.64 41.127a2.705 2.705 0 01-3.631 1.206l-6.768-3.397a2.706 2.706 0 01-1.203-3.632l20.64-41.126.728-1.452-35.466-17.799a4.33 4.33 0 00-5.947 2.23z" fill="#099"/><path d="M201.635 404.278l-10.049 4.95 56.077 28.143-2.037-11.016-43.991-22.077z" fill="#006464"/><path d="M191.586 409.228l-3.763 7.5 56.076 28.142 3.764-7.499-56.077-28.143z" fill="#099"/><path d="M187.823 416.728l5.903 12.957 36.256 18.195 13.917-3.01-56.076-28.142z" fill="#00C1C1"/><path d="M200.149 447.249l-9.666-6.882-1.544 5.087 10.762 2.761c.58.149.937-.618.448-.966zm-13.894 7.047l-1.544 5.087 10.761 2.761c.581.149.937-.618.449-.966l-9.666-6.882zm-4.388 14.455l-1.544 5.086 8.745 1.745c.561.112.89-.611.436-.96l-7.637-5.871z" fill="#006464"/><path d="M179.366 476.991l10.393 5.216 10.877 5.459 1.956-2.653-6.625-5.968c-.425-.383-.042-1.079.509-.924l9.272 2.614 5.811-7.878-8.645-6.978c-.466-.377-.064-1.121.506-.937l11.295 3.637 5.485-7.437-8.645-6.978c-.466-.377-.065-1.12.506-.937l11.295 3.637 6.626-8.984-36.256-18.195-3.243 10.682 9.666 6.882c.489.348.132 1.115-.448.966l-10.762-2.761-2.684 8.842 9.666 6.882c.488.348.132 1.115-.449.966l-10.761-2.761-2.844 9.368 7.637 5.871c.454.349.125 1.072-.436.96l-8.745-1.745-.957 3.154z" fill="#099"/><path d="M202.592 485.013l3.156-4.278-9.272-2.614c-.551-.155-.934.541-.509.924l6.625 5.968zm8.967-12.156l3.156-4.278-11.295-3.637c-.57-.184-.972.56-.506.937l8.645 6.978zm11.797-15.993l-11.295-3.637c-.571-.183-.972.56-.506.937l8.645 6.978 3.156-4.278zm24.705-104.697l-20.64 41.126a2.706 2.706 0 001.203 3.632l6.768 3.397c1.335.67 2.961.13 3.631-1.206l20.64-41.127-11.602-5.822z" fill="#006464"/><path d="M245.276 301.959a6 6 0 1110.725 5.382l-18.839 37.538-10.725-5.382 18.839-37.538zm46.476 23.324a5.999 5.999 0 018.054-2.671 5.998 5.998 0 012.671 8.053l-18.838 37.539-10.725-5.383 18.838-37.538z" fill="#fff"/><path stroke="#006464" stroke-width="9" d="M189.999 482.328l-44.406 88.483M417.409 29.189l-44.406 88.483"/><rect x="392.352" y="338.848" width="46" height="6" rx="3" transform="rotate(26.65 392.352 338.848)" fill="#006464" fill-opacity=".65"/><rect x="142.992" y="213.706" width="46" height="6" rx="3" transform="rotate(26.65 142.992 213.706)" fill="#006464" fill-opacity=".65"/><rect x="403.012" y="279.473" width="46" height="6" rx="3" transform="rotate(-3.35 403.012 279.473)" fill="#006464" fill-opacity=".65"/><rect x="124.488" y="295.776" width="46" height="6" rx="3" transform="rotate(-3.35 124.488 295.776)" fill="#006464" fill-opacity=".65"/><rect x="353.438" y="384.941" width="46" height="6" rx="3" transform="rotate(56.65 353.438 384.941)" fill="#006464" fill-opacity=".65"/><rect x="200.055" y="151.885" width="46" height="6" rx="3" transform="rotate(56.65 200.055 151.885)" fill="#006464" fill-opacity=".65"/></svg>