<svg width="109" height="36" viewBox="0 0 109 36" fill="none" xmlns="http://www.w3.org/2000/svg"><path d="M11.928 2.415c2.634 0 5.261-.03 7.896.186 4.576.382 8.214 2.635 10.922 6.305 2.084 2.823 3.014 6.021 2.96 9.55-.073 4.61-.04 9.22 0 13.83 0 .964-.22 1.346-1.274 1.332-4.68-.057-9.362 0-14.048-.03-5.018-.029-9.207-1.91-12.43-5.78-2.142-2.573-3.395-5.578-3.472-8.923-.118-5.154-.03-10.317-.068-15.471 0-.907.47-1.001 1.172-1 2.781.014 5.56 0 8.342 0zm-7.062 10.12c0 2.77-.061 5.643.441 8.38A12.38 12.38 0 0016.452 30.94c4.588.33 9.22.165 13.816.22.852 0 .997-.483.992-1.214-.022-3.806.073-7.613-.05-11.415a19.569 19.569 0 00-.848-5.013c-1.45-4.761-6.146-8.315-11.173-8.561-4.454-.22-8.925-.06-13.39-.088-.71 0-.957.257-.946.968.037 2.235.013 4.467.013 6.697z" fill="#484848"/><path d="M7.704 17.959C7.52 12.364 12.696 7.589 18.102 7.64c5.545.06 10.396 4.67 10.366 10.399-.029 5.657-4.764 10.367-10.438 10.317-5.723-.055-10.488-4.799-10.326-10.398zm10.348 7.843c4.754.245 8.032-3.927 7.999-7.852-.033-4.15-3.528-7.821-7.957-7.872-4.261-.048-7.975 3.769-8.008 7.892-.031 3.946 3.56 8.139 7.966 7.832z" fill="#484848"/><path d="M12.92 17.96c-.142-2.267 2.108-5.116 5.207-5.077 3.043.04 5.205 2.786 5.124 5.115-.106 3.13-2.443 5.16-5.216 5.163-2.709 0-5.062-2.09-5.114-5.2zm5.14 2.608c1.536 0 2.765-1.126 2.763-2.563-.002-1.438-1.289-2.667-2.744-2.667a2.718 2.718 0 00-2.707 2.695c.029 1.144.922 2.623 2.687 2.535zM59.33.423h3.798v22.755H59.33v-9.85h-9.91v9.85h-3.8V.423h3.8v9.33h9.91V.422zm12.22 19.179h10.24v3.576H67.75V.423h13.874v3.575H71.55v5.917h9.25v3.543h-9.25v6.144zm32.848.585c-2.313 2.275-5.142 3.413-8.49 3.413-3.347 0-6.188-1.138-8.522-3.413-2.313-2.297-3.469-5.093-3.469-8.387 0-3.294 1.156-6.079 3.469-8.354C89.72 1.149 92.56 0 95.908 0s6.177 1.149 8.49 3.446c2.334 2.275 3.501 5.06 3.501 8.354 0 3.294-1.167 6.09-3.501 8.387zm-14.337-2.536c1.586 1.54 3.535 2.308 5.847 2.308 2.313 0 4.251-.769 5.814-2.308 1.586-1.56 2.379-3.51 2.379-5.85 0-2.341-.793-4.281-2.379-5.82-1.563-1.56-3.501-2.34-5.814-2.34-2.312 0-4.261.78-5.847 2.34-1.563 1.539-2.345 3.479-2.345 5.82 0 2.34.782 4.29 2.345 5.85zM48.15 36v-4.618L44.89 36H44v-6.805h1.136v4.618l3.26-4.618h.89V36h-1.137zm6.616-6.805h1.136V36h-1.136v-2.946h-2.963V36h-1.137v-6.805h1.137v2.79h2.963v-2.79zM65.198 36h-1.275l-2.38-3.189V36h-1.137v-3.189L58.026 36H56.74l2.589-3.48-2.49-3.325h1.284l2.282 3.091v-3.091h1.136v3.091l2.283-3.091h1.274l-2.48 3.325 2.58 3.48zm4.986 0v-4.618L66.924 36h-.89v-6.805h1.137v4.618l3.26-4.618h.89V36h-1.137zm6.617-6.805h1.136V36h-1.136v-2.946h-2.963V36H72.7v-6.805h1.137v2.79H76.8v-2.79zM83.469 36v-4.618L80.209 36h-.89v-6.805h1.137v4.618l3.26-4.618h.889V36h-1.136zm5.066-6.805c.652 0 1.195.214 1.63.641.441.428.662.96.662 1.595 0 .628-.22 1.16-.662 1.594-.435.428-.978.642-1.63.642h-1.413V36h-1.136v-6.805h2.549zm0 3.422c.336 0 .612-.11.83-.33.217-.228.326-.513.326-.856 0-.344-.109-.626-.326-.846a1.1 1.1 0 00-.83-.34h-1.413v2.372h1.413zM95.962 36v-4.618L92.702 36h-.889v-6.805h1.136v4.618l3.26-4.618h.89V36h-1.137zm6.617-6.805h1.136V36h-1.136v-2.946h-2.963V36H98.48v-6.805h1.136v2.79h2.963v-2.79zm6.421 0v1.07h-2.766V36h-1.136v-6.805H109z" fill="#484848"/></svg>