<svg width="213" height="48" viewBox="0 0 213 48" fill="none" xmlns="http://www.w3.org/2000/svg"><path d="M15.904 3.22c3.513 0 7.016-.041 10.528.248 6.103.51 10.952 3.513 14.564 8.406 2.778 3.764 4.019 8.028 3.945 12.735-.096 6.146-.052 12.292 0 18.439 0 1.285-.292 1.794-1.697 1.776-6.24-.076-12.483 0-18.732-.04-6.69-.039-12.275-2.547-16.572-7.707-2.856-3.43-4.527-7.437-4.63-11.897-.158-6.873-.04-13.757-.09-20.629 0-1.209.626-1.334 1.562-1.331 3.709.017 7.414 0 11.122 0zM6.49 16.712c-.018 3.788-.082 7.525.588 11.175a16.507 16.507 0 0014.86 13.367c6.117.439 12.292.22 18.421.292 1.136 0 1.329-.644 1.323-1.618-.03-5.075.097-10.15-.067-15.22a26.082 26.082 0 00-1.13-6.685C38.549 11.675 32.289 6.937 25.586 6.61c-5.938-.293-11.9-.08-17.853-.117-.946 0-1.276.342-1.262 1.29.05 2.98.018 5.957.018 8.93z" fill="#fff"/><path d="M10.273 23.944c-.246-7.457 6.656-13.826 13.865-13.756 7.393.08 13.861 6.226 13.82 13.865-.038 7.542-6.351 13.823-13.917 13.756-7.63-.073-13.984-6.398-13.768-13.865zM24.07 34.402c6.34.328 10.71-5.236 10.666-10.47-.044-5.531-4.704-10.428-10.61-10.495-5.681-.064-10.633 5.025-10.677 10.522-.041 5.262 4.747 10.853 10.621 10.443z" fill="#fff"/><path d="M17.23 23.947c-.19-3.023 2.81-6.822 6.943-6.77 4.056.053 6.94 3.715 6.83 6.82-.14 4.174-3.257 6.881-6.953 6.884-3.612 0-6.75-2.786-6.82-6.934zm6.852 3.477c2.049 0 3.688-1.501 3.685-3.418-.003-1.917-1.718-3.556-3.659-3.556a3.624 3.624 0 00-3.608 3.594c.038 1.525 1.229 3.497 3.582 3.38zM64.64 3.2h2.76V20h-2.76v-7.272h-7.2V20h-2.76V3.2h2.76v6.888h7.2V3.2zm8.878 14.16h7.44V20h-10.2V3.2h10.08v2.64h-7.32v4.368h6.72v2.616h-6.72v4.536zm23.866.432c-1.68 1.68-3.736 2.52-6.168 2.52s-4.496-.84-6.192-2.52c-1.68-1.696-2.52-3.76-2.52-6.192 0-2.432.84-4.488 2.52-6.168 1.696-1.696 3.76-2.544 6.192-2.544 2.432 0 4.488.848 6.168 2.544 1.696 1.68 2.544 3.736 2.544 6.168s-.848 4.496-2.544 6.192zM86.968 15.92c1.152 1.136 2.568 1.704 4.248 1.704 1.68 0 3.088-.568 4.224-1.704 1.152-1.152 1.728-2.592 1.728-4.32 0-1.728-.576-3.16-1.728-4.296-1.136-1.152-2.544-1.728-4.224-1.728-1.68 0-3.096.576-4.248 1.728-1.136 1.136-1.704 2.568-1.704 4.296 0 1.728.568 3.168 1.704 4.32zM64.76 44V32.6L56.84 44h-2.16V27.2h2.76v11.4l7.92-11.4h2.16V44h-2.76zm16.075-16.8h2.76V44h-2.76v-7.272h-7.2V44h-2.76V27.2h2.76v6.888h7.2V27.2zM106.177 44h-3.096l-5.784-7.872V44h-2.76v-7.872L88.753 44h-3.12l6.288-8.592-6.048-8.208h3.12l5.544 7.632V27.2h2.76v7.632l5.544-7.632h3.096l-6.024 8.208L106.177 44zm12.114 0V32.6l-7.92 11.4h-2.16V27.2h2.76v11.4l7.92-11.4h2.16V44h-2.76zm16.076-16.8h2.76V44h-2.76v-7.272h-7.2V44h-2.76V27.2h2.76v6.888h7.2V27.2zM150.565 44V32.6l-7.92 11.4h-2.16V27.2h2.76v11.4l7.92-11.4h2.16V44h-2.76zm12.307-16.8c1.584 0 2.904.528 3.96 1.584 1.072 1.056 1.608 2.368 1.608 3.936 0 1.552-.536 2.864-1.608 3.936-1.056 1.056-2.376 1.584-3.96 1.584h-3.432V44h-2.76V27.2h6.192zm0 8.448c.816 0 1.488-.272 2.016-.816.528-.56.792-1.264.792-2.112 0-.848-.264-1.544-.792-2.088-.528-.56-1.2-.84-2.016-.84h-3.432v5.856h3.432zM180.916 44V32.6l-7.92 11.4h-2.16V27.2h2.76v11.4l7.92-11.4h2.16V44h-2.76zm16.076-16.8h2.76V44h-2.76v-7.272h-7.2V44h-2.76V27.2h2.76v6.888h7.2V27.2zm15.598 0v2.64h-6.72V44h-2.76V27.2h9.48z" fill="#fff"/></svg>