<svg xmlns="http://www.w3.org/2000/svg"><symbol id="hero-icon-1" viewBox="0 0 31 31" fill="none"><path d="M27.311 25.122a12.855 12.855 0 00-.022-.409 5.956 5.956 0 00-.112-.832 1.56 1.56 0 00-.085-.28l-.01-.007a3.84 3.84 0 00-.225-.125c-.199-.103-.468-.23-.791-.377a77.37 77.37 0 00-2.336-.993c-1.23-.504-2.487-1-3.311-1.326l-.752-.297-.001-.001 7.645 4.647zm0 0H16.992l-.602-2.373.454-.454.53-.53-.53-.53-1.3-1.302-.532-.531-.53.531-1.301 1.303-.53.53.53.53.455.454-.603 2.373H2.716c.005-.129.012-.267.023-.407a6.08 6.08 0 01.112-.833c.037-.168.072-.253.086-.285a76.568 76.568 0 013.357-1.501c1.279-.525 2.593-1.043 3.412-1.366l.647-.257m16.958 4.648L16.491 5.306a72.59 72.59 0 01-.969-.301 2.711 2.711 0 00-.345-.094.896.896 0 00-.203.001l-.114.008c-.137.01-.33.023-.587.034h-.001a3.33 3.33 0 00-1.38.366 1.681 1.681 0 00-.316.207v.53l-.697.046h0-.001 0-.001 0l-.017.002a2.334 2.334 0 00-.323.051 1.56 1.56 0 00-.254.077.49.49 0 00-.077.038.074.074 0 01-.003.005c-.014.022-.06.091-.132.235a7.557 7.557 0 00-.46 1.212c-.04.146-.055.227-.06.256-.003.011-.003.014-.003.008 0 .135.061.828.165 1.594.05.373.107.742.168 1.046.03.153.06.281.086.382a1.799 1.799 0 00.05.154l.39.778-.67.218c-.037 1.16.192 1.748.364 2.025a.868.868 0 00.257.276l.42.119.078.47c.12.718.234 1.142.326 1.388.038.103.069.164.088.197.034.015.097.043.165.089.403.268.42.71.42.917 0 .259-.04.53-.174.769a1.01 1.01 0 01-.606.484c-.057.1-.125.21-.204.326-.294.424-.782.962-1.518 1.255m0 0s0 0 0 0l-.278-.696.279.696s0 0 0 0zm8.591-9.043h0l.002-.006.006-.025a14.376 14.376 0 00.1-.482c.062-.323.135-.762.184-1.232.05-.473.07-.956.037-1.373-.035-.44-.124-.7-.21-.82 0 0 0 0 0 0l.61-.437-.729 4.375zm0 0h0l-.224.927h.568c.007 1.03-.206 1.567-.368 1.827a.868.868 0 01-.257.276l-.42.118-.079.47c-.12.72-.234 1.143-.325 1.389-.039.103-.07.164-.088.197a1.017 1.017 0 00-.166.088c-.403.269-.419.711-.419.918 0 .259.04.53.174.769.14.25.359.414.605.484l1-7.463zM12.51 5.596s.002-.005.011-.015a.061.061 0 01-.011.015z" stroke="#099" stroke-width="1.5"/></symbol><symbol id="hero-icon-2" viewBox="0 0 31 31" fill="none"><rect x="4.875" y="4.875" width="21.25" height="21.25" rx="2" stroke="#099" stroke-width="2"/><path d="M21.958 19.66a2.304 2.304 0 01-2.299 2.299 2.293 2.293 0 01-2.286-2.3 2.282 2.282 0 012.286-2.286c1.266 0 2.3 1.02 2.3 2.286zM9.106 11.405c0-1.28 1.02-2.3 2.3-2.3a2.285 2.285 0 012.286 2.3 2.282 2.282 0 01-2.287 2.286 2.285 2.285 0 01-2.299-2.286zM19.61 10.02l1.37 1.37-9.59 9.59-1.37-1.37 9.59-9.59z" fill="#099"/></symbol><symbol id="hero-icon-3" viewBox="0 0 31 31" fill="none"><path d="M10.172 15.016l3.168 3.167a1 1 0 001.414 0l6.074-6.074M5.813 19.79v4.398a1 1 0 001 1h4.398a1 1 0 01.707.293l2.875 2.875a1 1 0 001.414 0l2.875-2.875a1 1 0 01.707-.293h3.914a1 1 0 001-1V19.79a1 1 0 01.293-.707l2.875-2.875a1 1 0 000-1.414l-2.875-2.875a1 1 0 01-.293-.707v-4.4a1 1 0 00-1-1H19.79a1 1 0 01-.707-.292l-2.875-2.875a1 1 0 00-1.414 0L11.918 5.52a1 1 0 01-.707.293H6.812a1 1 0 00-1 1v4.398a1 1 0 01-.292.707l-2.875 2.875a1 1 0 000 1.414l2.875 2.875a1 1 0 01.293.707z" stroke="#099" stroke-width="2" stroke-linecap="round"/></symbol><symbol id="arrow-more" viewBox="0 0 24 24" fill="none"><path style="transition:all .4s" d="M6 15l6-6 6 6" stroke="var(--svg-color)" stroke-width="2" stroke-linecap="round" stroke-linejoin="round"/></symbol><symbol id="phone" viewBox="0 0 16 16" fill="none"><g clip-path="url(#clip0_732_595)"><path style="transition:all .4s" d="M10.034 3.333a3.333 3.333 0 012.633 2.633m-2.633-5.3a6 6 0 015.3 5.294m-.667 5.32v2a1.332 1.332 0 01-1.453 1.333 13.193 13.193 0 01-5.754-2.046 13 13 0 01-4-4 13.193 13.193 0 01-2.046-5.78A1.333 1.333 0 012.74 1.333h2A1.333 1.333 0 016.074 2.48a8.56 8.56 0 00.466 1.873 1.333 1.333 0 01-.3 1.407l-.846.846a10.667 10.667 0 004 4l.846-.846a1.333 1.333 0 011.407-.3 8.56 8.56 0 001.873.466 1.333 1.333 0 011.147 1.354z" stroke="var(--fill-color)" stroke-linecap="round" stroke-linejoin="round"/></g><defs><clipPath id="clip0_732_595"><path fill="#fff" d="M0 0h16v16H0z"/></clipPath></defs></symbol><symbol id="mail" viewBox="0 0 16 16" fill="none"><path d="M2.667 2.667h10.666c.734 0 1.334.6 1.334 1.333v8c0 .733-.6 1.333-1.334 1.333H2.667c-.734 0-1.334-.6-1.334-1.333V4c0-.733.6-1.333 1.334-1.333z" stroke="var(--fill-color)" stroke-linecap="round" stroke-linejoin="round"/><path d="M14.667 4L8 8.667 1.333 4" stroke="var(--fill-color)" stroke-linecap="round" stroke-linejoin="round"/></symbol><symbol id="burger-menu" viewBox="0 0 24 24" fill="none"><path d="M3 18h18M3 12h18M3 6h18" stroke="var(--menu-color)" stroke-width="2" stroke-linecap="round" stroke-linejoin="round"/></symbol><symbol id="link-arrow" viewBox="0 0 33 18" fill="none"><g clip-path="url(#clip0_719_4700)" stroke="var(--color)" stroke-width="2" stroke-linecap="round" stroke-linejoin="round"><path style="transition:all .4s" d="M3.75 9h25.5M24 3.75L29.25 9 24 14.25"/></g><defs><clipPath id="clip0_719_4700"><path style="transition:all .4s" fill="var(--color)" transform="rotate(-90 9 9)" d="M0 0h18v33H0z"/></clipPath></defs></symbol><symbol id="arrow-more-plus" viewBox="0 0 16 18" fill="none"><path d="M7.293 17.707a1 1 0 001.414 0l6.364-6.364a1 1 0 00-1.414-1.414L8 15.586 2.343 9.929A1 1 0 00.93 11.343l6.364 6.364zM7 0v17h2V0H7z" fill="#099"/></symbol><symbol id="arrow-black" viewBox="0 0 33 18" fill="none"><g clip-path="url(#clip0_719_4713)" stroke="#484848" stroke-width="2" stroke-linecap="round" stroke-linejoin="round"><path d="M3.75 9h25.5M24 3.75L29.25 9 24 14.25"/></g><defs><clipPath id="clip0_719_4713"><path fill="#fff" transform="rotate(-90 9 9)" d="M0 0h18v33H0z"/></clipPath></defs></symbol><symbol id="arrow-more-black" viewBox="0 0 24 25" fill="none"><path d="M6 9.89l6 6 6-6" stroke="#484848" stroke-width="2" stroke-linecap="round" stroke-linejoin="round"/></symbol><symbol id="menu-black" viewBox="0 0 24 25" fill="none"><path d="M3 18.89h18m-18-6h18m-18-6h18" stroke="#484848" stroke-width="2" stroke-linecap="round" stroke-linejoin="round"/></symbol><symbol id="header-phone-black" viewBox="0 0 16 16" fill="none"><g clip-path="url(#clip0_860_1064)"><path d="M10.032 3.333a3.333 3.333 0 012.633 2.634m-2.633-5.3a6 6 0 015.3 5.293m-.667 5.32v2a1.334 1.334 0 01-1.453 1.333 13.193 13.193 0 01-5.754-2.046 13 13 0 01-4-4 13.193 13.193 0 01-2.046-5.78 1.333 1.333 0 011.326-1.454h2A1.333 1.333 0 016.072 2.48a8.56 8.56 0 00.466 1.873 1.333 1.333 0 01-.3 1.407l-.846.847a10.666 10.666 0 004 4l.846-.847a1.334 1.334 0 011.407-.3 8.56 8.56 0 001.873.467 1.334 1.334 0 011.147 1.353z" stroke="#099" stroke-linecap="round" stroke-linejoin="round"/></g><defs><clipPath id="clip0_860_1064"><path fill="#fff" d="M0 0h16v16H0z"/></clipPath></defs></symbol><symbol id="header-mail-black" viewBox="0 0 16 17" fill="none"><path d="M2.665 3.448h10.667c.733 0 1.333.6 1.333 1.334v8c0 .733-.6 1.333-1.333 1.333H2.665c-.733 0-1.333-.6-1.333-1.333v-8c0-.734.6-1.334 1.333-1.334z" stroke="#099" stroke-linecap="round" stroke-linejoin="round"/><path d="M14.665 4.782L8 9.448 1.332 4.782" stroke="#099" stroke-linecap="round" stroke-linejoin="round"/></symbol></svg>