<svg width="1920" height="552" viewBox="0 0 1920 552" fill="none" xmlns="http://www.w3.org/2000/svg">
<g opacity="0.25">
<path d="M199.898 205.667C264.025 264.661 324.586 320.405 408.361 321.592C460.233 322.341 515.737 302.195 578.568 260.041C627.004 227.548 662.861 211.768 684.647 213.119C728.739 215.841 720.31 284.57 711.362 357.408C699.95 450.721 688.084 547.194 770.108 551.833C845.453 556.089 988.491 478.922 1207.46 315.911C1548.2 62.2003 1762.82 4.61248 1882.84 0.996124C1895.08 0.618502 1907.46 0.816008 1919.48 1.58059L1919.48 0.740425C1907.34 -0.00328171 1894.86 -0.18833 1882.52 0.192485C1761.72 3.84537 1545.99 61.5245 1204.74 315.619C986.352 478.173 844.415 555.212 770.691 551.048C691.067 546.536 703.386 446.064 714.215 357.445C723.617 281.154 731.657 215.274 685.296 212.407C661.435 210.927 625.707 226.434 575.91 259.785C513.598 301.61 458.807 321.573 408.491 320.861C326.726 319.71 266.424 264.241 202.621 205.503C143.875 151.404 83.5087 95.8067 0.512448 76.0994L0.512448 77.1405C81.7579 96.9026 141.606 152.079 199.898 205.667Z" fill="url(#paint0_linear_806_7658)"/>
<path d="M409.859 314.633C462.185 315.254 517.624 295.62 579.482 254.561C627.399 222.799 662.997 207.384 685.367 208.754C730.432 211.494 724.661 279.145 718.501 350.76C714.74 395.471 710.785 441.698 718.047 477.844C726.411 519.121 748.781 540.199 786.454 542.281C863.225 546.536 1005.42 471.049 1220.89 311.51C1556.11 63.6248 1772.03 7.38859 1893.48 3.86357C1902.1 3.5929 1910.8 3.5929 1919.42 3.86357L1919.42 3.04167C1910.8 2.77647 1902.1 2.77647 1893.48 3.04167C1770.87 6.58497 1554.23 62.9307 1218.42 311.199C1003.28 470.301 861.799 545.623 786.908 541.459C705.468 536.966 713.897 438.027 721.354 350.76C727.838 275.675 733.284 210.818 685.951 207.95C661.635 206.471 625.973 221.612 576.759 254.232C515.484 294.925 460.888 314.505 409.924 313.793C326.214 312.788 262.475 257.794 194.976 199.585C137.009 149.614 77.5496 98.3819 0.453854 75.8619L0.453854 77.0125C75.9933 99.6056 134.804 150.362 192.188 199.841C260.141 258.287 324.204 313.537 409.859 314.633Z" fill="url(#paint1_linear_806_7658)"/>
<path d="M411.218 307.656C464.063 308.186 519.372 289.026 580.193 249.1C627.462 218.051 663.059 202.982 685.883 204.352C731.92 207.11 728.808 273.757 725.501 344.203C721.481 430.466 716.942 528.254 802.597 532.893C880.925 537.13 1022.34 463.305 1234.96 307.199C1564.87 64.9947 1781.5 10.0918 1905.08 6.67638C1909.87 6.55541 1914.68 6.50663 1919.48 6.53026L1919.48 5.72663C1914.59 5.70265 1909.7 5.75142 1904.83 5.87274C1780.4 9.30644 1562.73 64.3189 1232.3 306.907C1020.2 462.575 879.887 536.254 803.18 532.089C719.86 527.578 724.399 430.156 728.419 344.221C731.855 270.305 734.903 206.453 686.467 203.585C661.763 202.106 626.1 216.9 577.534 248.79C517.233 288.387 462.831 307.382 411.283 306.871C325.693 306.012 258.323 251.493 187.063 193.777C130.327 147.842 72.2302 100.811 0.516354 76.4464L0.516354 77.7067C70.9335 102.071 128.188 148.591 184.34 194.088C255.989 252.004 323.812 306.779 411.218 307.656Z" fill="url(#paint2_linear_806_7658)"/>
<path d="M412.39 300.862C465.819 301.282 520.869 282.597 580.977 243.767C627.792 213.412 663.26 198.709 686.602 200.079C733.677 202.837 733.223 268.388 732.704 337.829C732.12 422.795 731.472 519.14 819.072 523.761C898.891 527.98 1039.53 455.781 1249.16 303.053C1573.88 66.4195 1791.55 12.8317 1917.02 9.54406L1919.87 9.54406L1919.87 8.72217C1918.84 8.72217 1917.8 8.72217 1916.76 8.72217C1790.52 12.028 1571.81 65.7255 1246.57 302.78C1037.52 455.087 897.918 527.122 819.655 522.976C734.39 518.482 735.362 422.521 735.362 337.847C735.881 265.045 736.27 202.197 686.926 199.293C661.768 197.814 626.171 212.261 578.124 243.457C518.794 281.958 464.652 300.46 412.52 300.076C324.855 299.401 253.92 245.283 179.093 188.061C123.914 146.052 67.5671 103.113 0.910886 77.7616L0.910886 79.0219C66.2056 104.336 121.904 146.746 176.37 188.261C251.456 245.831 322.78 300.168 412.39 300.862Z" fill="url(#paint3_linear_806_7658)"/>
<path d="M413.358 294.159C467.305 294.469 522.096 276.259 580.971 238.507C627.203 208.845 662.671 194.49 686.402 195.859C734.514 198.636 736.783 263.2 739.118 331.564C741.971 415.307 745.213 510.209 834.758 514.829C916.133 519.012 1056.12 448.42 1262.71 298.999C1575.24 73.159 1791.03 18.0552 1919.48 12.6855L1919.48 11.8818C1790.25 17.1785 1573.16 72.3188 1260.05 298.633C1054.05 447.635 915.096 518.062 835.277 513.953C748.066 509.46 744.824 414.905 741.971 331.491C739.507 259.803 737.432 197.905 686.986 195.001C661.374 193.522 625.841 207.622 578.312 238.105C519.956 275.529 466.073 293.574 413.422 293.282C323.683 292.77 249.051 239.091 169.945 182.271C116.776 144.043 62.5041 105.03 0.516354 79.4602L0.516354 80.8848C61.2073 106.455 114.766 144.81 167.287 182.563C246.717 239.749 321.738 293.647 413.358 294.159Z" fill="url(#paint4_linear_806_7658)"/>
<path d="M414.142 287.583C468.608 287.766 523.204 270.031 581.042 233.338C626.755 204.352 662.158 190.344 686.409 191.713C735.623 194.508 740.486 258.105 745.673 325.427C752.157 407.946 759.16 501.497 850.78 506.081C933.322 510.245 1072.99 441.224 1276.98 295.072C1575.25 81.0858 1788.38 24.0825 1919.75 16.1193L1919.75 15.2974C1787.6 23.2059 1573.37 80.2274 1274.32 294.743C1071.17 440.475 932.868 509.332 851.493 505.259C762.272 500.766 755.14 407.599 748.785 325.373C743.404 254.781 738.735 193.869 687.251 190.892C661.315 189.412 625.653 203.184 578.643 232.9C521.324 269.264 467.571 286.853 414.466 286.67C322.651 286.341 244.194 233.046 161.133 176.627C110.168 142.034 58.2957 106.82 0.781857 81.652L0.781857 83.1314C57.1285 108.135 108.223 142.856 158.475 176.938C241.666 233.722 320.447 287.236 414.142 287.583Z" fill="url(#paint5_linear_806_7658)"/>
<path d="M414.591 281.099C469.511 281.099 523.783 263.894 580.713 228.26C626.102 199.932 661.31 186.252 686.015 187.64C736.331 190.435 743.917 253.082 751.893 319.418C761.749 400.768 772.836 492.93 866.467 497.533C950.76 501.661 1089.71 434.192 1290.59 291.255C1575.89 88.5193 1785.52 30.0731 1919.55 19.7355L1919.55 18.9136C1785 29.1782 1574.01 87.5696 1288.19 290.944C1087.9 433.407 950.176 500.784 867.245 496.748C775.884 492.291 764.796 400.439 755.07 319.4C746.641 249.831 739.379 189.722 686.857 186.855C660.273 185.376 624.805 198.818 578.314 227.932C521.967 263.237 468.474 280.369 414.85 280.296C320.896 280.168 238.548 227.329 151.402 171.184C103.031 140.135 54.1412 108.464 0.582761 84.2271L0.582761 85.7613C52.7795 109.779 101.151 140.902 148.744 171.513C236.279 227.804 318.951 280.972 414.591 281.099Z" fill="url(#paint6_linear_806_7658)"/>
<path d="M415.238 274.725C470.547 274.725 524.624 257.849 580.517 223.256C625.257 195.604 660.66 182.271 685.818 183.64C737.302 186.417 747.547 248.15 758.375 313.519C771.733 393.736 786.841 484.657 882.546 489.186C968.654 493.259 1106.83 427.306 1304.92 287.529C1577.25 95.332 1783.77 36.0091 1919.48 23.5345L1919.48 22.6943C1782.73 35.1872 1575.24 94.4553 1302.26 287.236C1104.75 426.594 967.617 492.383 883.064 488.383C789.564 483.963 774.521 393.408 761.293 313.482C749.881 244.936 740.09 185.741 686.402 182.837C659.364 181.376 623.896 194.471 577.923 222.927C522.485 257.191 469.25 273.867 415.173 273.922C319.079 273.922 232.841 221.393 141.48 165.705C96.0915 137.925 49.6656 109.724 0.516355 86.8389L0.516355 88.3914C48.6282 111.039 94.0813 138.728 138.821 166.034C230.571 221.978 317.328 274.798 415.238 274.725Z" fill="url(#paint7_linear_806_7658)"/>
<path d="M415.497 268.461C471.196 268.296 525.013 251.895 579.998 218.343C624.22 191.33 659.623 178.326 685.3 179.677C737.886 182.472 750.854 243.329 764.535 307.747C781.394 386.851 800.457 476.529 898.431 481.022C986.161 485.04 1123.75 420.567 1319.18 283.931C1579.65 101.761 1782.28 41.9086 1919.48 27.4614L1919.48 26.603C1781.56 40.9954 1577.77 100.866 1316.46 283.62C1121.35 419.873 985.189 484.164 898.885 480.218C803.245 475.817 784.182 386.504 767.453 307.693C753.059 240.114 740.674 181.796 685.818 178.874C658.326 177.431 622.858 190.216 577.34 217.996C522.939 251.255 469.963 267.493 415.238 267.657C316.939 267.931 226.616 215.64 130.976 160.262C88.5052 135.642 45.386 110.711 0.321653 89.4691L0.321652 91.0581C44.4133 112.007 86.6896 136.463 128.382 160.627C224.606 216.224 315.318 268.753 415.497 268.461Z" fill="url(#paint8_linear_806_7658)"/>
<path d="M415.627 262.287C471.649 261.995 525.208 246.032 579.22 213.484C622.988 187.11 658.456 174.435 684.522 175.787C738.34 178.581 754.031 238.561 770.63 302.067C790.99 380.129 814.074 468.584 914.253 473.04C1003.6 477.004 1140.74 413.991 1333.51 280.423C1582.57 107.806 1780.91 47.7347 1919.48 31.5158L1919.48 30.6392C1780.46 46.8032 1580.69 106.93 1330.79 280.113C1138.67 413.297 1002.57 476.127 914.707 472.237C816.797 467.89 793.779 379.764 773.483 302.012C756.041 235.42 741.063 177.814 685.04 174.983C657.094 173.54 621.626 185.942 576.627 213.137C523.068 245.392 470.418 261.191 415.562 261.465C314.929 261.976 220.521 209.959 120.537 154.892C81.6322 133.267 41.5605 111.404 0.516355 92.0624L0.516355 93.6331C40.6528 112.683 79.5571 134.089 117.943 155.257C218.381 210.525 313.243 262.798 415.627 262.287Z" fill="url(#paint9_linear_806_7658)"/>
<path d="M415.562 256.187C471.909 255.785 525.143 240.26 578.248 208.699C621.561 182.965 657.029 170.6 683.614 171.933C738.664 174.727 757.014 233.868 776.531 296.496C800.457 373.518 827.625 460.876 930.074 465.205C1020.85 469.114 1157.73 407.544 1347.91 277.081C1586.07 113.487 1780.59 53.4517 1919.48 35.6804L1919.48 34.8037C1779.81 52.5385 1584.25 112.61 1345.25 276.698C1155.66 406.868 1020.01 468.255 930.268 464.42C830.025 460.128 802.986 373.097 779.125 296.387C758.7 230.635 741.063 174.015 683.873 171.111C655.408 169.668 619.94 181.832 575.395 208.316C522.809 239.566 470.417 254.945 415.238 255.328C312.336 256.059 213.648 204.298 109.19 149.504C73.4624 130.728 37.3458 111.77 0.256833 94.4735L0.256833 96.026C36.3732 113.012 71.5819 131.55 106.661 149.888C211.833 205.046 310.845 256.936 415.562 256.187Z" fill="url(#paint10_linear_806_7658)"/>
<path d="M1359.78 273.41C1172.71 400.567 1037.52 460.566 946.355 456.803C843.647 452.566 812.589 366.723 785.161 290.98C761.689 226.215 741.394 170.271 682.972 167.385C654.053 165.96 618.585 177.832 574.493 203.676C522.621 233.94 470.748 248.899 415.309 249.337C310.008 250.287 207.04 198.763 98.0431 144.207C65.9469 128.135 33.5265 111.934 0.781858 96.7197L0.781858 98.2722C33.2023 113.103 64.4557 128.902 95.7738 144.554C205.225 199.348 308.646 251.072 415.633 250.104C472.239 249.593 525.149 234.47 577.346 203.914C620.206 178.8 655.674 166.746 682.777 168.079C739.059 170.855 760.132 229.192 782.567 290.962C810.125 366.997 841.313 453.168 946.161 457.497C1038.82 461.314 1175.11 401.17 1362.7 273.611C1590.42 118.747 1780.53 59.0585 1919.75 39.8261L1919.75 38.9312C1779.49 58.2367 1588.21 117.998 1359.78 273.41Z" fill="url(#paint11_linear_806_7658)"/>
<path d="M414.979 244.315C471.844 243.676 524.365 228.991 575.654 199.403C618.708 174.545 653.463 163.129 681.15 164.463C738.729 167.221 762.59 224.735 787.943 285.72C819.066 360.787 854.405 445.881 961.716 450.1C1056.06 453.844 1191.9 395.088 1377.02 270.469C1594.69 123.952 1780.33 64.7754 1919.48 44.3193L1919.48 43.4243C1779.55 63.8439 1592.94 123.094 1374.36 270.214C1189.83 394.412 1055.02 453.041 962.17 449.37C857.063 445.187 821.854 360.422 790.796 285.647C764.276 221.722 741.322 166.545 681.669 163.696C652.231 162.271 616.828 173.851 573.06 199.055C522.29 228.279 470.547 242.89 414.849 243.529C307.213 244.717 199.837 193.393 86.1062 139.057C57.8357 125.541 29.3705 111.934 0.516355 98.875L0.516355 100.409C28.5276 113.067 56.2146 126.29 83.6422 139.422C197.827 194.088 305.657 245.52 414.979 244.315Z" fill="url(#paint12_linear_806_7658)"/>
<path d="M1389.14 267.146C1207 388.476 1072.52 445.717 977.987 442.119C870.351 438.028 830.993 354.304 796.432 280.442C766.8 217.375 741.188 162.911 680.238 160.061C650.346 158.673 614.813 169.942 571.565 194.545C521.702 222.891 470.348 237.028 414.455 237.758C304.226 239.183 192.505 188.042 73.9762 133.907C49.7257 122.82 25.2808 111.679 0.641233 100.848L0.641233 102.346C24.4379 112.83 48.0403 123.624 71.5126 134.345C190.366 188.609 302.735 239.968 414.585 238.507C471.58 237.758 523.777 223.475 574.158 194.837C616.759 170.618 651.319 159.477 679.784 160.81C738.659 163.55 765.309 220.352 793.579 280.479C828.399 354.632 867.887 438.685 977.727 442.868C1073.76 446.521 1209.21 389.134 1391.93 267.401C1599.94 128.774 1780.97 70.3282 1919.6 48.7397L1919.6 47.8447C1780 69.3785 1598.06 127.898 1389.14 267.146Z" fill="url(#paint13_linear_806_7658)"/>
<path d="M413.747 232.79C470.937 231.932 522.745 218.051 572.218 190.362C614.43 166.728 648.99 155.878 677.909 157.193C738.146 159.915 767.648 215.987 798.837 275.346C837.417 348.623 881.12 431.671 993.359 435.744C1091.07 439.306 1226.2 383.252 1406.52 264.387C1605.33 133.358 1781.43 75.7889 1919.35 53.2506L1919.35 52.3374C1780.66 74.8209 1603.51 132.482 1403.87 264.077C1224.13 382.558 1089.97 438.447 993.748 434.941C883.519 430.941 839.946 348.221 801.56 275.236C768.815 212.973 740.545 159.221 678.363 156.39C648.017 155.02 612.484 166.015 569.625 189.996C520.67 217.393 469.64 231.146 413.617 232.005C301.119 233.685 184.535 182.691 61.1431 128.737C41.0424 119.934 20.8771 111.112 0.516966 102.437L0.516966 103.898C19.9692 112.245 39.4215 120.719 58.8738 129.176C182.59 183.33 299.627 234.489 413.747 232.79Z" fill="url(#paint14_linear_806_7658)"/>
<path d="M412.904 227.146C470.158 226.196 521.577 212.699 570.207 185.923C611.965 162.91 646.59 152.335 676.028 153.632C737.562 156.335 769.917 211.694 804.153 270.305C846.429 342.723 894.347 424.822 1009.44 428.804C1108.84 432.256 1243.64 377.517 1421.63 261.483C1611.49 137.705 1782.67 81.1767 1919.48 57.8348L1919.48 56.9033C1781.82 80.2087 1609.67 136.847 1418.97 261.154C1241.63 376.823 1107.74 431.397 1009.83 428C896.875 424.091 849.088 342.322 807.006 270.177C771.214 208.699 740.09 155.623 676.482 152.828C645.617 151.476 610.02 162.179 567.614 185.558C519.502 212.06 468.861 225.393 412.709 226.342C297.811 228.278 176.494 177.43 48.0443 123.605C32.2231 116.993 16.4023 110.363 0.516355 103.788L0.516355 105.231C15.6243 111.477 30.6672 117.779 45.9049 124.062C174.679 178.088 296.32 229.119 412.904 227.146Z" fill="url(#paint15_linear_806_7658)"/>
<path d="M411.933 221.594C469.187 220.534 520.217 207.439 567.94 181.576C609.114 159.148 643.998 148.865 673.954 150.125C736.915 152.81 772.123 207.494 809.342 265.374C855.444 336.97 907.705 418.137 1025.52 422.028C1126.61 425.352 1261.15 371.91 1436.81 258.67C1618.04 141.778 1784.16 86.51 1919.55 62.474L1919.55 61.5425C1783.38 85.5237 1616.22 141.011 1434.21 258.342C1259.14 371.216 1125.51 424.548 1025.72 421.206C909.975 417.407 857.908 336.55 811.741 265.227C772.837 204.516 738.925 152.098 673.954 149.321C642.636 147.988 607.039 158.454 564.957 181.193C517.753 206.763 467.696 219.731 411.349 220.79C293.858 222.963 167.677 172.243 34.0405 118.509C22.8015 113.967 11.4977 109.426 0.128904 104.884L0.128904 106.418L31.7064 119.094C166.186 172.901 292.82 223.822 411.933 221.594Z" fill="url(#paint16_linear_806_7658)"/>
<path d="M410.761 216.115C468.015 214.964 518.591 202.252 565.471 177.285C606.45 155.367 641.14 145.413 671.551 146.673C735.937 149.322 774.064 203.293 814.2 260.534C864.128 331.363 920.669 411.635 1041.14 415.398C1143.85 418.594 1278.14 366.449 1451.59 255.949C1624.39 145.833 1785.32 91.7522 1919.02 67.1866L1919.02 66.2368C1784.54 90.7842 1622.64 144.975 1448.93 255.621C1276.06 365.755 1142.81 417.754 1041.47 414.521C922.873 410.868 866.397 330.852 816.729 260.296C774.453 200.316 737.948 148.518 671.551 145.797C639.779 144.482 604.116 154.637 562.423 176.846C516.127 201.558 466.265 214.124 410.047 215.201C290.092 217.649 158.919 167.02 20.0304 113.414L0.0593244 105.706L0.0593244 107.094L17.6958 113.889C157.557 167.787 289.184 218.599 410.761 216.115Z" fill="url(#paint17_linear_806_7658)"/>
<path d="M1465.01 252.99C1294.35 360.404 1161.29 411.16 1058.26 408.129C936.749 404.567 875.929 325.427 822.305 255.602C776.917 196.334 737.494 145.157 669.605 142.363C637.185 141.084 601.717 150.965 560.413 172.572C515.025 196.316 465.552 208.59 409.399 209.813C286.85 212.516 150.555 161.96 6.2843 108.427L0.70764 106.382L0.70764 107.715L3.94971 108.92C148.739 162.636 285.488 213.375 409.594 210.635C466.783 209.375 516.97 197.046 562.942 172.956C603.597 151.678 638.352 141.906 669.216 143.166C735.094 145.778 776.139 199.165 819.517 255.675C873.335 325.774 934.35 405.224 1057.94 408.841C1162.4 411.909 1296.42 361.006 1467.6 253.228C1632.36 149.541 1788.04 96.8478 1919.67 71.8438L1919.67 70.894C1787.01 95.9528 1630.35 148.774 1465.01 252.99Z" fill="url(#paint18_linear_806_7658)"/>
<path d="M408.102 205.411C465.162 204.06 514.895 192.097 560.089 168.883C600.291 148.189 635.11 138.71 666.428 139.897C733.863 142.49 777.825 195.256 824.316 251.127C882.153 320.532 947.513 399.069 1074.28 402.722C1180.36 405.644 1314.19 355.983 1483.16 250.872C1640.08 153.34 1790.38 102.144 1919.67 76.8298L1919.67 75.8618C1789.54 101.158 1638.26 152.572 1480.57 250.543C1311.98 355.289 1179.25 404.804 1074.54 401.918C949.977 398.485 884.747 320.149 827.168 251.018C778.343 192.425 736.391 141.833 666.817 139.166C634.397 137.924 598.41 147.531 557.56 168.572C512.885 191.549 463.931 203.366 407.843 204.681C285.359 207.585 147.118 159.202 0.70764 106.984L0.70764 108.245C146.535 160.298 284.516 208.315 408.102 205.411Z" fill="url(#paint19_linear_806_7658)"/>
<path d="M406.296 200.17C463.226 198.727 512.441 187.147 556.792 164.755C596.669 144.664 631.488 135.386 663.325 136.555C732.251 139.112 779.196 191.348 828.928 246.543C890.722 315.272 960.75 393.152 1090.5 396.476C1198.26 399.252 1331.77 350.815 1498.99 248.333C1648.13 156.737 1793.05 107.094 1919.75 81.5973L1919.75 80.5015C1892.55 85.9719 1866.77 91.9776 1842.58 98.4737C1722.3 130.528 1605.79 180.846 1496.4 247.986C1330.02 350.103 1197.42 398.412 1091.02 395.673C963.343 392.385 893.51 314.798 831.976 246.342C780.103 188.408 734.715 138.381 663.909 135.751C630.84 134.528 595.048 143.897 554.522 164.353C510.69 186.49 462.189 197.942 406.296 199.348C285.303 202.398 146.933 157.34 0.781859 107.113L0.781859 108.391C146.609 158.417 284.46 203.22 406.296 200.17Z" fill="url(#paint20_linear_806_7658)"/>
<path d="M404.405 194.983C461.141 193.485 509.901 182.198 553.539 160.682C593.027 141.103 627.976 132.135 660.202 133.286C730.749 135.788 780.676 187.403 833.586 242.068C899.529 310.14 974.226 387.307 1107.15 390.485C1216.54 393.097 1349.85 345.829 1514.74 245.977C1656.55 160.134 1795.82 112.081 1919.6 86.5103L1919.6 85.3779C1898.03 89.8228 1877.36 94.6034 1857.68 99.6973C1736.82 130.875 1620.56 180.061 1512.14 245.63C1347.84 345.135 1215.43 392.257 1107.34 389.682C976.43 386.54 902.058 309.683 836.374 241.849C780.935 184.535 733.018 135.039 660.591 132.482C627.003 131.295 591.211 140.39 551.01 160.299C508.021 181.613 460.233 192.7 404.275 194.179C284.903 197.357 146.987 155.276 0.641234 107.113L0.641234 108.355C146.533 156.39 284.19 198.179 404.405 194.983Z" fill="url(#paint21_linear_806_7658)"/>
<path d="M402.4 189.887C458.941 188.316 507.118 177.449 549.848 156.682C588.753 137.651 623.961 128.939 656.706 130.034C728.809 132.5 781.849 183.586 838.26 237.685C908.353 305.154 987.783 381.627 1123.95 384.641C1235.02 387.07 1368.14 340.989 1530.95 243.712C1665.56 163.349 1799.14 117.012 1920 91.46L1920 90.3276C1904.52 93.6031 1889.11 97.1403 1873.77 100.939C1752.19 131.24 1636.06 179.148 1528.62 243.402C1366.52 340.331 1234.11 386.285 1124.47 383.855C990.247 380.915 911.076 304.716 841.307 237.484C782.367 180.773 731.532 131.788 657.549 129.286C623.572 128.117 587.715 136.957 547.903 156.317C505.692 176.846 458.163 187.567 402.659 189.193C284.779 192.481 147.251 153.212 1.0354 107.003L1.0354 108.227C146.473 154.18 283.806 193.193 402.4 189.887Z" fill="url(#paint22_linear_806_7658)"/>
<path d="M400.255 184.955C456.472 183.311 504 172.809 546.082 152.828C584.987 134.326 619.871 125.852 653.069 126.929C726.793 129.34 782.751 179.896 842.405 233.466C916.712 300.368 1000.94 376.202 1140.67 379.015C1253.3 381.298 1386.22 336.349 1547.03 241.63C1674.57 166.49 1802.5 121.961 1919.6 96.5555L1919.6 95.4048C1909.58 97.5843 1899.55 99.8735 1889.52 102.272C1767.16 131.696 1651.1 178.453 1544.44 241.283C1384.21 335.673 1252.2 380.458 1140.87 378.266C1003.27 375.49 919.306 299.948 845.322 233.283C782.946 177.138 729.128 128.664 653.523 126.199C619.093 125.066 583.171 133.669 543.748 152.463C502.315 172.207 455.305 182.599 400.061 184.206C283.736 187.604 146.663 150.929 0.641235 106.674L0.641235 107.861C146.274 151.842 283.217 188.279 400.255 184.955Z" fill="url(#paint23_linear_806_7658)"/>
<path d="M397.86 179.896C453.753 178.198 500.893 168.043 542.067 148.847C580.517 130.874 615.531 122.656 649.119 123.697C724.594 126.053 783.923 176.134 846.689 229.155C925.341 295.547 1014.5 370.778 1157.6 373.444C1271.78 375.527 1404.51 331.728 1563.31 239.511C1683.98 169.449 1806.07 126.747 1919.48 101.578L1919.48 100.428C1914.94 101.432 1910.4 102.455 1905.93 103.496C1782.73 131.989 1666.6 177.65 1560.72 239.091C1402.5 330.961 1270.68 374.632 1157.79 372.549C1016.64 369.974 927.804 295.017 849.477 228.881C783.599 173.303 726.733 125.286 649.443 122.948C614.623 121.87 578.702 130.253 539.603 148.518C498.947 167.495 452.457 177.54 397.536 179.202C282.768 182.691 146.343 148.445 0.516357 106.144L0.516357 107.313C146.084 149.358 282.379 183.403 397.86 179.896Z" fill="url(#paint24_linear_806_7658)"/>
<path d="M1577.31 237.082C1421.04 326.578 1289.42 369.025 1174.97 367.143C1030.18 364.769 936.424 290.433 853.622 224.681C784.242 169.613 724.265 122.053 645.288 119.697C610.08 118.656 573.964 126.765 535.383 144.5C495.506 162.764 449.599 172.426 395.003 174.143C281.726 177.705 146.015 145.705 0.511841 105.195L0.511841 106.418C145.755 146.801 281.402 178.599 395.328 175.02C450.831 173.193 497.452 163.458 537.977 144.993C576.103 127.55 611.117 119.569 645.159 120.573C722.319 122.875 784.826 172.499 851.093 225.009C934.154 290.889 1028.24 365.646 1174.97 367.965C1290.65 369.792 1423.18 327.181 1580.03 237.448C1693.96 172.298 1810.22 131.514 1919.6 106.619L1919.6 105.578C1809.25 130.436 1691.95 171.458 1577.31 237.082Z" fill="url(#paint25_linear_806_7658)"/>
<path d="M392.546 170.179C447.661 168.353 493.763 158.91 533.38 141.176C571.183 124.244 606.261 116.5 640.692 117.432C719.603 119.678 785.417 168.846 855.056 220.9C942.655 286.323 1041.86 360.458 1192.23 362.65C1309.39 364.349 1441.73 322.761 1596.64 235.475C1703.95 175.038 1814.31 136.116 1919.42 111.715L1919.42 110.656C1813.47 135.112 1702.2 174.234 1594.11 235.128C1439.72 322.067 1308.29 363.527 1192.1 361.828C1043.55 359.673 944.665 285.793 857.455 220.626C784.379 166.052 721.289 118.929 640.627 116.628C605.029 115.624 569.302 123.496 530.398 140.701C491.493 158.216 446.104 167.586 391.703 169.339C279.982 172.992 145.308 143.075 0 104.354L-4.87003e-08 105.469C145.373 144.098 280.177 173.814 392.546 170.179Z" fill="url(#paint26_linear_806_7658)"/>
<path d="M389.561 165.412C444.287 163.586 489.805 154.454 528.645 137.413C566.123 120.975 601.266 113.487 636.021 114.418C716.748 116.61 785.868 165.358 859.073 216.955C951.212 281.94 1055.67 355.582 1209.93 357.591C1328.59 359.089 1460.67 318.578 1613.69 233.721C1714.58 177.814 1818.91 140.847 1919.48 116.975L1919.48 115.916C1818.07 139.861 1712.77 177.01 1611.16 233.356C1458.66 317.884 1327.48 358.267 1210.06 356.769C1057.68 354.833 953.611 281.446 861.732 216.699C785.025 162.6 719.082 115.879 636.345 113.651C600.359 112.683 564.372 120.318 526.116 137.011C487.86 153.705 442.86 162.855 389.107 164.645C278.878 168.298 144.982 140.39 0.0625 103.405L0.0625 104.501C144.917 141.34 278.813 169.102 389.561 165.412Z" fill="url(#paint27_linear_806_7658)"/>
<path d="M1628.41 231.566C1477.79 313.756 1346.74 353.025 1227.89 351.746C1071.62 350.048 962.043 277.1 865.625 212.736C785.222 159.093 715.713 112.775 631.484 110.601C595.109 109.67 559.122 117.067 521.255 133.249C483.388 149.431 439.361 158.089 385.997 159.915C277.389 163.568 144.4 137.523 0.453857 102.218L0.453857 103.295C144.271 138.491 277.13 164.426 386.386 160.719C440.593 158.892 485.528 150.034 523.654 133.687C560.808 117.797 595.952 110.492 631.16 111.405C713.703 113.523 786.194 161.869 862.966 213.046C959.773 277.629 1069.61 350.833 1227.76 352.55C1347.85 353.847 1479.73 314.396 1630.88 232.005C1725.35 180.499 1823.65 145.523 1919.42 122.272L1919.42 121.195C1822.87 144.445 1723.6 179.622 1628.41 231.566Z" fill="url(#paint28_linear_806_7658)"/>
<path d="M383.012 156.079C436.765 154.253 481.116 145.687 518.594 130.034C556.072 114.382 590.568 107.551 626.1 108.427C710.393 110.491 786.452 158.435 866.854 209.211C968.525 273.428 1083.75 346.194 1245.98 347.692C1367.43 348.787 1498.86 310.377 1648.38 230.27C1736.5 182.983 1828.7 150.034 1919.48 127.496L1919.48 126.509C1827.86 149.121 1734.75 182.252 1645.79 229.959C1497.04 309.756 1366.32 348.039 1246.04 346.851C1085.69 345.409 970.794 272.862 869.448 208.864C785.155 155.659 712.468 109.706 626.36 107.587C589.66 106.692 553.673 113.87 516.13 129.505C478.587 145.139 435.468 153.376 382.623 155.221C275.571 158.874 143.75 134.564 0.451538 100.884L0.451538 101.944C143.62 135.641 275.376 159.805 383.012 156.079Z" fill="url(#paint29_linear_806_7658)"/>
<path d="M379.446 151.495C432.68 149.668 476.383 141.413 513.148 126.4C549.912 111.386 584.862 104.592 620.719 105.468C707.022 107.478 786.452 155.075 870.55 205.466C977.213 269.392 1098.01 341.756 1264.39 342.961C1387.2 343.856 1518.5 306.469 1666.02 228.79C1747.98 185.576 1834.02 154.709 1919.48 132.993L1919.48 131.897C1833.11 153.705 1746.22 184.864 1663.49 228.406C1516.56 305.884 1386.03 343.107 1264.46 342.23C1099.89 341.043 979.158 268.88 873.144 205.247C785.025 152.445 708.902 106.838 620.978 104.793C583.954 103.934 547.967 110.893 510.749 126.071C474.438 140.883 431.383 148.974 378.992 150.819C273.496 154.472 142.907 131.788 0.451538 99.6786L0.451538 100.701C142.777 132.591 273.431 155.239 379.446 151.495Z" fill="url(#paint30_linear_806_7658)"/>
</g>
<defs>
<linearGradient id="paint0_linear_806_7658" x1="1919.48" y1="276" x2="0.512439" y2="276" gradientUnits="userSpaceOnUse">
<stop stop-color="#009999"/>
<stop offset="0.292462" stop-color="#009999" stop-opacity="0.25"/>
<stop offset="0.510417" stop-color="#009999" stop-opacity="0.25"/>
<stop offset="0.632393" stop-color="#009999"/>
</linearGradient>
<linearGradient id="paint1_linear_806_7658" x1="1919.42" y1="272.647" x2="0.453846" y2="272.647" gradientUnits="userSpaceOnUse">
<stop stop-color="#009999"/>
<stop offset="0.292462" stop-color="#009999" stop-opacity="0.25"/>
<stop offset="0.510417" stop-color="#009999" stop-opacity="0.25"/>
<stop offset="0.632393" stop-color="#009999"/>
</linearGradient>
<linearGradient id="paint2_linear_806_7658" x1="1919.48" y1="269.393" x2="0.516346" y2="269.393" gradientUnits="userSpaceOnUse">
<stop stop-color="#009999"/>
<stop offset="0.292462" stop-color="#009999" stop-opacity="0.25"/>
<stop offset="0.510417" stop-color="#009999" stop-opacity="0.25"/>
<stop offset="0.632393" stop-color="#009999"/>
</linearGradient>
<linearGradient id="paint3_linear_806_7658" x1="1919.87" y1="266.329" x2="0.910877" y2="266.329" gradientUnits="userSpaceOnUse">
<stop stop-color="#009999"/>
<stop offset="0.292462" stop-color="#009999" stop-opacity="0.25"/>
<stop offset="0.510417" stop-color="#009999" stop-opacity="0.25"/>
<stop offset="0.632393" stop-color="#009999"/>
</linearGradient>
<linearGradient id="paint4_linear_806_7658" x1="1919.48" y1="263.443" x2="0.516346" y2="263.443" gradientUnits="userSpaceOnUse">
<stop stop-color="#009999"/>
<stop offset="0.292462" stop-color="#009999" stop-opacity="0.25"/>
<stop offset="0.510417" stop-color="#009999" stop-opacity="0.25"/>
<stop offset="0.632393" stop-color="#009999"/>
</linearGradient>
<linearGradient id="paint5_linear_806_7658" x1="1919.75" y1="260.778" x2="0.78185" y2="260.778" gradientUnits="userSpaceOnUse">
<stop stop-color="#009999"/>
<stop offset="0.292462" stop-color="#009999" stop-opacity="0.25"/>
<stop offset="0.510417" stop-color="#009999" stop-opacity="0.25"/>
<stop offset="0.632393" stop-color="#009999"/>
</linearGradient>
<linearGradient id="paint6_linear_806_7658" x1="1919.55" y1="258.313" x2="0.582753" y2="258.312" gradientUnits="userSpaceOnUse">
<stop stop-color="#009999"/>
<stop offset="0.292462" stop-color="#009999" stop-opacity="0.25"/>
<stop offset="0.510417" stop-color="#009999" stop-opacity="0.25"/>
<stop offset="0.632393" stop-color="#009999"/>
</linearGradient>
<linearGradient id="paint7_linear_806_7658" x1="1919.48" y1="256.029" x2="0.516347" y2="256.029" gradientUnits="userSpaceOnUse">
<stop stop-color="#009999"/>
<stop offset="0.292462" stop-color="#009999" stop-opacity="0.25"/>
<stop offset="0.510417" stop-color="#009999" stop-opacity="0.25"/>
<stop offset="0.632393" stop-color="#009999"/>
</linearGradient>
<linearGradient id="paint8_linear_806_7658" x1="1919.48" y1="253.901" x2="0.321645" y2="253.901" gradientUnits="userSpaceOnUse">
<stop stop-color="#009999"/>
<stop offset="0.292462" stop-color="#009999" stop-opacity="0.25"/>
<stop offset="0.510417" stop-color="#009999" stop-opacity="0.25"/>
<stop offset="0.632393" stop-color="#009999"/>
</linearGradient>
<linearGradient id="paint9_linear_806_7658" x1="1919.48" y1="251.928" x2="0.516348" y2="251.928" gradientUnits="userSpaceOnUse">
<stop stop-color="#009999"/>
<stop offset="0.292462" stop-color="#009999" stop-opacity="0.25"/>
<stop offset="0.510417" stop-color="#009999" stop-opacity="0.25"/>
<stop offset="0.632393" stop-color="#009999"/>
</linearGradient>
<linearGradient id="paint10_linear_806_7658" x1="1919.48" y1="250.092" x2="0.256827" y2="250.092" gradientUnits="userSpaceOnUse">
<stop stop-color="#009999"/>
<stop offset="0.292462" stop-color="#009999" stop-opacity="0.25"/>
<stop offset="0.510417" stop-color="#009999" stop-opacity="0.25"/>
<stop offset="0.632393" stop-color="#009999"/>
</linearGradient>
<linearGradient id="paint11_linear_806_7658" x1="1919.75" y1="248.3" x2="0.781851" y2="248.299" gradientUnits="userSpaceOnUse">
<stop stop-color="#009999"/>
<stop offset="0.292462" stop-color="#009999" stop-opacity="0.25"/>
<stop offset="0.510417" stop-color="#009999" stop-opacity="0.25"/>
<stop offset="0.632393" stop-color="#009999"/>
</linearGradient>
<linearGradient id="paint12_linear_806_7658" x1="1919.48" y1="246.846" x2="0.516349" y2="246.846" gradientUnits="userSpaceOnUse">
<stop stop-color="#009999"/>
<stop offset="0.292462" stop-color="#009999" stop-opacity="0.25"/>
<stop offset="0.510417" stop-color="#009999" stop-opacity="0.25"/>
<stop offset="0.632393" stop-color="#009999"/>
</linearGradient>
<linearGradient id="paint13_linear_806_7658" x1="1919.6" y1="245.438" x2="0.641227" y2="245.438" gradientUnits="userSpaceOnUse">
<stop stop-color="#009999"/>
<stop offset="0.292462" stop-color="#009999" stop-opacity="0.25"/>
<stop offset="0.510417" stop-color="#009999" stop-opacity="0.25"/>
<stop offset="0.632393" stop-color="#009999"/>
</linearGradient>
<linearGradient id="paint14_linear_806_7658" x1="1919.35" y1="244.121" x2="0.517081" y2="244.121" gradientUnits="userSpaceOnUse">
<stop stop-color="#009999"/>
<stop offset="0.292462" stop-color="#009999" stop-opacity="0.25"/>
<stop offset="0.510417" stop-color="#009999" stop-opacity="0.25"/>
<stop offset="0.632393" stop-color="#009999"/>
</linearGradient>
<linearGradient id="paint15_linear_806_7658" x1="1919.48" y1="242.93" x2="0.516349" y2="242.93" gradientUnits="userSpaceOnUse">
<stop stop-color="#009999"/>
<stop offset="0.292462" stop-color="#009999" stop-opacity="0.25"/>
<stop offset="0.510417" stop-color="#009999" stop-opacity="0.25"/>
<stop offset="0.632393" stop-color="#009999"/>
</linearGradient>
<linearGradient id="paint16_linear_806_7658" x1="1919.55" y1="241.858" x2="0.128898" y2="241.858" gradientUnits="userSpaceOnUse">
<stop stop-color="#009999"/>
<stop offset="0.292462" stop-color="#009999" stop-opacity="0.25"/>
<stop offset="0.510417" stop-color="#009999" stop-opacity="0.25"/>
<stop offset="0.632393" stop-color="#009999"/>
</linearGradient>
<linearGradient id="paint17_linear_806_7658" x1="1919.02" y1="240.887" x2="0.0593185" y2="240.887" gradientUnits="userSpaceOnUse">
<stop stop-color="#009999"/>
<stop offset="0.292462" stop-color="#009999" stop-opacity="0.25"/>
<stop offset="0.510417" stop-color="#009999" stop-opacity="0.25"/>
<stop offset="0.632393" stop-color="#009999"/>
</linearGradient>
<linearGradient id="paint18_linear_806_7658" x1="1919.67" y1="239.933" x2="0.707634" y2="239.933" gradientUnits="userSpaceOnUse">
<stop stop-color="#009999"/>
<stop offset="0.292462" stop-color="#009999" stop-opacity="0.25"/>
<stop offset="0.510417" stop-color="#009999" stop-opacity="0.25"/>
<stop offset="0.632393" stop-color="#009999"/>
</linearGradient>
<linearGradient id="paint19_linear_806_7658" x1="1919.67" y1="239.353" x2="0.707634" y2="239.353" gradientUnits="userSpaceOnUse">
<stop stop-color="#009999"/>
<stop offset="0.292462" stop-color="#009999" stop-opacity="0.25"/>
<stop offset="0.510417" stop-color="#009999" stop-opacity="0.25"/>
<stop offset="0.632393" stop-color="#009999"/>
</linearGradient>
<linearGradient id="paint20_linear_806_7658" x1="1919.75" y1="238.545" x2="0.781853" y2="238.545" gradientUnits="userSpaceOnUse">
<stop stop-color="#009999"/>
<stop offset="0.292462" stop-color="#009999" stop-opacity="0.25"/>
<stop offset="0.510417" stop-color="#009999" stop-opacity="0.25"/>
<stop offset="0.632393" stop-color="#009999"/>
</linearGradient>
<linearGradient id="paint21_linear_806_7658" x1="1919.6" y1="237.983" x2="0.641229" y2="237.983" gradientUnits="userSpaceOnUse">
<stop stop-color="#009999"/>
<stop offset="0.292462" stop-color="#009999" stop-opacity="0.25"/>
<stop offset="0.510417" stop-color="#009999" stop-opacity="0.25"/>
<stop offset="0.632393" stop-color="#009999"/>
</linearGradient>
<linearGradient id="paint22_linear_806_7658" x1="1920" y1="237.53" x2="1.03552" y2="237.53" gradientUnits="userSpaceOnUse">
<stop stop-color="#009999"/>
<stop offset="0.292462" stop-color="#009999" stop-opacity="0.25"/>
<stop offset="0.510417" stop-color="#009999" stop-opacity="0.25"/>
<stop offset="0.632393" stop-color="#009999"/>
</linearGradient>
<linearGradient id="paint23_linear_806_7658" x1="1919.6" y1="237.251" x2="0.641229" y2="237.251" gradientUnits="userSpaceOnUse">
<stop stop-color="#009999"/>
<stop offset="0.292462" stop-color="#009999" stop-opacity="0.25"/>
<stop offset="0.510417" stop-color="#009999" stop-opacity="0.25"/>
<stop offset="0.632393" stop-color="#009999"/>
</linearGradient>
<linearGradient id="paint24_linear_806_7658" x1="1919.48" y1="236.972" x2="0.516351" y2="236.971" gradientUnits="userSpaceOnUse">
<stop stop-color="#009999"/>
<stop offset="0.292462" stop-color="#009999" stop-opacity="0.25"/>
<stop offset="0.510417" stop-color="#009999" stop-opacity="0.25"/>
<stop offset="0.632393" stop-color="#009999"/>
</linearGradient>
<linearGradient id="paint25_linear_806_7658" x1="1919.6" y1="236.608" x2="0.511835" y2="236.608" gradientUnits="userSpaceOnUse">
<stop stop-color="#009999"/>
<stop offset="0.292462" stop-color="#009999" stop-opacity="0.25"/>
<stop offset="0.510417" stop-color="#009999" stop-opacity="0.25"/>
<stop offset="0.632393" stop-color="#009999"/>
</linearGradient>
<linearGradient id="paint26_linear_806_7658" x1="1919.42" y1="233.527" x2="-5.64632e-06" y2="233.527" gradientUnits="userSpaceOnUse">
<stop stop-color="#009999"/>
<stop offset="0.292462" stop-color="#009999" stop-opacity="0.25"/>
<stop offset="0.510417" stop-color="#009999" stop-opacity="0.25"/>
<stop offset="0.632393" stop-color="#009999"/>
</linearGradient>
<linearGradient id="paint27_linear_806_7658" x1="1919.48" y1="230.518" x2="0.0624944" y2="230.518" gradientUnits="userSpaceOnUse">
<stop stop-color="#009999"/>
<stop offset="0.292462" stop-color="#009999" stop-opacity="0.25"/>
<stop offset="0.510417" stop-color="#009999" stop-opacity="0.25"/>
<stop offset="0.632393" stop-color="#009999"/>
</linearGradient>
<linearGradient id="paint28_linear_806_7658" x1="1919.42" y1="227.399" x2="0.453852" y2="227.399" gradientUnits="userSpaceOnUse">
<stop stop-color="#009999"/>
<stop offset="0.292462" stop-color="#009999" stop-opacity="0.25"/>
<stop offset="0.510417" stop-color="#009999" stop-opacity="0.25"/>
<stop offset="0.632393" stop-color="#009999"/>
</linearGradient>
<linearGradient id="paint29_linear_806_7658" x1="1919.48" y1="224.299" x2="0.451533" y2="224.299" gradientUnits="userSpaceOnUse">
<stop stop-color="#009999"/>
<stop offset="0.292462" stop-color="#009999" stop-opacity="0.25"/>
<stop offset="0.510417" stop-color="#009999" stop-opacity="0.25"/>
<stop offset="0.632393" stop-color="#009999"/>
</linearGradient>
<linearGradient id="paint30_linear_806_7658" x1="1919.48" y1="221.328" x2="0.451533" y2="221.328" gradientUnits="userSpaceOnUse">
<stop stop-color="#009999"/>
<stop offset="0.292462" stop-color="#009999" stop-opacity="0.25"/>
<stop offset="0.510417" stop-color="#009999" stop-opacity="0.25"/>
<stop offset="0.632393" stop-color="#009999"/>
</linearGradient>
</defs>
</svg>
