<svg width="299" height="400" viewBox="0 0 299 400" fill="none" xmlns="http://www.w3.org/2000/svg">
<path d="M157.278 5C164.483 7.50953 171.665 10.0949 178.902 12.5086C187.372 15.3294 187.512 20.0372 186.287 26.72C185.417 31.4638 184.575 36.2155 183.865 40.9872C183.598 42.4977 183.723 44.0514 184.227 45.5001C184.731 46.9487 185.598 48.2439 186.746 49.2619C190.576 52.8526 194.614 56.2678 198.089 60.1777C201.783 64.3271 206.068 64.6343 210.919 63.4812C215.931 62.2843 220.934 61.0595 225.961 59.9384C230.449 58.9369 233.609 60.3373 235.608 64.5345C238.943 71.5085 242.16 78.5384 245.259 85.6241C247.334 90.3839 246.34 93.7552 242.131 96.927C238.433 99.7198 234.602 102.329 230.84 105.03C229.978 105.649 229.148 106.307 228.311 106.957C225.171 109.391 223.483 112.443 223.766 116.572C224.165 122.393 224.289 128.23 224.668 134.055C224.864 137.072 226.723 139.19 229.184 140.71C233.07 143.104 237.108 145.25 240.922 147.748C243.156 149.212 245.411 150.896 247.03 152.971C248.012 154.227 248.503 156.653 248.004 158.157C245.367 166.025 242.354 173.765 239.466 181.557C239.229 182.105 238.939 182.629 238.6 183.121C236.166 187.059 233.812 188.04 229.224 187.238C223.359 186.213 217.487 185.243 211.606 184.322C208.813 183.879 206.387 184.609 204.376 186.716C200.702 190.558 197.047 194.424 193.237 198.13C189.184 202.072 188.633 206.608 190.113 211.819C191.374 216.263 192.371 220.784 193.305 225.308C194.45 230.794 193.445 233.176 188.382 235.633C181.432 239.005 174.366 242.153 167.252 245.181C162.692 247.12 159.588 246.13 156.635 242.165C153.787 238.342 150.886 234.54 148.313 230.531C144.91 225.232 140.353 222.926 134.062 223.636C129.581 224.127 125.045 224.135 120.544 224.482C116.954 224.757 114.161 226.477 112.266 229.605C109.558 234.052 106.812 238.49 104.027 242.919C103.457 243.813 102.803 244.652 102.076 245.424C99.9017 247.738 97.5198 249.071 94.1445 247.754C86.8952 244.929 79.5701 242.292 72.2849 239.547C71.493 239.219 70.7331 238.818 70.0147 238.35C66.3522 236.116 65.2949 233.898 65.9891 229.685C66.7871 224.857 67.6887 220.046 68.4627 215.214C68.7305 213.51 68.8771 211.788 68.9016 210.063C68.9455 207.67 68.2473 205.547 66.3881 203.827C62.4861 200.237 58.6201 196.578 54.8379 192.852C51.3708 189.441 47.413 189.105 42.9246 190.262C37.5544 191.647 32.1244 192.816 26.6904 193.933C22.8324 194.731 19.9079 193.434 18.2721 189.907C14.7 182.109 11.2768 174.244 8.0026 166.312C6.51045 162.685 7.40016 160.076 10.5201 157.754C15.0365 154.395 19.6007 151.079 24.2647 147.928C28.1028 145.33 29.8184 141.847 29.5949 137.287C29.3117 131.522 29.0962 125.749 28.7691 119.984C28.6454 117.777 27.7876 115.894 25.8047 114.645C21.3322 111.817 16.8598 108.984 12.4352 106.087C10.7197 104.963 9.07305 103.738 7.50389 102.417C5.05819 100.358 4.42782 97.7808 5.50903 94.7287C8.14224 87.3437 10.7236 79.9428 13.3209 72.5459C15.3716 66.693 19.9678 65.7993 24.9988 66.6052C30.4128 67.471 35.8388 68.2928 41.209 69.398C44.2412 70.0244 46.6151 69.1067 48.6259 67.0959C53.0412 62.6806 57.3939 58.2002 61.6842 53.6546C64.4132 50.762 64.1339 47.271 63.328 43.7122C62.1311 38.37 60.7227 33.0597 59.7652 27.6735C58.9074 22.838 59.2984 20.3405 63.9663 18.174C70.9044 14.9543 77.7308 11.4554 84.8245 8.62266C90.7214 6.26873 93.1072 6.74749 97.0131 12.2772C100.149 16.7138 103.464 21.0267 106.652 25.4433C108.627 28.1403 111.097 29.5727 114.588 29.3772C120.947 29.0141 127.315 28.8665 133.679 28.6071C136.072 28.5114 137.78 27.127 139.021 25.2478C141.973 20.7713 144.822 16.2271 147.718 11.7187C148.149 11.0484 148.676 10.442 149.079 9.75973C150.451 7.47362 152.319 5.79794 154.884 5H157.278ZM178.024 126.742C179.688 103.662 158.455 74.9038 126.05 75.0075C101.458 75.0873 75.3809 96.2687 75.0817 126.02C74.7665 156.31 99.4189 177.934 126.218 178.241C157.022 178.592 179.261 151.989 178.024 126.742Z" fill="#009999" stroke="#007373" stroke-width="10"/>
<path d="M122.966 395.992C118.769 395.485 117.899 392.357 117.381 388.934C117.113 387.171 116.834 385.407 116.527 383.648C115.956 380.368 114.372 377.875 111.101 376.662C108.077 375.541 105.116 374.192 102.044 373.279C100.738 372.973 99.3661 373.147 98.1781 373.769C95.3374 375.325 92.7082 377.256 89.9473 378.956C86.3167 381.202 84.5213 381.214 81.4333 378.21C77.9924 374.808 74.7336 371.227 71.6704 367.481C71.08 366.775 71.1278 364.952 71.6186 364.038C73.3233 360.903 75.1972 357.862 77.2321 354.93C78.9995 352.356 79.3706 349.839 77.9901 346.99C76.5578 344.026 75.4048 340.922 73.8688 338.013C73.2387 336.962 72.2451 336.179 71.076 335.811C67.968 334.945 64.7802 334.355 61.6044 333.756C57.7264 333.022 56.4457 331.785 56.33 327.816C56.1943 323.311 56.2302 318.795 56.33 314.287C56.4018 311.414 57.5708 310.05 60.3516 309.431C63.1325 308.813 66.0529 308.318 68.9136 307.811C71.85 307.285 74.0762 305.788 75.333 303.052C76.486 300.534 77.5992 297.989 78.6086 295.407C79.586 292.89 79.1512 290.512 77.7109 288.226C75.7799 285.146 74.0044 281.974 72.1253 278.862C71.2156 277.354 71.2635 275.874 72.4804 274.673C76.4701 270.719 80.5156 266.769 84.7208 263.023C85.403 262.416 87.1745 262.5 88.1799 262.911C89.966 263.612 91.6129 264.625 93.0433 265.903C98.23 270.767 103.816 270.95 109.8 267.627C110.366 267.285 110.965 267 111.588 266.777C115.641 265.508 117.365 262.636 117.835 258.534C118.151 255.809 119.1 253.156 119.75 250.467C120.11 248.987 121.115 248.073 122.543 248.073C128.302 247.978 134.06 247.956 139.819 248.009C141.794 248.009 142.46 249.653 142.847 251.201C143.733 254.789 144.531 258.397 145.241 262.025C145.604 263.873 146.49 265.149 148.213 265.907C151.716 267.447 155.206 269.013 158.682 270.603C160.158 271.277 161.451 271.002 162.768 270.156C166.243 267.978 169.758 265.875 173.241 263.713C174.884 262.688 176.432 262.859 177.769 264.144C181.308 267.535 184.911 270.878 188.246 274.469C190.444 276.835 189.946 279.596 188.278 282.169C186.478 284.962 184.687 287.727 182.84 290.476C181.842 291.972 181.611 293.488 182.357 295.16C183.953 298.751 185.477 302.429 187.205 305.98C187.717 306.869 188.549 307.529 189.531 307.827C192.391 308.625 195.308 309.236 198.228 309.778C203.383 310.732 205.102 312.571 205.114 317.758C205.114 321.991 204.975 326.228 204.715 330.453C204.604 332.448 203.251 333.705 201.344 334.139C198.124 334.87 194.881 335.508 191.637 336.134C188.916 336.645 186.798 337.962 185.696 340.551C184.252 343.946 182.808 347.353 181.635 350.844C181.296 351.85 181.571 353.35 182.114 354.315C183.933 357.539 185.98 360.631 187.975 363.751C189.315 365.858 189.343 367.888 187.548 369.684C183.957 373.275 180.322 376.865 176.62 380.352C175.343 381.549 173.767 381.617 172.231 380.636C169.546 378.94 166.689 377.472 164.188 375.541C161.02 373.095 157.84 373.031 154.393 374.571C152.825 375.273 151.285 376.055 149.689 376.686C145.496 378.341 143.729 381.585 143.246 385.862C142.927 388.153 142.453 390.419 141.826 392.645C141.319 394.639 140.166 395.9 137.836 395.653C137.146 395.577 136.416 395.872 135.701 396L122.966 395.992ZM130.579 351.594C135.765 352.085 140.649 351.754 144.886 348.802C147.676 346.802 150.341 344.633 152.865 342.306C161.519 334.514 162.955 319.354 159.001 310.057C152.801 295.479 136.946 288.389 123.916 291.433C110.885 294.478 101.517 305.729 100.452 316.058C99.9176 321.245 99.5825 326.571 101.286 331.646C103.512 338.301 108.001 343.3 113.614 347.333C118.495 350.912 124.582 352.441 130.575 351.594H130.579Z" fill="#009999" stroke="#007373" stroke-width="8"/>
<path d="M199.505 286.327C199.82 285.49 200.199 284.679 200.638 283.901C201.146 283.041 201.802 282.278 202.577 281.647C207.364 278.132 206.108 273.596 204.755 269.075C204.073 266.793 202.206 265.62 200.135 264.73C198.256 263.932 196.277 263.27 194.549 262.205C193.712 261.69 192.806 260.346 192.886 259.456C193.22 255.909 193.753 252.383 194.482 248.895C194.613 248.221 195.619 247.371 196.341 247.236C198.557 246.867 200.792 246.622 203.036 246.501C205.749 246.294 207.552 244.778 208.893 242.584C210.089 240.589 212.016 238.658 212.184 236.599C212.348 234.604 210.732 232.41 209.79 230.339C207.612 225.448 207.672 224.977 211.853 221.717C213.784 220.213 215.843 218.865 217.81 217.412C218.755 216.714 219.565 216.75 220.475 217.528C222.39 219.168 224.365 220.72 226.308 222.316C227.704 223.469 229.232 224.123 231.071 223.668C233.118 223.166 235.181 222.719 237.2 222.132C239.51 221.466 240.714 219.738 241.445 217.528C242.028 215.775 242.699 214.052 243.455 212.365C244.186 210.738 245.506 210 247.333 210.339C250.449 210.921 253.569 211.488 256.681 212.082C258.122 212.353 258.991 213.08 259.075 214.711C259.223 217.105 259.65 219.443 259.805 221.817C259.917 223.501 260.368 224.678 261.96 225.679C269.728 230.562 269.021 230.626 276.873 226.848C279.862 225.408 280.691 225.583 282.898 228.145C284.665 230.195 286.209 232.438 287.857 234.588C289.018 236.1 288.994 237.533 287.737 239.013C285.894 241.187 284.067 243.377 282.359 245.656C281.882 246.345 281.673 247.185 281.773 248.017C282.068 249.829 282.698 251.58 283.089 253.38C283.744 256.396 285.483 258.223 288.515 259.005C290.215 259.44 291.787 260.366 293.435 261.032C294.815 261.594 295.338 262.708 295.214 264.052C294.915 267.28 294.58 270.508 294.097 273.711C293.802 275.646 292.529 276.668 290.506 276.727C288.783 276.779 287.059 276.919 285.347 277.126C283.153 277.374 281.29 278.283 279.965 280.123C279.502 280.769 279.096 281.459 278.593 282.07C275.852 285.405 275.72 288.709 277.663 292.682C280.731 298.946 280.504 298.216 275.425 302.429C273.953 303.65 272.313 304.671 270.773 305.812C269.233 306.954 267.908 306.846 266.524 305.553C264.972 304.109 263.256 302.832 261.736 301.344C260.005 299.636 257.982 299.616 255.82 299.96C255.756 299.96 255.7 300.027 255.636 300.031C249.683 300.534 246.563 303.83 245.793 309.691C245.53 311.685 243.471 313.221 241.469 312.99C237.991 312.615 234.539 312.033 231.131 311.247C230.301 311.051 229.408 309.651 229.192 308.669C228.793 306.81 228.849 304.847 228.721 302.924C228.724 302.459 228.692 301.995 228.626 301.536C227.628 296.963 219.194 292.794 214.973 294.797C213.13 295.671 211.362 296.72 209.483 297.506C208.877 297.761 207.779 297.705 207.321 297.314C204.129 294.565 201.504 291.33 199.868 287.396C199.74 287.073 199.652 286.766 199.505 286.327ZM244.493 282.684C255.939 282.684 265.271 273.336 265.339 261.798C265.407 250.148 255.676 240.393 243.906 240.489C233.11 240.581 222.916 249.925 223.104 262.033C223.244 271.321 230.688 283.307 244.493 282.684Z" fill="#009999" stroke="#007373" stroke-width="6"/>
</svg>
