<svg width="563" height="600" viewBox="0 0 563 600" fill="none" xmlns="http://www.w3.org/2000/svg">
<path d="M265.379 219.564L280.359 194.645C280.956 193.651 281.927 192.938 283.054 192.665L308.406 186.541C309.562 186.262 310.552 185.52 311.145 184.488L317.376 173.646L361.367 195.723L356.398 207.199C355.925 208.29 355.922 209.528 356.389 210.621L366.63 234.608C367.085 235.674 367.094 236.879 366.654 237.952L355.626 264.854C354.67 267.188 351.932 268.215 349.68 267.084L314.213 249.286L314.942 247.834L335.581 206.707C335.603 206.665 335.623 206.622 335.642 206.579C335.909 205.969 335.88 206.112 335.581 206.707L314.213 249.286L302.611 243.463L267.145 225.664C264.893 224.534 264.08 221.725 265.379 219.564Z" fill="#009999"/>
<path d="M317.376 173.646L315.34 162.63L371.416 190.772L361.367 195.723L317.376 173.646Z" fill="#006464"/>
<path d="M315.34 162.63L319.104 155.13L375.18 183.273L371.416 190.772L315.34 162.63Z" fill="#009999"/>
<path d="M319.104 155.13L333.02 152.12L369.276 170.316L375.18 183.273L319.104 155.13Z" fill="#00C1C1"/>
<path d="M350.941 146.773L339.647 143.137L342.802 138.859L351.447 145.837C351.914 146.213 351.512 146.957 350.941 146.773Z" fill="#006464"/>
<path d="M348.288 131.422L351.443 127.144L360.088 134.122C360.555 134.499 360.153 135.242 359.582 135.059L348.288 131.422Z" fill="#006464"/>
<path d="M357.255 119.265L360.41 114.987L367.035 120.956C367.461 121.339 367.077 122.034 366.526 121.879L357.255 119.265Z" fill="#006464"/>
<path d="M362.367 112.335L372.76 117.551L383.637 123.01L382.68 126.163L373.935 124.418C373.373 124.306 373.045 125.029 373.499 125.378L381.136 131.25L378.292 140.618L367.53 137.857C366.95 137.708 366.593 138.474 367.082 138.822L376.748 145.705L374.063 154.547L363.302 151.786C362.721 151.637 362.365 152.404 362.853 152.751L372.519 159.634L369.276 170.316L333.02 152.12L339.647 143.137L350.941 146.773C351.512 146.957 351.914 146.213 351.447 145.837L342.802 138.859L348.288 131.422L359.582 135.059C360.153 135.242 360.555 134.499 360.088 134.122L351.443 127.144L357.255 119.265L366.526 121.879C367.077 122.034 367.461 121.339 367.035 120.956L360.41 114.987L362.367 112.335Z" fill="#009999"/>
<path d="M382.68 126.163L381.136 131.25L373.499 125.378C373.045 125.029 373.373 124.306 373.935 124.418L382.68 126.163Z" fill="#006464"/>
<path d="M378.292 140.618L376.748 145.705L367.082 138.822C366.593 138.474 366.95 137.708 367.53 137.857L378.292 140.618Z" fill="#006464"/>
<path d="M372.519 159.634L362.853 152.751C362.365 152.404 362.721 151.637 363.302 151.786L374.063 154.547L372.519 159.634Z" fill="#006464"/>
<path d="M314.213 249.286L335.581 206.707C335.88 206.112 335.909 205.969 335.642 206.579C335.623 206.622 335.603 206.665 335.581 206.707L314.942 247.834L314.213 249.286Z" fill="#006464"/>
<path d="M207.376 335.146L196.349 362.049C195.909 363.122 195.918 364.326 196.373 365.393L206.614 389.379C207.081 390.473 207.077 391.71 206.605 392.802L201.635 404.278L245.626 426.355L251.858 415.512C252.451 414.481 253.441 413.739 254.596 413.459L279.949 407.335C281.075 407.063 282.046 406.35 282.644 405.356L297.623 380.437C298.923 378.276 298.11 375.467 295.858 374.336L260.391 356.538L259.663 357.989L239.023 399.116C238.353 400.452 236.727 400.992 235.392 400.322L228.624 396.925C227.289 396.255 226.751 394.629 227.421 393.293L248.061 352.167L248.789 350.715L213.323 332.916C211.071 331.786 208.333 332.813 207.376 335.146Z" fill="#009999"/>
<path d="M201.635 404.278L191.586 409.228L247.663 437.371L245.626 426.355L201.635 404.278Z" fill="#006464"/>
<path d="M191.586 409.228L187.823 416.728L243.899 444.87L247.663 437.371L191.586 409.228Z" fill="#009999"/>
<path d="M187.823 416.728L193.726 429.685L229.982 447.88L243.899 444.87L187.823 416.728Z" fill="#00C1C1"/>
<path d="M200.149 447.249L190.483 440.367L188.939 445.454L199.701 448.215C200.281 448.364 200.638 447.597 200.149 447.249Z" fill="#006464"/>
<path d="M186.255 454.296L184.711 459.383L195.472 462.144C196.053 462.293 196.409 461.526 195.921 461.178L186.255 454.296Z" fill="#006464"/>
<path d="M181.867 468.751L180.323 473.837L189.068 475.582C189.629 475.694 189.958 474.971 189.504 474.622L181.867 468.751Z" fill="#006464"/>
<path d="M179.366 476.991L189.759 482.207L200.636 487.666L202.592 485.013L195.967 479.045C195.542 478.662 195.925 477.966 196.476 478.121L205.748 480.735L211.559 472.857L202.914 465.879C202.448 465.502 202.85 464.758 203.42 464.942L214.715 468.579L220.2 461.142L211.555 454.164C211.089 453.787 211.49 453.044 212.061 453.227L223.356 456.864L229.982 447.88L193.726 429.685L190.483 440.367L200.149 447.249C200.638 447.597 200.281 448.364 199.701 448.215L188.939 445.454L186.255 454.296L195.921 461.178C196.409 461.526 196.053 462.293 195.472 462.144L184.711 459.383L181.867 468.751L189.504 474.622C189.958 474.971 189.629 475.694 189.068 475.582L180.323 473.837L179.366 476.991Z" fill="#009999"/>
<path d="M202.592 485.013L205.748 480.735L196.476 478.121C195.925 477.966 195.542 478.662 195.967 479.045L202.592 485.013Z" fill="#006464"/>
<path d="M211.559 472.857L214.715 468.579L203.42 464.942C202.85 464.758 202.448 465.502 202.914 465.879L211.559 472.857Z" fill="#006464"/>
<path d="M223.356 456.864L212.061 453.227C211.49 453.044 211.089 453.787 211.555 454.164L220.2 461.142L223.356 456.864Z" fill="#006464"/>
<path d="M248.061 352.167L227.421 393.293C226.751 394.629 227.289 396.255 228.624 396.925L235.392 400.322C236.727 400.992 238.353 400.452 239.023 399.116L259.663 357.989L248.061 352.167Z" fill="#006464"/>
<path d="M245.276 301.959C246.762 298.997 250.368 297.801 253.329 299.287C256.291 300.774 257.487 304.38 256.001 307.341L237.162 344.879L226.437 339.497L245.276 301.959Z" fill="white"/>
<path d="M291.752 325.283C293.238 322.321 296.844 321.125 299.806 322.612C302.768 324.098 303.964 327.704 302.477 330.665L283.639 368.204L272.914 362.821L291.752 325.283Z" fill="white"/>
<line x1="189.999" y1="482.328" x2="145.593" y2="570.811" stroke="#006464" stroke-width="9"/>
<line x1="417.409" y1="29.1893" x2="373.003" y2="117.672" stroke="#006464" stroke-width="9"/>
<rect x="392.352" y="338.848" width="46" height="6" rx="3" transform="rotate(26.6499 392.352 338.848)" fill="#006464" fill-opacity="0.65"/>
<rect x="142.992" y="213.706" width="46" height="6" rx="3" transform="rotate(26.6499 142.992 213.706)" fill="#006464" fill-opacity="0.65"/>
<rect x="403.012" y="279.473" width="46" height="6" rx="3" transform="rotate(-3.3501 403.012 279.473)" fill="#006464" fill-opacity="0.65"/>
<rect x="124.488" y="295.776" width="46" height="6" rx="3" transform="rotate(-3.3501 124.488 295.776)" fill="#006464" fill-opacity="0.65"/>
<rect x="353.438" y="384.941" width="46" height="6" rx="3" transform="rotate(56.6499 353.438 384.941)" fill="#006464" fill-opacity="0.65"/>
<rect x="200.055" y="151.885" width="46" height="6" rx="3" transform="rotate(56.6499 200.055 151.885)" fill="#006464" fill-opacity="0.65"/>
</svg>
